<svg id="Layer_1" data-name="Layer 1" xmlns="http://www.w3.org/2000/svg" viewBox="0 0 200 200"><defs><style>.cls-1,.cls-5,.cls-8{fill:none;}.cls-1{stroke:#97d0af;stroke-width:38px;}.cls-1,.cls-2,.cls-5,.cls-6,.cls-7,.cls-8{stroke-miterlimit:10;}.cls-2{stroke:#231f20;}.cls-3,.cls-9{fill:#f04e68;}.cls-4{fill:#fff;}.cls-5,.cls-6{stroke:#f04d68;}.cls-5{stroke-width:2px;}.cls-6,.cls-7{fill:#f04d68;}.cls-6{stroke-width:3px;}.cls-7,.cls-8{stroke:#fff;}.cls-7{opacity:0.7;}.cls-8{opacity:0.5;}.cls-9{font-size:8px;font-family:AvenirNext-Regular, Avenir Next;}.cls-10{letter-spacing:-0.02em;}.cls-11{letter-spacing:0em;}.cls-12{letter-spacing:-0.01em;}.cls-13{letter-spacing:0em;}.cls-14{letter-spacing:-0.02em;}</style></defs><title>Bahaar Rokhva Resume 2020</title><line class="cls-1" x1="-210.62" y1="-13.86" x2="-1.4" y2="-101.88"/><rect class="cls-2" y="-0.71" width="200" height="200"/><polygon class="cls-3" points="24.36 24.36 24.36 39 24.45 39 30.37 24.36 24.36 24.36"/><polygon class="cls-3" points="34.98 24.36 41.09 39 41.09 24.36 34.98 24.36"/><polygon class="cls-3" points="32.72 29.55 30.02 36.14 33.03 36.14 34.26 39 36.79 39 32.72 29.55"/><path class="cls-4" d="M27.52,87.22h3l3.31,8.49h-3.1l-.45-1.25h-2.7l-.42,1.25h-3Zm1.47,3-.69,2.1h1.38Z"/><path class="cls-4" d="M34.06,92.53a4.06,4.06,0,0,1,.18-1.2,3.51,3.51,0,0,1,.55-1,2.65,2.65,0,0,1,.9-.76,2.62,2.62,0,0,1,1.25-.29,2.5,2.5,0,0,1,.91.18,1.74,1.74,0,0,1,.73.49h0V86.64h2.78v9.07h-2.5v-.66h0a1.89,1.89,0,0,1-.81.61,2.78,2.78,0,0,1-1.11.22,2.62,2.62,0,0,1-1.25-.29,2.65,2.65,0,0,1-.9-.76,3.61,3.61,0,0,1-.55-1.07A4.26,4.26,0,0,1,34.06,92.53Zm2.56,0a1.09,1.09,0,0,0,.27.76.93.93,0,0,0,.77.31,1,1,0,0,0,.78-.31,1.06,1.06,0,0,0,.3-.76,1,1,0,0,0-.3-.73,1,1,0,0,0-.78-.31.93.93,0,0,0-.77.31A1.08,1.08,0,0,0,36.62,92.53Z"/><path class="cls-4" d="M49.58,92.53A3.47,3.47,0,0,1,49.29,94a3.22,3.22,0,0,1-.79,1.08,3.45,3.45,0,0,1-1.15.66A4,4,0,0,1,46,96a3.89,3.89,0,0,1-1.36-.23,3.36,3.36,0,0,1-1.15-.66A3.06,3.06,0,0,1,42.68,94a3.61,3.61,0,0,1,0-2.88A3,3,0,0,1,43.46,90a3.36,3.36,0,0,1,1.15-.66A4.12,4.12,0,0,1,46,89.16a4.24,4.24,0,0,1,1.38.22A3.45,3.45,0,0,1,48.5,90a3.13,3.13,0,0,1,.79,1.06A3.45,3.45,0,0,1,49.58,92.53ZM46,91.5a1,1,0,0,0-.74.31,1,1,0,0,0-.28.73,1.09,1.09,0,0,0,.29.76,1.05,1.05,0,0,0,1.49,0,1.09,1.09,0,0,0,.29-.76,1,1,0,0,0-.3-.73A1,1,0,0,0,46,91.5Z"/><path class="cls-4" d="M57.91,92.53a4.26,4.26,0,0,1-.18,1.23,3.61,3.61,0,0,1-.55,1.07,2.65,2.65,0,0,1-.9.76,2.61,2.61,0,0,1-1.24.29,2.87,2.87,0,0,1-1.12-.22,1.8,1.8,0,0,1-.8-.61h0v.66H50.6V86.64h2.78V89.9h0a1.74,1.74,0,0,1,.73-.49,2.46,2.46,0,0,1,.91-.18,2.61,2.61,0,0,1,1.24.29,2.65,2.65,0,0,1,.9.76,3.51,3.51,0,0,1,.55,1A4.06,4.06,0,0,1,57.91,92.53Zm-2.57,0a1.12,1.12,0,0,0-.26-.73,1,1,0,0,0-.77-.31,1,1,0,0,0-.79.31,1.05,1.05,0,0,0-.29.73,1.09,1.09,0,0,0,.29.76,1,1,0,0,0,.79.31,1,1,0,0,0,.77-.31A1.13,1.13,0,0,0,55.34,92.53Z"/><path class="cls-4" d="M65.52,92.62c0,.1,0,.21,0,.31s0,.2,0,.27H61.25a.44.44,0,0,0,.11.3.92.92,0,0,0,.25.23,1.3,1.3,0,0,0,.34.15,1.58,1.58,0,0,0,.38,0,1.38,1.38,0,0,0,.64-.13,1.44,1.44,0,0,0,.39-.31l2,1a3,3,0,0,1-1.22,1.08,4.18,4.18,0,0,1-1.86.39,4.3,4.3,0,0,1-1.33-.21,3.39,3.39,0,0,1-1.14-.65A3.06,3.06,0,0,1,59,94a3.72,3.72,0,0,1,0-2.88,3,3,0,0,1,.75-1.07,3.29,3.29,0,0,1,1.11-.68,3.93,3.93,0,0,1,1.38-.24,3.49,3.49,0,0,1,1.35.26,3,3,0,0,1,1,.72,3.24,3.24,0,0,1,.68,1.1A3.85,3.85,0,0,1,65.52,92.62Zm-2.39-.9a.7.7,0,0,0-.25-.56,1.14,1.14,0,0,0-1.37,0,1,1,0,0,0-.29.52Z"/><path class="cls-4" d="M71.79,87.22h3l3.31,8.49H75l-.45-1.25h-2.7l-.42,1.25h-3Zm1.48,3-.7,2.1H74Z"/><path class="cls-4" d="M78.59,89.4h2.7v.7h0a2,2,0,0,1,.71-.61,2.5,2.5,0,0,1,2.18,0,2,2,0,0,1,.69.62,2.4,2.4,0,0,1,.36.85,4.2,4.2,0,0,1,.1.93v3.84H82.58V92.35a1.12,1.12,0,0,0-.15-.67.53.53,0,0,0-.45-.19.55.55,0,0,0-.45.22,1.06,1.06,0,0,0-.17.64v3.36H78.59Z"/><path class="cls-4" d="M89.93,91.7a.48.48,0,0,0-.2-.42.91.91,0,0,0-.52-.14,1.66,1.66,0,0,0-.73.16,3.32,3.32,0,0,0-.61.38l-1.38-1.37a4,4,0,0,1,1.37-.85,4.57,4.57,0,0,1,1.63-.3,3.77,3.77,0,0,1,1.49.25,2.29,2.29,0,0,1,.93.7,2.58,2.58,0,0,1,.48,1,5.57,5.57,0,0,1,.14,1.25v3.32H90v-.5h0a1.29,1.29,0,0,1-.69.51,2.42,2.42,0,0,1-.86.16,2.91,2.91,0,0,1-.76-.11,2.05,2.05,0,0,1-.71-.35,1.76,1.76,0,0,1-.52-.62,2,2,0,0,1-.21-1,1.6,1.6,0,0,1,.35-1.07,2.22,2.22,0,0,1,.87-.65,4.17,4.17,0,0,1,1.18-.32,11.13,11.13,0,0,1,1.28-.08Zm0,1.4a2.9,2.9,0,0,0-1,.13.5.5,0,0,0-.38.49.38.38,0,0,0,.06.22.57.57,0,0,0,.16.15.67.67,0,0,0,.21.09l.21,0a.84.84,0,0,0,.64-.25.9.9,0,0,0,.24-.65V93.1Z"/><path class="cls-4" d="M93.67,86.64H96.5v9.07H93.67Z"/><path class="cls-4" d="M99.6,95.46,97,89.4h3.07l.94,3.32h0l.83-3.32h3l-2.59,6.7a6.42,6.42,0,0,1-.52,1.05,3.17,3.17,0,0,1-.67.78,2.58,2.58,0,0,1-.91.49,3.68,3.68,0,0,1-1.21.17,3.39,3.39,0,0,1-.45,0l-.44,0-.39-.06-.3-.07.35-2.29a2.58,2.58,0,0,0,.38.1,2,2,0,0,0,.4,0,1.06,1.06,0,0,0,.68-.18,1.15,1.15,0,0,0,.33-.48Z"/><path class="cls-4" d="M108.18,95.88a2.75,2.75,0,0,1-1.89-.55,2.18,2.18,0,0,1-.61-1.69V91.38h-.89v-2h.88V88h2.69V89.4h1.37v2h-1.37v1.68a.76.76,0,0,0,.2.62.81.81,0,0,0,.54.16l.28,0,.23,0v1.89a2.31,2.31,0,0,1-.61.16A5.36,5.36,0,0,1,108.18,95.88Z"/><path class="cls-4" d="M110.45,87.58a1.26,1.26,0,0,1,.11-.55,1.57,1.57,0,0,1,.31-.45,1.62,1.62,0,0,1,.46-.31,1.56,1.56,0,0,1,.57-.11,1.41,1.41,0,0,1,.54.11,1.51,1.51,0,0,1,.76.76,1.43,1.43,0,0,1,0,1.1,1.44,1.44,0,0,1-.31.45,1.51,1.51,0,0,1-.45.29,1.41,1.41,0,0,1-.54.11,1.52,1.52,0,0,1-1-.4,1.44,1.44,0,0,1-.31-.45A1.26,1.26,0,0,1,110.45,87.58Zm0,1.82h2.78v6.31h-2.78Z"/><path class="cls-4" d="M118,96a4.32,4.32,0,0,1-1.47-.24,3.57,3.57,0,0,1-1.17-.68,3.19,3.19,0,0,1-.77-1.07,3.5,3.5,0,0,1-.27-1.4,3.33,3.33,0,0,1,.28-1.4,3.15,3.15,0,0,1,.79-1.08,3.61,3.61,0,0,1,1.18-.68,4.36,4.36,0,0,1,1.47-.24,4.87,4.87,0,0,1,.65,0c.22,0,.43.09.64.15a6,6,0,0,1,.56.22,2.56,2.56,0,0,1,.44.26l-1.38,2a.94.94,0,0,0-.38-.25,1.2,1.2,0,0,0-.45-.09,1,1,0,0,0-.39.07,1.05,1.05,0,0,0-.69,1,1,1,0,0,0,.1.46.87.87,0,0,0,.24.32,1.1,1.1,0,0,0,.35.2,1.28,1.28,0,0,0,.86,0,1,1,0,0,0,.37-.24l1.39,1.93a3.47,3.47,0,0,1-1,.53A4.16,4.16,0,0,1,118,96Z"/><path class="cls-4" d="M126,93.71a2,2,0,0,1-.27,1.07,2.24,2.24,0,0,1-.68.69,3,3,0,0,1-.9.37,4.52,4.52,0,0,1-.93.11,5.73,5.73,0,0,1-1.6-.23,4.38,4.38,0,0,1-1.37-.67l1.36-1.57a2.25,2.25,0,0,0,.68.43,2.11,2.11,0,0,0,.75.16.66.66,0,0,0,.27-.06.19.19,0,0,0,.12-.19c0-.11-.07-.19-.22-.25a6.49,6.49,0,0,0-.77-.22,3.67,3.67,0,0,1-.61-.21,2.15,2.15,0,0,1-.57-.37,1.72,1.72,0,0,1-.6-1.34,2,2,0,0,1,.27-1.05,2.3,2.3,0,0,1,.69-.7,2.8,2.8,0,0,1,.9-.39,3.39,3.39,0,0,1,.91-.13,4.88,4.88,0,0,1,1.46.22,4.5,4.5,0,0,1,1.29.6l-1.29,1.54a3.93,3.93,0,0,0-.62-.3,1.86,1.86,0,0,0-.61-.1.79.79,0,0,0-.33,0,.22.22,0,0,0-.14.21c0,.08.05.14.15.19a4.72,4.72,0,0,0,.69.17,3.53,3.53,0,0,1,.72.22,2.44,2.44,0,0,1,.64.39,1.68,1.68,0,0,1,.44.57A1.62,1.62,0,0,1,126,93.71Z"/><path class="cls-4" d="M28.86,110.11V106.8a1.54,1.54,0,0,0-.12-.7.42.42,0,0,0-.4-.21.55.55,0,0,0-.39.19,1,1,0,0,0-.18.68v3.35H25V103.8h2.7v.7h0a2.09,2.09,0,0,1,.29-.31,3.13,3.13,0,0,1,.4-.28,2.27,2.27,0,0,1,.5-.2,2.23,2.23,0,0,1,.6-.08,2.6,2.6,0,0,1,1.08.22,1.71,1.71,0,0,1,.72.69,2.69,2.69,0,0,1,.77-.64,2.2,2.2,0,0,1,1.15-.27,2.07,2.07,0,0,1,1.11.27,2,2,0,0,1,.69.66,2.28,2.28,0,0,1,.36.85,4,4,0,0,1,.11.86v3.84H32.72v-3.36a1.36,1.36,0,0,0-.12-.69.48.48,0,0,0-.39-.17.49.49,0,0,0-.41.22,1.09,1.09,0,0,0-.17.65v3.35Z"/><path class="cls-4" d="M43.66,106.93a3.32,3.32,0,0,1-.3,1.45,3.09,3.09,0,0,1-.79,1.08,3.45,3.45,0,0,1-1.15.66,4,4,0,0,1-1.38.23,3.93,3.93,0,0,1-1.36-.23,3.31,3.31,0,0,1-1.14-.66,3.22,3.22,0,0,1-.79-1.08,3.72,3.72,0,0,1,0-2.88,3.13,3.13,0,0,1,.79-1.06,3.31,3.31,0,0,1,1.14-.66,4.17,4.17,0,0,1,1.36-.22,4.24,4.24,0,0,1,1.38.22,3.45,3.45,0,0,1,1.15.66,3,3,0,0,1,.79,1.06A3.3,3.3,0,0,1,43.66,106.93Zm-3.62-1a.92.92,0,0,0-.73.31,1.05,1.05,0,0,0-.29.73,1.09,1.09,0,0,0,.29.76,1.05,1.05,0,0,0,1.49,0,1.09,1.09,0,0,0,.29-.76,1,1,0,0,0-.3-.73A1,1,0,0,0,40,105.9Z"/><path class="cls-4" d="M52,106.93a4.26,4.26,0,0,1-.18,1.23,3.61,3.61,0,0,1-.55,1.07,2.65,2.65,0,0,1-.9.76,2.58,2.58,0,0,1-1.24.29,2.78,2.78,0,0,1-1.11-.22,1.83,1.83,0,0,1-.81-.61h0v.66H44.68V101h2.77v3.26h0a1.74,1.74,0,0,1,.73-.49,2.46,2.46,0,0,1,.91-.18,2.65,2.65,0,0,1,1.25.29,2.71,2.71,0,0,1,.89.76,3.51,3.51,0,0,1,.55,1A4.06,4.06,0,0,1,52,106.93Zm-2.56,0a1.08,1.08,0,0,0-.27-.73.93.93,0,0,0-.77-.31,1,1,0,0,0-.78.31,1,1,0,0,0-.3.73,1.06,1.06,0,0,0,.3.76,1,1,0,0,0,.78.31.93.93,0,0,0,.77-.31A1.09,1.09,0,0,0,49.42,106.93Z"/><path class="cls-4" d="M53,102a1.26,1.26,0,0,1,.11-.55,1.57,1.57,0,0,1,.31-.45,1.67,1.67,0,0,1,.47-.31,1.47,1.47,0,0,1,.56-.11,1.41,1.41,0,0,1,.54.11,1.57,1.57,0,0,1,.45.31,1.39,1.39,0,0,1,.31.45,1.43,1.43,0,0,1,0,1.1,1.29,1.29,0,0,1-.31.45,1.51,1.51,0,0,1-.45.29,1.41,1.41,0,0,1-.54.11,1.47,1.47,0,0,1-.56-.11,1.61,1.61,0,0,1-.47-.29,1.44,1.44,0,0,1-.31-.45A1.26,1.26,0,0,1,53,102ZM53,103.8h2.77v6.31H53Z"/><path class="cls-4" d="M57.07,101H59.9v9.07H57.07Z"/><path class="cls-4" d="M67.76,107v.31c0,.11,0,.2,0,.27H63.49a.51.51,0,0,0,.12.3.79.79,0,0,0,.25.23,1.24,1.24,0,0,0,.33.15,1.64,1.64,0,0,0,.38,0,1.35,1.35,0,0,0,.64-.13,1.44,1.44,0,0,0,.39-.31l2,1A3,3,0,0,1,66.35,110a4.16,4.16,0,0,1-1.85.39,4.25,4.25,0,0,1-1.33-.21,3.43,3.43,0,0,1-1.15-.65,3.06,3.06,0,0,1-.8-1.06,3.72,3.72,0,0,1,0-2.88,3,3,0,0,1,.75-1.07,3.33,3.33,0,0,1,1.12-.68,3.83,3.83,0,0,1,1.37-.24,3.46,3.46,0,0,1,1.35.26,3,3,0,0,1,1,.72,3.09,3.09,0,0,1,.68,1.1A3.85,3.85,0,0,1,67.76,107Zm-2.38-.9a.73.73,0,0,0-.25-.56,1,1,0,0,0-.67-.21,1,1,0,0,0-.71.25.93.93,0,0,0-.28.52Z"/><path class="cls-4" d="M75.08,106.1a.46.46,0,0,0-.2-.42.89.89,0,0,0-.52-.14,1.61,1.61,0,0,0-.72.16,3.32,3.32,0,0,0-.61.38l-1.38-1.37a3.92,3.92,0,0,1,1.37-.85,4.57,4.57,0,0,1,1.63-.3,3.77,3.77,0,0,1,1.49.25,2.29,2.29,0,0,1,.93.7,2.58,2.58,0,0,1,.48,1,5.57,5.57,0,0,1,.14,1.25v3.32H75.18v-.5h0a1.26,1.26,0,0,1-.68.51,2.46,2.46,0,0,1-.86.16,3,3,0,0,1-.77-.11,2,2,0,0,1-.7-.35,1.79,1.79,0,0,1-.53-.62,2.09,2.09,0,0,1-.2-1,1.6,1.6,0,0,1,.34-1.07,2.37,2.37,0,0,1,.87-.65,4.26,4.26,0,0,1,1.18-.32,11.42,11.42,0,0,1,1.28-.08Zm0,1.4a3,3,0,0,0-1,.13.5.5,0,0,0-.37.49.38.38,0,0,0,.06.22.46.46,0,0,0,.16.15.67.67,0,0,0,.21.09.76.76,0,0,0,.21,0,.82.82,0,0,0,.63-.25.9.9,0,0,0,.24-.65v-.21Z"/><path class="cls-4" d="M83.27,110.28a2.73,2.73,0,0,1-.93-.17,2,2,0,0,1-.74-.49h0V113H78.83V103.8h2.6v.64h0a2.24,2.24,0,0,1,.84-.6,2.45,2.45,0,0,1,1-.21,2.62,2.62,0,0,1,1.25.29,2.65,2.65,0,0,1,.9.76,3.51,3.51,0,0,1,.55,1,4.06,4.06,0,0,1,.18,1.2,4.26,4.26,0,0,1-.18,1.23,3.61,3.61,0,0,1-.55,1.07,2.71,2.71,0,0,1-.89.76A2.61,2.61,0,0,1,83.27,110.28Zm.3-3.35a1.08,1.08,0,0,0-.27-.73.93.93,0,0,0-.77-.31,1,1,0,0,0-.78.31,1,1,0,0,0-.3.73,1.06,1.06,0,0,0,.3.76,1,1,0,0,0,.78.31.93.93,0,0,0,.77-.31A1.09,1.09,0,0,0,83.57,106.93Z"/><path class="cls-4" d="M91.59,110.28a2.67,2.67,0,0,1-.92-.17,2,2,0,0,1-.74-.49h0V113H87.15V103.8h2.61v.64h0a2.1,2.1,0,0,1,.84-.6,2.45,2.45,0,0,1,1-.21,2.62,2.62,0,0,1,2.15,1.05,3.51,3.51,0,0,1,.55,1,4.06,4.06,0,0,1,.18,1.2,4.26,4.26,0,0,1-.18,1.23,3.61,3.61,0,0,1-.55,1.07,2.71,2.71,0,0,1-.89.76A2.62,2.62,0,0,1,91.59,110.28Zm.3-3.35a1.07,1.07,0,0,0-.26-.73,1,1,0,0,0-.77-.31,1,1,0,0,0-.78.31,1,1,0,0,0-.3.73,1.06,1.06,0,0,0,.3.76,1,1,0,0,0,.78.31,1,1,0,0,0,.77-.31A1.08,1.08,0,0,0,91.89,106.93Z"/><rect class="cls-5" x="119.04" y="150.74" width="23.95" height="23.95" rx="5.15"/><rect class="cls-6" x="150.69" y="150.74" width="23.95" height="23.95" rx="5.15"/><rect class="cls-5" x="150.69" y="118.89" width="23.95" height="23.95" rx="5.15"/><polyline class="cls-7" points="154.83 168.76 158.53 162.72 163.12 165.16 170.5 155.37"/><polyline class="cls-8" points="153.81 166.34 158.84 165.9 162.38 161.27 170.5 162.5"/><text class="cls-9" transform="translate(169.5 24.36) rotate(90)">design <tspan x="0" y="9.6">&amp; </tspan><tspan class="cls-10" x="7.63" y="9.6">r</tspan><tspan class="cls-11" x="10.37" y="9.6">es</tspan><tspan class="cls-12" x="18.5" y="9.6">e</tspan><tspan class="cls-13" x="23.02" y="9.6">a</tspan><tspan class="cls-14" x="27.3" y="9.6">r</tspan><tspan x="30.03" y="9.6">ch</tspan></text></svg>