<svg id="Layer_1" data-name="Layer 1" xmlns="http://www.w3.org/2000/svg" xmlns:xlink="http://www.w3.org/1999/xlink" viewBox="0 0 200 200"><defs><style>.cls-1,.cls-5,.cls-7,.cls-9{fill:none;}.cls-2{stroke:#231f20;}.cls-2,.cls-5,.cls-7,.cls-9{stroke-miterlimit:10;}.cls-3{fill:#eac138;}.cls-4{fill:#fff;}.cls-5,.cls-9{stroke:#eac23a;}.cls-5{stroke-width:2px;}.cls-6{clip-path:url(#clip-path);}.cls-7{stroke:#fff;}.cls-7,.cls-9{stroke-width:0.75px;}.cls-8{fill:#1e1d2f;}</style><clipPath id="clip-path"><path class="cls-1" d="M171.42,158.73c.55-1.88,1.44-5.4,1.13-7.75a2.2,2.2,0,0,0-.76-1.6c-.25-.18-.89-.52-2.64.08a11.39,11.39,0,0,0-4.56,3l0,0a20.11,20.11,0,0,0-9.87-2.58,22.47,22.47,0,0,0-7.83,1.62l-.7.27a4.25,4.25,0,0,0-.89.46,11.29,11.29,0,0,0-4.3-2.71c-1.76-.6-2.4-.26-2.65-.08a2.2,2.2,0,0,0-.76,1.6,20.79,20.79,0,0,0,.92,7,20,20,0,0,0-3.95,11.64,10.47,10.47,0,0,1,5.12-1.87,11,11,0,0,1,6.16,1.4,7.48,7.48,0,0,1,.83.54l.22.17h0a11.63,11.63,0,0,1,2,2.44,6.78,6.78,0,0,0,11.61.11,28.35,28.35,0,0,1,1.89-2.7h0a6.44,6.44,0,0,1,2.13-1.68c3.22-1.82,7.31.1,7.83.35a10.07,10.07,0,0,1,2.05,1.31l.48.47A21.63,21.63,0,0,0,171.42,158.73Z"/></clipPath></defs><title>bandit</title><rect class="cls-2" width="200" height="200"/><path class="cls-3" d="M170.27,28.16a1.56,1.56,0,0,1-.55-.62,1.87,1.87,0,0,1-.18-.8,2,2,0,0,1,.15-.79,1.75,1.75,0,0,1,.42-.61,1.72,1.72,0,0,1,.62-.39,2.22,2.22,0,0,1,1.55,0,1.75,1.75,0,0,1,1,1,2,2,0,0,1,.15.79,1.87,1.87,0,0,1-.18.8,1.67,1.67,0,0,1-.56.62v0h3v.54h-6.05v-.54h.64Zm1.24-2.78a1.87,1.87,0,0,0-.59.1,1.27,1.27,0,0,0-.48.28,1.09,1.09,0,0,0-.32.44,1.46,1.46,0,0,0-.12.6,1.39,1.39,0,0,0,.91,1.33,1.66,1.66,0,0,0,1.19,0,1.31,1.31,0,0,0,.48-.3,1.42,1.42,0,0,0,.32-.45,1.4,1.4,0,0,0,.12-.58,1.46,1.46,0,0,0-.12-.6,1.22,1.22,0,0,0-.33-.44,1.27,1.27,0,0,0-.48-.28A1.86,1.86,0,0,0,171.51,25.38Z"/><path class="cls-3" d="M171.62,33.58h-.26V30.47a1.57,1.57,0,0,0-.53.11,1.37,1.37,0,0,0-.83,1.26,1.33,1.33,0,0,0,.2.73,1.45,1.45,0,0,0,.45.47l-.32.41a2.08,2.08,0,0,1-.61-.74,2.12,2.12,0,0,1-.18-.87,2,2,0,0,1,.15-.77,1.6,1.6,0,0,1,.41-.61,1.77,1.77,0,0,1,.62-.41,2.13,2.13,0,0,1,1.57,0,1.74,1.74,0,0,1,.62.4,1.81,1.81,0,0,1,.42.6,2,2,0,0,1,.14.74,2.09,2.09,0,0,1-.14.78,1.78,1.78,0,0,1-.4.56,1.82,1.82,0,0,1-.59.34A2.17,2.17,0,0,1,171.62,33.58Zm.17-.55a1.31,1.31,0,0,0,.88-.34,1.16,1.16,0,0,0,.35-.9,1.35,1.35,0,0,0-.1-.5,1.46,1.46,0,0,0-.27-.41,1.38,1.38,0,0,0-.4-.28,1.21,1.21,0,0,0-.46-.12Z"/><path class="cls-3" d="M172.49,36.74a1,1,0,0,0,.38-.36,1,1,0,0,0,.15-.56,1.33,1.33,0,0,0,0-.28.89.89,0,0,0-.11-.26.62.62,0,0,0-.18-.18.47.47,0,0,0-.27-.07.44.44,0,0,0-.4.22,2.25,2.25,0,0,0-.24.68,2.32,2.32,0,0,1-.39,1,.87.87,0,0,1-.7.31,1.08,1.08,0,0,1-.54-.12,1,1,0,0,1-.36-.32,1.26,1.26,0,0,1-.2-.46,2.07,2.07,0,0,1-.06-.5,2.16,2.16,0,0,1,.17-.83,1.46,1.46,0,0,1,.56-.65l.32.43a1.13,1.13,0,0,0-.42.42,1.2,1.2,0,0,0-.17.62,1.69,1.69,0,0,0,0,.33.65.65,0,0,0,.12.28.64.64,0,0,0,.2.2.71.71,0,0,0,.31.07.48.48,0,0,0,.44-.29,3.83,3.83,0,0,0,.28-.82,2.68,2.68,0,0,1,.1-.35,1.42,1.42,0,0,1,.17-.35.83.83,0,0,1,.3-.26.81.81,0,0,1,.43-.11,1.09,1.09,0,0,1,.5.11,1.18,1.18,0,0,1,.33.3,1.3,1.3,0,0,1,.2.43,2.07,2.07,0,0,1,.06.5,1.87,1.87,0,0,1-.17.76,1.28,1.28,0,0,1-.5.55Z"/><path class="cls-3" d="M169.63,38.86v-.55h3.75v.55Zm5.19.11a.36.36,0,0,1-.28-.12.4.4,0,0,1-.11-.27.4.4,0,0,1,.11-.26.36.36,0,0,1,.28-.12.34.34,0,0,1,.27.12.36.36,0,0,1,.11.26.36.36,0,0,1-.11.27A.34.34,0,0,1,174.82,39Z"/><path class="cls-3" d="M168.88,40.5a2,2,0,0,0-.49.62,1.87,1.87,0,0,0-.08,1.5,1.14,1.14,0,0,0,.78.7,2.14,2.14,0,0,0,.58.08h.7v0a1.29,1.29,0,0,1-.54-.61,1.79,1.79,0,0,1-.2-.8,2,2,0,0,1,.15-.8,1.68,1.68,0,0,1,1-1,2.1,2.1,0,0,1,.76-.14,2.12,2.12,0,0,1,.75.14,2.1,2.1,0,0,1,.62.39,1.87,1.87,0,0,1,.41.61,2,2,0,0,1,.15.8,1.77,1.77,0,0,1-.19.8,1.48,1.48,0,0,1-.55.61v0h.65v.54h-3.71a2.51,2.51,0,0,1-.65-.08,1.81,1.81,0,0,1-.64-.31,1.67,1.67,0,0,1-.47-.62,2.28,2.28,0,0,1-.2-1,2.54,2.54,0,0,1,.2-1,2.58,2.58,0,0,1,.55-.81Zm2.67.11a1.77,1.77,0,0,0-.56.09,1.53,1.53,0,0,0-.46.28,1.43,1.43,0,0,0-.32.44,1.64,1.64,0,0,0-.11.6,1.57,1.57,0,0,0,.1.58,1.31,1.31,0,0,0,.3.46,1.53,1.53,0,0,0,.46.3,1.59,1.59,0,0,0,.59.1,1.47,1.47,0,0,0,.56-.1,1.89,1.89,0,0,0,.47-.3,1.52,1.52,0,0,0,.32-.46A1.4,1.4,0,0,0,173,42a1.46,1.46,0,0,0-.12-.6,1.43,1.43,0,0,0-.32-.44,1.58,1.58,0,0,0-.47-.28A1.69,1.69,0,0,0,171.55,40.61Z"/><path class="cls-3" d="M173.38,45.85l-.34,0h-.3v0a1.21,1.21,0,0,1,.53.52,1.47,1.47,0,0,1,.2.76,1.3,1.3,0,0,1-.42,1.06,1.67,1.67,0,0,1-1.12.36h-2.3v-.54h2.08a2.89,2.89,0,0,0,.53-.05,1,1,0,0,0,.41-.17.68.68,0,0,0,.27-.31A1,1,0,0,0,173,47a1.06,1.06,0,0,0-.09-.42,1,1,0,0,0-.27-.36,1.24,1.24,0,0,0-.45-.26,2.18,2.18,0,0,0-.66-.1h-1.92v-.54H173l.43,0Z"/><path class="cls-3" d="M171,55.52l-1.32,1.27V56l.84-.8a2.36,2.36,0,0,1-.7-.76,1.9,1.9,0,0,1-.23-1,2.26,2.26,0,0,1,.1-.69,1.77,1.77,0,0,1,.3-.56,1.32,1.32,0,0,1,.49-.38,1.59,1.59,0,0,1,.68-.14,1.48,1.48,0,0,1,.57.1,1.53,1.53,0,0,1,.46.28,1.83,1.83,0,0,1,.37.41,4.3,4.3,0,0,1,.28.52,2.35,2.35,0,0,1,.28-.25,2.18,2.18,0,0,1,.31-.22,2.21,2.21,0,0,1,.35-.16,1.21,1.21,0,0,1,.38-.06,1.25,1.25,0,0,1,.56.12,1.08,1.08,0,0,1,.42.3,1.26,1.26,0,0,1,.26.45,1.61,1.61,0,0,1,.09.54,1.84,1.84,0,0,1-.08.53,1.48,1.48,0,0,1-.25.44,1.18,1.18,0,0,1-.4.29,1.33,1.33,0,0,1-.54.11,1.12,1.12,0,0,1-.5-.11,1.46,1.46,0,0,1-.41-.29,2.55,2.55,0,0,1-.32-.4c-.09-.16-.18-.31-.26-.47l-1.36,1.32,1.38.78v.65Zm1.47-2.21a2.15,2.15,0,0,0-.55-.77,1.15,1.15,0,0,0-.77-.27,1,1,0,0,0-.44.09,1,1,0,0,0-.34.26,1.11,1.11,0,0,0-.22.38,1.17,1.17,0,0,0-.08.46,1.45,1.45,0,0,0,.2.77,2.24,2.24,0,0,0,.63.58Zm1.75,1.21a.8.8,0,0,0,.58-.23.81.81,0,0,0,.22-.57.82.82,0,0,0-.87-.86,1,1,0,0,0-.32.07,1.3,1.3,0,0,0-.31.16l-.26.2a1.48,1.48,0,0,0-.18.19,3.37,3.37,0,0,0,.19.38,2.8,2.8,0,0,0,.24.33,1.22,1.22,0,0,0,.32.24A.83.83,0,0,0,174.17,54.52Z"/><path class="cls-3" d="M160.67,28.16a1.56,1.56,0,0,1-.55-.62,1.87,1.87,0,0,1-.18-.8,2,2,0,0,1,.15-.79,1.75,1.75,0,0,1,.42-.61,1.72,1.72,0,0,1,.62-.39,2.22,2.22,0,0,1,1.55,0,1.72,1.72,0,0,1,.62.39,1.75,1.75,0,0,1,.42.61,2,2,0,0,1,.15.79,1.87,1.87,0,0,1-.18.8,1.59,1.59,0,0,1-.56.62v0h3v.54H160v-.54h.64Zm1.24-2.78a1.87,1.87,0,0,0-.59.1,1.27,1.27,0,0,0-.48.28,1.09,1.09,0,0,0-.32.44,1.46,1.46,0,0,0-.12.6,1.39,1.39,0,0,0,.91,1.33,1.66,1.66,0,0,0,1.19,0,1.31,1.31,0,0,0,.48-.3,1.42,1.42,0,0,0,.32-.45,1.4,1.4,0,0,0,.12-.58,1.46,1.46,0,0,0-.12-.6,1.22,1.22,0,0,0-.33-.44,1.27,1.27,0,0,0-.48-.28A1.86,1.86,0,0,0,161.91,25.38Z"/><path class="cls-3" d="M162,33.58h-.26V30.47a1.57,1.57,0,0,0-.53.11,1.37,1.37,0,0,0-.83,1.26,1.33,1.33,0,0,0,.2.73,1.45,1.45,0,0,0,.45.47l-.32.41a2.08,2.08,0,0,1-.61-.74,2.12,2.12,0,0,1-.18-.87,2.15,2.15,0,0,1,.14-.77,1.95,1.95,0,0,1,1-1,2.13,2.13,0,0,1,1.57,0,1.74,1.74,0,0,1,.62.4,1.65,1.65,0,0,1,.41.6,1.81,1.81,0,0,1,.15.74,1.9,1.9,0,0,1-.15.78,1.61,1.61,0,0,1-.39.56,1.82,1.82,0,0,1-.59.34A2.17,2.17,0,0,1,162,33.58Zm.17-.55a1.33,1.33,0,0,0,.88-.34,1.16,1.16,0,0,0,.35-.9,1.35,1.35,0,0,0-.1-.5,1.3,1.3,0,0,0-.28-.41,1.31,1.31,0,0,0-.85-.4Z"/><path class="cls-3" d="M160,36.29v-.6l3.75-1.53v.61L160.61,36v0l3.17,1.22v.59Z"/><path class="cls-3" d="M162,42.06h-.26V39a1.57,1.57,0,0,0-.53.11,1.37,1.37,0,0,0-.83,1.26,1.33,1.33,0,0,0,.2.73,1.45,1.45,0,0,0,.45.47l-.32.41a2.08,2.08,0,0,1-.61-.74,2.19,2.19,0,0,1,0-1.64,1.95,1.95,0,0,1,1-1,2.13,2.13,0,0,1,1.57,0,1.74,1.74,0,0,1,.62.4,1.65,1.65,0,0,1,.41.6,1.85,1.85,0,0,1,.15.74,1.94,1.94,0,0,1-.15.78,1.61,1.61,0,0,1-.39.56,1.82,1.82,0,0,1-.59.34A2.46,2.46,0,0,1,162,42.06Zm.17-.55a1.33,1.33,0,0,0,.88-.34,1.16,1.16,0,0,0,.35-.9,1.35,1.35,0,0,0-.1-.5,1.3,1.3,0,0,0-.28-.41,1.31,1.31,0,0,0-.85-.4Z"/><path class="cls-3" d="M160,43.79v-.54h6.05v.54Z"/><path class="cls-3" d="M161.91,49a2,2,0,0,1-.79-.15,1.9,1.9,0,0,1-1-1,2.38,2.38,0,0,1-.14-.81,2.28,2.28,0,0,1,.14-.8,1.74,1.74,0,0,1,.42-.63,1.79,1.79,0,0,1,.62-.42,2.27,2.27,0,0,1,1.57,0,1.79,1.79,0,0,1,.62.42,1.6,1.6,0,0,1,.41.63,2.07,2.07,0,0,1,.15.8,2.16,2.16,0,0,1-.15.81,1.76,1.76,0,0,1-.41.63,1.92,1.92,0,0,1-.62.41A2,2,0,0,1,161.91,49Zm0-.58a1.61,1.61,0,0,0,.58-.1A1.41,1.41,0,0,0,163,48a1.25,1.25,0,0,0,.33-.45,1.41,1.41,0,0,0,.12-.59,1.38,1.38,0,0,0-.12-.59,1.31,1.31,0,0,0-.33-.44,1.29,1.29,0,0,0-.48-.29,1.76,1.76,0,0,0-1.17,0,1.29,1.29,0,0,0-.48.29,1.16,1.16,0,0,0-.32.44,1.38,1.38,0,0,0-.12.59,1.41,1.41,0,0,0,.12.59,1.12,1.12,0,0,0,.32.45,1.41,1.41,0,0,0,.48.28A1.63,1.63,0,0,0,161.91,48.39Z"/><path class="cls-3" d="M158.11,50.68v-.54h5.67v.54h-.65v0a1.52,1.52,0,0,1,.56.62,1.89,1.89,0,0,1,.18.79,2.07,2.07,0,0,1-.15.8,1.71,1.71,0,0,1-.42.6,1.89,1.89,0,0,1-.62.4,2.22,2.22,0,0,1-1.55,0,1.89,1.89,0,0,1-.62-.4,1.71,1.71,0,0,1-.42-.6,2.07,2.07,0,0,1-.15-.8,1.89,1.89,0,0,1,.18-.79,1.57,1.57,0,0,1,.55-.62v0Zm3.8,2.79a1.85,1.85,0,0,0,.58-.09,1.41,1.41,0,0,0,.48-.28,1.31,1.31,0,0,0,.33-.44,1.46,1.46,0,0,0,.12-.6,1.4,1.4,0,0,0-.12-.58A1.36,1.36,0,0,0,163,51a1.7,1.7,0,0,0-1.67-.3,1.78,1.78,0,0,0-.48.3,1.33,1.33,0,0,0-.31.46,1.4,1.4,0,0,0-.12.58,1.46,1.46,0,0,0,.12.6,1.16,1.16,0,0,0,.32.44,1.41,1.41,0,0,0,.48.28A1.87,1.87,0,0,0,161.91,53.47Z"/><path class="cls-3" d="M163.67,56.24a1.47,1.47,0,0,1,.2.74,1.82,1.82,0,0,1,0,.32,1,1,0,0,1-.12.32,1.33,1.33,0,0,1-.25.29,1.43,1.43,0,0,1-.39.23,1.36,1.36,0,0,1,.59.52,1.52,1.52,0,0,1,.2.79,1.3,1.3,0,0,1-.42,1.06,1.67,1.67,0,0,1-1.12.36H160v-.54h2.08a1.88,1.88,0,0,0,.95-.22.82.82,0,0,0,.36-.75,1,1,0,0,0-.12-.5.92.92,0,0,0-.32-.33,1.57,1.57,0,0,0-.44-.18,2.21,2.21,0,0,0-.51-.05h-2v-.55h2.19a2.49,2.49,0,0,0,.49,0,1,1,0,0,0,.38-.14.62.62,0,0,0,.24-.27,1,1,0,0,0,.09-.45.92.92,0,0,0-.09-.39,1,1,0,0,0-.27-.35,1.22,1.22,0,0,0-.45-.25,1.91,1.91,0,0,0-.66-.1H160v-.54h3.32l.43,0v.52l-.34,0h-.3A1.31,1.31,0,0,1,163.67,56.24Z"/><path class="cls-3" d="M162,65.69h-.26V62.57a1.58,1.58,0,0,0-.53.12,1.39,1.39,0,0,0-.43.28,1.46,1.46,0,0,0-.29.44,1.32,1.32,0,0,0-.11.53,1.36,1.36,0,0,0,.2.74,1.42,1.42,0,0,0,.45.46l-.32.41a2,2,0,0,1-.61-.74,2.12,2.12,0,0,1-.18-.87,2.19,2.19,0,0,1,.14-.77,1.75,1.75,0,0,1,.42-.61,1.92,1.92,0,0,1,.62-.41,2.27,2.27,0,0,1,1.57,0,1.89,1.89,0,0,1,.62.4,1.65,1.65,0,0,1,.41.6,1.85,1.85,0,0,1,.15.74,1.87,1.87,0,0,1-.15.78,1.61,1.61,0,0,1-.39.56,1.82,1.82,0,0,1-.59.34A2.18,2.18,0,0,1,162,65.69Zm.17-.55a1.39,1.39,0,0,0,.88-.34,1.2,1.2,0,0,0,.35-.91,1.39,1.39,0,0,0-.1-.5A1.42,1.42,0,0,0,163,63a1.39,1.39,0,0,0-.39-.28,1.21,1.21,0,0,0-.46-.12Z"/><path class="cls-3" d="M163.78,67.34l-.34,0h-.3a1.26,1.26,0,0,1,.53.52,1.57,1.57,0,0,1,.2.76,1.32,1.32,0,0,1-.42,1.07,1.67,1.67,0,0,1-1.12.36H160v-.55h2.08a2.22,2.22,0,0,0,.53,0,1,1,0,0,0,.41-.16.74.74,0,0,0,.27-.31,1.19,1.19,0,0,0,.1-.49,1,1,0,0,0-.09-.42,1.07,1.07,0,0,0-.27-.37,1.22,1.22,0,0,0-.45-.25,1.91,1.91,0,0,0-.66-.1H160v-.55h3.32l.43,0Z"/><path class="cls-3" d="M163.32,73.19v-1h-2.18a1.16,1.16,0,0,0-.35,0,.42.42,0,0,0-.21.11.4.4,0,0,0-.1.18.85.85,0,0,0,0,.23,1,1,0,0,0,0,.23,1.17,1.17,0,0,0,.09.24l-.47,0a1.32,1.32,0,0,1-.09-.3,1.83,1.83,0,0,1,0-.34,1.22,1.22,0,0,1,0-.32.69.69,0,0,1,.15-.31.73.73,0,0,1,.3-.24,1.23,1.23,0,0,1,.51-.09h2.33v-.77h.46v.77h1.05v.55h-1.05v1Z"/><path class="cls-4" d="M25.91,94h2.88v6h2.82v2.46h-5.7Z"/><path class="cls-4" d="M39.07,99.3a3.54,3.54,0,0,1-.29,1.45,3.28,3.28,0,0,1-.79,1.07,3.52,3.52,0,0,1-1.16.67,4.17,4.17,0,0,1-2.73,0,3.38,3.38,0,0,1-1.15-.67,3.12,3.12,0,0,1-.78-1.07,3.39,3.39,0,0,1-.3-1.45,3.31,3.31,0,0,1,.3-1.44A3.08,3.08,0,0,1,33,96.8a3.34,3.34,0,0,1,1.15-.65,4.34,4.34,0,0,1,2.73,0A3.48,3.48,0,0,1,38,96.8a3.24,3.24,0,0,1,.79,1.06A3.46,3.46,0,0,1,39.07,99.3Zm-3.61-1a1,1,0,0,0-.74.32,1,1,0,0,0-.28.73,1.07,1.07,0,0,0,.29.75,1,1,0,0,0,.74.32,1,1,0,0,0,.75-.32,1.06,1.06,0,0,0,.28-.75,1,1,0,0,0-1-1Z"/><path class="cls-4" d="M43.52,102.72a4.36,4.36,0,0,1-1.47-.24,3.42,3.42,0,0,1-1.17-.69,3.07,3.07,0,0,1-.76-1.07,3.3,3.3,0,0,1-.28-1.4,3.37,3.37,0,0,1,.28-1.4,3,3,0,0,1,.79-1.07,3.47,3.47,0,0,1,1.18-.69,4.36,4.36,0,0,1,1.47-.23,3.63,3.63,0,0,1,.65,0,3.32,3.32,0,0,1,.64.15,3.11,3.11,0,0,1,.56.22,2,2,0,0,1,.44.26l-1.38,2a.87.87,0,0,0-.38-.25,1.2,1.2,0,0,0-.45-.09,1.34,1.34,0,0,0-.39.07.83.83,0,0,0-.34.2,1.2,1.2,0,0,0-.25.34,1,1,0,0,0-.1.46,1,1,0,0,0,.1.46,1,1,0,0,0,.59.52,1.34,1.34,0,0,0,.39.07,1.27,1.27,0,0,0,.47-.09,1,1,0,0,0,.37-.25l1.4,1.94a3.67,3.67,0,0,1-1,.52A4.17,4.17,0,0,1,43.52,102.72Z"/><path class="cls-4" d="M49.75,98.47a.49.49,0,0,0-.2-.43A.89.89,0,0,0,49,97.9a1.59,1.59,0,0,0-.72.17,3.3,3.3,0,0,0-.61.37l-1.38-1.36a4.09,4.09,0,0,1,1.37-.86,4.56,4.56,0,0,1,1.63-.29,3.77,3.77,0,0,1,1.49.25,2.36,2.36,0,0,1,.93.69,2.79,2.79,0,0,1,.48,1,5.64,5.64,0,0,1,.13,1.25v3.33h-2.5V102h0a1.28,1.28,0,0,1-.68.52,2.7,2.7,0,0,1-.87.15,2.94,2.94,0,0,1-.76-.1,2.19,2.19,0,0,1-.7-.35,1.82,1.82,0,0,1-.53-.63,2,2,0,0,1-.2-.94,1.64,1.64,0,0,1,.34-1.08,2.49,2.49,0,0,1,.87-.65,4.26,4.26,0,0,1,1.18-.31,9.4,9.4,0,0,1,1.28-.09Zm0,1.39a3,3,0,0,0-1,.13.49.49,0,0,0-.37.49.41.41,0,0,0,.06.23.46.46,0,0,0,.16.15.67.67,0,0,0,.21.09.76.76,0,0,0,.21,0,.83.83,0,0,0,.63-.26.88.88,0,0,0,.24-.64v-.22Z"/><path class="cls-4" d="M53.49,93.4h2.84v9.08H53.49Z"/><path class="cls-4" d="M66.31,98.06a2.67,2.67,0,0,1,.59.23,2.54,2.54,0,0,1,.52.41,1.87,1.87,0,0,1,.35.57,1.89,1.89,0,0,1,.14.72,2.2,2.2,0,0,1-.29,1.17,2.18,2.18,0,0,1-.74.77,3,3,0,0,1-1,.42,6.24,6.24,0,0,1-1.22.13H60.75V94h3.5a8.48,8.48,0,0,1,1.09.08,3.46,3.46,0,0,1,1.08.31,2.1,2.1,0,0,1,.82.69,2,2,0,0,1,.32,1.18,1.76,1.76,0,0,1-.34,1.12,2,2,0,0,1-.91.66ZM63.42,96.2v1h.77a.83.83,0,0,0,.49-.13.5.5,0,0,0,.19-.43.4.4,0,0,0-.2-.36,1.08,1.08,0,0,0-.54-.12Zm0,2.88v1.15h.85a.92.92,0,0,0,.55-.15.5.5,0,0,0,.21-.44.4.4,0,0,0-.09-.27.84.84,0,0,0-.23-.18,1.15,1.15,0,0,0-.28-.09l-.28,0Z"/><path class="cls-4" d="M72.26,98.47a.49.49,0,0,0-.2-.43.89.89,0,0,0-.52-.14,1.62,1.62,0,0,0-.72.17,3.3,3.3,0,0,0-.61.37l-1.38-1.36a4.09,4.09,0,0,1,1.37-.86,4.56,4.56,0,0,1,1.63-.29,3.77,3.77,0,0,1,1.49.25,2.36,2.36,0,0,1,.93.69,2.64,2.64,0,0,1,.48,1,5.63,5.63,0,0,1,.14,1.25v3.33H72.36V102h0a1.28,1.28,0,0,1-.68.52,2.69,2.69,0,0,1-.86.15,3,3,0,0,1-.77-.1,2.19,2.19,0,0,1-.7-.35,1.82,1.82,0,0,1-.53-.63,2,2,0,0,1-.2-.94,1.64,1.64,0,0,1,.34-1.08,2.49,2.49,0,0,1,.87-.65A4.26,4.26,0,0,1,71,98.58a9.51,9.51,0,0,1,1.28-.09Zm0,1.39a3,3,0,0,0-1,.13.49.49,0,0,0-.37.49.41.41,0,0,0,.06.23.46.46,0,0,0,.16.15.67.67,0,0,0,.21.09.76.76,0,0,0,.21,0,.83.83,0,0,0,.63-.26.88.88,0,0,0,.24-.64v-.22Z"/><path class="cls-4" d="M76,96.16h2.7v.7h0a2.17,2.17,0,0,1,.71-.61,2.55,2.55,0,0,1,2.18,0,2,2,0,0,1,.69.61,2.57,2.57,0,0,1,.36.85,4.23,4.23,0,0,1,.1.94v3.84H80V99.12a1.16,1.16,0,0,0-.15-.68.56.56,0,0,0-.45-.19.58.58,0,0,0-.45.22,1.09,1.09,0,0,0-.17.65v3.36H76Z"/><path class="cls-4" d="M83.75,99.3a4.06,4.06,0,0,1,.18-1.2A3.44,3.44,0,0,1,84.48,97a2.89,2.89,0,0,1,.9-.76A2.62,2.62,0,0,1,86.63,96a2.71,2.71,0,0,1,.91.17,1.76,1.76,0,0,1,.73.5h0V93.4h2.78v9.08h-2.5v-.66h0a1.89,1.89,0,0,1-.81.6,2.78,2.78,0,0,1-1.11.22,2.65,2.65,0,0,1-1.25-.28,2.89,2.89,0,0,1-.9-.76,3.67,3.67,0,0,1-.55-1.08A4.24,4.24,0,0,1,83.75,99.3Zm2.56,0a1.12,1.12,0,0,0,.27.76,1,1,0,0,0,.77.3,1,1,0,0,0,.78-.31,1.08,1.08,0,0,0,0-1.49,1,1,0,0,0-.78-.31,1,1,0,0,0-.77.31A1.11,1.11,0,0,0,86.31,99.3Z"/><path class="cls-4" d="M92.29,94.34a1.5,1.5,0,0,1,.11-.55,1.28,1.28,0,0,1,.32-.44,1.33,1.33,0,0,1,.46-.31,1.3,1.3,0,0,1,.56-.11,1.24,1.24,0,0,1,.54.11,1.39,1.39,0,0,1,.45.31,1.25,1.25,0,0,1,.31.44,1.33,1.33,0,0,1,.12.55,1.31,1.31,0,0,1-.12.56,1.25,1.25,0,0,1-.31.44,1.54,1.54,0,0,1-.45.3,1.4,1.4,0,0,1-.54.1,1.4,1.4,0,0,1-1-.4,1.28,1.28,0,0,1-.32-.44A1.47,1.47,0,0,1,92.29,94.34Zm0,1.82h2.77v6.32H92.34Z"/><path class="cls-4" d="M99.14,102.64a2.78,2.78,0,0,1-1.88-.54,2.17,2.17,0,0,1-.61-1.7V98.14h-.89v-2h.87V94.75h2.69v1.41h1.37v2H99.32v1.68a.78.78,0,0,0,.2.62.82.82,0,0,0,.55.16,1.27,1.27,0,0,0,.27,0l.23,0v1.9a2.7,2.7,0,0,1-.61.15A5.36,5.36,0,0,1,99.14,102.64Z"/><path class="cls-4" d="M101.6,97.57a1.39,1.39,0,0,1,.12-.57,1.43,1.43,0,0,1,.33-.47,1.47,1.47,0,0,1,.48-.31,1.43,1.43,0,0,1,.58-.12,1.34,1.34,0,0,1,.56.12,1.54,1.54,0,0,1,.47.31,1.56,1.56,0,0,1,.32.47,1.39,1.39,0,0,1,.12.57,1.32,1.32,0,0,1-.12.57,1.52,1.52,0,0,1-.32.46,1.54,1.54,0,0,1-.47.31,1.51,1.51,0,0,1-.56.11,1.62,1.62,0,0,1-.58-.11,1.47,1.47,0,0,1-.48-.31,1.39,1.39,0,0,1-.33-.46A1.32,1.32,0,0,1,101.6,97.57Zm0,3.53a1.39,1.39,0,0,1,.12-.57,1.43,1.43,0,0,1,.33-.47,1.33,1.33,0,0,1,.48-.31,1.43,1.43,0,0,1,.58-.12,1.34,1.34,0,0,1,.56.12,1.38,1.38,0,0,1,.47.31,1.56,1.56,0,0,1,.32.47,1.39,1.39,0,0,1,.12.57,1.32,1.32,0,0,1-.12.57,1.52,1.52,0,0,1-.32.46,1.59,1.59,0,0,1-1,.42,1.43,1.43,0,0,1-.58-.12,1.31,1.31,0,0,1-.48-.3,1.39,1.39,0,0,1-.33-.46A1.32,1.32,0,0,1,101.6,101.1Z"/><path class="cls-4" d="M29.1,112.87a.5.5,0,0,0-.2-.43.89.89,0,0,0-.52-.13,1.66,1.66,0,0,0-.73.16,2.76,2.76,0,0,0-.6.37l-1.38-1.36a3.94,3.94,0,0,1,1.37-.86,4.75,4.75,0,0,1,1.63-.3,3.79,3.79,0,0,1,1.49.26,2.27,2.27,0,0,1,.93.69,2.93,2.93,0,0,1,.48,1,5.48,5.48,0,0,1,.13,1.24v3.33H29.2v-.51h0a1.37,1.37,0,0,1-.68.52,2.75,2.75,0,0,1-.87.15,2.94,2.94,0,0,1-.76-.1,2.35,2.35,0,0,1-.71-.35,1.91,1.91,0,0,1-.52-.63,2,2,0,0,1-.2-.94,1.64,1.64,0,0,1,.34-1.08,2.49,2.49,0,0,1,.87-.65,4.26,4.26,0,0,1,1.18-.31,9.4,9.4,0,0,1,1.28-.09Zm0,1.39a3.27,3.27,0,0,0-1,.13.49.49,0,0,0-.37.49.41.41,0,0,0,.06.23.54.54,0,0,0,.15.15,1,1,0,0,0,.21.09l.21,0a.84.84,0,0,0,.64-.26.88.88,0,0,0,.24-.64v-.22Z"/><path class="cls-4" d="M39.27,117.12a4.36,4.36,0,0,1-1.47-.24,3.28,3.28,0,0,1-1.16-.69,3,3,0,0,1-.77-1.07,3.3,3.3,0,0,1-.28-1.4,3.53,3.53,0,0,1,.28-1.4,3,3,0,0,1,.79-1.07,3.56,3.56,0,0,1,1.18-.69,4.36,4.36,0,0,1,1.47-.24,3.49,3.49,0,0,1,.65.06,3.15,3.15,0,0,1,.64.15,4.22,4.22,0,0,1,.57.21,2,2,0,0,1,.43.27l-1.38,2a.9.9,0,0,0-.37-.25,1.29,1.29,0,0,0-.45-.09,1.34,1.34,0,0,0-.4.07.9.9,0,0,0-.34.2,1.42,1.42,0,0,0-.25.34,1.11,1.11,0,0,0-.1.46,1.08,1.08,0,0,0,.1.46,1.06,1.06,0,0,0,.25.33,1,1,0,0,0,.34.19,1.34,1.34,0,0,0,.4.07,1.22,1.22,0,0,0,.46-.09.93.93,0,0,0,.37-.25l1.4,1.94a3.67,3.67,0,0,1-1,.52A3.91,3.91,0,0,1,39.27,117.12Z"/><path class="cls-4" d="M49.1,113.7a3.54,3.54,0,0,1-.29,1.45,3.28,3.28,0,0,1-.79,1.07,3.48,3.48,0,0,1-1.15.67,4.25,4.25,0,0,1-1.38.23,4.13,4.13,0,0,1-1.36-.23,3.38,3.38,0,0,1-1.15-.67,3.12,3.12,0,0,1-.78-1.07,3.39,3.39,0,0,1-.3-1.45,3.31,3.31,0,0,1,.3-1.44A3.08,3.08,0,0,1,43,111.2a3.18,3.18,0,0,1,1.15-.65,4.13,4.13,0,0,1,1.36-.23,4.25,4.25,0,0,1,1.38.23,3.27,3.27,0,0,1,1.15.65,3.24,3.24,0,0,1,.79,1.06A3.46,3.46,0,0,1,49.1,113.7Zm-3.61-1a1,1,0,0,0-.74.32,1,1,0,0,0-.28.73,1.07,1.07,0,0,0,.29.75,1,1,0,0,0,1.49,0,1.07,1.07,0,0,0,.29-.75,1.06,1.06,0,0,0-1-1Z"/><path class="cls-4" d="M50.12,110.56h2.7v.7h0a2.07,2.07,0,0,1,.71-.61,2.24,2.24,0,0,1,1.08-.25,2.29,2.29,0,0,1,1.1.24,2,2,0,0,1,.69.61,2.57,2.57,0,0,1,.36.85,4.23,4.23,0,0,1,.1.94v3.84H54.12v-3.36a1.16,1.16,0,0,0-.15-.68.56.56,0,0,0-.45-.19.55.55,0,0,0-.45.22,1,1,0,0,0-.17.65v3.36H50.12Z"/><path class="cls-4" d="M61.55,117.12a4.38,4.38,0,0,1-1.48-.24,3.28,3.28,0,0,1-1.16-.69,3,3,0,0,1-.77-1.07,3.3,3.3,0,0,1-.28-1.4,3.53,3.53,0,0,1,.28-1.4,3,3,0,0,1,.79-1.07,3.56,3.56,0,0,1,1.18-.69,4.36,4.36,0,0,1,1.47-.24,3.68,3.68,0,0,1,.66.06,3.22,3.22,0,0,1,.63.15,4.22,4.22,0,0,1,.57.21,2.34,2.34,0,0,1,.44.27l-1.39,2a.9.9,0,0,0-.37-.25,1.29,1.29,0,0,0-.45-.09,1.34,1.34,0,0,0-.4.07.9.9,0,0,0-.34.2,1.42,1.42,0,0,0-.25.34,1.11,1.11,0,0,0-.09.46,1.08,1.08,0,0,0,.09.46,1.06,1.06,0,0,0,.25.33,1,1,0,0,0,.34.19,1.34,1.34,0,0,0,.4.07,1.22,1.22,0,0,0,.46-.09,1,1,0,0,0,.38-.25l1.39,1.94a3.67,3.67,0,0,1-1,.52A3.89,3.89,0,0,1,61.55,117.12Z"/><path class="cls-4" d="M71,113.78v.32c0,.11,0,.2,0,.27H66.74a.56.56,0,0,0,.12.3.93.93,0,0,0,.25.23,1.22,1.22,0,0,0,.33.14,1.65,1.65,0,0,0,.38,0,1.35,1.35,0,0,0,.64-.14,1,1,0,0,0,.39-.31l2,1a2.81,2.81,0,0,1-1.22,1.08,4.16,4.16,0,0,1-1.85.4,4.26,4.26,0,0,1-1.33-.22,3.41,3.41,0,0,1-1.15-.64,3.26,3.26,0,0,1-.8-1.06,3.46,3.46,0,0,1-.3-1.48,3.55,3.55,0,0,1,.28-1.41,3,3,0,0,1,.75-1.07,3.43,3.43,0,0,1,1.12-.68,3.83,3.83,0,0,1,1.37-.24,3.51,3.51,0,0,1,1.36.26,3.17,3.17,0,0,1,1,.72,3.32,3.32,0,0,1,.67,1.1A3.85,3.85,0,0,1,71,113.78Zm-2.38-.9a.71.71,0,0,0-.25-.55,1,1,0,0,0-.67-.22,1,1,0,0,0-.7.25.89.89,0,0,0-.29.52Z"/><path class="cls-4" d="M72,110.56h2.66v.72h0a1.75,1.75,0,0,1,.61-.63,1.72,1.72,0,0,1,.94-.25,1.93,1.93,0,0,1,.53.06l-.22,2.35a1.84,1.84,0,0,0-.29-.06H76a1.2,1.2,0,0,0-.87.31,1,1,0,0,0-.32.77v3.06H72Z"/><path class="cls-4" d="M79.93,117a2.76,2.76,0,0,1-1.88-.54,2.16,2.16,0,0,1-.62-1.7v-2.26h-.88v-2h.87v-1.41h2.69v1.41h1.37v2H80.11v1.68a.78.78,0,0,0,.2.62.81.81,0,0,0,.54.16,1.37,1.37,0,0,0,.28,0l.23,0v1.9a2.85,2.85,0,0,1-.61.15A5.36,5.36,0,0,1,79.93,117Z"/><path class="cls-4" d="M89.71,109.7a1.23,1.23,0,0,0-.25-.08,1.33,1.33,0,0,0-.28,0,.65.65,0,0,0-.57.25,1.15,1.15,0,0,0-.16.64v.08h1.33v2H88.45v4.34H85.68v-4.34H84.6v-2h1.08v-.14a4.22,4.22,0,0,1,.14-1.13,2.42,2.42,0,0,1,.47-1,2.33,2.33,0,0,1,.91-.66,3.68,3.68,0,0,1,1.43-.24,5.42,5.42,0,0,1,.64,0,2.4,2.4,0,0,1,.62.13Zm.49-1a1.33,1.33,0,0,1,.12-.55,1.39,1.39,0,0,1,.31-.45,1.59,1.59,0,0,1,.46-.3,1.34,1.34,0,0,1,.56-.12,1.19,1.19,0,0,1,.54.12,1.54,1.54,0,0,1,.45.3,1.42,1.42,0,0,1,.32.45,1.5,1.5,0,0,1,.11.55,1.47,1.47,0,0,1-.11.56,1.28,1.28,0,0,1-.32.44,1.54,1.54,0,0,1-.45.3,1.33,1.33,0,0,1-.54.1,1.5,1.5,0,0,1-.56-.1,1.59,1.59,0,0,1-.46-.3,1.25,1.25,0,0,1-.31-.44A1.31,1.31,0,0,1,90.2,108.74Zm0,1.82H93v6.32H90.25Z"/><path class="cls-4" d="M94.31,110.56H97v.7h0a2.17,2.17,0,0,1,.71-.61,2.55,2.55,0,0,1,2.18,0,2,2,0,0,1,.69.61,2.57,2.57,0,0,1,.36.85,4.23,4.23,0,0,1,.1.94v3.84H98.3v-3.36a1.16,1.16,0,0,0-.15-.68.56.56,0,0,0-.45-.19.58.58,0,0,0-.45.22,1.09,1.09,0,0,0-.17.65v3.36H94.31Z"/><path class="cls-4" d="M102.05,113.7a4.06,4.06,0,0,1,.18-1.2,3.44,3.44,0,0,1,.55-1.06,2.89,2.89,0,0,1,.9-.76,2.62,2.62,0,0,1,1.25-.28,2.48,2.48,0,0,1,.91.17,1.76,1.76,0,0,1,.73.5h0v-3.26h2.78v9.07h-2.5v-.66h0a1.89,1.89,0,0,1-.81.6,2.78,2.78,0,0,1-1.11.22,2.65,2.65,0,0,1-1.25-.28,2.8,2.8,0,0,1-.9-.77,3.5,3.5,0,0,1-.55-1.07A4.24,4.24,0,0,1,102.05,113.7Zm2.56,0a1.12,1.12,0,0,0,.27.76,1,1,0,0,0,.77.3,1,1,0,0,0,.78-.31,1.06,1.06,0,0,0-.78-1.8,1,1,0,0,0-.77.31A1.11,1.11,0,0,0,104.61,113.7Z"/><path class="cls-4" d="M117.21,113.78v.32c0,.11,0,.2,0,.27h-4.25a.56.56,0,0,0,.12.3.93.93,0,0,0,.25.23,1.22,1.22,0,0,0,.33.14,1.65,1.65,0,0,0,.38,0,1.35,1.35,0,0,0,.64-.14,1.14,1.14,0,0,0,.39-.31l2,1a2.86,2.86,0,0,1-1.22,1.08,4.16,4.16,0,0,1-1.85.4,4.26,4.26,0,0,1-1.33-.22,3.41,3.41,0,0,1-1.15-.64,3.26,3.26,0,0,1-.8-1.06,3.46,3.46,0,0,1-.3-1.48,3.38,3.38,0,0,1,.28-1.41,3,3,0,0,1,.75-1.07,3.33,3.33,0,0,1,1.12-.68,3.83,3.83,0,0,1,1.37-.24,3.54,3.54,0,0,1,1.36.26,3,3,0,0,1,1,.72,3.18,3.18,0,0,1,.68,1.1A3.85,3.85,0,0,1,117.21,113.78Zm-2.38-.9a.71.71,0,0,0-.25-.55,1,1,0,0,0-.67-.22,1,1,0,0,0-.7.25.89.89,0,0,0-.29.52Z"/><path class="cls-4" d="M118.19,110.56h2.66v.72h0a1.75,1.75,0,0,1,.61-.63,1.72,1.72,0,0,1,.94-.25,1.93,1.93,0,0,1,.53.06l-.22,2.35a1.84,1.84,0,0,0-.29-.06h-.29a1.2,1.2,0,0,0-.87.31,1,1,0,0,0-.32.77v3.06h-2.77Z"/><g id="Group_142322-2" data-name="Group 142322-2"><g id="Rectangle_41949-2" data-name="Rectangle 41949-2"><polyline class="cls-5" points="25.85 44.78 25.85 25.94 44.75 25.94"/></g></g><g class="cls-6"><path class="cls-3" d="M171.42,158.73c.55-1.88,1.44-5.4,1.13-7.75a2.2,2.2,0,0,0-.76-1.6c-.25-.18-.89-.52-2.64.08a11.39,11.39,0,0,0-4.56,3l0,0a20.11,20.11,0,0,0-9.87-2.58,22.47,22.47,0,0,0-7.83,1.62l-.7.27a4.25,4.25,0,0,0-.89.46,11.29,11.29,0,0,0-4.3-2.71c-1.76-.6-2.4-.26-2.65-.08a2.2,2.2,0,0,0-.76,1.6,20.79,20.79,0,0,0,.92,7,20,20,0,0,0-3.95,11.64,10.47,10.47,0,0,1,5.12-1.87,11,11,0,0,1,6.16,1.4,7.48,7.48,0,0,1,.83.54l.22.17h0a11.63,11.63,0,0,1,2,2.44,6.78,6.78,0,0,0,11.61.11,28.35,28.35,0,0,1,1.89-2.7h0a6.44,6.44,0,0,1,2.13-1.68c3.22-1.82,7.31.1,7.83.35a10.07,10.07,0,0,1,2.05,1.31l.48.47A21.63,21.63,0,0,0,171.42,158.73Z"/><path class="cls-7" d="M148.43,175.69c0-1.33.37-2.41.83-2.41"/><path class="cls-8" d="M152,173.12h0Z"/><path d="M153.37,173.31c.65.75,1.41,1.42.87,1.95-.34.33-1.29.23-2.09-.11l-.21,1.13h5.62l-.41-1.1c-.79.32-1.48.46-1.79.13-.52-.55-.15-1.13.65-2h0a.75.75,0,0,0,.17-.14l.66-.66a1.08,1.08,0,0,0-.77-1.85h-2.72a1.09,1.09,0,0,0-.77,1.85l.66.66"/><circle class="cls-4" cx="160.78" cy="163.8" r="1.3"/><path d="M139.77,169.5c-.39-4,4.75-6.88,5.58-7.34,1.35-.75,4.72-2.62,7.11-1a4.5,4.5,0,0,1,1.81,4.57c-.54,2-2.61,1.81-3.76,4-1.36,2.59.49,4.71-.56,5.67C148.24,177,140.23,174.33,139.77,169.5Z"/><path d="M170,169.5c.39-4-4.75-6.88-5.57-7.34-1.36-.75-4.72-2.62-7.12-1a4.52,4.52,0,0,0-1.81,4.57c.54,2,2.61,1.81,3.77,4,1.35,2.59-.5,4.71.55,5.67C161.5,177,169.51,174.33,170,169.5Z"/><circle class="cls-3" cx="148.71" cy="163.8" r="1.3"/><circle class="cls-3" cx="161.11" cy="163.8" r="1.3"/></g><path class="cls-9" d="M171.42,158.73c.55-1.88,1.44-5.4,1.13-7.75a2.2,2.2,0,0,0-.76-1.6c-.25-.18-.89-.52-2.64.08a11.39,11.39,0,0,0-4.56,3l0,0a20.11,20.11,0,0,0-9.87-2.58,22.47,22.47,0,0,0-7.83,1.62l-.7.27a4.25,4.25,0,0,0-.89.46,11.29,11.29,0,0,0-4.3-2.71c-1.76-.6-2.4-.26-2.65-.08a2.2,2.2,0,0,0-.76,1.6,20.79,20.79,0,0,0,.92,7,20,20,0,0,0-3.95,11.64,10.47,10.47,0,0,1,5.12-1.87,11,11,0,0,1,6.16,1.4,7.48,7.48,0,0,1,.83.54l.22.17h0a11.63,11.63,0,0,1,2,2.44,6.78,6.78,0,0,0,11.61.11,28.35,28.35,0,0,1,1.89-2.7h0a6.44,6.44,0,0,1,2.13-1.68c3.22-1.82,7.31.1,7.83.35a10.07,10.07,0,0,1,2.05,1.31l.48.47A21.63,21.63,0,0,0,171.42,158.73Z"/></svg>