<svg id="Layer_1" data-name="Layer 1" xmlns="http://www.w3.org/2000/svg" viewBox="0 0 544 922"><defs><style>.cls-1{fill:#a7abaf;}.cls-2,.cls-5,.cls-7{fill:#fff;}.cls-3{fill:#d8dce5;}.cls-16,.cls-17,.cls-4,.cls-6{fill:none;stroke:#fff;stroke-miterlimit:10;}.cls-4{stroke-width:3px;}.cls-5{fill-opacity:0;}.cls-6{stroke-width:5px;}.cls-7{isolation:isolate;font-size:31.15px;font-family:AdobeClean-Regular, Adobe Clean;}.cls-8{letter-spacing:0.01em;}.cls-9{letter-spacing:-0.01em;}.cls-10{letter-spacing:0.01em;}.cls-11{letter-spacing:0em;}.cls-12{letter-spacing:0.01em;}.cls-13{letter-spacing:0em;}.cls-14{letter-spacing:0.03em;}.cls-15{letter-spacing:0em;}.cls-16,.cls-17{stroke-linecap:round;stroke-width:4px;}.cls-17{opacity:0.5;}</style></defs><title>kpi</title><path id="Path_35031" data-name="Path 35031" class="cls-1" d="M-.29-1H545V923H-.29Z"/><path class="cls-1" d="M170.73,63H370.27A3.73,3.73,0,0,1,374,66.73v6.93A25.35,25.35,0,0,1,348.65,99H192.35A25.35,25.35,0,0,1,167,73.65V66.73A3.73,3.73,0,0,1,170.73,63Z"/><rect class="cls-2" x="59.39" y="156.56" width="5.53" height="32.31"/><rect class="cls-2" x="59.39" y="216.52" width="5.53" height="59.18"/><rect class="cls-2" x="59.39" y="292.83" width="5.53" height="59.18"/><rect class="cls-2" x="479.47" y="236.38" width="5.53" height="97.33"/><path class="cls-2" d="M70.54,107.77c0-32.34,26.68-58.66,59.47-58.66H414.82c32.79,0,59.47,26.32,59.47,58.66v14.92h5.52V107.77c0-35.35-29.15-64.11-65-64.11H130c-35.84,0-65,28.76-65,64.11v14.92h5.52Z"/><path class="cls-2" d="M474.29,129.7V813.88c0,32.35-26.68,58.67-59.47,58.67H130c-32.79,0-59.47-26.32-59.47-58.67V129.7H65V813.88C65,849.24,94.17,878,130,878H414.82c35.84,0,65-28.76,65-64.12V129.7Z"/><path class="cls-2" d="M295.8,81.42H249.23a2.73,2.73,0,1,1,0-5.45H295.8a2.73,2.73,0,1,1,0,5.45Z"/><ellipse class="cls-2" cx="228.7" cy="77.53" rx="3.95" ry="3.89"/><ellipse class="cls-2" cx="319.48" cy="77.53" rx="6.31" ry="6.23"/><path class="cls-2" d="M416.5,858.82H128.33c-23.27,0-42.2-18.68-42.2-41.63V104.47c0-23,18.93-41.63,42.2-41.63h42.75V74.36a21.26,21.26,0,0,0,21.37,21.08H352.18a21.26,21.26,0,0,0,21.37-21.08V62.84H416.5c23.27,0,42.2,18.67,42.2,41.63V817.19C458.7,840.14,439.77,858.82,416.5,858.82ZM128.33,68.29c-20.22,0-36.67,16.23-36.67,36.18V817.19c0,19.95,16.45,36.18,36.67,36.18H416.5c20.22,0,36.67-16.23,36.67-36.18V104.47c0-20-16.45-36.18-36.67-36.18H379.07v6.07a26.74,26.74,0,0,1-26.89,26.53H192.45a26.74,26.74,0,0,1-26.89-26.53V68.29Z"/><rect class="cls-3" x="471.82" y="791.57" width="10.66" height="7.01"/><rect class="cls-3" x="62.15" y="791.57" width="10.66" height="7.01"/><rect class="cls-4" x="109.5" y="184.5" width="328" height="34" rx="3.62"/><rect id="Canvas" class="cls-5" x="120" y="190" width="24" height="24"/><rect class="cls-2" x="125" y="199" width="2" height="2" rx="0.5"/><rect class="cls-2" x="129" y="199" width="2" height="2" rx="0.5"/><rect class="cls-2" x="133" y="199" width="2" height="2" rx="0.5"/><rect class="cls-2" x="137" y="199" width="2" height="2" rx="0.5"/><rect class="cls-2" x="125" y="202" width="2" height="2" rx="0.5"/><rect class="cls-2" x="129" y="202" width="2" height="2" rx="0.5"/><rect class="cls-2" x="133" y="202" width="2" height="2" rx="0.5"/><rect class="cls-2" x="137" y="202" width="2" height="2" rx="0.5"/><rect class="cls-2" x="125" y="205" width="2" height="2" rx="0.5"/><rect class="cls-2" x="129" y="205" width="2" height="2" rx="0.5"/><rect class="cls-2" x="133" y="205" width="2" height="2" rx="0.5"/><rect class="cls-2" x="137" y="205" width="2" height="2" rx="0.5"/><path class="cls-2" d="M142.5,194H139v-1.5a.5.5,0,0,0-.5-.5h-1a.5.5,0,0,0-.5.5V194H127v-1.5a.5.5,0,0,0-.5-.5h-1a.5.5,0,0,0-.5.5V194h-3.5a.5.5,0,0,0-.5.5v16a.5.5,0,0,0,.5.5h21a.5.5,0,0,0,.5-.5v-16A.5.5,0,0,0,142.5,194ZM141,209H123V196h2v.5a.5.5,0,0,0,.5.5h1a.5.5,0,0,0,.5-.5V196h10v.5a.5.5,0,0,0,.5.5h1a.5.5,0,0,0,.5-.5V196h2Z"/><rect class="cls-2" x="155" y="196" width="127" height="12" rx="6"/><rect class="cls-2" x="294" y="196" width="127" height="12" rx="6"/><line class="cls-6" x1="91.66" y1="164.7" x2="453.17" y2="164.7"/><line class="cls-6" x1="91.66" y1="238.7" x2="453.17" y2="238.7"/><text class="cls-7" transform="translate(109.94 145.08)">K<tspan class="cls-8" x="17.44" y="0">e</tspan><tspan x="32.8" y="0">y </tspan><tspan class="cls-9" x="54.29" y="0">M</tspan><tspan class="cls-10" x="79.86" y="0">e</tspan><tspan class="cls-11" x="95.24" y="0">t</tspan><tspan class="cls-12" x="104.49" y="0">r</tspan><tspan class="cls-13" x="114.62" y="0">i</tspan><tspan class="cls-14" x="121.62" y="0">c</tspan><tspan class="cls-15" x="135.51" y="0">s</tspan></text><rect class="cls-6" x="110.87" y="264" width="154.53" height="154.53" rx="6.45"/><rect class="cls-6" x="279.92" y="264.47" width="154.53" height="154.53" rx="6.45"/><rect class="cls-6" x="111" y="445" width="154.53" height="154.53" rx="6.45"/><rect class="cls-6" x="281.92" y="445.47" width="154.53" height="154.53" rx="6.45"/><rect class="cls-6" x="110" y="623" width="154.53" height="154.53" rx="6.45"/><rect class="cls-6" x="280.92" y="623.47" width="154.53" height="154.53" rx="6.45"/><polyline class="cls-16" points="129.27 356.15 151.57 342.52 175.12 361.11 199.91 342.52 222.21 342.52 247 357.39"/><polyline class="cls-17" points="247 347.48 224.69 361.11 200.53 327.65 174.5 327.65 149.71 362.35 129.27 346.24"/><polyline class="cls-16" points="418 509.11 395.69 527.71 372.15 502.34 347.36 527.71 325.05 527.71 300.27 507.41"/><polyline class="cls-17" points="300.27 520.94 322.57 502.34 346.74 548 372.76 548 397.55 500.65 418 522.63"/><polyline class="cls-16" points="298.27 354.15 320.57 340.52 344.12 359.11 369 316 391.21 340.52 416 355.39"/><polyline class="cls-17" points="416 345.48 393.69 359.11 368 342 344 345 318.71 360.35 298.27 344.24"/><polyline class="cls-16" points="298.27 716.15 320.57 702.52 344.12 721.11 373 696 391.21 702.52 416 717.39"/><polyline class="cls-17" points="416 707.48 393.69 721.11 368 704 341 690 318.71 722.35 298.27 706.24"/><polyline class="cls-16" points="246 511.2 223.69 524.83 200.15 506.24 175.27 549.35 153.05 524.83 128.27 509.96"/><polyline class="cls-17" points="128.27 519.87 150.57 506.24 176.27 523.35 200.26 520.35 225.55 505 246 521.11"/><polyline class="cls-16" points="243 698.11 220.69 716.71 196 708 172.36 716.71 150.05 716.71 125.27 696.41"/><polyline class="cls-17" points="125.27 709.94 147 704 171 702 197.76 737 222.55 689.65 243 711.63"/></svg>