<svg xmlns="http://www.w3.org/2000/svg" xmlns:xlink="http://www.w3.org/1999/xlink" width="800" height="1000" viewBox="0 0 800 1000"><defs><style>.a,.c,.d,.s{fill:none;}.b{clip-path:url(#c);}.c,.h,.o,.s{stroke:#000;}.c,.d,.o{stroke-width:5px;}.d,.l{stroke:#e3deda;}.e,.f,.i,.m,.o,.r{fill:#e3deda;}.f,.j,.p,.t{font-size:14px;}.f,.i,.p,.r{font-family:HelveticaNeue, Helvetica Neue;}.g{clip-path:url(#a);}.i{font-size:8px;}.i,.r{opacity:0.83;}.j{font-family:AdobeClean-Black, Adobe Clean;font-weight:800;letter-spacing:0.2em;}.k{fill:red;stroke:rgba(0,0,0,0);}.k,.q{opacity:0;}.l{fill:rgba(200,0,0,0);stroke-width:2px;}.m{font-size:12px;font-family:AdobeClean-Bold, Adobe Clean;font-weight:700;}.n{opacity:0.552;}.r{font-size:10px;}.t{font-family:AdobeClean-LightIt, Adobe Clean;font-weight:300;font-style:italic;}.u{stroke:none;}</style><clipPath id="a"><rect class="a" width="419.512" height="233.437"/></clipPath><clipPath id="c"><rect width="800" height="1000"/></clipPath></defs><g id="b" class="b"><rect class="e" width="800" height="1000"/><g class="c" transform="translate(181 52)"><rect class="u" width="439" height="267"/><rect class="a" x="2.5" y="2.5" width="434" height="262"/></g><rect width="436" height="21" transform="translate(181 56)"/><g class="d" transform="translate(192 58)"><circle class="u" cx="7" cy="7" r="7"/><circle class="a" cx="7" cy="7" r="4.5"/></g><rect class="e" width="27" height="7" rx="2" transform="translate(214 62)"/><rect class="e" width="27" height="7" rx="2" transform="translate(271 62)"/><rect class="e" width="27" height="7" rx="2" transform="translate(305 62)"/><rect class="e" width="27" height="7" rx="2" transform="translate(339 62)"/><circle class="e" cx="5" cy="5" r="5" transform="translate(599 60)"/><circle class="e" cx="3" cy="3" r="3" transform="translate(586 62)"/><circle class="e" cx="3" cy="3" r="3" transform="translate(575 62)"/><rect width="436" height="21" transform="translate(181 78)"/><text class="f" transform="translate(192 80)"><tspan x="0" y="13">Labs Home</tspan></text><g class="g" transform="translate(197 85.563)"><g transform="translate(-192 -90.563)"><g class="c" transform="translate(192 110)"><rect class="u" width="72" height="81"/><rect class="a" x="2.5" y="2.5" width="67" height="76"/></g><path class="c" d="M-810.469,3142.5h68.73" transform="translate(1004 -2992)"/><path class="c" d="M-808,3106.508l63.791,33.833" transform="translate(1004 -2992)"/><path class="c" d="M-807.117,3104.334l64.649,39.063" transform="translate(-2089.015 -2102.41) rotate(-60)"/><rect width="38" height="2" rx="1" transform="translate(200 157)"/><g class="h" transform="translate(220 171)"><rect class="u" width="35" height="11" rx="5.5"/><rect class="a" x="0.5" y="0.5" width="34" height="10" rx="5"/></g><rect width="50" height="2" rx="1" transform="translate(200 161)"/><rect width="50" height="2" rx="1" transform="translate(200 165)"/><text class="i" transform="translate(224 171)"><tspan x="0" y="8">Launch</tspan></text></g><g transform="translate(-107 -90.563)"><g class="c" transform="translate(192 110)"><rect class="u" width="72" height="81"/><rect class="a" x="2.5" y="2.5" width="67" height="76"/></g><path class="c" d="M-810.469,3142.5h68.73" transform="translate(1004 -2992)"/><path class="c" d="M-808,3106.508l63.791,33.833" transform="translate(1004 -2992)"/><path class="c" d="M-807.117,3104.334l64.649,39.063" transform="translate(-2089.015 -2102.41) rotate(-60)"/><rect width="38" height="2" rx="1" transform="translate(200 157)"/><g class="h" transform="translate(220 171)"><rect class="u" width="35" height="11" rx="5.5"/><rect class="a" x="0.5" y="0.5" width="34" height="10" rx="5"/></g><rect width="50" height="2" rx="1" transform="translate(200 161)"/><rect width="50" height="2" rx="1" transform="translate(200 165)"/><text class="i" transform="translate(224 171)"><tspan x="0" y="8">Launch</tspan></text></g><g transform="translate(-22 -90.563)"><g class="c" transform="translate(192 110)"><rect class="u" width="72" height="81"/><rect class="a" x="2.5" y="2.5" width="67" height="76"/></g><path class="c" d="M-810.469,3142.5h68.73" transform="translate(1004 -2992)"/><path class="c" d="M-808,3106.508l63.791,33.833" transform="translate(1004 -2992)"/><path class="c" d="M-807.117,3104.334l64.649,39.063" transform="translate(-2089.015 -2102.41) rotate(-60)"/><rect width="38" height="2" rx="1" transform="translate(200 157)"/><g class="h" transform="translate(220 171)"><rect class="u" width="35" height="11" rx="5.5"/><rect class="a" x="0.5" y="0.5" width="34" height="10" rx="5"/></g><rect width="50" height="2" rx="1" transform="translate(200 161)"/><rect width="50" height="2" rx="1" transform="translate(200 165)"/><text class="i" transform="translate(224 171)"><tspan x="0" y="8">Launch</tspan></text></g><g transform="translate(63 -90.563)"><g class="c" transform="translate(192 110)"><rect class="u" width="72" height="81"/><rect class="a" x="2.5" y="2.5" width="67" height="76"/></g><path class="c" d="M-810.469,3142.5h68.73" transform="translate(1004 -2992)"/><path class="c" d="M-808,3106.508l63.791,33.833" transform="translate(1004 -2992)"/><path class="c" d="M-807.117,3104.334l64.649,39.063" transform="translate(-2089.015 -2102.41) rotate(-60)"/><rect width="38" height="2" rx="1" transform="translate(200 157)"/><g class="h" transform="translate(220 171)"><rect class="u" width="35" height="11" rx="5.5"/><rect class="a" x="0.5" y="0.5" width="34" height="10" rx="5"/></g><rect width="50" height="2" rx="1" transform="translate(200 161)"/><rect width="50" height="2" rx="1" transform="translate(200 165)"/><text class="i" transform="translate(224 171)"><tspan x="0" y="8">Launch</tspan></text></g><g transform="translate(148 -90.563)"><g class="c" transform="translate(192 110)"><rect class="u" width="72" height="81"/><rect class="a" x="2.5" y="2.5" width="67" height="76"/></g><path class="c" d="M-810.469,3142.5h68.73" transform="translate(1004 -2992)"/><path class="c" d="M-808,3106.508l63.791,33.833" transform="translate(1004 -2992)"/><path class="c" d="M-807.117,3104.334l64.649,39.063" transform="translate(-2089.015 -2102.41) rotate(-60)"/><rect width="38" height="2" rx="1" transform="translate(200 157)"/><g class="h" transform="translate(220 171)"><rect class="u" width="35" height="11" rx="5.5"/><rect class="a" x="0.5" y="0.5" width="34" height="10" rx="5"/></g><rect width="50" height="2" rx="1" transform="translate(200 161)"/><rect width="50" height="2" rx="1" transform="translate(200 165)"/><text class="i" transform="translate(224 171)"><tspan x="0" y="8">Launch</tspan></text></g><g transform="translate(-192 -1.563)"><g class="c" transform="translate(192 110)"><rect class="u" width="72" height="81"/><rect class="a" x="2.5" y="2.5" width="67" height="76"/></g><path class="c" d="M-810.469,3142.5h68.73" transform="translate(1004 -2992)"/><path class="c" d="M-808,3106.508l63.791,33.833" transform="translate(1004 -2992)"/><path class="c" d="M-807.117,3104.334l64.649,39.063" transform="translate(-2089.015 -2102.41) rotate(-60)"/><rect width="38" height="2" rx="1" transform="translate(200 157)"/><g class="h" transform="translate(220 171)"><rect class="u" width="35" height="11" rx="5.5"/><rect class="a" x="0.5" y="0.5" width="34" height="10" rx="5"/></g><rect width="50" height="2" rx="1" transform="translate(200 161)"/><rect width="50" height="2" rx="1" transform="translate(200 165)"/><text class="i" transform="translate(224 171)"><tspan x="0" y="8">Launch</tspan></text></g><g transform="translate(-107 -1.563)"><g class="c" transform="translate(192 110)"><rect class="u" width="72" height="81"/><rect class="a" x="2.5" y="2.5" width="67" height="76"/></g><path class="c" d="M-810.469,3142.5h68.73" transform="translate(1004 -2992)"/><path class="c" d="M-808,3106.508l63.791,33.833" transform="translate(1004 -2992)"/><path class="c" d="M-807.117,3104.334l64.649,39.063" transform="translate(-2089.015 -2102.41) rotate(-60)"/><rect width="38" height="2" rx="1" transform="translate(200 157)"/><g class="h" transform="translate(220 171)"><rect class="u" width="35" height="11" rx="5.5"/><rect class="a" x="0.5" y="0.5" width="34" height="10" rx="5"/></g><rect width="50" height="2" rx="1" transform="translate(200 161)"/><rect width="50" height="2" rx="1" transform="translate(200 165)"/><text class="i" transform="translate(224 171)"><tspan x="0" y="8">Launch</tspan></text></g><g transform="translate(-22 -1.563)"><g class="c" transform="translate(192 110)"><rect class="u" width="72" height="81"/><rect class="a" x="2.5" y="2.5" width="67" height="76"/></g><path class="c" d="M-810.469,3142.5h68.73" transform="translate(1004 -2992)"/><path class="c" d="M-808,3106.508l63.791,33.833" transform="translate(1004 -2992)"/><path class="c" d="M-807.117,3104.334l64.649,39.063" transform="translate(-2089.015 -2102.41) rotate(-60)"/><rect width="38" height="2" rx="1" transform="translate(200 157)"/><g class="h" transform="translate(220 171)"><rect class="u" width="35" height="11" rx="5.5"/><rect class="a" x="0.5" y="0.5" width="34" height="10" rx="5"/></g><rect width="50" height="2" rx="1" transform="translate(200 161)"/><rect width="50" height="2" rx="1" transform="translate(200 165)"/><text class="i" transform="translate(224 171)"><tspan x="0" y="8">Launch</tspan></text></g><g transform="translate(63 -1.563)"><g class="c" transform="translate(192 110)"><rect class="u" width="72" height="81"/><rect class="a" x="2.5" y="2.5" width="67" height="76"/></g><path class="c" d="M-810.469,3142.5h68.73" transform="translate(1004 -2992)"/><path class="c" d="M-808,3106.508l63.791,33.833" transform="translate(1004 -2992)"/><path class="c" d="M-807.117,3104.334l64.649,39.063" transform="translate(-2089.015 -2102.41) rotate(-60)"/><rect width="38" height="2" rx="1" transform="translate(200 157)"/><g class="h" transform="translate(220 171)"><rect class="u" width="35" height="11" rx="5.5"/><rect class="a" x="0.5" y="0.5" width="34" height="10" rx="5"/></g><rect width="50" height="2" rx="1" transform="translate(200 161)"/><rect width="50" height="2" rx="1" transform="translate(200 165)"/><text class="i" transform="translate(224 171)"><tspan x="0" y="8">Launch</tspan></text></g><g transform="translate(148 -1.563)"><g class="c" transform="translate(192 110)"><rect class="u" width="72" height="81"/><rect class="a" x="2.5" y="2.5" width="67" height="76"/></g><path class="c" d="M-810.469,3142.5h68.73" transform="translate(1004 -2992)"/><path class="c" d="M-808,3106.508l63.791,33.833" transform="translate(1004 -2992)"/><path class="c" d="M-807.117,3104.334l64.649,39.063" transform="translate(-2089.015 -2102.41) rotate(-60)"/><rect width="38" height="2" rx="1" transform="translate(200 157)"/><g class="h" transform="translate(220 171)"><rect class="u" width="35" height="11" rx="5.5"/><rect class="a" x="0.5" y="0.5" width="34" height="10" rx="5"/></g><rect width="50" height="2" rx="1" transform="translate(200 161)"/><rect width="50" height="2" rx="1" transform="translate(200 165)"/><text class="i" transform="translate(224 171)"><tspan x="0" y="8">Launch</tspan></text></g><g transform="translate(-192 87.437)"><g class="c" transform="translate(192 110)"><rect class="u" width="72" height="81"/><rect class="a" x="2.5" y="2.5" width="67" height="76"/></g><path class="c" d="M-810.469,3142.5h68.73" transform="translate(1004 -2992)"/><path class="c" d="M-808,3106.508l63.791,33.833" transform="translate(1004 -2992)"/><path class="c" d="M-807.117,3104.334l64.649,39.063" transform="translate(-2089.015 -2102.41) rotate(-60)"/><rect width="38" height="2" rx="1" transform="translate(200 157)"/><g class="h" transform="translate(220 171)"><rect class="u" width="35" height="11" rx="5.5"/><rect class="a" x="0.5" y="0.5" width="34" height="10" rx="5"/></g><rect width="50" height="2" rx="1" transform="translate(200 161)"/><rect width="50" height="2" rx="1" transform="translate(200 165)"/><text class="i" transform="translate(224 171)"><tspan x="0" y="8">Launch</tspan></text></g><g transform="translate(-107 87.437)"><g class="c" transform="translate(192 110)"><rect class="u" width="72" height="81"/><rect class="a" x="2.5" y="2.5" width="67" height="76"/></g><path class="c" d="M-810.469,3142.5h68.73" transform="translate(1004 -2992)"/><path class="c" d="M-808,3106.508l63.791,33.833" transform="translate(1004 -2992)"/><path class="c" d="M-807.117,3104.334l64.649,39.063" transform="translate(-2089.015 -2102.41) rotate(-60)"/><rect width="38" height="2" rx="1" transform="translate(200 157)"/><g class="h" transform="translate(220 171)"><rect class="u" width="35" height="11" rx="5.5"/><rect class="a" x="0.5" y="0.5" width="34" height="10" rx="5"/></g><rect width="50" height="2" rx="1" transform="translate(200 161)"/><rect width="50" height="2" rx="1" transform="translate(200 165)"/><text class="i" transform="translate(224 171)"><tspan x="0" y="8">Launch</tspan></text></g><g transform="translate(-22 87.437)"><g class="c" transform="translate(192 110)"><rect class="u" width="72" height="81"/><rect class="a" x="2.5" y="2.5" width="67" height="76"/></g><path class="c" d="M-810.469,3142.5h68.73" transform="translate(1004 -2992)"/><path class="c" d="M-808,3106.508l63.791,33.833" transform="translate(1004 -2992)"/><path class="c" d="M-807.117,3104.334l64.649,39.063" transform="translate(-2089.015 -2102.41) rotate(-60)"/><rect width="38" height="2" rx="1" transform="translate(200 157)"/><g class="h" transform="translate(220 171)"><rect class="u" width="35" height="11" rx="5.5"/><rect class="a" x="0.5" y="0.5" width="34" height="10" rx="5"/></g><rect width="50" height="2" rx="1" transform="translate(200 161)"/><rect width="50" height="2" rx="1" transform="translate(200 165)"/><text class="i" transform="translate(224 171)"><tspan x="0" y="8">Launch</tspan></text></g><g transform="translate(63 87.437)"><g class="c" transform="translate(192 110)"><rect class="u" width="72" height="81"/><rect class="a" x="2.5" y="2.5" width="67" height="76"/></g><path class="c" d="M-810.469,3142.5h68.73" transform="translate(1004 -2992)"/><path class="c" d="M-808,3106.508l63.791,33.833" transform="translate(1004 -2992)"/><path class="c" d="M-807.117,3104.334l64.649,39.063" transform="translate(-2089.015 -2102.41) rotate(-60)"/><rect width="38" height="2" rx="1" transform="translate(200 157)"/><g class="h" transform="translate(220 171)"><rect class="u" width="35" height="11" rx="5.5"/><rect class="a" x="0.5" y="0.5" width="34" height="10" rx="5"/></g><rect width="50" height="2" rx="1" transform="translate(200 161)"/><rect width="50" height="2" rx="1" transform="translate(200 165)"/><text class="i" transform="translate(224 171)"><tspan x="0" y="8">Launch</tspan></text></g><g transform="translate(148 87.437)"><g class="c" transform="translate(192 110)"><rect class="u" width="72" height="81"/><rect class="a" x="2.5" y="2.5" width="67" height="76"/></g><path class="c" d="M-810.469,3142.5h68.73" transform="translate(1004 -2992)"/><path class="c" d="M-808,3106.508l63.791,33.833" transform="translate(1004 -2992)"/><path class="c" d="M-807.117,3104.334l64.649,39.063" transform="translate(-2089.015 -2102.41) rotate(-60)"/><rect width="38" height="2" rx="1" transform="translate(200 157)"/><g class="h" transform="translate(220 171)"><rect class="u" width="35" height="11" rx="5.5"/><rect class="a" x="0.5" y="0.5" width="34" height="10" rx="5"/></g><rect width="50" height="2" rx="1" transform="translate(200 161)"/><rect width="50" height="2" rx="1" transform="translate(200 165)"/><text class="i" transform="translate(224 171)"><tspan x="0" y="8">Launch</tspan></text></g></g><text class="j" transform="translate(178 25)"><tspan x="3.404" y="14">LANDING PAGE</tspan></text><g transform="translate(0 30)"><g transform="translate(0 310)"><g class="c" transform="translate(181 367)"><rect class="u" width="439" height="267"/><rect class="a" x="2.5" y="2.5" width="434" height="262"/></g><g transform="translate(0 -10)"><rect width="436" height="21" transform="translate(181 381)"/><g class="d" transform="translate(192 383)"><circle class="u" cx="7" cy="7" r="7"/><circle class="a" cx="7" cy="7" r="4.5"/></g><rect class="e" width="27" height="7" rx="2" transform="translate(214 387)"/><rect class="e" width="27" height="7" rx="2" transform="translate(271 387)"/><rect class="e" width="27" height="7" rx="2" transform="translate(305 387)"/><rect class="e" width="27" height="7" rx="2" transform="translate(339 387)"/><circle class="e" cx="5" cy="5" r="5" transform="translate(599 385)"/><circle class="e" cx="3" cy="3" r="3" transform="translate(586 387)"/><circle class="e" cx="3" cy="3" r="3" transform="translate(575 387)"/><rect width="436" height="23" transform="translate(181 403)"/><text class="f" transform="translate(192 405)"><tspan x="0" y="13">Prototype</tspan></text></g><g transform="translate(562.91 396.148)"><g class="k" transform="translate(0 -0.025)"><rect class="u" width="49.857" height="16.308"/><rect class="a" x="0.5" y="0.5" width="48.857" height="15.308"/></g><g class="l" transform="translate(0 -0.025)"><rect class="u" width="49.857" height="16.308" rx="8.154"/><rect class="a" x="1" y="1" width="47.857" height="14.308" rx="7.154"/></g><text class="m" transform="translate(11.09 11.852)"><tspan x="0" y="0">Close</tspan></text></g><g transform="translate(487.91 396.148)"><g class="k" transform="translate(0 -0.025)"><rect class="u" width="49.857" height="16.308"/><rect class="a" x="0.5" y="0.5" width="48.857" height="15.308"/></g><g class="l" transform="translate(0 -0.025)"><rect class="u" width="69.857" height="16.308" rx="8.154"/><rect class="a" x="1" y="1" width="67.857" height="14.308" rx="7.154"/></g><text class="m" transform="translate(11.09 11.852)"><tspan x="0" y="0">Feedback</tspan></text></g><path class="c" d="M-751.276,3406v218.912" transform="translate(1012 -2994.431)"/><g transform="translate(0 5)"><g class="c" transform="translate(194 422)"><rect class="u" width="55" height="58"/><rect class="a" x="2.5" y="2.5" width="50" height="53"/></g><path class="c" d="M-806.042,3430.18h47.666" transform="translate(1004 -2994)"/><path class="c" d="M-806.042,3430.18h47.666" transform="translate(1004 -2980)"/><path class="c" d="M-806.042,3430.18h47.666" transform="translate(1004 -2966)"/></g><g transform="translate(0 77)"><g class="c" transform="translate(194 422)"><rect class="u" width="55" height="58"/><rect class="a" x="2.5" y="2.5" width="50" height="53"/></g><path class="c" d="M-806.042,3430.18h47.666" transform="translate(1004 -2994)"/><path class="c" d="M-806.042,3430.18h47.666" transform="translate(1004 -2980)"/><path class="c" d="M-806.042,3430.18h47.666" transform="translate(1004 -2966)"/></g><g transform="translate(0 152)"><g class="c" transform="translate(194 422)"><rect class="u" width="55" height="58"/><rect class="a" x="2.5" y="2.5" width="50" height="53"/></g><path class="c" d="M-806.042,3430.18h47.666" transform="translate(1004 -2994)"/><path class="c" d="M-806.042,3430.18h47.666" transform="translate(1004 -2980)"/><path class="c" d="M-806.042,3430.18h47.666" transform="translate(1004 -2966)"/></g><rect width="23" height="2" rx="1" transform="translate(194 421)"/><rect width="23" height="2" rx="1" transform="translate(194 493)"/><rect width="23" height="2" rx="1" transform="translate(194 568)"/><g class="c" transform="translate(272 423)"><rect class="u" width="335" height="114"/><rect class="a" x="2.5" y="2.5" width="330" height="109"/></g><rect width="45" height="48" transform="translate(290 485)"/><rect width="45" height="30" transform="translate(355 503)"/><rect width="45" height="79" transform="translate(419 454)"/><rect width="45" height="53" transform="translate(484 480)"/><rect width="45" height="17" transform="translate(548 516)"/><g class="c" transform="translate(272 546)"><rect class="u" width="335" height="88"/><rect class="a" x="2.5" y="2.5" width="330" height="83"/></g><path class="c" d="M-726.872,3562h326.4" transform="translate(1004 -2992)"/><path class="c" d="M-726.872,3562h326.4" transform="translate(1004 -2972)"/><path class="c" d="M-726.872,3562h326.4" transform="translate(1003 -2952)"/><path class="c" d="M-615.74,3543.155v81.276" transform="translate(1057 -2993)"/><path class="c" d="M-615.74,3543.155v81.276" transform="translate(1143 -2994)"/></g><rect class="n" width="439" height="267" transform="translate(181 677)"/><g class="o" transform="translate(323 723)"><rect class="u" width="155" height="176"/><rect class="a" x="2.5" y="2.5" width="150" height="171"/></g><text class="p" transform="translate(339 735)"><tspan x="0" y="13">Give Feedback</tspan></text><g transform="translate(0 -7)"><g transform="translate(987 -3428)"><g transform="translate(-648 4206)"><rect class="q" width="15" height="15"/><path d="M8.209,2.05a6.159,6.159,0,1,0,6.159,6.159A6.159,6.159,0,0,0,8.209,2.05ZM10.375,4.5a1.135,1.135,0,0,1,.99,1.238,1.135,1.135,0,0,1-.99,1.238,1.135,1.135,0,0,1-.99-1.238A1.135,1.135,0,0,1,10.375,4.5Zm-4.333,0a1.135,1.135,0,0,1,.99,1.238,1.135,1.135,0,0,1-.99,1.238,1.135,1.135,0,0,1-.99-1.238A1.135,1.135,0,0,1,6.042,4.5Zm2.166,7.428A3.629,3.629,0,0,1,4.512,8.8h7.393A3.629,3.629,0,0,1,8.209,11.923Z" transform="translate(-0.781 -0.781)"/></g><g transform="translate(-624.478 4206)"><rect class="q" width="14" height="15" transform="translate(0.478)"/><path d="M8.209,2.05a6.159,6.159,0,1,0,6.159,6.159A6.159,6.159,0,0,0,8.209,2.05ZM10.375,4.5a1.135,1.135,0,0,1,.99,1.238,1.135,1.135,0,0,1-.99,1.238,1.135,1.135,0,0,1-.99-1.238A1.135,1.135,0,0,1,10.375,4.5Zm-4.333,0a1.135,1.135,0,0,1,.99,1.238,1.135,1.135,0,0,1-.99,1.238,1.135,1.135,0,0,1-.99-1.238A1.135,1.135,0,0,1,6.042,4.5Zm4.642,5.261v.619a.309.309,0,0,1-.309.309H6.042a.309.309,0,0,1-.309-.309V9.756a.309.309,0,0,1,.309-.309h4.333A.309.309,0,0,1,10.685,9.756Z" transform="translate(-0.781 -0.781)"/></g><g transform="translate(-600.957 4206)"><rect class="q" width="15" height="15" transform="translate(-0.043)"/><path d="M8.209,2.05a6.159,6.159,0,1,0,6.159,6.159A6.159,6.159,0,0,0,8.209,2.05ZM10.375,4.5a1.135,1.135,0,0,1,.99,1.238,1.135,1.135,0,0,1-.99,1.238,1.135,1.135,0,0,1-.99-1.238A1.135,1.135,0,0,1,10.375,4.5Zm-4.333,0a1.135,1.135,0,0,1,.99,1.238,1.135,1.135,0,0,1-.99,1.238,1.135,1.135,0,0,1-.99-1.238A1.135,1.135,0,0,1,6.042,4.5Zm6.089,6.426-.748.371a.357.357,0,0,1-.417-.071A3.832,3.832,0,0,0,8.226,10.19,3.827,3.827,0,0,0,5.475,11.23a.363.363,0,0,1-.26.111.354.354,0,0,1-.163-.037l-.743-.371a.358.358,0,0,1-.116-.548A5.243,5.243,0,0,1,8.226,8.663,5.248,5.248,0,0,1,12.25,10.37a.357.357,0,0,1-.116.55Z" transform="translate(-0.781 -0.781)"/></g></g><rect width="53" height="2" rx="1" transform="translate(339 768)"/><rect width="86" height="2" rx="1" transform="translate(339 773)"/></g><g transform="translate(0 29)"><g transform="translate(987 -3428)"><g transform="translate(-648 4206)"><rect class="q" width="15" height="15"/><path d="M8.209,2.05a6.159,6.159,0,1,0,6.159,6.159A6.159,6.159,0,0,0,8.209,2.05ZM10.375,4.5a1.135,1.135,0,0,1,.99,1.238,1.135,1.135,0,0,1-.99,1.238,1.135,1.135,0,0,1-.99-1.238A1.135,1.135,0,0,1,10.375,4.5Zm-4.333,0a1.135,1.135,0,0,1,.99,1.238,1.135,1.135,0,0,1-.99,1.238,1.135,1.135,0,0,1-.99-1.238A1.135,1.135,0,0,1,6.042,4.5Zm2.166,7.428A3.629,3.629,0,0,1,4.512,8.8h7.393A3.629,3.629,0,0,1,8.209,11.923Z" transform="translate(-0.781 -0.781)"/></g><g transform="translate(-624.478 4206)"><rect class="q" width="14" height="15" transform="translate(0.478)"/><path d="M8.209,2.05a6.159,6.159,0,1,0,6.159,6.159A6.159,6.159,0,0,0,8.209,2.05ZM10.375,4.5a1.135,1.135,0,0,1,.99,1.238,1.135,1.135,0,0,1-.99,1.238,1.135,1.135,0,0,1-.99-1.238A1.135,1.135,0,0,1,10.375,4.5Zm-4.333,0a1.135,1.135,0,0,1,.99,1.238,1.135,1.135,0,0,1-.99,1.238,1.135,1.135,0,0,1-.99-1.238A1.135,1.135,0,0,1,6.042,4.5Zm4.642,5.261v.619a.309.309,0,0,1-.309.309H6.042a.309.309,0,0,1-.309-.309V9.756a.309.309,0,0,1,.309-.309h4.333A.309.309,0,0,1,10.685,9.756Z" transform="translate(-0.781 -0.781)"/></g><g transform="translate(-600.957 4206)"><rect class="q" width="15" height="15" transform="translate(-0.043)"/><path d="M8.209,2.05a6.159,6.159,0,1,0,6.159,6.159A6.159,6.159,0,0,0,8.209,2.05ZM10.375,4.5a1.135,1.135,0,0,1,.99,1.238,1.135,1.135,0,0,1-.99,1.238,1.135,1.135,0,0,1-.99-1.238A1.135,1.135,0,0,1,10.375,4.5Zm-4.333,0a1.135,1.135,0,0,1,.99,1.238,1.135,1.135,0,0,1-.99,1.238,1.135,1.135,0,0,1-.99-1.238A1.135,1.135,0,0,1,6.042,4.5Zm6.089,6.426-.748.371a.357.357,0,0,1-.417-.071A3.832,3.832,0,0,0,8.226,10.19,3.827,3.827,0,0,0,5.475,11.23a.363.363,0,0,1-.26.111.354.354,0,0,1-.163-.037l-.743-.371a.358.358,0,0,1-.116-.548A5.243,5.243,0,0,1,8.226,8.663,5.248,5.248,0,0,1,12.25,10.37a.357.357,0,0,1-.116.55Z" transform="translate(-0.781 -0.781)"/></g></g><rect width="53" height="2" rx="1" transform="translate(339 768)"/><rect width="86" height="2" rx="1" transform="translate(339 773)"/></g><g transform="translate(0 65)"><g transform="translate(987 -3428)"><g transform="translate(-648 4206)"><rect class="q" width="15" height="15"/><path d="M8.209,2.05a6.159,6.159,0,1,0,6.159,6.159A6.159,6.159,0,0,0,8.209,2.05ZM10.375,4.5a1.135,1.135,0,0,1,.99,1.238,1.135,1.135,0,0,1-.99,1.238,1.135,1.135,0,0,1-.99-1.238A1.135,1.135,0,0,1,10.375,4.5Zm-4.333,0a1.135,1.135,0,0,1,.99,1.238,1.135,1.135,0,0,1-.99,1.238,1.135,1.135,0,0,1-.99-1.238A1.135,1.135,0,0,1,6.042,4.5Zm2.166,7.428A3.629,3.629,0,0,1,4.512,8.8h7.393A3.629,3.629,0,0,1,8.209,11.923Z" transform="translate(-0.781 -0.781)"/></g><g transform="translate(-624.478 4206)"><rect class="q" width="14" height="15" transform="translate(0.478)"/><path d="M8.209,2.05a6.159,6.159,0,1,0,6.159,6.159A6.159,6.159,0,0,0,8.209,2.05ZM10.375,4.5a1.135,1.135,0,0,1,.99,1.238,1.135,1.135,0,0,1-.99,1.238,1.135,1.135,0,0,1-.99-1.238A1.135,1.135,0,0,1,10.375,4.5Zm-4.333,0a1.135,1.135,0,0,1,.99,1.238,1.135,1.135,0,0,1-.99,1.238,1.135,1.135,0,0,1-.99-1.238A1.135,1.135,0,0,1,6.042,4.5Zm4.642,5.261v.619a.309.309,0,0,1-.309.309H6.042a.309.309,0,0,1-.309-.309V9.756a.309.309,0,0,1,.309-.309h4.333A.309.309,0,0,1,10.685,9.756Z" transform="translate(-0.781 -0.781)"/></g><g transform="translate(-600.957 4206)"><rect class="q" width="15" height="15" transform="translate(-0.043)"/><path d="M8.209,2.05a6.159,6.159,0,1,0,6.159,6.159A6.159,6.159,0,0,0,8.209,2.05ZM10.375,4.5a1.135,1.135,0,0,1,.99,1.238,1.135,1.135,0,0,1-.99,1.238,1.135,1.135,0,0,1-.99-1.238A1.135,1.135,0,0,1,10.375,4.5Zm-4.333,0a1.135,1.135,0,0,1,.99,1.238,1.135,1.135,0,0,1-.99,1.238,1.135,1.135,0,0,1-.99-1.238A1.135,1.135,0,0,1,6.042,4.5Zm6.089,6.426-.748.371a.357.357,0,0,1-.417-.071A3.832,3.832,0,0,0,8.226,10.19,3.827,3.827,0,0,0,5.475,11.23a.363.363,0,0,1-.26.111.354.354,0,0,1-.163-.037l-.743-.371a.358.358,0,0,1-.116-.548A5.243,5.243,0,0,1,8.226,8.663,5.248,5.248,0,0,1,12.25,10.37a.357.357,0,0,1-.116.55Z" transform="translate(-0.781 -0.781)"/></g></g><rect width="53" height="2" rx="1" transform="translate(339 768)"/><rect width="86" height="2" rx="1" transform="translate(339 773)"/></g><g transform="translate(1586 -2429.492)"><g class="h" transform="translate(-1247 3300.492)"><rect class="u" width="45" height="14" rx="7"/><rect class="a" x="0.5" y="0.5" width="44" height="13" rx="6.5"/></g><text class="r" transform="translate(-1241 3300.492)"><tspan x="0" y="10">Submit</tspan></text></g><text class="j" transform="translate(178 650)"><tspan x="3.224" y="14">FEEDBACK MODAL</tspan></text></g><g transform="translate(0 12.5)"><g class="c" transform="translate(181 367)"><rect class="u" width="439" height="267"/><rect class="a" x="2.5" y="2.5" width="434" height="262"/></g><g transform="translate(0 -10)"><rect width="436" height="21" transform="translate(181 381)"/><g class="d" transform="translate(192 383)"><circle class="u" cx="7" cy="7" r="7"/><circle class="a" cx="7" cy="7" r="4.5"/></g><rect class="e" width="27" height="7" rx="2" transform="translate(214 387)"/><rect class="e" width="27" height="7" rx="2" transform="translate(271 387)"/><rect class="e" width="27" height="7" rx="2" transform="translate(305 387)"/><rect class="e" width="27" height="7" rx="2" transform="translate(339 387)"/><circle class="e" cx="5" cy="5" r="5" transform="translate(599 385)"/><circle class="e" cx="3" cy="3" r="3" transform="translate(586 387)"/><circle class="e" cx="3" cy="3" r="3" transform="translate(575 387)"/><rect width="436" height="23" transform="translate(181 403)"/><text class="f" transform="translate(192 405)"><tspan x="0" y="13">Prototype</tspan></text></g><g transform="translate(562.91 396.148)"><g class="k" transform="translate(0 -0.025)"><rect class="u" width="49.857" height="16.308"/><rect class="a" x="0.5" y="0.5" width="48.857" height="15.308"/></g><g class="l" transform="translate(0 -0.025)"><rect class="u" width="49.857" height="16.308" rx="8.154"/><rect class="a" x="1" y="1" width="47.857" height="14.308" rx="7.154"/></g><text class="m" transform="translate(11.09 11.852)"><tspan x="0" y="0">Close</tspan></text></g><g transform="translate(487.91 396.148)"><g class="k" transform="translate(0 -0.025)"><rect class="u" width="49.857" height="16.308"/><rect class="a" x="0.5" y="0.5" width="48.857" height="15.308"/></g><g class="l" transform="translate(0 -0.025)"><rect class="u" width="69.857" height="16.308" rx="8.154"/><rect class="a" x="1" y="1" width="67.857" height="14.308" rx="7.154"/></g><text class="m" transform="translate(11.09 11.852)"><tspan x="0" y="0">Feedback</tspan></text></g><path class="c" d="M-751.276,3406v218.912" transform="translate(1012 -2994.431)"/><g transform="translate(0 5)"><g class="c" transform="translate(194 422)"><rect class="u" width="55" height="58"/><rect class="a" x="2.5" y="2.5" width="50" height="53"/></g><path class="c" d="M-806.042,3430.18h47.666" transform="translate(1004 -2994)"/><path class="c" d="M-806.042,3430.18h47.666" transform="translate(1004 -2980)"/><path class="c" d="M-806.042,3430.18h47.666" transform="translate(1004 -2966)"/></g><g transform="translate(0 77)"><g class="c" transform="translate(194 422)"><rect class="u" width="55" height="58"/><rect class="a" x="2.5" y="2.5" width="50" height="53"/></g><path class="c" d="M-806.042,3430.18h47.666" transform="translate(1004 -2994)"/><path class="c" d="M-806.042,3430.18h47.666" transform="translate(1004 -2980)"/><path class="c" d="M-806.042,3430.18h47.666" transform="translate(1004 -2966)"/></g><g transform="translate(0 152)"><g class="c" transform="translate(194 422)"><rect class="u" width="55" height="58"/><rect class="a" x="2.5" y="2.5" width="50" height="53"/></g><path class="c" d="M-806.042,3430.18h47.666" transform="translate(1004 -2994)"/><path class="c" d="M-806.042,3430.18h47.666" transform="translate(1004 -2980)"/><path class="c" d="M-806.042,3430.18h47.666" transform="translate(1004 -2966)"/></g><rect width="23" height="2" rx="1" transform="translate(194 421)"/><rect width="23" height="2" rx="1" transform="translate(194 493)"/><rect width="23" height="2" rx="1" transform="translate(194 568)"/><g class="c" transform="translate(272 423)"><rect class="u" width="335" height="114"/><rect class="a" x="2.5" y="2.5" width="330" height="109"/></g><rect width="45" height="48" transform="translate(290 485)"/><rect width="45" height="30" transform="translate(355 503)"/><rect width="45" height="79" transform="translate(419 454)"/><rect width="45" height="53" transform="translate(484 480)"/><rect width="45" height="17" transform="translate(548 516)"/><g class="c" transform="translate(272 546)"><rect class="u" width="335" height="88"/><rect class="a" x="2.5" y="2.5" width="330" height="83"/></g><path class="c" d="M-726.872,3562h326.4" transform="translate(1004 -2992)"/><path class="c" d="M-726.872,3562h326.4" transform="translate(1004 -2972)"/><path class="c" d="M-726.872,3562h326.4" transform="translate(1003 -2952)"/><path class="c" d="M-615.74,3543.155v81.276" transform="translate(1057 -2993)"/><path class="c" d="M-615.74,3543.155v81.276" transform="translate(1143 -2994)"/><text class="j" transform="translate(176.5 339.5)"><tspan x="2.896" y="14">OPEN PROTOTYPE</tspan></text></g><path class="s" d="M-812.2,3125.688s-15.449-23.5-52.136-6.6-33.945-18.609-33.945-18.609" transform="translate(1004 -2992)"/><path d="M3,0,6,5H0Z" transform="matrix(-0.819, 0.574, -0.574, -0.819, 196.745, 135.474)"/><text class="t" transform="translate(18 48)"><tspan x="11.153" y="14">Visual landing page, </tspan><tspan x="5.217" y="30">with a brief description </tspan><tspan x="18.818" y="46">of each prototype </tspan></text><path d="M3,0,6,5H0Z" transform="matrix(-0.921, -0.391, 0.391, -0.921, 601.638, 252.62)"/><text class="t" transform="translate(654 156)"><tspan x="7.499" y="14">Clear call to action for </tspan><tspan x="12.847" y="30">the user to launch a </tspan><tspan x="39.433" y="46">prototype </tspan></text><path class="s" d="M-345.33,3166.6s-22.055-4.767-26.236,11.136,7.354,57.8-9.991,59.052-20.707,13.729-20.707,13.729" transform="translate(1002 -3002)"/><path class="s" d="M-830.071,3409.206s-77.387-5.339-79.017,60.037" transform="translate(1004 -2992)"/><path d="M3,0,6,5H0Z" transform="translate(178.406 414.191) rotate(91)"/><text class="t" transform="translate(30 485)"><tspan x="9.886" y="14">Prototype navigation </tspan><tspan x="19.056" y="30">covers up normal </tspan><tspan x="29.983" y="46">project menu</tspan></text><path d="M3,0,6,5H0Z" transform="translate(613.922 583.604) rotate(90)"/><text class="t" transform="translate(645 587)"><tspan x="2.154" y="14">Still have all the familiar </tspan><tspan x="30.336" y="30">visualizations</tspan></text><path class="s" d="M-294,3572.5s-.758-40.118-34.556-33.43-65.713,39.934-65.713,39.934" transform="translate(1004 -2992)"/><path class="s" d="M-812.2,3125.688s-15.449-23.5-52.136-6.6-33.945-18.609-33.945-18.609" transform="translate(991 -2284)"/><text class="t" transform="translate(28 756)"><tspan x="6.974" y="14">Feedback modal pops </tspan><tspan x="8.836" y="30">once when they close </tspan><tspan x="29.717" y="46">the prototype</tspan></text><path d="M3,0,6,5H0Z" transform="matrix(-0.819, 0.574, -0.574, -0.819, 182.745, 842.474)"/></g></svg>