<svg id="Layer_1" data-name="Layer 1" xmlns="http://www.w3.org/2000/svg" viewBox="0 0 200 200"><defs><style>.cls-1{stroke:#231f20;stroke-miterlimit:10;}.cls-2{fill:#fff;}.cls-3{fill:#eac138;}</style></defs><title>labs-art</title><rect class="cls-1" width="200" height="200"/><path class="cls-2" d="M27,89.93l.13,4.8H24.5v-8.5h3.73l1.54,4.57h.06l1.33-4.57H35v8.5H32.24L32.32,90h-.07l-1.59,4.79h-2l-1.56-4.8Z"/><path class="cls-2" d="M39.78,90.72a.5.5,0,0,0-.19-.43,1,1,0,0,0-.53-.13,1.64,1.64,0,0,0-.72.16,2.86,2.86,0,0,0-.61.38l-1.38-1.37a4,4,0,0,1,1.37-.85,4.57,4.57,0,0,1,1.63-.3,3.77,3.77,0,0,1,1.49.25,2.36,2.36,0,0,1,.93.69,2.62,2.62,0,0,1,.48,1,5.48,5.48,0,0,1,.14,1.24v3.33H39.88v-.51h0a1.31,1.31,0,0,1-.69.52,2.66,2.66,0,0,1-.86.16,2.91,2.91,0,0,1-.76-.11,2.05,2.05,0,0,1-.71-.35,1.85,1.85,0,0,1-.52-.62,2,2,0,0,1-.21-.95,1.7,1.7,0,0,1,.34-1.08,2.35,2.35,0,0,1,.87-.64,4,4,0,0,1,1.19-.32,9.26,9.26,0,0,1,1.27-.09Zm0,1.39a3.3,3.3,0,0,0-1,.13.51.51,0,0,0-.37.5.4.4,0,0,0,.06.22.46.46,0,0,0,.16.15.67.67,0,0,0,.21.09.76.76,0,0,0,.21,0,.86.86,0,0,0,.63-.25.92.92,0,0,0,.24-.65v-.22Z"/><path class="cls-2" d="M47,95a4.38,4.38,0,0,1-1.48-.24A3.47,3.47,0,0,1,44.32,94,3.15,3.15,0,0,1,43.55,93a3.55,3.55,0,0,1-.27-1.41,3.37,3.37,0,0,1,.28-1.4,3.21,3.21,0,0,1,.78-1.07,3.49,3.49,0,0,1,1.19-.68A4.36,4.36,0,0,1,47,88.18a3.63,3.63,0,0,1,.65,0c.22,0,.43.09.64.15a4.08,4.08,0,0,1,.56.22,2,2,0,0,1,.44.26l-1.38,2a.94.94,0,0,0-.38-.25,1.26,1.26,0,0,0-.45-.08,1.34,1.34,0,0,0-.4.06,1,1,0,0,0-.58.54,1,1,0,0,0-.1.46,1,1,0,0,0,.1.47.87.87,0,0,0,.24.32,1.14,1.14,0,0,0,.34.19,1.09,1.09,0,0,0,.4.07,1.27,1.27,0,0,0,.47-.09,1,1,0,0,0,.37-.25l1.39,1.94a3.47,3.47,0,0,1-1,.52A4,4,0,0,1,47,95Z"/><path class="cls-2" d="M54.36,88.25a2.23,2.23,0,0,1,1.09.24,2,2,0,0,1,.7.62,2.43,2.43,0,0,1,.36.84,5,5,0,0,1,.1.94v3.84H53.84V91.37a1.1,1.1,0,0,0-.15-.67.54.54,0,0,0-.45-.2.59.59,0,0,0-.44.21,1,1,0,0,0-.19.67v3.35H49.84V85.66h2.77v3.45h0a2.05,2.05,0,0,1,.69-.6A1.94,1.94,0,0,1,54.36,88.25Z"/><path class="cls-2" d="M57.79,86.59a1.25,1.25,0,0,1,.12-.54,1.34,1.34,0,0,1,.31-.45,1.62,1.62,0,0,1,.46-.31,1.38,1.38,0,0,1,.57-.11,1.24,1.24,0,0,1,.54.11,1.57,1.57,0,0,1,.45.31,1.34,1.34,0,0,1,.31.45,1.41,1.41,0,0,1,.11.54,1.47,1.47,0,0,1-.11.56,1.4,1.4,0,0,1-.31.44,1.37,1.37,0,0,1-.45.3,1.41,1.41,0,0,1-.54.11,1.56,1.56,0,0,1-.57-.11,1.44,1.44,0,0,1-.77-.74A1.31,1.31,0,0,1,57.79,86.59Zm.05,1.83h2.78v6.31H57.84Z"/><path class="cls-2" d="M61.9,88.42h2.7v.69h0a2,2,0,0,1,.71-.6,2.17,2.17,0,0,1,1.09-.26,2.23,2.23,0,0,1,1.09.24,1.92,1.92,0,0,1,.7.62,2.43,2.43,0,0,1,.36.84,5,5,0,0,1,.1.94v3.84H65.9V91.37a1.1,1.1,0,0,0-.15-.67.58.58,0,0,0-.9,0,1,1,0,0,0-.18.64v3.36H61.9Z"/><path class="cls-2" d="M76.48,91.63c0,.11,0,.21,0,.32s0,.2,0,.27H72.21a.48.48,0,0,0,.11.3,1.1,1.1,0,0,0,.25.23,1.28,1.28,0,0,0,.34.14,1.58,1.58,0,0,0,.38,0,1.38,1.38,0,0,0,.64-.14,1.25,1.25,0,0,0,.39-.3l2,1a2.86,2.86,0,0,1-1.22,1.08,4.35,4.35,0,0,1-3.19.18,3.36,3.36,0,0,1-1.14-.64,3.16,3.16,0,0,1-.8-1.06,3.46,3.46,0,0,1-.3-1.48,3.38,3.38,0,0,1,.28-1.41,3.14,3.14,0,0,1,.75-1.07,3.26,3.26,0,0,1,1.11-.67,3.93,3.93,0,0,1,1.38-.24,3.49,3.49,0,0,1,1.35.25,3.27,3.27,0,0,1,1,.72,3.34,3.34,0,0,1,.68,1.1A3.93,3.93,0,0,1,76.48,91.63Zm-2.39-.9a.68.68,0,0,0-.25-.55,1.1,1.1,0,0,0-1.37,0,.92.92,0,0,0-.29.51Z"/><path class="cls-2" d="M80.45,85.66h2.83v9.07H80.45Z"/><path class="cls-2" d="M91.14,91.63V92c0,.11,0,.2,0,.27H86.87a.56.56,0,0,0,.12.3.93.93,0,0,0,.25.23,1.22,1.22,0,0,0,.33.14,1.65,1.65,0,0,0,.38,0,1.35,1.35,0,0,0,.64-.14,1.25,1.25,0,0,0,.39-.3l2,1a2.86,2.86,0,0,1-1.22,1.08,4,4,0,0,1-1.85.4,4,4,0,0,1-1.33-.22,3.41,3.41,0,0,1-1.15-.64,3.16,3.16,0,0,1-.8-1.06,3.46,3.46,0,0,1-.3-1.48,3.38,3.38,0,0,1,.28-1.41,3.14,3.14,0,0,1,.75-1.07,3.31,3.31,0,0,1,1.12-.67,3.83,3.83,0,0,1,1.37-.24,3.45,3.45,0,0,1,1.35.25,3.27,3.27,0,0,1,1,.72,3.18,3.18,0,0,1,.68,1.1A3.93,3.93,0,0,1,91.14,91.63Zm-2.39-.9a.71.71,0,0,0-.24-.55,1,1,0,0,0-.67-.22,1,1,0,0,0-.71.26.9.9,0,0,0-.28.51Z"/><path class="cls-2" d="M95.39,90.72a.49.49,0,0,0-.2-.43.89.89,0,0,0-.52-.13,1.61,1.61,0,0,0-.72.16,2.63,2.63,0,0,0-.61.38L92,89.33a3.92,3.92,0,0,1,1.37-.85,4.57,4.57,0,0,1,1.63-.3,3.8,3.8,0,0,1,1.49.25,2.36,2.36,0,0,1,.93.69,2.62,2.62,0,0,1,.48,1A5.48,5.48,0,0,1,98,91.4v3.33H95.49v-.51h0a1.28,1.28,0,0,1-.68.52,2.71,2.71,0,0,1-.86.16,3,3,0,0,1-.77-.11,2,2,0,0,1-.7-.35,1.88,1.88,0,0,1-.53-.62,2.12,2.12,0,0,1-.2-.95,1.64,1.64,0,0,1,.34-1.08,2.35,2.35,0,0,1,.87-.64,3.94,3.94,0,0,1,1.18-.32,9.51,9.51,0,0,1,1.28-.09Zm0,1.39a3.3,3.3,0,0,0-1,.13.5.5,0,0,0-.37.5.4.4,0,0,0,.06.22.46.46,0,0,0,.16.15.67.67,0,0,0,.21.09.76.76,0,0,0,.21,0,.86.86,0,0,0,.63-.25.92.92,0,0,0,.24-.65v-.22Z"/><path class="cls-2" d="M99.13,88.42h2.67v.72h0a1.7,1.7,0,0,1,.61-.64,1.72,1.72,0,0,1,.94-.25,1.93,1.93,0,0,1,.53.06l-.22,2.35-.29,0a1.62,1.62,0,0,0-.3,0,1.2,1.2,0,0,0-.86.31,1,1,0,0,0-.32.77v3.06H99.13Z"/><path class="cls-2" d="M104.47,88.42h2.7v.69h0a2,2,0,0,1,.71-.6,2.16,2.16,0,0,1,1.08-.26,2.27,2.27,0,0,1,1.1.24,1.88,1.88,0,0,1,.69.62,2.43,2.43,0,0,1,.36.84,4.29,4.29,0,0,1,.1.94v3.84h-2.77V91.37a1.1,1.1,0,0,0-.15-.67.54.54,0,0,0-.45-.2.56.56,0,0,0-.45.23,1,1,0,0,0-.17.64v3.36h-2.78Z"/><path class="cls-2" d="M112.43,86.59a1.41,1.41,0,0,1,.11-.54,1.23,1.23,0,0,1,.32-.45,1.49,1.49,0,0,1,.46-.31,1.3,1.3,0,0,1,.56-.11,1.24,1.24,0,0,1,.54.11,1.57,1.57,0,0,1,.45.31,1.21,1.21,0,0,1,.31.45,1.25,1.25,0,0,1,.12.54,1.31,1.31,0,0,1-.12.56,1.25,1.25,0,0,1-.31.44,1.37,1.37,0,0,1-.45.3,1.41,1.41,0,0,1-.54.11,1.47,1.47,0,0,1-.56-.11,1.31,1.31,0,0,1-.46-.3,1.28,1.28,0,0,1-.32-.44A1.47,1.47,0,0,1,112.43,86.59Zm0,1.83h2.77v6.31h-2.77Z"/><path class="cls-2" d="M116.53,88.42h2.7v.69h0a2,2,0,0,1,.71-.6,2.16,2.16,0,0,1,1.08-.26,2.27,2.27,0,0,1,1.1.24,1.88,1.88,0,0,1,.69.62,2.43,2.43,0,0,1,.36.84,4.29,4.29,0,0,1,.1.94v3.84h-2.77V91.37a1.1,1.1,0,0,0-.15-.67.54.54,0,0,0-.45-.2.56.56,0,0,0-.45.23,1,1,0,0,0-.17.64v3.36h-2.78Z"/><path class="cls-2" d="M124.27,91.55a4.07,4.07,0,0,1,.19-1.2,3.34,3.34,0,0,1,.55-1.06,2.74,2.74,0,0,1,.9-.75,2.5,2.5,0,0,1,1.24-.29,2.6,2.6,0,0,1,1,.19,1.79,1.79,0,0,1,.8.61h0v-.63h2.6v5.66a4,4,0,0,1-.33,1.72,3,3,0,0,1-.9,1.08,3.44,3.44,0,0,1-1.26.57,7.06,7.06,0,0,1-1.44.16,7,7,0,0,1-1.8-.24,4.83,4.83,0,0,1-1.58-.69l1.22-1.83a3.18,3.18,0,0,0,1,.51,3,3,0,0,0,1,.16,2.12,2.12,0,0,0,.57-.08,1.47,1.47,0,0,0,.47-.23,1,1,0,0,0,.32-.37,1.07,1.07,0,0,0,.12-.51v-.27h0a1.92,1.92,0,0,1-.68.46,2.4,2.4,0,0,1-1,.21,3,3,0,0,1-1.27-.26,2.49,2.49,0,0,1-.9-.7,2.79,2.79,0,0,1-.53-1A4,4,0,0,1,124.27,91.55Zm2.57,0a1.1,1.1,0,0,0,.27.76,1,1,0,0,0,.77.31A1.06,1.06,0,0,0,129,91.55a1,1,0,0,0-.3-.73,1,1,0,0,0-.78-.32.94.94,0,0,0-.77.32A1.06,1.06,0,0,0,126.84,91.55Z"/><path class="cls-2" d="M141.49,94.12a3,3,0,0,1-1,.55,4,4,0,0,1-1.43.23,5,5,0,0,1-1.21-.15,3.32,3.32,0,0,1-1.07-.45,2.45,2.45,0,0,1-.78-.82,2.34,2.34,0,0,1-.3-1.21,2.37,2.37,0,0,1,.49-1.4,2.3,2.3,0,0,1,.53-.5,3.21,3.21,0,0,1,.65-.37,2.92,2.92,0,0,1-.59-.75,2,2,0,0,1-.24-1,1.89,1.89,0,0,1,.29-1.06,2.29,2.29,0,0,1,.72-.7,3.3,3.3,0,0,1,1-.39,4.83,4.83,0,0,1,1.05-.12,4.19,4.19,0,0,1,1,.13,2.93,2.93,0,0,1,.94.4,2.23,2.23,0,0,1,.69.71,2.12,2.12,0,0,1,.26,1.07,1.8,1.8,0,0,1-.13.71,2.34,2.34,0,0,1-.36.58,3.29,3.29,0,0,1-.52.46,6.65,6.65,0,0,1-.63.39l.59.56.66-1h3l-2,2.48,2.31,2.2h-3.34Zm-2.59-2.67a.8.8,0,0,0-.32.22.6.6,0,0,0-.15.44.56.56,0,0,0,.08.3.63.63,0,0,0,.19.21,1.23,1.23,0,0,0,.26.12l.28,0a1.16,1.16,0,0,0,.42-.07.77.77,0,0,0,.3-.18Zm.75-3.62a.49.49,0,0,0-.42.17.59.59,0,0,0-.14.38.66.66,0,0,0,.12.38,1.32,1.32,0,0,0,.33.34,1.29,1.29,0,0,0,.45-.29.61.61,0,0,0,.18-.43A.6.6,0,0,0,140,88,.5.5,0,0,0,139.65,87.83Z"/><path class="cls-2" d="M27.29,103.91h2.59v2.34H27.3v2.88H24.5v-8.5h5.73V103H27.29Z"/><path class="cls-2" d="M37.32,106v.32c0,.11,0,.2,0,.27H33.05a.56.56,0,0,0,.12.3.93.93,0,0,0,.25.23,1.22,1.22,0,0,0,.33.14,1.65,1.65,0,0,0,.38,0,1.35,1.35,0,0,0,.64-.14,1.05,1.05,0,0,0,.39-.3l2,1A2.81,2.81,0,0,1,35.91,109a4,4,0,0,1-1.85.4,4,4,0,0,1-1.33-.22,3.41,3.41,0,0,1-1.15-.64,3.16,3.16,0,0,1-.8-1.06,3.46,3.46,0,0,1-.3-1.48,3.55,3.55,0,0,1,.28-1.41,3.14,3.14,0,0,1,.75-1.07,3.41,3.41,0,0,1,1.12-.67,3.83,3.83,0,0,1,1.37-.24,3.19,3.19,0,0,1,2.41,1,3.32,3.32,0,0,1,.67,1.1A3.93,3.93,0,0,1,37.32,106Zm-2.38-.9a.71.71,0,0,0-.25-.55,1,1,0,0,0-.67-.22.93.93,0,0,0-.7.26.87.87,0,0,0-.29.51Z"/><path class="cls-2" d="M44.88,106v.32c0,.11,0,.2,0,.27H40.61a.56.56,0,0,0,.12.3.93.93,0,0,0,.25.23,1.22,1.22,0,0,0,.33.14,1.65,1.65,0,0,0,.38,0,1.35,1.35,0,0,0,.64-.14,1.05,1.05,0,0,0,.39-.3l2,1A2.81,2.81,0,0,1,43.47,109a4,4,0,0,1-1.85.4,4,4,0,0,1-1.33-.22,3.41,3.41,0,0,1-1.15-.64,3.16,3.16,0,0,1-.8-1.06A3.46,3.46,0,0,1,38,106a3.55,3.55,0,0,1,.28-1.41,3.14,3.14,0,0,1,.75-1.07,3.41,3.41,0,0,1,1.12-.67,3.83,3.83,0,0,1,1.37-.24,3.19,3.19,0,0,1,2.41,1,3.32,3.32,0,0,1,.67,1.1A3.93,3.93,0,0,1,44.88,106Zm-2.38-.9a.71.71,0,0,0-.25-.55,1,1,0,0,0-.67-.22.93.93,0,0,0-.7.26.87.87,0,0,0-.29.51Z"/><path class="cls-2" d="M45.6,106a4.07,4.07,0,0,1,.19-1.2,3.34,3.34,0,0,1,.55-1.06,2.74,2.74,0,0,1,.9-.75,2.5,2.5,0,0,1,1.24-.29,2.72,2.72,0,0,1,.92.17,1.83,1.83,0,0,1,.73.5h0v-3.26h2.77v9.07H50.43v-.66h0a1.79,1.79,0,0,1-.8.6,2.8,2.8,0,0,1-1.12.23,2.61,2.61,0,0,1-1.24-.29,2.77,2.77,0,0,1-.9-.76,3.44,3.44,0,0,1-.55-1.08A4.25,4.25,0,0,1,45.6,106Zm2.57,0a1.1,1.1,0,0,0,.27.76,1,1,0,0,0,.76.31,1,1,0,0,0,.79-.32,1,1,0,0,0,.29-.75,1,1,0,0,0-.29-.73,1,1,0,0,0-.79-.32.93.93,0,0,0-.76.32A1.06,1.06,0,0,0,48.17,106Z"/><path class="cls-2" d="M61.49,106a4.24,4.24,0,0,1-.18,1.22,3.67,3.67,0,0,1-.55,1.08,2.77,2.77,0,0,1-.9.76,2.61,2.61,0,0,1-1.24.29,2.88,2.88,0,0,1-1.12-.23,1.84,1.84,0,0,1-.8-.6h0v.66h-2.5v-9.07H57v3.26h0a1.76,1.76,0,0,1,.73-.5,2.66,2.66,0,0,1,.91-.17,2.5,2.5,0,0,1,1.24.29,2.74,2.74,0,0,1,.9.75,3.56,3.56,0,0,1,.55,1.06A4.06,4.06,0,0,1,61.49,106Zm-2.57,0a1.06,1.06,0,0,0-.26-.73,1,1,0,0,0-.77-.32,1.06,1.06,0,0,0-1.08,1,1,1,0,0,0,.3.75,1,1,0,0,0,.78.32,1,1,0,0,0,.77-.31A1.1,1.1,0,0,0,58.92,106Z"/><path class="cls-2" d="M65.86,105.12a.51.51,0,0,0-.2-.43.89.89,0,0,0-.52-.13,1.66,1.66,0,0,0-.73.16,2.79,2.79,0,0,0-.6.38l-1.38-1.37a3.92,3.92,0,0,1,1.37-.85,4.53,4.53,0,0,1,1.63-.3,3.8,3.8,0,0,1,1.49.25,2.36,2.36,0,0,1,.93.69,2.93,2.93,0,0,1,.48,1,5.48,5.48,0,0,1,.13,1.24v3.33H66v-.51h0a1.32,1.32,0,0,1-.68.52,2.77,2.77,0,0,1-.87.16,3,3,0,0,1-.76-.11,2.14,2.14,0,0,1-.71-.35,2,2,0,0,1-.52-.62,2.12,2.12,0,0,1-.2-1,1.64,1.64,0,0,1,.34-1.08,2.35,2.35,0,0,1,.87-.64,3.94,3.94,0,0,1,1.18-.32,9.4,9.4,0,0,1,1.28-.09Zm0,1.39a3.27,3.27,0,0,0-1,.13.5.5,0,0,0-.37.5.4.4,0,0,0,.06.22.54.54,0,0,0,.15.15,1,1,0,0,0,.21.09l.21,0a.87.87,0,0,0,.64-.25.92.92,0,0,0,.24-.65v-.22Z"/><path class="cls-2" d="M73,109.37a4.38,4.38,0,0,1-1.48-.24,3.28,3.28,0,0,1-1.16-.69,3,3,0,0,1-.77-1.06,3.38,3.38,0,0,1-.28-1.41,3.53,3.53,0,0,1,.28-1.4,3.11,3.11,0,0,1,.79-1.07,3.54,3.54,0,0,1,1.18-.68,4.36,4.36,0,0,1,1.47-.24,3.67,3.67,0,0,1,.66,0,5.81,5.81,0,0,1,.63.15,4.23,4.23,0,0,1,.57.22,2,2,0,0,1,.43.26l-1.38,2a.9.9,0,0,0-.37-.25,1.53,1.53,0,0,0-.45-.08,1.34,1.34,0,0,0-.4.06.92.92,0,0,0-.34.21,1.2,1.2,0,0,0-.25.33,1.11,1.11,0,0,0-.09.46,1.16,1.16,0,0,0,.09.47,1,1,0,0,0,.25.32,1,1,0,0,0,.34.19,1.09,1.09,0,0,0,.4.07,1.22,1.22,0,0,0,.46-.09.94.94,0,0,0,.38-.25l1.39,1.94a3.67,3.67,0,0,1-1,.52A3.89,3.89,0,0,1,73,109.37Z"/><path class="cls-2" d="M78.69,106.38v2.75H75.92v-9.07h2.77v5.17h0l1.5-2.41h3.22l-2,2.84,2,3.47H80.2l-1.48-2.75Z"/><path class="cls-2" d="M87,100.06h2.83v9.07H87Z"/><path class="cls-2" d="M98,106a3.36,3.36,0,0,1-.3,1.45,3.14,3.14,0,0,1-.79,1.07,3.23,3.23,0,0,1-1.15.67,4.2,4.2,0,0,1-2.74,0,3.18,3.18,0,0,1-1.14-.67,3.28,3.28,0,0,1-.79-1.07,3.35,3.35,0,0,1-.29-1.45,3.31,3.31,0,0,1,.29-1.44,3.24,3.24,0,0,1,.79-1.06A3.29,3.29,0,0,1,93,102.8a4.38,4.38,0,0,1,2.74,0,3.34,3.34,0,0,1,1.15.65,3.1,3.1,0,0,1,.79,1.06A3.31,3.31,0,0,1,98,106Zm-3.62-1a.92.92,0,0,0-.73.31,1,1,0,0,0-.28.73,1.08,1.08,0,0,0,.28.76,1.05,1.05,0,0,0,1.49,0,1.09,1.09,0,0,0,.29-.76,1,1,0,0,0-.3-.73A1,1,0,0,0,94.39,104.92Z"/><path class="cls-2" d="M106,106a3.35,3.35,0,0,1-.29,1.45,3.28,3.28,0,0,1-.79,1.07,3.31,3.31,0,0,1-1.15.67,4.25,4.25,0,0,1-1.38.23,4.18,4.18,0,0,1-1.36-.23,3.23,3.23,0,0,1-1.93-1.74,3.36,3.36,0,0,1-.3-1.45,3.31,3.31,0,0,1,.3-1.44,3.21,3.21,0,0,1,.78-1.06,3.34,3.34,0,0,1,1.15-.65,4.17,4.17,0,0,1,1.36-.22,4.24,4.24,0,0,1,1.38.22,3.43,3.43,0,0,1,1.15.65,3.24,3.24,0,0,1,.79,1.06A3.31,3.31,0,0,1,106,106Zm-3.61-1a1,1,0,0,0-.74.31,1.12,1.12,0,0,0,0,1.49,1.05,1.05,0,0,0,1.49,0,1.09,1.09,0,0,0,.29-.76,1,1,0,0,0-.3-.73A1,1,0,0,0,102.36,104.92Z"/><path class="cls-2" d="M111.43,109.3a2.47,2.47,0,0,1-.92-.18,1.94,1.94,0,0,1-.74-.48h0V112H107v-9.19h2.61v.63h0a2.31,2.31,0,0,1,.84-.6,2.62,2.62,0,0,1,1-.2,2.54,2.54,0,0,1,1.25.29,2.74,2.74,0,0,1,.9.75,3.56,3.56,0,0,1,.55,1.06,4.06,4.06,0,0,1,.18,1.2,4.24,4.24,0,0,1-.18,1.22,3.67,3.67,0,0,1-.55,1.08,2.84,2.84,0,0,1-.89.76A2.62,2.62,0,0,1,111.43,109.3Zm.3-3.35a1.06,1.06,0,0,0-.26-.73,1,1,0,0,0-.77-.32,1.06,1.06,0,0,0-1.08,1,1,1,0,0,0,.3.75,1,1,0,0,0,.78.32,1,1,0,0,0,.77-.31A1.1,1.1,0,0,0,111.73,106Z"/><path class="cls-2" d="M120.48,107.12a2,2,0,0,1-.27,1.07,2,2,0,0,1-.68.69,2.76,2.76,0,0,1-.9.37,4,4,0,0,1-.93.12,5.39,5.39,0,0,1-1.6-.24,4.16,4.16,0,0,1-1.37-.66l1.36-1.57a2.44,2.44,0,0,0,.68.42,1.91,1.91,0,0,0,.75.16.65.65,0,0,0,.27,0,.2.2,0,0,0,.12-.2c0-.1-.07-.18-.22-.24a6,6,0,0,0-.77-.23,2.45,2.45,0,0,1-.61-.21,2.12,2.12,0,0,1-.57-.36,1.71,1.71,0,0,1-.43-.56,1.74,1.74,0,0,1-.17-.79,1.94,1.94,0,0,1,.27-1,2.2,2.2,0,0,1,.69-.7,3.05,3.05,0,0,1,.9-.4,3.8,3.8,0,0,1,.91-.12,5.21,5.21,0,0,1,1.46.21,5.1,5.1,0,0,1,1.29.6l-1.29,1.55a2.72,2.72,0,0,0-.62-.3,1.87,1.87,0,0,0-.61-.11.78.78,0,0,0-.33.06.2.2,0,0,0-.14.21q0,.12.15.18a4.29,4.29,0,0,0,.69.18,3,3,0,0,1,.72.22,2.71,2.71,0,0,1,.64.38,2.1,2.1,0,0,1,.45.57A1.8,1.8,0,0,1,120.48,107.12Z"/><g id="Group_141285" data-name="Group 141285"><path id="Path_26304" data-name="Path 26304" class="cls-3" d="M130.82,173.89a9.37,9.37,0,0,1-2.44-18.41.68.68,0,0,0,.49-.6l.5-8.89h2.9l.07,1.27h-1.67a.44.44,0,0,0,0,.88h1.72l.1,1.75h-1.82a.44.44,0,1,0,0,.88h1.87l.1,1.75h-2a.44.44,0,0,0,0,.88h2l.08,1.49a.65.65,0,0,0,.49.59,9.44,9.44,0,0,1,6.56,6.43.66.66,0,0,0,1.26-.37,10.73,10.73,0,0,0-7-7.19l-.51-9a.65.65,0,0,0-.66-.62h-4.15a.64.64,0,0,0-.65.62l-.51,9a10.68,10.68,0,0,0,3.24,20.86.66.66,0,1,0,0-1.31Z"/><path id="Path_26309" data-name="Path 26309" class="cls-3" d="M123.72,159.38a.44.44,0,1,0,0,.88H137.6a.44.44,0,0,0,0-.88Z"/><path id="Path_26310" data-name="Path 26310" class="cls-3" d="M154.77,170.05H138.12a.44.44,0,1,0,0,.87h16.65a.44.44,0,1,0,0-.87Z"/><path id="Path_26311" data-name="Path 26311" class="cls-3" d="M149.07,161.28v-7.44l1.71-2a.65.65,0,0,0-.07-.93.67.67,0,0,0-.43-.16h-5.81a.67.67,0,0,0-.66.66h0v9.86L133.28,172a2,2,0,0,0,1.39,3.33h23.55a2,2,0,0,0,1.39-3.33Zm9.74,12.32a.63.63,0,0,1-.59.39H134.67a.64.64,0,0,1-.64-.64.69.69,0,0,1,.18-.45L144.94,162a.64.64,0,0,0,.19-.46v-9.47h3.72l-.93,1.1a.6.6,0,0,0-.16.42v8a.64.64,0,0,0,.19.46l10.72,10.89A.63.63,0,0,1,158.81,173.6Z"/><path id="Path_26312" data-name="Path 26312" class="cls-3" d="M176.63,144.1a.67.67,0,0,0-.92.14h0l-7,9.42-3-3.34a.67.67,0,0,0-.58-.21.66.66,0,0,0-.51.36l-2.58,5.16-2.39,2.4-3.51-5.85a.67.67,0,0,0-.91-.23h0l-.12.1-4.39,4.39a.66.66,0,0,0,.93.93l3.79-3.79,3.51,5.85a.64.64,0,0,0,.48.31h.08a.66.66,0,0,0,.46-.19l3.07-3.07a1.09,1.09,0,0,0,.13-.17l2.19-4.39,2.86,3.21a.66.66,0,0,0,.93.06l.09-.1L176.76,145a.65.65,0,0,0-.11-.91Z"/><path id="Path_26313" data-name="Path 26313" class="cls-3" d="M147.07,147.1a1.5,1.5,0,1,0-1.5-1.5,1.5,1.5,0,0,0,1.5,1.5Zm0-2.13a.63.63,0,1,1-.63.63h0a.63.63,0,0,1,.63-.63Z"/><path id="Path_26314" data-name="Path 26314" class="cls-3" d="M150.27,141.77a1.86,1.86,0,1,0-1.86-1.85h0A1.85,1.85,0,0,0,150.27,141.77Zm0-2.84a1,1,0,1,1-1,1h0a1,1,0,0,1,1-1Z"/><path id="Path_26315" data-name="Path 26315" class="cls-3" d="M160.47,163.91h-1.76a.44.44,0,0,0-.44.44h0v3.94a.44.44,0,0,0,.88,0v-3.5H160v5.69a.44.44,0,1,0,.87,0v-6.13A.44.44,0,0,0,160.47,163.91Z"/><path id="Path_26316" data-name="Path 26316" class="cls-3" d="M164,170.05h-1.75a.44.44,0,0,0-.44.43h0v4.39a.44.44,0,0,0,.44.44H164a.44.44,0,0,0,.44-.44h0v-4.39A.44.44,0,0,0,164,170.05Zm-.44,4.38h-.87v-3.51h.87Z"/><path id="Path_26317" data-name="Path 26317" class="cls-3" d="M167.48,160h-1.76a.43.43,0,0,0-.43.44h0v14.46a.44.44,0,0,0,.43.44h1.76a.44.44,0,0,0,.44-.44h0V160.41A.44.44,0,0,0,167.48,160ZM167,174.43h-.88V160.84H167Z"/><path id="Path_26318" data-name="Path 26318" class="cls-3" d="M171,166.54h-1.75a.44.44,0,0,0-.44.44h0v7.89a.44.44,0,0,0,.44.44H171a.44.44,0,0,0,.44-.44h0V167A.44.44,0,0,0,171,166.54Zm-.44,7.89h-.87v-7h.87Z"/><path id="Path_26319" data-name="Path 26319" class="cls-3" d="M174.49,163.47h-1.75a.44.44,0,0,0-.44.44h0v11a.44.44,0,0,0,.44.44h1.75a.44.44,0,0,0,.44-.44h0v-11A.44.44,0,0,0,174.49,163.47Zm-.44,11h-.88V164.35h.88Z"/></g><polygon class="cls-3" points="24.36 24.43 24.36 39.06 24.45 39.06 30.37 24.43 24.36 24.43"/><polygon class="cls-3" points="34.98 24.43 41.09 39.06 41.09 24.43 34.98 24.43"/><polygon class="cls-3" points="32.72 29.61 30.02 36.21 33.03 36.21 34.26 39.06 36.79 39.06 32.72 29.61"/><path class="cls-3" d="M171.25,27.54a1.57,1.57,0,0,1-.55-.62,1.86,1.86,0,0,1-.18-.79,2,2,0,0,1,.15-.8,1.75,1.75,0,0,1,.42-.61,1.87,1.87,0,0,1,.62-.39,2.21,2.21,0,0,1,.78-.14,2.15,2.15,0,0,1,.77.14,2,2,0,0,1,.63.39,1.87,1.87,0,0,1,.41.61,2,2,0,0,1,.15.8,1.86,1.86,0,0,1-.18.79,1.52,1.52,0,0,1-.56.62v0h2.95v.54h-6v-.54h.64Zm1.24-2.77a1.87,1.87,0,0,0-.59.09,1.64,1.64,0,0,0-.48.28,1.28,1.28,0,0,0-.32.44,1.46,1.46,0,0,0-.12.6,1.4,1.4,0,0,0,.12.58,1.36,1.36,0,0,0,.32.46,1.72,1.72,0,0,0,.47.3,1.68,1.68,0,0,0,.6.1,1.5,1.5,0,0,0,1.07-.4,1.23,1.23,0,0,0,.32-.46,1.4,1.4,0,0,0,.12-.58,1.46,1.46,0,0,0-.12-.6,1.43,1.43,0,0,0-.32-.44,1.64,1.64,0,0,0-.48-.28A2,2,0,0,0,172.49,24.77Z"/><path class="cls-3" d="M172.6,33h-.26v-3.1A1.37,1.37,0,0,0,171,31.22a1.36,1.36,0,0,0,.2.74,1.42,1.42,0,0,0,.45.46l-.32.41a1.92,1.92,0,0,1-.79-1.61,2,2,0,0,1,.15-.77,1.73,1.73,0,0,1,.41-.61,1.84,1.84,0,0,1,.62-.4,2,2,0,0,1,.79-.15,2.21,2.21,0,0,1,.78.14,1.89,1.89,0,0,1,.62.4,1.81,1.81,0,0,1,.42.6,2.13,2.13,0,0,1,0,1.52,1.54,1.54,0,0,1-.4.56,1.82,1.82,0,0,1-.59.34A2.13,2.13,0,0,1,172.6,33Zm.17-.55a1.32,1.32,0,0,0,.88-.35,1.15,1.15,0,0,0,.35-.89,1.22,1.22,0,0,0-.1-.51,1.62,1.62,0,0,0-.27-.41,1.75,1.75,0,0,0-.39-.28,1.31,1.31,0,0,0-.47-.12Z"/><path class="cls-3" d="M173.47,36.13a.9.9,0,0,0,.38-.37,1,1,0,0,0,.15-.55,1.43,1.43,0,0,0,0-.29.76.76,0,0,0-.11-.26.62.62,0,0,0-.18-.18.55.55,0,0,0-.26-.06.46.46,0,0,0-.41.21,2.36,2.36,0,0,0-.24.68,2.32,2.32,0,0,1-.39,1,.86.86,0,0,1-.7.32,1,1,0,0,1-.54-.13,1,1,0,0,1-.36-.32,1.32,1.32,0,0,1-.2-.45,2.22,2.22,0,0,1-.06-.51,2.11,2.11,0,0,1,.17-.82,1.56,1.56,0,0,1,.56-.66l.32.43a1.24,1.24,0,0,0-.59,1,1.27,1.27,0,0,0,0,.34.69.69,0,0,0,.11.28.61.61,0,0,0,.2.19.59.59,0,0,0,.31.07.46.46,0,0,0,.44-.28,4,4,0,0,0,.28-.82c0-.11.06-.23.1-.36a1.29,1.29,0,0,1,.18-.35.92.92,0,0,1,.29-.26.82.82,0,0,1,.44-.1,1,1,0,0,1,.49.11.8.8,0,0,1,.33.3,1.22,1.22,0,0,1,.2.43,2,2,0,0,1,.06.49,1.69,1.69,0,0,1-.17.76,1.17,1.17,0,0,1-.5.55Z"/><path class="cls-3" d="M170.61,38.24V37.7h3.75v.54Zm5.19.11a.38.38,0,0,1-.28-.12.39.39,0,0,1-.1-.26.39.39,0,0,1,.1-.27.39.39,0,0,1,.56,0,.39.39,0,0,1,.1.27.39.39,0,0,1-.1.26A.38.38,0,0,1,175.8,38.35Z"/><path class="cls-3" d="M169.86,39.89a1.91,1.91,0,0,0-.49.61,1.8,1.8,0,0,0-.19.82,1.73,1.73,0,0,0,.11.68,1.08,1.08,0,0,0,.32.45,1.12,1.12,0,0,0,.47.25,1.71,1.71,0,0,0,.57.08h.7a1.45,1.45,0,0,1-.54-.61,1.86,1.86,0,0,1-.2-.81,2.07,2.07,0,0,1,.15-.8,1.66,1.66,0,0,1,.4-.6,1.71,1.71,0,0,1,.6-.4,2.09,2.09,0,0,1,.76-.13,2,2,0,0,1,.75.13,2,2,0,0,1,.62.4,1.83,1.83,0,0,1,.41.6,2.07,2.07,0,0,1,.15.8,1.77,1.77,0,0,1-.19.8,1.44,1.44,0,0,1-.55.62h.65v.55h-3.71a2.54,2.54,0,0,1-.65-.09,1.55,1.55,0,0,1-.63-.31,1.8,1.8,0,0,1-.48-.62,2.27,2.27,0,0,1-.2-1,2.62,2.62,0,0,1,.2-1,2.55,2.55,0,0,1,.56-.81Zm2.67.1a1.54,1.54,0,0,0-.56.1,1.33,1.33,0,0,0-.46.27,1.36,1.36,0,0,0-.32.45,1.57,1.57,0,0,0-.11.6,1.52,1.52,0,0,0,.1.57,1.33,1.33,0,0,0,.76.76,1.63,1.63,0,0,0,.59.11,1.56,1.56,0,0,0,.57-.11,1.41,1.41,0,0,0,.46-.3,1.52,1.52,0,0,0,.32-.46,1.35,1.35,0,0,0,.12-.57,1.4,1.4,0,0,0-.12-.6,1.36,1.36,0,0,0-.32-.45,1.33,1.33,0,0,0-.46-.27A1.56,1.56,0,0,0,172.53,40Z"/><path class="cls-3" d="M174.36,45.23l-.34,0h-.3v0a1.26,1.26,0,0,1,.53.52,1.47,1.47,0,0,1,.2.76,1.34,1.34,0,0,1-.42,1.07,1.72,1.72,0,0,1-1.12.35h-2.3v-.54h2.08a2.89,2.89,0,0,0,.53,0,1.31,1.31,0,0,0,.42-.16.79.79,0,0,0,.26-.31,1.09,1.09,0,0,0,.1-.5,1.06,1.06,0,0,0-.09-.42,1.14,1.14,0,0,0-.27-.36,1.4,1.4,0,0,0-.45-.26,2.15,2.15,0,0,0-.66-.09h-1.92v-.55h3.32l.43,0Z"/><path class="cls-3" d="M162.33,28,161,29.25v-.8l.83-.8a2.46,2.46,0,0,1-.7-.76,2,2,0,0,1-.23-1,2.2,2.2,0,0,1,.1-.68,1.67,1.67,0,0,1,.3-.56,1.41,1.41,0,0,1,.49-.38,1.7,1.7,0,0,1,1.25,0,1.33,1.33,0,0,1,.46.27,2.14,2.14,0,0,1,.37.42,3.66,3.66,0,0,1,.28.52,2.26,2.26,0,0,1,.28-.25,1.6,1.6,0,0,1,.31-.22,1.58,1.58,0,0,1,.35-.16,1.21,1.21,0,0,1,.38-.06,1.48,1.48,0,0,1,.57.11,1.27,1.27,0,0,1,.41.31,1.16,1.16,0,0,1,.27.44,2,2,0,0,1,.08.55,1.89,1.89,0,0,1-.08.53,1.31,1.31,0,0,1-.25.43,1.08,1.08,0,0,1-.4.3,1.33,1.33,0,0,1-.54.11,1.15,1.15,0,0,1-.5-.11,1.46,1.46,0,0,1-.41-.29,2.64,2.64,0,0,1-.32-.41c-.09-.15-.18-.31-.26-.47l-1.36,1.32,1.38.79V29Zm1.47-2.21a2.29,2.29,0,0,0-.55-.78,1.19,1.19,0,0,0-.77-.26,1,1,0,0,0-.44.09,1,1,0,0,0-.34.26,1.09,1.09,0,0,0-.22.38,1.43,1.43,0,0,0,.13,1.22,2.06,2.06,0,0,0,.62.58ZM165.55,27a.77.77,0,0,0,.8-.8.82.82,0,0,0-.87-.86,1,1,0,0,0-.32.06l-.31.16-.26.21a1,1,0,0,0-.18.19c.06.12.12.25.19.37a2.85,2.85,0,0,0,.25.33,1,1,0,0,0,.31.24A.87.87,0,0,0,165.55,27Z"/><path class="cls-3" d="M164.33,32.09l.43,0v.52l-.34,0h-.3a1.29,1.29,0,0,1,.53.48,1.26,1.26,0,0,1,.2.72V34a1,1,0,0,1,0,.17l-.52-.07a.46.46,0,0,0,0-.16,1.7,1.7,0,0,0,0-.22,1,1,0,0,0-.08-.42A.84.84,0,0,0,164,33a1.23,1.23,0,0,0-.44-.24,2,2,0,0,0-.64-.09H161V32.1h3.31Z"/><path class="cls-3" d="M163,38.24h-.26v-3.1a1.31,1.31,0,0,0-.52.11,1.46,1.46,0,0,0-.44.29,1.3,1.3,0,0,0-.29.43,1.33,1.33,0,0,0-.11.54,1.35,1.35,0,0,0,.2.73,1.56,1.56,0,0,0,.45.47l-.32.4a1.92,1.92,0,0,1-.79-1.6,2,2,0,0,1,.15-.78,1.82,1.82,0,0,1,.41-.61,2,2,0,0,1,1.41-.55,2.21,2.21,0,0,1,.78.14,1.89,1.89,0,0,1,.62.4,1.81,1.81,0,0,1,.42.6,2.13,2.13,0,0,1,0,1.52,1.61,1.61,0,0,1-1,.9A2.09,2.09,0,0,1,163,38.24Zm.18-.55a1.36,1.36,0,0,0,.87-.34,1.16,1.16,0,0,0,.35-.9,1.25,1.25,0,0,0-.1-.51,1.41,1.41,0,0,0-.27-.4,1.28,1.28,0,0,0-.39-.28,1.25,1.25,0,0,0-.46-.12Z"/><path class="cls-3" d="M163.87,41.4a.94.94,0,0,0,.38-.36,1.07,1.07,0,0,0,.15-.56,1.43,1.43,0,0,0,0-.29.71.71,0,0,0-.11-.25.45.45,0,0,0-.18-.18.47.47,0,0,0-.27-.07.45.45,0,0,0-.4.21,2.12,2.12,0,0,0-.23.68,2.39,2.39,0,0,1-.4,1,.86.86,0,0,1-.7.32,1.11,1.11,0,0,1-.54-.12,1.15,1.15,0,0,1-.36-.33A1.32,1.32,0,0,1,161,41a2.22,2.22,0,0,1-.06-.51,2,2,0,0,1,.18-.82,1.47,1.47,0,0,1,.55-.66l.32.43a1.24,1.24,0,0,0-.59,1,1.27,1.27,0,0,0,0,.34.63.63,0,0,0,.11.28.61.61,0,0,0,.2.19.59.59,0,0,0,.31.07.46.46,0,0,0,.44-.28,3.83,3.83,0,0,0,.28-.82c0-.11.06-.23.1-.36a1.35,1.35,0,0,1,.17-.34,1,1,0,0,1,.3-.27.82.82,0,0,1,.44-.1,1,1,0,0,1,.49.11,1,1,0,0,1,.34.3,1.4,1.4,0,0,1,.19.43,2,2,0,0,1,.06.49,1.69,1.69,0,0,1-.17.76,1.24,1.24,0,0,1-.5.56Z"/><path class="cls-3" d="M163,46.37h-.26v-3.1a1.37,1.37,0,0,0-1.36,1.36,1.36,1.36,0,0,0,.2.74,1.42,1.42,0,0,0,.45.46l-.32.41a1.92,1.92,0,0,1-.79-1.61,2,2,0,0,1,.15-.77,1.73,1.73,0,0,1,.41-.61,1.84,1.84,0,0,1,.62-.4,2,2,0,0,1,.79-.15,2.21,2.21,0,0,1,.78.14,1.89,1.89,0,0,1,.62.4,1.81,1.81,0,0,1,.42.6,1.84,1.84,0,0,1,.14.74,1.87,1.87,0,0,1-.14.78,1.78,1.78,0,0,1-.4.56,1.82,1.82,0,0,1-.59.34A2.09,2.09,0,0,1,163,46.37Zm.18-.55a1.31,1.31,0,0,0,.87-.35,1.16,1.16,0,0,0,.35-.9,1.21,1.21,0,0,0-.1-.5,1.62,1.62,0,0,0-.27-.41,1.75,1.75,0,0,0-.39-.28,1.25,1.25,0,0,0-.46-.12Z"/><path class="cls-3" d="M163.44,49.85a1,1,0,0,0,.72-.26,1,1,0,0,0,.24-.74,1.61,1.61,0,0,0-.12-.63,1.66,1.66,0,0,0-.32-.49l.36-.3a1.92,1.92,0,0,1,.38.61,2.35,2.35,0,0,1,.15.86,1.75,1.75,0,0,1-.08.57,1.21,1.21,0,0,1-.25.46,1.12,1.12,0,0,1-.42.32,1.64,1.64,0,0,1-.6.11h-2.09l-.39.05v-.49l.29,0h.31v0a1.55,1.55,0,0,1-.54-.58,1.67,1.67,0,0,1-.16-.78,1.72,1.72,0,0,1,.06-.44,1.35,1.35,0,0,1,.2-.42,1,1,0,0,1,.88-.43,1,1,0,0,1,.69.22,1.32,1.32,0,0,1,.37.58,3.06,3.06,0,0,1,.16.85c0,.32,0,.65,0,1Zm-.55-.16c0-.23,0-.45,0-.68a3.62,3.62,0,0,0-.11-.62,1.22,1.22,0,0,0-.25-.45.54.54,0,0,0-.42-.17.71.71,0,0,0-.34.07.63.63,0,0,0-.22.21,1.18,1.18,0,0,0-.12.28,1.66,1.66,0,0,0,0,.32,1.19,1.19,0,0,0,.1.51.91.91,0,0,0,.27.37,1.15,1.15,0,0,0,.4.24,1.4,1.4,0,0,0,.47.08h.28Z"/><path class="cls-3" d="M164.33,51.75l.43,0v.52l-.34,0h-.3v0a1.17,1.17,0,0,1,.53.48,1.26,1.26,0,0,1,.2.72v.18a1.16,1.16,0,0,1,0,.18l-.52-.08a.4.4,0,0,0,0-.16,1.62,1.62,0,0,0,0-.22,1,1,0,0,0-.08-.42.76.76,0,0,0-.25-.34,1.23,1.23,0,0,0-.44-.24,1.76,1.76,0,0,0-.64-.1H161v-.54h3.31Z"/><path class="cls-3" d="M163.9,57.19a.94.94,0,0,0,.36-.4,1.19,1.19,0,0,0,.14-.56,1.38,1.38,0,0,0-.12-.59,1.12,1.12,0,0,0-.32-.45,1.29,1.29,0,0,0-.48-.29,1.63,1.63,0,0,0-.59-.1,1.68,1.68,0,0,0-.6.1,1.47,1.47,0,0,0-.47.28,1.23,1.23,0,0,0-.32.45,1.41,1.41,0,0,0-.12.59,1.25,1.25,0,0,0,.14.61,1.27,1.27,0,0,0,.35.41l-.3.41a1.68,1.68,0,0,1-.47-.59,1.8,1.8,0,0,1-.18-.84,2.14,2.14,0,0,1,.15-.82,1.72,1.72,0,0,1,.41-.63,1.84,1.84,0,0,1,.62-.4,2.13,2.13,0,0,1,1.57,0,1.84,1.84,0,0,1,1,1,2.14,2.14,0,0,1,.14.82,2,2,0,0,1-.16.77,1.49,1.49,0,0,1-.48.62Z"/><path class="cls-3" d="M164.14,59.07a1.14,1.14,0,0,1,.52.5,1.56,1.56,0,0,1,.19.76,1.3,1.3,0,0,1-.42,1.06,1.67,1.67,0,0,1-1.12.36H161v-.54h2.07a2.89,2.89,0,0,0,.53-.05A1,1,0,0,0,164,61a.68.68,0,0,0,.27-.31,1,1,0,0,0,.1-.49,1.06,1.06,0,0,0-.09-.42,1,1,0,0,0-.27-.36,1.4,1.4,0,0,0-.45-.26,2.18,2.18,0,0,0-.66-.1H161v-.54h6v.54h-2.92Z"/></svg>