<svg id="Layer_1" data-name="Layer 1" xmlns="http://www.w3.org/2000/svg" viewBox="0 0 200 200"><defs><style>.cls-1{stroke:#231f20;stroke-miterlimit:10;}.cls-2{fill:#fff;}.cls-3{fill:#eac138;}</style></defs><title>labs-art</title><rect class="cls-1" width="200" height="200"/><path class="cls-2" d="M27.51,80.72h3l3.31,8.5H30.75L30.31,88h-2.7l-.42,1.25h-3Zm1.48,3-.7,2.1h1.38Z"/><path class="cls-2" d="M34.05,86a4.07,4.07,0,0,1,.19-1.2,3.24,3.24,0,0,1,.55-1.06,2.89,2.89,0,0,1,.9-.76,2.61,2.61,0,0,1,1.24-.28,2.49,2.49,0,0,1,.92.17,1.83,1.83,0,0,1,.73.5h0V80.14h2.78v9.08h-2.5v-.66h0a2,2,0,0,1-.81.6,2.78,2.78,0,0,1-1.11.22,2.62,2.62,0,0,1-1.25-.28,2.8,2.8,0,0,1-.9-.77,3.29,3.29,0,0,1-.55-1.07A4.25,4.25,0,0,1,34.05,86Zm2.57,0a1.12,1.12,0,0,0,.27.76,1,1,0,0,0,.76.3,1.07,1.07,0,0,0,.79-1.8,1.07,1.07,0,0,0-.79-.31,1,1,0,0,0-.76.31A1.11,1.11,0,0,0,36.62,86Z"/><path class="cls-2" d="M49.58,86a3.54,3.54,0,0,1-.29,1.45,3.28,3.28,0,0,1-.79,1.07,3.52,3.52,0,0,1-1.16.67,4.17,4.17,0,0,1-2.73,0,3.38,3.38,0,0,1-1.15-.67,3.12,3.12,0,0,1-.78-1.07,3.39,3.39,0,0,1-.3-1.45,3.31,3.31,0,0,1,.3-1.44,3.08,3.08,0,0,1,.78-1.06,3.18,3.18,0,0,1,1.15-.65,4.17,4.17,0,0,1,2.73,0,3.31,3.31,0,0,1,1.16.65,3.24,3.24,0,0,1,.79,1.06A3.46,3.46,0,0,1,49.58,86ZM46,85a1,1,0,0,0-.74.32,1,1,0,0,0-.28.73,1.07,1.07,0,0,0,.29.75,1,1,0,0,0,.74.32,1,1,0,0,0,.75-.32,1.06,1.06,0,0,0,.28-.75,1,1,0,0,0-1-1Z"/><path class="cls-2" d="M57.91,86a3.93,3.93,0,0,1-.19,1.22,3.27,3.27,0,0,1-.54,1.07,2.8,2.8,0,0,1-.9.77,2.61,2.61,0,0,1-1.24.28,2.83,2.83,0,0,1-1.12-.22,1.86,1.86,0,0,1-.8-.6h0v.66H50.6V80.14h2.77v3.27h0a1.7,1.7,0,0,1,.73-.5,2.41,2.41,0,0,1,.91-.17,2.61,2.61,0,0,1,1.24.28,2.89,2.89,0,0,1,.9.76,3.22,3.22,0,0,1,.54,1.06A3.77,3.77,0,0,1,57.91,86Zm-2.57,0a1.15,1.15,0,0,0-.26-.74,1,1,0,0,0-.77-.31A1,1,0,0,0,53.23,86a1.08,1.08,0,0,0,.29.75,1,1,0,0,0,.79.31,1,1,0,0,0,.77-.3A1.17,1.17,0,0,0,55.34,86Z"/><path class="cls-2" d="M65.52,86.12c0,.1,0,.21,0,.32a1.87,1.87,0,0,1,0,.27H61.25a.48.48,0,0,0,.11.3,1.1,1.1,0,0,0,.25.23,1.16,1.16,0,0,0,.34.14,1.58,1.58,0,0,0,.38.05,1.38,1.38,0,0,0,.64-.14,1.14,1.14,0,0,0,.39-.31l2,1a2.86,2.86,0,0,1-1.22,1.08,4.18,4.18,0,0,1-1.86.4,4.31,4.31,0,0,1-1.33-.22,3.36,3.36,0,0,1-1.14-.64,3.13,3.13,0,0,1-.8-1.06,3.46,3.46,0,0,1-.3-1.48A3.55,3.55,0,0,1,59,84.65a3.32,3.32,0,0,1,.75-1.07,3.43,3.43,0,0,1,1.12-.68,3.91,3.91,0,0,1,1.37-.24,3.51,3.51,0,0,1,1.36.26,3,3,0,0,1,1,.72,3.34,3.34,0,0,1,.68,1.1A3.85,3.85,0,0,1,65.52,86.12Zm-2.39-.9a.68.68,0,0,0-.25-.55.92.92,0,0,0-.66-.22,1,1,0,0,0-.71.25,1,1,0,0,0-.29.52Z"/><path class="cls-2" d="M69.65,80.72h2.88v6h2.82v2.46h-5.7Z"/><path class="cls-2" d="M79.43,85.21a.5.5,0,0,0-.2-.43.91.91,0,0,0-.52-.14,1.66,1.66,0,0,0-.73.17,2.83,2.83,0,0,0-.61.37L76,83.82A4,4,0,0,1,77.36,83a4.57,4.57,0,0,1,1.63-.3,3.76,3.76,0,0,1,1.49.26,2.27,2.27,0,0,1,.93.69,2.64,2.64,0,0,1,.48,1A5.63,5.63,0,0,1,82,85.89v3.33H79.52v-.51h0a1.36,1.36,0,0,1-.69.52,2.64,2.64,0,0,1-.86.15,2.89,2.89,0,0,1-.76-.1,2.24,2.24,0,0,1-.71-.35A1.8,1.8,0,0,1,76,88.3a1.92,1.92,0,0,1-.21-.94,1.65,1.65,0,0,1,.35-1.08,2.32,2.32,0,0,1,.87-.65,4.17,4.17,0,0,1,1.18-.31,9.29,9.29,0,0,1,1.28-.09Zm0,1.39a2.9,2.9,0,0,0-1,.13.5.5,0,0,0-.38.49.41.41,0,0,0,.06.23.57.57,0,0,0,.16.15.67.67,0,0,0,.21.09l.21,0a.85.85,0,0,0,.64-.26.88.88,0,0,0,.24-.64V86.6Z"/><path class="cls-2" d="M90.48,86a3.93,3.93,0,0,1-.19,1.22,3.27,3.27,0,0,1-.54,1.07,2.8,2.8,0,0,1-.9.77,2.65,2.65,0,0,1-1.25.28,2.78,2.78,0,0,1-1.11-.22,1.86,1.86,0,0,1-.8-.6h0v.66H83.17V80.14h2.77v3.27h0a1.8,1.8,0,0,1,.74-.5,2.39,2.39,0,0,1,.9-.17,2.62,2.62,0,0,1,1.25.28,2.89,2.89,0,0,1,.9.76,3.22,3.22,0,0,1,.54,1.06A3.77,3.77,0,0,1,90.48,86Zm-2.57,0a1.15,1.15,0,0,0-.26-.74,1,1,0,0,0-.77-.31A1,1,0,0,0,85.8,86a1.08,1.08,0,0,0,.29.75,1,1,0,0,0,.79.31,1,1,0,0,0,.77-.3A1.17,1.17,0,0,0,87.91,86Z"/><path class="cls-2" d="M96.66,87.21a2,2,0,0,1-.27,1.07,2.14,2.14,0,0,1-.68.69,3,3,0,0,1-.9.37,4,4,0,0,1-.94.12,5.44,5.44,0,0,1-1.6-.24,4.31,4.31,0,0,1-1.36-.66L92.27,87a2.2,2.2,0,0,0,.67.43,1.91,1.91,0,0,0,.75.16.76.76,0,0,0,.27,0,.2.2,0,0,0,.13-.2c0-.1-.07-.19-.22-.25a6.81,6.81,0,0,0-.78-.22,4,4,0,0,1-.61-.21,2.12,2.12,0,0,1-.57-.36,2,2,0,0,1-.42-.56,1.62,1.62,0,0,1-.17-.79,1.92,1.92,0,0,1,.27-1,2.27,2.27,0,0,1,.68-.7,3,3,0,0,1,.9-.4,3.92,3.92,0,0,1,.92-.13,5.15,5.15,0,0,1,1.45.22,4.69,4.69,0,0,1,1.3.6L95.54,85a2.65,2.65,0,0,0-.61-.3,1.92,1.92,0,0,0-.61-.11,1.06,1.06,0,0,0-.34,0,.21.21,0,0,0,0,.4,4.72,4.72,0,0,0,.69.17,4,4,0,0,1,.72.23,2.52,2.52,0,0,1,.63.38,1.7,1.7,0,0,1,.62,1.36Z"/><path class="cls-2" d="M97.81,84.31a1.39,1.39,0,0,1,.12-.57,1.56,1.56,0,0,1,.32-.47,1.52,1.52,0,0,1,.48-.31,1.48,1.48,0,0,1,.59-.12,1.38,1.38,0,0,1,.56.12,1.48,1.48,0,0,1,.47.31,1.77,1.77,0,0,1,.32.47,1.56,1.56,0,0,1,.11.57,1.48,1.48,0,0,1-.11.57,1.72,1.72,0,0,1-.32.46,1.67,1.67,0,0,1-.47.31,1.55,1.55,0,0,1-.56.11,1.67,1.67,0,0,1-.59-.11,1.72,1.72,0,0,1-.48-.31,1.52,1.52,0,0,1-.32-.46A1.32,1.32,0,0,1,97.81,84.31Zm0,3.53a1.39,1.39,0,0,1,.12-.57,1.56,1.56,0,0,1,.32-.47,1.52,1.52,0,0,1,.48-.31,1.48,1.48,0,0,1,.59-.12,1.38,1.38,0,0,1,.56.12,1.48,1.48,0,0,1,.47.31,1.77,1.77,0,0,1,.32.47,1.56,1.56,0,0,1,.11.57,1.52,1.52,0,0,1-.11.57,1.72,1.72,0,0,1-.32.46,1.45,1.45,0,0,1-.47.3,1.38,1.38,0,0,1-.56.12,1.64,1.64,0,0,1-1.07-.42,1.52,1.52,0,0,1-.32-.46A1.35,1.35,0,0,1,97.81,87.84Z"/><path class="cls-2" d="M27.68,98.82l.13,4.8H25.15v-8.5h3.74l1.53,4.57h.06l1.34-4.57h3.85v8.5H32.89L33,98.84H32.9l-1.58,4.79h-2l-1.56-4.8Z"/><path class="cls-2" d="M40.44,99.61a.5.5,0,0,0-.2-.43.91.91,0,0,0-.52-.14,1.66,1.66,0,0,0-.73.17,2.54,2.54,0,0,0-.6.37L37,98.22a4,4,0,0,1,1.36-.86,4.62,4.62,0,0,1,1.64-.3,3.7,3.7,0,0,1,1.48.26,2.15,2.15,0,0,1,.93.69,2.64,2.64,0,0,1,.48,1,5.1,5.1,0,0,1,.14,1.25v3.33H40.53v-.51h0a1.37,1.37,0,0,1-.68.52,2.75,2.75,0,0,1-.87.15,2.89,2.89,0,0,1-.76-.1,2.24,2.24,0,0,1-.71-.35,1.87,1.87,0,0,1-.72-1.57,1.64,1.64,0,0,1,.34-1.08A2.49,2.49,0,0,1,38,100a4.17,4.17,0,0,1,1.18-.31,9.4,9.4,0,0,1,1.28-.09Zm0,1.39a2.94,2.94,0,0,0-1,.13.49.49,0,0,0-.37.49.41.41,0,0,0,.06.23.54.54,0,0,0,.15.15,1,1,0,0,0,.21.09l.21,0a.84.84,0,0,0,.64-.26.88.88,0,0,0,.24-.64V101Z"/><path class="cls-2" d="M47.61,103.86a4.36,4.36,0,0,1-1.47-.24,3.42,3.42,0,0,1-1.17-.69,3.07,3.07,0,0,1-.76-1.07,3.3,3.3,0,0,1-.28-1.4,3.37,3.37,0,0,1,.28-1.4A3,3,0,0,1,45,98a3.47,3.47,0,0,1,1.18-.69,4.36,4.36,0,0,1,1.47-.24,3.57,3.57,0,0,1,.65.06,3.32,3.32,0,0,1,.64.15,4.08,4.08,0,0,1,.56.21,1.84,1.84,0,0,1,.44.27l-1.38,2a.87.87,0,0,0-.38-.25,1.2,1.2,0,0,0-.45-.09,1.34,1.34,0,0,0-.39.07.9.9,0,0,0-.34.2,1.2,1.2,0,0,0-.25.34,1.11,1.11,0,0,0-.1.46,1.08,1.08,0,0,0,.1.46.93.93,0,0,0,.25.33,1,1,0,0,0,.34.19,1.34,1.34,0,0,0,.39.07,1.27,1.27,0,0,0,.47-.09,1,1,0,0,0,.37-.25l1.4,1.94a3.67,3.67,0,0,1-1,.52A4.17,4.17,0,0,1,47.61,103.86Z"/><path class="cls-2" d="M55,97.14a2.27,2.27,0,0,1,1.1.24,2,2,0,0,1,.69.61,2.57,2.57,0,0,1,.36.85,4.23,4.23,0,0,1,.1.94v3.84H54.49v-3.36a1.16,1.16,0,0,0-.15-.68.56.56,0,0,0-.45-.19.57.57,0,0,0-.43.21,1,1,0,0,0-.19.67v3.35H50.49V94.54h2.78V98h0a2.26,2.26,0,0,1,.68-.61A2.05,2.05,0,0,1,55,97.14Z"/><path class="cls-2" d="M58.45,95.48a1.5,1.5,0,0,1,.11-.55,1.42,1.42,0,0,1,.32-.45,1.47,1.47,0,0,1,.46-.3,1.31,1.31,0,0,1,.56-.12,1.25,1.25,0,0,1,.54.12,1.54,1.54,0,0,1,.45.3,1.39,1.39,0,0,1,.31.45,1.33,1.33,0,0,1,.12.55,1.31,1.31,0,0,1-.12.56,1.25,1.25,0,0,1-.31.44,1.54,1.54,0,0,1-.45.3,1.4,1.4,0,0,1-.54.1,1.4,1.4,0,0,1-1-.4,1.28,1.28,0,0,1-.32-.44A1.47,1.47,0,0,1,58.45,95.48Zm0,1.82h2.77v6.32H58.5Z"/><path class="cls-2" d="M62.55,97.3h2.7V98h0a2.07,2.07,0,0,1,.71-.61,2.24,2.24,0,0,1,1.08-.25,2.27,2.27,0,0,1,1.1.24,2,2,0,0,1,.69.61,2.57,2.57,0,0,1,.36.85,4.23,4.23,0,0,1,.1.94v3.84H66.55v-3.36a1.16,1.16,0,0,0-.15-.68.56.56,0,0,0-.45-.19.58.58,0,0,0-.45.22,1,1,0,0,0-.17.65v3.36H62.55Z"/><path class="cls-2" d="M77.13,100.52v.32c0,.11,0,.2,0,.27H72.86a.56.56,0,0,0,.12.3.93.93,0,0,0,.25.23,1.22,1.22,0,0,0,.33.14,1.65,1.65,0,0,0,.38,0,1.35,1.35,0,0,0,.64-.14,1.14,1.14,0,0,0,.39-.31l2,1a2.86,2.86,0,0,1-1.22,1.08,4.16,4.16,0,0,1-1.85.4,4.26,4.26,0,0,1-1.33-.22,3.41,3.41,0,0,1-1.15-.64,3.26,3.26,0,0,1-.8-1.06,3.46,3.46,0,0,1-.3-1.48,3.38,3.38,0,0,1,.28-1.41A3,3,0,0,1,71.32,98a3.33,3.33,0,0,1,1.12-.68,3.83,3.83,0,0,1,1.37-.24,3.54,3.54,0,0,1,1.36.26,3,3,0,0,1,1,.72,3.18,3.18,0,0,1,.68,1.1A3.85,3.85,0,0,1,77.13,100.52Zm-2.38-.9a.71.71,0,0,0-.25-.55,1,1,0,0,0-.67-.22,1,1,0,0,0-.71.25.93.93,0,0,0-.28.52Z"/><path class="cls-2" d="M81.11,94.54h2.83v9.08H81.11Z"/><path class="cls-2" d="M91.8,100.52c0,.1,0,.21,0,.32a1.87,1.87,0,0,1,0,.27H87.53a.48.48,0,0,0,.11.3,1.1,1.1,0,0,0,.25.23,1.16,1.16,0,0,0,.34.14,1.58,1.58,0,0,0,.38,0,1.38,1.38,0,0,0,.64-.14,1.14,1.14,0,0,0,.39-.31l2,1a2.86,2.86,0,0,1-1.22,1.08,4.18,4.18,0,0,1-1.86.4,4.31,4.31,0,0,1-1.33-.22,3.36,3.36,0,0,1-1.14-.64,3.13,3.13,0,0,1-.8-1.06,3.46,3.46,0,0,1-.3-1.48,3.55,3.55,0,0,1,.27-1.41A3.32,3.32,0,0,1,86,98a3.43,3.43,0,0,1,1.12-.68,3.91,3.91,0,0,1,1.37-.24,3.51,3.51,0,0,1,1.36.26,3,3,0,0,1,1,.72,3.34,3.34,0,0,1,.68,1.1A3.85,3.85,0,0,1,91.8,100.52Zm-2.39-.9a.68.68,0,0,0-.25-.55.92.92,0,0,0-.66-.22,1,1,0,0,0-.71.25,1,1,0,0,0-.29.52Z"/><path class="cls-2" d="M96.05,99.61a.5.5,0,0,0-.2-.43.91.91,0,0,0-.52-.14,1.66,1.66,0,0,0-.73.17,2.83,2.83,0,0,0-.61.37l-1.38-1.36A4,4,0,0,1,94,97.36a4.57,4.57,0,0,1,1.63-.3,3.76,3.76,0,0,1,1.49.26A2.27,2.27,0,0,1,98,98a2.64,2.64,0,0,1,.48,1,5.63,5.63,0,0,1,.14,1.25v3.33H96.14v-.51h0a1.36,1.36,0,0,1-.69.52,2.64,2.64,0,0,1-.86.15,2.89,2.89,0,0,1-.76-.1,2.24,2.24,0,0,1-.71-.35,1.8,1.8,0,0,1-.52-.63,1.92,1.92,0,0,1-.21-.94,1.65,1.65,0,0,1,.35-1.08,2.32,2.32,0,0,1,.87-.65,4.17,4.17,0,0,1,1.18-.31,9.29,9.29,0,0,1,1.28-.09Zm0,1.39a2.9,2.9,0,0,0-1,.13.5.5,0,0,0-.38.49.41.41,0,0,0,.06.23.57.57,0,0,0,.16.15.67.67,0,0,0,.21.09l.21,0a.85.85,0,0,0,.64-.26.88.88,0,0,0,.24-.64V101Z"/><path class="cls-2" d="M99.79,97.3h2.66V98h0a1.72,1.72,0,0,1,.6-.63,1.75,1.75,0,0,1,1-.25,1.86,1.86,0,0,1,.52.06l-.21,2.35a2.27,2.27,0,0,0-.3-.06h-.29a1.16,1.16,0,0,0-.86.31,1,1,0,0,0-.33.77v3.06H99.79Z"/><path class="cls-2" d="M105.13,97.3h2.7V98h0a2.17,2.17,0,0,1,.71-.61,2.28,2.28,0,0,1,1.09-.25,2.23,2.23,0,0,1,1.09.24,2.08,2.08,0,0,1,.7.61,2.36,2.36,0,0,1,.35.85,4.24,4.24,0,0,1,.11.94v3.84h-2.78v-3.36a1.17,1.17,0,0,0-.14-.68.57.57,0,0,0-.45-.19.55.55,0,0,0-.45.22,1,1,0,0,0-.18.65v3.36h-2.77Z"/><path class="cls-2" d="M113.08,95.48a1.33,1.33,0,0,1,.12-.55,1.39,1.39,0,0,1,.31-.45,1.59,1.59,0,0,1,.46-.3,1.39,1.39,0,0,1,.57-.12,1.25,1.25,0,0,1,.54.12,1.86,1.86,0,0,1,.45.3,1.57,1.57,0,0,1,.31.45,1.5,1.5,0,0,1,.11.55,1.47,1.47,0,0,1-.11.56,1.4,1.4,0,0,1-.31.44,1.86,1.86,0,0,1-.45.3,1.4,1.4,0,0,1-.54.1,1.56,1.56,0,0,1-.57-.1,1.59,1.59,0,0,1-.46-.3,1.25,1.25,0,0,1-.31-.44A1.31,1.31,0,0,1,113.08,95.48Zm0,1.82h2.77v6.32h-2.77Z"/><path class="cls-2" d="M117.19,97.3h2.7V98h0a2.17,2.17,0,0,1,.71-.61,2.28,2.28,0,0,1,1.09-.25,2.23,2.23,0,0,1,1.09.24,2.08,2.08,0,0,1,.7.61,2.36,2.36,0,0,1,.35.85,4.24,4.24,0,0,1,.11.94v3.84h-2.78v-3.36a1.25,1.25,0,0,0-.14-.68.59.59,0,0,0-.46-.19.58.58,0,0,0-.45.22,1.09,1.09,0,0,0-.17.65v3.36h-2.77Z"/><path class="cls-2" d="M124.93,100.44a3.77,3.77,0,0,1,.19-1.2,3.22,3.22,0,0,1,.54-1.06,2.89,2.89,0,0,1,.9-.76,2.65,2.65,0,0,1,1.25-.28,2.68,2.68,0,0,1,1,.19,1.85,1.85,0,0,1,.8.61h0V97.3h2.61V103a3.88,3.88,0,0,1-.34,1.71,2.83,2.83,0,0,1-.89,1.09,3.38,3.38,0,0,1-1.27.56,6.3,6.3,0,0,1-1.44.17,7,7,0,0,1-1.8-.24,4.77,4.77,0,0,1-1.57-.69l1.21-1.83a3.3,3.3,0,0,0,1,.51,3.44,3.44,0,0,0,1,.16,2.12,2.12,0,0,0,.57-.08,1.38,1.38,0,0,0,.47-.23,1,1,0,0,0,.45-.88v-.28h0a1.81,1.81,0,0,1-.68.47,2.35,2.35,0,0,1-1,.21,2.94,2.94,0,0,1-1.27-.26,2.6,2.6,0,0,1-.9-.7,3,3,0,0,1-.54-1A4.42,4.42,0,0,1,124.93,100.44Zm2.57,0a1.12,1.12,0,0,0,.26.76,1,1,0,0,0,.77.3,1,1,0,0,0,.78-.31,1.08,1.08,0,0,0,0-1.49,1,1,0,0,0-.78-.31,1,1,0,0,0-.77.31A1.1,1.1,0,0,0,127.5,100.44Z"/><path class="cls-2" d="M142.15,103a3.07,3.07,0,0,1-1,.56,4,4,0,0,1-1.42.22,4.94,4.94,0,0,1-1.21-.14,3.49,3.49,0,0,1-1.08-.46,2.49,2.49,0,0,1-.77-.81,2.34,2.34,0,0,1-.3-1.21,2.15,2.15,0,0,1,.13-.77,2.75,2.75,0,0,1,.35-.63,2.85,2.85,0,0,1,.53-.51,3.24,3.24,0,0,1,.66-.36,2.72,2.72,0,0,1-.59-.75,2,2,0,0,1-.24-1,1.88,1.88,0,0,1,.28-1.06,2.22,2.22,0,0,1,.73-.7,3.14,3.14,0,0,1,1-.39,4.85,4.85,0,0,1,1.06-.12,4.19,4.19,0,0,1,1.05.13,2.81,2.81,0,0,1,.94.4,2.1,2.1,0,0,1,.68.71,2,2,0,0,1,.27,1.06,1.81,1.81,0,0,1-.14.72,1.72,1.72,0,0,1-.36.57,2.6,2.6,0,0,1-.52.47,4.81,4.81,0,0,1-.63.39l.59.55.66-.94h3l-2,2.48,2.3,2.2h-3.33Zm-2.59-2.66a.74.74,0,0,0-.32.22.6.6,0,0,0-.15.44.56.56,0,0,0,.07.3.61.61,0,0,0,.19.2.66.66,0,0,0,.27.12.84.84,0,0,0,.27,0,1.21,1.21,0,0,0,.43-.07.72.72,0,0,0,.29-.18Zm.74-3.62a.5.5,0,0,0-.41.16.57.57,0,0,0-.14.39.68.68,0,0,0,.12.38,1.68,1.68,0,0,0,.32.34,1.15,1.15,0,0,0,.46-.3.58.58,0,0,0,.18-.42.66.66,0,0,0-.13-.4A.51.51,0,0,0,140.3,96.72Z"/><path class="cls-2" d="M28,112.8h2.59v2.34H28V118H25.15v-8.5h5.74v2.39H28Z"/><path class="cls-2" d="M38,114.92c0,.1,0,.21,0,.32s0,.2,0,.27H33.71a.48.48,0,0,0,.11.3,1.1,1.1,0,0,0,.25.23,1.16,1.16,0,0,0,.34.14,1.58,1.58,0,0,0,.38,0,1.38,1.38,0,0,0,.64-.14,1.14,1.14,0,0,0,.39-.31l2,1a2.86,2.86,0,0,1-1.22,1.08,4.18,4.18,0,0,1-1.86.4,4.31,4.31,0,0,1-1.33-.22,3.36,3.36,0,0,1-1.14-.64,3.13,3.13,0,0,1-.8-1.06,3.46,3.46,0,0,1-.3-1.48,3.38,3.38,0,0,1,.28-1.41,3,3,0,0,1,.75-1.07,3.29,3.29,0,0,1,1.11-.68,3.91,3.91,0,0,1,1.37-.24,3.51,3.51,0,0,1,1.36.26,3,3,0,0,1,1.05.72,3.34,3.34,0,0,1,.68,1.1A3.85,3.85,0,0,1,38,114.92Zm-2.39-.9a.68.68,0,0,0-.25-.55.92.92,0,0,0-.66-.22,1,1,0,0,0-.71.25,1,1,0,0,0-.29.52Z"/><path class="cls-2" d="M45.54,114.92c0,.1,0,.21,0,.32a1.87,1.87,0,0,1,0,.27H41.27a.48.48,0,0,0,.11.3,1.1,1.1,0,0,0,.25.23,1.16,1.16,0,0,0,.34.14,1.58,1.58,0,0,0,.38,0,1.38,1.38,0,0,0,.64-.14,1.14,1.14,0,0,0,.39-.31l2,1a2.86,2.86,0,0,1-1.22,1.08,4.18,4.18,0,0,1-1.86.4,4.36,4.36,0,0,1-1.33-.22,3.36,3.36,0,0,1-1.14-.64,3.13,3.13,0,0,1-.8-1.06,3.46,3.46,0,0,1-.3-1.48,3.55,3.55,0,0,1,.27-1.41,3.32,3.32,0,0,1,.75-1.07,3.43,3.43,0,0,1,1.12-.68,3.91,3.91,0,0,1,1.37-.24,3.51,3.51,0,0,1,1.36.26,3,3,0,0,1,1,.72,3.34,3.34,0,0,1,.68,1.1A3.85,3.85,0,0,1,45.54,114.92Zm-2.39-.9a.68.68,0,0,0-.25-.55.92.92,0,0,0-.66-.22,1,1,0,0,0-.71.25,1,1,0,0,0-.29.52Z"/><path class="cls-2" d="M46.26,114.84a4.06,4.06,0,0,1,.18-1.2,3.44,3.44,0,0,1,.55-1.06,2.89,2.89,0,0,1,.9-.76,2.65,2.65,0,0,1,1.25-.28,2.44,2.44,0,0,1,.91.17,1.76,1.76,0,0,1,.73.5h0v-3.27h2.77V118h-2.5v-.66h0a1.83,1.83,0,0,1-.81.6,2.78,2.78,0,0,1-1.11.22,2.65,2.65,0,0,1-1.25-.28,2.8,2.8,0,0,1-.9-.77,3.5,3.5,0,0,1-.55-1.07A4.24,4.24,0,0,1,46.26,114.84Zm2.57,0a1.12,1.12,0,0,0,.26.76,1,1,0,0,0,.77.3,1,1,0,0,0,.78-.31,1.08,1.08,0,0,0,0-1.49,1,1,0,0,0-.78-.31,1,1,0,0,0-.77.31A1.1,1.1,0,0,0,48.83,114.84Z"/><path class="cls-2" d="M62.15,114.84a4.25,4.25,0,0,1-.19,1.22,3.27,3.27,0,0,1-.54,1.07,2.8,2.8,0,0,1-.9.77,2.65,2.65,0,0,1-1.25.28,2.78,2.78,0,0,1-1.11-.22,1.86,1.86,0,0,1-.8-.6h0V118H54.84v-9.08h2.77v3.27h0a1.83,1.83,0,0,1,.73-.5,2.48,2.48,0,0,1,.91-.17,2.65,2.65,0,0,1,1.25.28,2.89,2.89,0,0,1,.9.76,3.22,3.22,0,0,1,.54,1.06A4.07,4.07,0,0,1,62.15,114.84Zm-2.57,0a1.11,1.11,0,0,0-.27-.74,1,1,0,0,0-.76-.31,1.07,1.07,0,0,0-.79.31,1.06,1.06,0,0,0,.79,1.8,1,1,0,0,0,.76-.3A1.12,1.12,0,0,0,59.58,114.84Z"/><path class="cls-2" d="M66.51,114a.49.49,0,0,0-.19-.43,1,1,0,0,0-.53-.14,1.65,1.65,0,0,0-.72.17,2.83,2.83,0,0,0-.61.37l-1.38-1.36a4,4,0,0,1,1.37-.86,4.57,4.57,0,0,1,1.63-.3,3.76,3.76,0,0,1,1.49.26,2.27,2.27,0,0,1,.93.69,2.64,2.64,0,0,1,.48,1,5.63,5.63,0,0,1,.14,1.25V118H66.61v-.51h0a1.36,1.36,0,0,1-.69.52,2.64,2.64,0,0,1-.86.15,2.89,2.89,0,0,1-.76-.1,2.24,2.24,0,0,1-.71-.35,1.8,1.8,0,0,1-.52-.63,1.92,1.92,0,0,1-.21-.94,1.7,1.7,0,0,1,.34-1.08,2.49,2.49,0,0,1,.87-.65,4.33,4.33,0,0,1,1.19-.31,9.26,9.26,0,0,1,1.27-.09Zm0,1.39a3,3,0,0,0-1,.13.5.5,0,0,0-.37.49.41.41,0,0,0,.06.23.46.46,0,0,0,.16.15.67.67,0,0,0,.21.09.76.76,0,0,0,.21,0,.83.83,0,0,0,.63-.26.88.88,0,0,0,.24-.64v-.22Z"/><path class="cls-2" d="M73.69,118.26a4.38,4.38,0,0,1-1.48-.24,3.47,3.47,0,0,1-1.16-.69,3.09,3.09,0,0,1-.77-1.07,3.46,3.46,0,0,1-.27-1.4,3.37,3.37,0,0,1,.28-1.4,3.12,3.12,0,0,1,.78-1.07,3.51,3.51,0,0,1,1.19-.69,4.36,4.36,0,0,1,1.47-.24,3.66,3.66,0,0,1,.65.06,3.5,3.5,0,0,1,.64.15,4.08,4.08,0,0,1,.56.21,2.06,2.06,0,0,1,.44.27l-1.38,2a.94.94,0,0,0-.38-.25,1.29,1.29,0,0,0-.45-.09,1.34,1.34,0,0,0-.4.07,1,1,0,0,0-.34.2,1.16,1.16,0,0,0-.24.34,1,1,0,0,0-.1.46,1,1,0,0,0,.1.46.91.91,0,0,0,.24.33,1.14,1.14,0,0,0,.34.19,1.34,1.34,0,0,0,.4.07,1.27,1.27,0,0,0,.47-.09,1.1,1.1,0,0,0,.37-.25L76,117.52a3.47,3.47,0,0,1-1,.52A4.21,4.21,0,0,1,73.69,118.26Z"/><path class="cls-2" d="M79.34,115.27V118H76.57v-9.08h2.77v5.18h0l1.5-2.42h3.21l-2,2.85,2,3.47H80.85l-1.47-2.75Z"/><path class="cls-2" d="M87.61,108.94h2.83V118H87.61Z"/><path class="cls-2" d="M98.66,114.84a3.54,3.54,0,0,1-.29,1.45,3.28,3.28,0,0,1-.79,1.07,3.52,3.52,0,0,1-1.16.67,4.17,4.17,0,0,1-2.73,0,3.38,3.38,0,0,1-1.15-.67,3.28,3.28,0,0,1-.79-1.07,3.54,3.54,0,0,1-.29-1.45,3.46,3.46,0,0,1,.29-1.44,3.24,3.24,0,0,1,.79-1.06,3.18,3.18,0,0,1,1.15-.65,4.17,4.17,0,0,1,2.73,0,3.31,3.31,0,0,1,1.16.65,3.24,3.24,0,0,1,.79,1.06A3.46,3.46,0,0,1,98.66,114.84Zm-3.61-1a1,1,0,0,0-.74.32,1.1,1.1,0,0,0,0,1.48,1,1,0,0,0,.74.32,1,1,0,0,0,.74-.32,1,1,0,0,0,.29-.75,1,1,0,0,0-1-1Z"/><path class="cls-2" d="M106.63,114.84a3.39,3.39,0,0,1-.3,1.45,3,3,0,0,1-.79,1.07,3.38,3.38,0,0,1-1.15.67,4.15,4.15,0,0,1-1.37.23,4.09,4.09,0,0,1-1.36-.23,3.38,3.38,0,0,1-1.15-.67,3.28,3.28,0,0,1-.79-1.07,3.54,3.54,0,0,1-.29-1.45,3.46,3.46,0,0,1,.29-1.44,3.24,3.24,0,0,1,.79-1.06,3.18,3.18,0,0,1,1.15-.65,4.09,4.09,0,0,1,1.36-.23,4.15,4.15,0,0,1,1.37.23,3.18,3.18,0,0,1,1.15.65,3,3,0,0,1,.79,1.06A3.31,3.31,0,0,1,106.63,114.84Zm-3.61-1a1,1,0,0,0-.74.32,1.1,1.1,0,0,0,0,1.48,1,1,0,0,0,.74.32,1,1,0,0,0,.74-.32,1.07,1.07,0,0,0,.29-.75,1,1,0,0,0-.29-.73A1,1,0,0,0,103,113.8Z"/><path class="cls-2" d="M112.09,118.18a2.46,2.46,0,0,1-.92-.17,1.92,1.92,0,0,1-.75-.49h0v3.38h-2.75v-9.2h2.6v.64h0a2.31,2.31,0,0,1,.84-.6,2.36,2.36,0,0,1,1-.2,2.61,2.61,0,0,1,1.24.28,2.89,2.89,0,0,1,.9.76,3.24,3.24,0,0,1,.55,1.06,4.07,4.07,0,0,1,.19,1.2,4.25,4.25,0,0,1-.19,1.22,3.29,3.29,0,0,1-.55,1.07,2.76,2.76,0,0,1-.89.77A2.61,2.61,0,0,1,112.09,118.18Zm.3-3.34a1.11,1.11,0,0,0-.27-.74,1,1,0,0,0-.76-.31,1,1,0,0,0-1.08,1,1.08,1.08,0,0,0,.29.75,1,1,0,0,0,.79.31,1,1,0,0,0,.76-.3A1.12,1.12,0,0,0,112.39,114.84Z"/><path class="cls-2" d="M121.14,116a2,2,0,0,1-.27,1.07,2.14,2.14,0,0,1-.68.69,3,3,0,0,1-.9.37,4,4,0,0,1-.94.12,5.44,5.44,0,0,1-1.6-.24,4.31,4.31,0,0,1-1.36-.66l1.36-1.58a2.2,2.2,0,0,0,.67.43,1.91,1.91,0,0,0,.75.16.76.76,0,0,0,.27-.05.2.2,0,0,0,.13-.2c0-.1-.07-.19-.22-.25a6.81,6.81,0,0,0-.78-.22,4,4,0,0,1-.61-.21,2.12,2.12,0,0,1-.57-.36,2.19,2.19,0,0,1-.43-.56,1.74,1.74,0,0,1-.16-.79,1.92,1.92,0,0,1,.27-1,2.17,2.17,0,0,1,.68-.7,3,3,0,0,1,.9-.4,3.85,3.85,0,0,1,.92-.13,5.15,5.15,0,0,1,1.45.22,4.69,4.69,0,0,1,1.3.6l-1.3,1.55a2.65,2.65,0,0,0-.61-.3,1.92,1.92,0,0,0-.61-.11,1.06,1.06,0,0,0-.34,0,.21.21,0,0,0,0,.4,4.72,4.72,0,0,0,.69.17,4,4,0,0,1,.72.23,2.52,2.52,0,0,1,.63.38,1.7,1.7,0,0,1,.62,1.36Z"/><g id="Group_141285" data-name="Group 141285"><path id="Path_26304" data-name="Path 26304" class="cls-3" d="M130.82,173.89a9.37,9.37,0,0,1-2.44-18.41.68.68,0,0,0,.49-.6l.5-8.89h2.9l.07,1.27h-1.67a.44.44,0,0,0,0,.88h1.72l.1,1.75h-1.82a.44.44,0,1,0,0,.88h1.87l.1,1.75h-2a.44.44,0,0,0,0,.88h2l.08,1.49a.65.65,0,0,0,.49.59,9.44,9.44,0,0,1,6.56,6.43.66.66,0,0,0,1.26-.37,10.73,10.73,0,0,0-7-7.19l-.51-9a.65.65,0,0,0-.66-.62h-4.15a.64.64,0,0,0-.65.62l-.51,9a10.68,10.68,0,0,0,3.24,20.86.66.66,0,1,0,0-1.31Z"/><path id="Path_26305" data-name="Path 26305" class="cls-3" d="M127,139.58l2.55-1.07a.62.62,0,0,1,.82.33.64.64,0,0,1,0,.24v4.23a.44.44,0,0,0,.88,0v-4.23a1.5,1.5,0,0,0-1.5-1.5h0a1.43,1.43,0,0,0-.58.12l-2.56,1.07a.44.44,0,0,0-.25.57.43.43,0,0,0,.56.25Z"/><path id="Path_26306" data-name="Path 26306" class="cls-3" d="M124.18,139.78a.44.44,0,0,0,.57.24.43.43,0,0,0,.26-.28l1.89,2.06a.43.43,0,0,0,.61.07.44.44,0,0,0,.07-.62l0,0-3.33-3.64a.43.43,0,0,0-.61,0h0a.41.41,0,0,0-.11.48Z"/><path id="Path_26307" data-name="Path 26307" class="cls-3" d="M122.52,140.44a.45.45,0,0,0,.57.25.44.44,0,0,0,.26-.29l1.89,2.07a.44.44,0,0,0,.68-.55.08.08,0,0,0,0,0l-3.32-3.65a.44.44,0,0,0-.62,0,.41.41,0,0,0-.11.49Z"/><path id="Path_26308" data-name="Path 26308" class="cls-3" d="M120.94,147.92h.1a.44.44,0,0,0,.33-.52h0l-1.31-6,2.22,2.44a.44.44,0,0,0,.62.07.43.43,0,0,0,.06-.62l0,0-1.77-1.93a.44.44,0,0,0,.32,0,.45.45,0,0,0,.26-.28l1.89,2.07a.44.44,0,0,0,.64-.6h0l-3.33-3.64a.44.44,0,0,0-.62,0,.47.47,0,0,0-.11.49l.68,1.68-1.29-1.41a.44.44,0,0,0-.62,0,.47.47,0,0,0-.13.42l1.67,7.57A.42.42,0,0,0,120.94,147.92Z"/><path id="Path_26309" data-name="Path 26309" class="cls-3" d="M123.72,159.38a.44.44,0,1,0,0,.88H137.6a.44.44,0,0,0,0-.88Z"/><path id="Path_26310" data-name="Path 26310" class="cls-3" d="M154.77,170.05H138.12a.44.44,0,1,0,0,.87h16.65a.44.44,0,1,0,0-.87Z"/><path id="Path_26311" data-name="Path 26311" class="cls-3" d="M149.07,161.28v-7.44l1.71-2a.65.65,0,0,0-.07-.93.67.67,0,0,0-.43-.16h-5.81a.67.67,0,0,0-.66.66h0v9.86L133.28,172a2,2,0,0,0,1.39,3.33h23.55a2,2,0,0,0,1.39-3.33Zm9.74,12.32a.63.63,0,0,1-.59.39H134.67a.64.64,0,0,1-.64-.64.69.69,0,0,1,.18-.45L144.94,162a.64.64,0,0,0,.19-.46v-9.47h3.72l-.93,1.1a.6.6,0,0,0-.16.42v8a.64.64,0,0,0,.19.46l10.72,10.89A.63.63,0,0,1,158.81,173.6Z"/><path id="Path_26312" data-name="Path 26312" class="cls-3" d="M176.63,144.1a.67.67,0,0,0-.92.14h0l-7,9.42-3-3.34a.67.67,0,0,0-.58-.21.66.66,0,0,0-.51.36l-2.58,5.16-2.39,2.4-3.51-5.85a.67.67,0,0,0-.91-.23h0l-.12.1-4.39,4.39a.66.66,0,0,0,.93.93l3.79-3.79,3.51,5.85a.64.64,0,0,0,.48.31h.08a.66.66,0,0,0,.46-.19l3.07-3.07a1.09,1.09,0,0,0,.13-.17l2.19-4.39,2.86,3.21a.66.66,0,0,0,.93.06l.09-.1L176.76,145a.65.65,0,0,0-.11-.91Z"/><path id="Path_26313" data-name="Path 26313" class="cls-3" d="M147.07,147.1a1.5,1.5,0,1,0-1.5-1.5,1.5,1.5,0,0,0,1.5,1.5Zm0-2.13a.63.63,0,1,1-.63.63h0a.63.63,0,0,1,.63-.63Z"/><path id="Path_26314" data-name="Path 26314" class="cls-3" d="M150.27,141.77a1.86,1.86,0,1,0-1.86-1.85h0A1.85,1.85,0,0,0,150.27,141.77Zm0-2.84a1,1,0,1,1-1,1h0a1,1,0,0,1,1-1Z"/><path id="Path_26315" data-name="Path 26315" class="cls-3" d="M160.47,163.91h-1.76a.44.44,0,0,0-.44.44h0v3.94a.44.44,0,0,0,.88,0v-3.5H160v5.69a.44.44,0,1,0,.87,0v-6.13A.44.44,0,0,0,160.47,163.91Z"/><path id="Path_26316" data-name="Path 26316" class="cls-3" d="M164,170.05h-1.75a.44.44,0,0,0-.44.43h0v4.39a.44.44,0,0,0,.44.44H164a.44.44,0,0,0,.44-.44h0v-4.39A.44.44,0,0,0,164,170.05Zm-.44,4.38h-.87v-3.51h.87Z"/><path id="Path_26317" data-name="Path 26317" class="cls-3" d="M167.48,160h-1.76a.43.43,0,0,0-.43.44h0v14.46a.44.44,0,0,0,.43.44h1.76a.44.44,0,0,0,.44-.44h0V160.41A.44.44,0,0,0,167.48,160ZM167,174.43h-.88V160.84H167Z"/><path id="Path_26318" data-name="Path 26318" class="cls-3" d="M171,166.54h-1.75a.44.44,0,0,0-.44.44h0v7.89a.44.44,0,0,0,.44.44H171a.44.44,0,0,0,.44-.44h0V167A.44.44,0,0,0,171,166.54Zm-.44,7.89h-.87v-7h.87Z"/><path id="Path_26319" data-name="Path 26319" class="cls-3" d="M174.49,163.47h-1.75a.44.44,0,0,0-.44.44h0v11a.44.44,0,0,0,.44.44h1.75a.44.44,0,0,0,.44-.44h0v-11A.44.44,0,0,0,174.49,163.47Zm-.44,11h-.88V164.35h.88Z"/></g><polygon class="cls-3" points="24.36 24.43 24.36 39.06 24.45 39.06 30.37 24.43 24.36 24.43"/><polygon class="cls-3" points="34.98 24.43 41.09 39.06 41.09 24.43 34.98 24.43"/><polygon class="cls-3" points="32.72 29.61 30.02 36.21 33.03 36.21 34.26 39.06 36.79 39.06 32.72 29.61"/><path class="cls-3" d="M171.25,27.54a1.57,1.57,0,0,1-.55-.62,1.86,1.86,0,0,1-.18-.79,2,2,0,0,1,.15-.8,1.75,1.75,0,0,1,.42-.61,1.87,1.87,0,0,1,.62-.39,2.21,2.21,0,0,1,.78-.14,2.15,2.15,0,0,1,.77.14,2,2,0,0,1,.63.39,1.87,1.87,0,0,1,.41.61,2,2,0,0,1,.15.8,1.86,1.86,0,0,1-.18.79,1.52,1.52,0,0,1-.56.62v0h2.95v.54h-6v-.54h.64Zm1.24-2.77a1.87,1.87,0,0,0-.59.09,1.64,1.64,0,0,0-.48.28,1.28,1.28,0,0,0-.32.44,1.46,1.46,0,0,0-.12.6,1.4,1.4,0,0,0,.12.58,1.36,1.36,0,0,0,.32.46,1.72,1.72,0,0,0,.47.3,1.68,1.68,0,0,0,.6.1,1.5,1.5,0,0,0,1.07-.4,1.23,1.23,0,0,0,.32-.46,1.4,1.4,0,0,0,.12-.58,1.46,1.46,0,0,0-.12-.6,1.43,1.43,0,0,0-.32-.44,1.64,1.64,0,0,0-.48-.28A2,2,0,0,0,172.49,24.77Z"/><path class="cls-3" d="M172.6,33h-.26v-3.1A1.37,1.37,0,0,0,171,31.22a1.36,1.36,0,0,0,.2.74,1.42,1.42,0,0,0,.45.46l-.32.41a1.92,1.92,0,0,1-.79-1.61,2,2,0,0,1,.15-.77,1.73,1.73,0,0,1,.41-.61,1.84,1.84,0,0,1,.62-.4,2,2,0,0,1,.79-.15,2.21,2.21,0,0,1,.78.14,1.89,1.89,0,0,1,.62.4,1.81,1.81,0,0,1,.42.6,2.13,2.13,0,0,1,0,1.52,1.54,1.54,0,0,1-.4.56,1.82,1.82,0,0,1-.59.34A2.13,2.13,0,0,1,172.6,33Zm.17-.55a1.32,1.32,0,0,0,.88-.35,1.15,1.15,0,0,0,.35-.89,1.22,1.22,0,0,0-.1-.51,1.62,1.62,0,0,0-.27-.41,1.75,1.75,0,0,0-.39-.28,1.31,1.31,0,0,0-.47-.12Z"/><path class="cls-3" d="M173.47,36.13a.9.9,0,0,0,.38-.37,1,1,0,0,0,.15-.55,1.43,1.43,0,0,0,0-.29.76.76,0,0,0-.11-.26.62.62,0,0,0-.18-.18.55.55,0,0,0-.26-.06.46.46,0,0,0-.41.21,2.36,2.36,0,0,0-.24.68,2.32,2.32,0,0,1-.39,1,.86.86,0,0,1-.7.32,1,1,0,0,1-.54-.13,1,1,0,0,1-.36-.32,1.32,1.32,0,0,1-.2-.45,2.22,2.22,0,0,1-.06-.51,2.11,2.11,0,0,1,.17-.82,1.56,1.56,0,0,1,.56-.66l.32.43a1.24,1.24,0,0,0-.59,1,1.27,1.27,0,0,0,0,.34.69.69,0,0,0,.11.28.61.61,0,0,0,.2.19.59.59,0,0,0,.31.07.46.46,0,0,0,.44-.28,4,4,0,0,0,.28-.82c0-.11.06-.23.1-.36a1.29,1.29,0,0,1,.18-.35.92.92,0,0,1,.29-.26.82.82,0,0,1,.44-.1,1,1,0,0,1,.49.11.8.8,0,0,1,.33.3,1.22,1.22,0,0,1,.2.43,2,2,0,0,1,.06.49,1.69,1.69,0,0,1-.17.76,1.17,1.17,0,0,1-.5.55Z"/><path class="cls-3" d="M170.61,38.24V37.7h3.75v.54Zm5.19.11a.38.38,0,0,1-.28-.12.39.39,0,0,1-.1-.26.39.39,0,0,1,.1-.27.39.39,0,0,1,.56,0,.39.39,0,0,1,.1.27.39.39,0,0,1-.1.26A.38.38,0,0,1,175.8,38.35Z"/><path class="cls-3" d="M169.86,39.89a1.91,1.91,0,0,0-.49.61,1.8,1.8,0,0,0-.19.82,1.73,1.73,0,0,0,.11.68,1.08,1.08,0,0,0,.32.45,1.12,1.12,0,0,0,.47.25,1.71,1.71,0,0,0,.57.08h.7a1.45,1.45,0,0,1-.54-.61,1.86,1.86,0,0,1-.2-.81,2.07,2.07,0,0,1,.15-.8,1.66,1.66,0,0,1,.4-.6,1.71,1.71,0,0,1,.6-.4,2.09,2.09,0,0,1,.76-.13,2,2,0,0,1,.75.13,2,2,0,0,1,.62.4,1.83,1.83,0,0,1,.41.6,2.07,2.07,0,0,1,.15.8,1.77,1.77,0,0,1-.19.8,1.44,1.44,0,0,1-.55.62h.65v.55h-3.71a2.54,2.54,0,0,1-.65-.09,1.55,1.55,0,0,1-.63-.31,1.8,1.8,0,0,1-.48-.62,2.27,2.27,0,0,1-.2-1,2.62,2.62,0,0,1,.2-1,2.55,2.55,0,0,1,.56-.81Zm2.67.1a1.54,1.54,0,0,0-.56.1,1.33,1.33,0,0,0-.46.27,1.36,1.36,0,0,0-.32.45,1.57,1.57,0,0,0-.11.6,1.52,1.52,0,0,0,.1.57,1.33,1.33,0,0,0,.76.76,1.63,1.63,0,0,0,.59.11,1.56,1.56,0,0,0,.57-.11,1.41,1.41,0,0,0,.46-.3,1.52,1.52,0,0,0,.32-.46,1.35,1.35,0,0,0,.12-.57,1.4,1.4,0,0,0-.12-.6,1.36,1.36,0,0,0-.32-.45,1.33,1.33,0,0,0-.46-.27A1.56,1.56,0,0,0,172.53,40Z"/><path class="cls-3" d="M174.36,45.23l-.34,0h-.3v0a1.26,1.26,0,0,1,.53.52,1.47,1.47,0,0,1,.2.76,1.34,1.34,0,0,1-.42,1.07,1.72,1.72,0,0,1-1.12.35h-2.3v-.54h2.08a2.89,2.89,0,0,0,.53,0,1.31,1.31,0,0,0,.42-.16.79.79,0,0,0,.26-.31,1.09,1.09,0,0,0,.1-.5,1.06,1.06,0,0,0-.09-.42,1.14,1.14,0,0,0-.27-.36,1.4,1.4,0,0,0-.45-.26,2.15,2.15,0,0,0-.66-.09h-1.92v-.55h3.32l.43,0Z"/><path class="cls-3" d="M162.33,28,161,29.25v-.8l.83-.8a2.46,2.46,0,0,1-.7-.76,2,2,0,0,1-.23-1,2.2,2.2,0,0,1,.1-.68,1.67,1.67,0,0,1,.3-.56,1.41,1.41,0,0,1,.49-.38,1.7,1.7,0,0,1,1.25,0,1.33,1.33,0,0,1,.46.27,2.14,2.14,0,0,1,.37.42,3.66,3.66,0,0,1,.28.52,2.26,2.26,0,0,1,.28-.25,1.6,1.6,0,0,1,.31-.22,1.58,1.58,0,0,1,.35-.16,1.21,1.21,0,0,1,.38-.06,1.48,1.48,0,0,1,.57.11,1.27,1.27,0,0,1,.41.31,1.16,1.16,0,0,1,.27.44,2,2,0,0,1,.08.55,1.89,1.89,0,0,1-.08.53,1.31,1.31,0,0,1-.25.43,1.08,1.08,0,0,1-.4.3,1.33,1.33,0,0,1-.54.11,1.15,1.15,0,0,1-.5-.11,1.46,1.46,0,0,1-.41-.29,2.64,2.64,0,0,1-.32-.41c-.09-.15-.18-.31-.26-.47l-1.36,1.32,1.38.79V29Zm1.47-2.21a2.29,2.29,0,0,0-.55-.78,1.19,1.19,0,0,0-.77-.26,1,1,0,0,0-.44.09,1,1,0,0,0-.34.26,1.09,1.09,0,0,0-.22.38,1.43,1.43,0,0,0,.13,1.22,2.06,2.06,0,0,0,.62.58ZM165.55,27a.77.77,0,0,0,.8-.8.82.82,0,0,0-.87-.86,1,1,0,0,0-.32.06l-.31.16-.26.21a1,1,0,0,0-.18.19c.06.12.12.25.19.37a2.85,2.85,0,0,0,.25.33,1,1,0,0,0,.31.24A.87.87,0,0,0,165.55,27Z"/><path class="cls-3" d="M164.33,32.09l.43,0v.52l-.34,0h-.3a1.29,1.29,0,0,1,.53.48,1.26,1.26,0,0,1,.2.72V34a1,1,0,0,1,0,.17l-.52-.07a.46.46,0,0,0,0-.16,1.7,1.7,0,0,0,0-.22,1,1,0,0,0-.08-.42A.84.84,0,0,0,164,33a1.23,1.23,0,0,0-.44-.24,2,2,0,0,0-.64-.09H161V32.1h3.31Z"/><path class="cls-3" d="M163,38.24h-.26v-3.1a1.31,1.31,0,0,0-.52.11,1.46,1.46,0,0,0-.44.29,1.3,1.3,0,0,0-.29.43,1.33,1.33,0,0,0-.11.54,1.35,1.35,0,0,0,.2.73,1.56,1.56,0,0,0,.45.47l-.32.4a1.92,1.92,0,0,1-.79-1.6,2,2,0,0,1,.15-.78,1.82,1.82,0,0,1,.41-.61,2,2,0,0,1,1.41-.55,2.21,2.21,0,0,1,.78.14,1.89,1.89,0,0,1,.62.4,1.81,1.81,0,0,1,.42.6,2.13,2.13,0,0,1,0,1.52,1.61,1.61,0,0,1-1,.9A2.09,2.09,0,0,1,163,38.24Zm.18-.55a1.36,1.36,0,0,0,.87-.34,1.16,1.16,0,0,0,.35-.9,1.25,1.25,0,0,0-.1-.51,1.41,1.41,0,0,0-.27-.4,1.28,1.28,0,0,0-.39-.28,1.25,1.25,0,0,0-.46-.12Z"/><path class="cls-3" d="M163.87,41.4a.94.94,0,0,0,.38-.36,1.07,1.07,0,0,0,.15-.56,1.43,1.43,0,0,0,0-.29.71.71,0,0,0-.11-.25.45.45,0,0,0-.18-.18.47.47,0,0,0-.27-.07.45.45,0,0,0-.4.21,2.12,2.12,0,0,0-.23.68,2.39,2.39,0,0,1-.4,1,.86.86,0,0,1-.7.32,1.11,1.11,0,0,1-.54-.12,1.15,1.15,0,0,1-.36-.33A1.32,1.32,0,0,1,161,41a2.22,2.22,0,0,1-.06-.51,2,2,0,0,1,.18-.82,1.47,1.47,0,0,1,.55-.66l.32.43a1.24,1.24,0,0,0-.59,1,1.27,1.27,0,0,0,0,.34.63.63,0,0,0,.11.28.61.61,0,0,0,.2.19.59.59,0,0,0,.31.07.46.46,0,0,0,.44-.28,3.83,3.83,0,0,0,.28-.82c0-.11.06-.23.1-.36a1.35,1.35,0,0,1,.17-.34,1,1,0,0,1,.3-.27.82.82,0,0,1,.44-.1,1,1,0,0,1,.49.11,1,1,0,0,1,.34.3,1.4,1.4,0,0,1,.19.43,2,2,0,0,1,.06.49,1.69,1.69,0,0,1-.17.76,1.24,1.24,0,0,1-.5.56Z"/><path class="cls-3" d="M163,46.37h-.26v-3.1a1.37,1.37,0,0,0-1.36,1.36,1.36,1.36,0,0,0,.2.74,1.42,1.42,0,0,0,.45.46l-.32.41a1.92,1.92,0,0,1-.79-1.61,2,2,0,0,1,.15-.77,1.73,1.73,0,0,1,.41-.61,1.84,1.84,0,0,1,.62-.4,2,2,0,0,1,.79-.15,2.21,2.21,0,0,1,.78.14,1.89,1.89,0,0,1,.62.4,1.81,1.81,0,0,1,.42.6,1.84,1.84,0,0,1,.14.74,1.87,1.87,0,0,1-.14.78,1.78,1.78,0,0,1-.4.56,1.82,1.82,0,0,1-.59.34A2.09,2.09,0,0,1,163,46.37Zm.18-.55a1.31,1.31,0,0,0,.87-.35,1.16,1.16,0,0,0,.35-.9,1.21,1.21,0,0,0-.1-.5,1.62,1.62,0,0,0-.27-.41,1.75,1.75,0,0,0-.39-.28,1.25,1.25,0,0,0-.46-.12Z"/><path class="cls-3" d="M163.44,49.85a1,1,0,0,0,.72-.26,1,1,0,0,0,.24-.74,1.61,1.61,0,0,0-.12-.63,1.66,1.66,0,0,0-.32-.49l.36-.3a1.92,1.92,0,0,1,.38.61,2.35,2.35,0,0,1,.15.86,1.75,1.75,0,0,1-.08.57,1.21,1.21,0,0,1-.25.46,1.12,1.12,0,0,1-.42.32,1.64,1.64,0,0,1-.6.11h-2.09l-.39.05v-.49l.29,0h.31v0a1.55,1.55,0,0,1-.54-.58,1.67,1.67,0,0,1-.16-.78,1.72,1.72,0,0,1,.06-.44,1.35,1.35,0,0,1,.2-.42,1,1,0,0,1,.88-.43,1,1,0,0,1,.69.22,1.32,1.32,0,0,1,.37.58,3.06,3.06,0,0,1,.16.85c0,.32,0,.65,0,1Zm-.55-.16c0-.23,0-.45,0-.68a3.62,3.62,0,0,0-.11-.62,1.22,1.22,0,0,0-.25-.45.54.54,0,0,0-.42-.17.71.71,0,0,0-.34.07.63.63,0,0,0-.22.21,1.18,1.18,0,0,0-.12.28,1.66,1.66,0,0,0,0,.32,1.19,1.19,0,0,0,.1.51.91.91,0,0,0,.27.37,1.15,1.15,0,0,0,.4.24,1.4,1.4,0,0,0,.47.08h.28Z"/><path class="cls-3" d="M164.33,51.75l.43,0v.52l-.34,0h-.3v0a1.17,1.17,0,0,1,.53.48,1.26,1.26,0,0,1,.2.72v.18a1.16,1.16,0,0,1,0,.18l-.52-.08a.4.4,0,0,0,0-.16,1.62,1.62,0,0,0,0-.22,1,1,0,0,0-.08-.42.76.76,0,0,0-.25-.34,1.23,1.23,0,0,0-.44-.24,1.76,1.76,0,0,0-.64-.1H161v-.54h3.31Z"/><path class="cls-3" d="M163.9,57.19a.94.94,0,0,0,.36-.4,1.19,1.19,0,0,0,.14-.56,1.38,1.38,0,0,0-.12-.59,1.12,1.12,0,0,0-.32-.45,1.29,1.29,0,0,0-.48-.29,1.63,1.63,0,0,0-.59-.1,1.68,1.68,0,0,0-.6.1,1.47,1.47,0,0,0-.47.28,1.23,1.23,0,0,0-.32.45,1.41,1.41,0,0,0-.12.59,1.25,1.25,0,0,0,.14.61,1.27,1.27,0,0,0,.35.41l-.3.41a1.68,1.68,0,0,1-.47-.59,1.8,1.8,0,0,1-.18-.84,2.14,2.14,0,0,1,.15-.82,1.72,1.72,0,0,1,.41-.63,1.84,1.84,0,0,1,.62-.4,2.13,2.13,0,0,1,1.57,0,1.84,1.84,0,0,1,1,1,2.14,2.14,0,0,1,.14.82,2,2,0,0,1-.16.77,1.49,1.49,0,0,1-.48.62Z"/><path class="cls-3" d="M164.14,59.07a1.14,1.14,0,0,1,.52.5,1.56,1.56,0,0,1,.19.76,1.3,1.3,0,0,1-.42,1.06,1.67,1.67,0,0,1-1.12.36H161v-.54h2.07a2.89,2.89,0,0,0,.53-.05A1,1,0,0,0,164,61a.68.68,0,0,0,.27-.31,1,1,0,0,0,.1-.49,1.06,1.06,0,0,0-.09-.42,1,1,0,0,0-.27-.36,1.4,1.4,0,0,0-.45-.26,2.18,2.18,0,0,0-.66-.1H161v-.54h6v.54h-2.92Z"/></svg>