<svg id="Layer_1" data-name="Layer 1" xmlns="http://www.w3.org/2000/svg" viewBox="0 0 544 922"><defs><style>.cls-1{fill:#e3deda;}.cls-2{fill:#fff;}</style></defs><title>labs</title><path id="Path_35031" data-name="Path 35031" class="cls-1" d="M-.29-1H545V923H-.29Z"/><g id="Group_141439" data-name="Group 141439"><path id="Path_26304" data-name="Path 26304" class="cls-2" d="M183.58,531.94a50.11,50.11,0,0,1-13.06-98.48,3.55,3.55,0,0,0,2.6-3.19l2.68-47.53h15.53l.38,6.78h-9a2.34,2.34,0,1,0,0,4.68H192l.52,9.38h-9.75a2.34,2.34,0,1,0,0,4.68h10l.51,9.38H182.76a2.35,2.35,0,1,0,0,4.69h10.8l.45,8a3.47,3.47,0,0,0,2.6,3.19,50.41,50.41,0,0,1,35.08,34.36,3.52,3.52,0,0,0,6.75-2,57.41,57.41,0,0,0-37.54-38.46L198.18,379a3.52,3.52,0,0,0-3.52-3.33H172.47A3.52,3.52,0,0,0,169,379l-2.72,48.37A57.14,57.14,0,0,0,183.58,539a3.52,3.52,0,0,0,0-7Z"/><path id="Path_26305" data-name="Path 26305" class="cls-2" d="M163,348.43l13.67-5.74a3.35,3.35,0,0,1,4.36,1.78,3.57,3.57,0,0,1,.25,1.29V368.4a2.35,2.35,0,0,0,4.69,0V345.76a8,8,0,0,0-8-8h0a7.74,7.74,0,0,0-3.12.63l-13.67,5.74a2.34,2.34,0,1,0,1.67,4.38Z"/><path id="Path_26306" data-name="Path 26306" class="cls-2" d="M148.05,349.49a2.34,2.34,0,0,0,3,1.33,2.38,2.38,0,0,0,1.4-1.52l10.1,11a2.34,2.34,0,0,0,3.65-2.94,2.29,2.29,0,0,0-.21-.23L148.24,337.7a2.31,2.31,0,0,0-3.27-.17l0,0a2.31,2.31,0,0,0-.59,2.6Z"/><path id="Path_26307" data-name="Path 26307" class="cls-2" d="M139.19,353a2.35,2.35,0,0,0,4.43-.19l10.1,11a2.35,2.35,0,0,0,3.65-2.95,2.13,2.13,0,0,0-.21-.22l-17.78-19.47a2.35,2.35,0,0,0-3.92,2.46Z"/><path id="Path_26308" data-name="Path 26308" class="cls-2" d="M130.73,393a2.94,2.94,0,0,0,.51,0,2.35,2.35,0,0,0,1.79-2.79h0l-7-31.94,11.91,13a2.34,2.34,0,1,0,3.65-2.94,1.45,1.45,0,0,0-.21-.22l-9.42-10.31a2.35,2.35,0,0,0,1.69,0,2.39,2.39,0,0,0,1.38-1.5l10.1,11a2.34,2.34,0,0,0,3.45-3.16h0l-17.79-19.47a2.37,2.37,0,0,0-3.33-.17,2.4,2.4,0,0,0-.58,2.6l3.61,9-6.89-7.52a2.33,2.33,0,0,0-4,2.06l8.91,40.48A2.3,2.3,0,0,0,130.73,393Z"/><path id="Path_26309" data-name="Path 26309" class="cls-2" d="M145.61,454.34a2.35,2.35,0,0,0,0,4.69h74.22a2.35,2.35,0,1,0,0-4.69Z"/><path id="Path_26310" data-name="Path 26310" class="cls-2" d="M311.65,511.38h-89a2.35,2.35,0,1,0,0,4.69h89a2.35,2.35,0,1,0,0-4.69Z"/><path id="Path_26311" data-name="Path 26311" class="cls-2" d="M281.19,464.51V424.72l9.14-10.67a3.51,3.51,0,0,0-2.67-5.81H256.58a3.52,3.52,0,0,0-3.52,3.52h0v52.73L196.7,521.72a10.46,10.46,0,0,0,7.45,17.79h126a10.46,10.46,0,0,0,7.45-17.79Zm52.07,65.86a3.39,3.39,0,0,1-3.16,2.1h-126a3.41,3.41,0,0,1-2.43-5.81l57.37-58.24a3.48,3.48,0,0,0,1-2.46V415.29H280l-5,5.86a3.4,3.4,0,0,0-.84,2.28V466a3.53,3.53,0,0,0,1,2.46l57.38,58.22A3.4,3.4,0,0,1,333.26,530.37Z"/><path id="Path_26312" data-name="Path 26312" class="cls-2" d="M428.58,372.62a3.55,3.55,0,0,0-4.93.72h0l-37.26,50.42L370.53,405.9a3.5,3.5,0,0,0-3.1-1.15,3.57,3.57,0,0,0-2.69,1.92l-13.81,27.61L338.11,447.1l-18.77-31.29a3.51,3.51,0,0,0-4.82-1.2h0a4.29,4.29,0,0,0-.68.53L290.4,438.59a3.52,3.52,0,0,0,5,5l20.24-20.25,18.78,31.29a3.47,3.47,0,0,0,2.57,1.68,3.11,3.11,0,0,0,.43,0,3.5,3.5,0,0,0,2.48-1l16.41-16.41a3.88,3.88,0,0,0,.65-.91l11.74-23.49L384,431.68a3.51,3.51,0,0,0,5,.29,3.71,3.71,0,0,0,.5-.55l39.84-53.9a3.45,3.45,0,0,0-.62-4.84Z"/><path id="Path_26313" data-name="Path 26313" class="cls-2" d="M270.48,388.67a8,8,0,1,0-8-8,8,8,0,0,0,8,8Zm0-11.39a3.35,3.35,0,1,1-3.35,3.35h0a3.35,3.35,0,0,1,3.35-3.35Z"/><path id="Path_26314" data-name="Path 26314" class="cls-2" d="M287.59,360.17a9.94,9.94,0,1,0-9.94-9.93h0A9.94,9.94,0,0,0,287.59,360.17Zm0-15.18a5.25,5.25,0,1,1-5.25,5.25h0a5.23,5.23,0,0,1,5.23-5.25Z"/><path id="Path_26315" data-name="Path 26315" class="cls-2" d="M342.12,478.57h-9.37a2.35,2.35,0,0,0-2.35,2.35h0V502a2.35,2.35,0,0,0,4.69,0V483.26h4.69v30.47a2.34,2.34,0,0,0,4.68,0V480.92A2.34,2.34,0,0,0,342.12,478.57Z"/><path id="Path_26316" data-name="Path 26316" class="cls-2" d="M360.87,511.38H351.5a2.35,2.35,0,0,0-2.35,2.35h0v23.43a2.35,2.35,0,0,0,2.35,2.35h9.37a2.35,2.35,0,0,0,2.34-2.35h0V513.73A2.35,2.35,0,0,0,360.87,511.38Zm-2.34,23.44h-4.69V516.07h4.69Z"/><path id="Path_26317" data-name="Path 26317" class="cls-2" d="M379.62,457.48h-9.38a2.34,2.34,0,0,0-2.34,2.34h0v77.34a2.35,2.35,0,0,0,2.34,2.35h9.38a2.35,2.35,0,0,0,2.34-2.35h0V459.82A2.34,2.34,0,0,0,379.62,457.48Zm-2.35,77.34h-4.68V462.17h4.68Z"/><path id="Path_26318" data-name="Path 26318" class="cls-2" d="M398.37,492.63H389a2.35,2.35,0,0,0-2.34,2.35h0v42.18a2.35,2.35,0,0,0,2.34,2.35h9.38a2.35,2.35,0,0,0,2.34-2.35h0V495A2.35,2.35,0,0,0,398.37,492.63ZM396,534.82h-4.68v-37.5H396Z"/><path id="Path_26319" data-name="Path 26319" class="cls-2" d="M417.12,476.23h-9.38a2.34,2.34,0,0,0-2.34,2.34h0v58.59a2.35,2.35,0,0,0,2.34,2.35h9.38a2.35,2.35,0,0,0,2.34-2.35h0V478.57A2.34,2.34,0,0,0,417.12,476.23Zm-2.35,58.59h-4.68v-53.9h4.68Z"/></g></svg>