<svg id="Layer_1" data-name="Layer 1" xmlns="http://www.w3.org/2000/svg" viewBox="0 0 200 200"><defs><style>.cls-1{stroke:#231f20;}.cls-1,.cls-4{stroke-miterlimit:10;}.cls-2{fill:#eac138;}.cls-3{fill:#fff;}.cls-4{fill:none;stroke:#eac23a;stroke-width:2px;}</style></defs><title>liri-art</title><rect class="cls-1" width="200" height="200"/><path class="cls-2" d="M170.77,28.77a1.6,1.6,0,0,1-.55-.63,1.82,1.82,0,0,1-.18-.79,2,2,0,0,1,.15-.79,1.75,1.75,0,0,1,.42-.61,1.81,1.81,0,0,1,.62-.39,2,2,0,0,1,.78-.14,2,2,0,0,1,.78.14,1.81,1.81,0,0,1,.62.39,1.9,1.9,0,0,1,.42.61,2,2,0,0,1,.15.79,1.84,1.84,0,0,1-.19.79,1.55,1.55,0,0,1-.56.63h3v.55h-6.05v-.55h.63ZM172,26a1.66,1.66,0,0,0-.59.1,1.42,1.42,0,0,0-.48.27,1.23,1.23,0,0,0-.32.45,1.4,1.4,0,0,0-.11.6,1.32,1.32,0,0,0,.11.57,1.42,1.42,0,0,0,.79.76,1.69,1.69,0,0,0,1.2,0,1.5,1.5,0,0,0,.48-.3,1.52,1.52,0,0,0,.32-.46,1.48,1.48,0,0,0,.11-.57,1.4,1.4,0,0,0-.12-.6,1.36,1.36,0,0,0-.32-.45,1.42,1.42,0,0,0-.48-.27A1.66,1.66,0,0,0,172,26Z"/><path class="cls-2" d="M172.12,34.19h-.25v-3.1a1.52,1.52,0,0,0-.53.11,1.3,1.3,0,0,0-.43.29,1.45,1.45,0,0,0-.3.43,1.4,1.4,0,0,0-.1.54,1.35,1.35,0,0,0,.19.73,1.56,1.56,0,0,0,.45.47l-.32.41a2.19,2.19,0,0,1-.61-.74,2.12,2.12,0,0,1-.18-.87,2,2,0,0,1,.56-1.39,2.13,2.13,0,0,1,.62-.4,2.06,2.06,0,0,1,.79-.15,2,2,0,0,1,.78.15,1.74,1.74,0,0,1,.63.4,1.94,1.94,0,0,1,.41.6,1.78,1.78,0,0,1,.15.74,1.94,1.94,0,0,1-.15.78,1.63,1.63,0,0,1-.4.56,1.9,1.9,0,0,1-.59.34A2.36,2.36,0,0,1,172.12,34.19Zm.18-.55a1.36,1.36,0,0,0,.87-.34,1.13,1.13,0,0,0,.35-.9,1.18,1.18,0,0,0-.1-.5,1.33,1.33,0,0,0-.66-.69,1.25,1.25,0,0,0-.46-.12Z"/><path class="cls-2" d="M170.14,36.9v-.6l3.74-1.53v.61l-3.17,1.21v0l3.17,1.22v.59Z"/><path class="cls-2" d="M172.12,42.67h-.25v-3.1a1.52,1.52,0,0,0-.53.11,1.3,1.3,0,0,0-.43.29,1.45,1.45,0,0,0-.3.43,1.4,1.4,0,0,0-.1.54,1.35,1.35,0,0,0,.19.73,1.45,1.45,0,0,0,.45.47l-.32.41a2.19,2.19,0,0,1-.61-.74,2.12,2.12,0,0,1-.18-.87,2,2,0,0,1,.56-1.39,2.13,2.13,0,0,1,.62-.4A2.06,2.06,0,0,1,172,39a2,2,0,0,1,.78.15,1.88,1.88,0,0,1,.63.4,1.94,1.94,0,0,1,.41.6,1.81,1.81,0,0,1,.15.74,1.94,1.94,0,0,1-.15.78,1.63,1.63,0,0,1-.4.56,1.72,1.72,0,0,1-.59.34A2.36,2.36,0,0,1,172.12,42.67Zm.18-.55a1.36,1.36,0,0,0,.87-.34,1.13,1.13,0,0,0,.35-.9,1.18,1.18,0,0,0-.1-.5,1.46,1.46,0,0,0-.27-.41,1.33,1.33,0,0,0-.39-.28,1.25,1.25,0,0,0-.46-.12Z"/><path class="cls-2" d="M170.14,44.4v-.54h6.05v.54Z"/><path class="cls-2" d="M172,49.58a2.06,2.06,0,0,1-.79-.15,2.16,2.16,0,0,1-.62-.41,2,2,0,0,1-.41-.64,2.21,2.21,0,0,1,0-1.6,2,2,0,0,1,.41-.64,2.16,2.16,0,0,1,.62-.41,2.06,2.06,0,0,1,.79-.15,2,2,0,0,1,.78.15,2.08,2.08,0,0,1,.63.41,2,2,0,0,1,.41.64,2.21,2.21,0,0,1,0,1.6,2,2,0,0,1-.41.64,2.08,2.08,0,0,1-.63.41A2,2,0,0,1,172,49.58Zm0-.58a1.66,1.66,0,0,0,.59-.1,1.64,1.64,0,0,0,.48-.28,1.6,1.6,0,0,0,.32-.45,1.41,1.41,0,0,0,.12-.59,1.38,1.38,0,0,0-.12-.59,1.47,1.47,0,0,0-.32-.45,1.64,1.64,0,0,0-.48-.28,1.79,1.79,0,0,0-1.18,0,1.64,1.64,0,0,0-.48.28,1.32,1.32,0,0,0-.32.45,1.38,1.38,0,0,0-.11.59,1.34,1.34,0,0,0,.43,1,1.64,1.64,0,0,0,.48.28A1.66,1.66,0,0,0,172,49Z"/><path class="cls-2" d="M168.22,51.29v-.55h5.66v.55h-.65v0a1.52,1.52,0,0,1,.56.62,1.87,1.87,0,0,1,.19.79,2.07,2.07,0,0,1-.15.8,1.85,1.85,0,0,1-.42.6,2,2,0,0,1-.62.4,2.25,2.25,0,0,1-.78.14,2.21,2.21,0,0,1-.78-.14,2,2,0,0,1-.62-.4,1.71,1.71,0,0,1-.42-.6,2.07,2.07,0,0,1-.15-.8,1.73,1.73,0,0,1,.19-.79,1.54,1.54,0,0,1,.54-.62v0ZM172,54.08a1.66,1.66,0,0,0,.59-.1,1.42,1.42,0,0,0,.48-.27,1.36,1.36,0,0,0,.32-.45,1.4,1.4,0,0,0,.12-.6,1.38,1.38,0,0,0-.43-1,1.5,1.5,0,0,0-.48-.3,1.69,1.69,0,0,0-1.2,0,1.39,1.39,0,0,0-.9,1.33,1.4,1.4,0,0,0,.11.6,1.23,1.23,0,0,0,.32.45,1.42,1.42,0,0,0,.48.27A1.66,1.66,0,0,0,172,54.08Z"/><path class="cls-2" d="M173.77,56.85a1.36,1.36,0,0,1,.21.74,1.82,1.82,0,0,1,0,.32,1.44,1.44,0,0,1-.13.32,1.28,1.28,0,0,1-.24.29,1.43,1.43,0,0,1-.39.22,1.42,1.42,0,0,1,.79,1.32,1.28,1.28,0,0,1-.43,1.06,1.66,1.66,0,0,1-1.12.36h-2.29v-.54h2.07a1.88,1.88,0,0,0,.95-.22.82.82,0,0,0,.36-.75,1,1,0,0,0-.12-.5.9.9,0,0,0-.31-.33,1.51,1.51,0,0,0-.45-.18,2.16,2.16,0,0,0-.51-.06h-2v-.54h2.18a2.6,2.6,0,0,0,.5,0,1.07,1.07,0,0,0,.38-.14.73.73,0,0,0,.24-.28,1.08,1.08,0,0,0,.08-.44.92.92,0,0,0-.09-.39,1,1,0,0,0-.26-.35,1.58,1.58,0,0,0-.46-.26,2.08,2.08,0,0,0-.65-.09h-1.92v-.55h3.31l.43,0v.52l-.34,0h-.3v0A1.25,1.25,0,0,1,173.77,56.85Z"/><path class="cls-2" d="M172.12,66.3h-.25V63.18a1.52,1.52,0,0,0-.53.12,1.15,1.15,0,0,0-.43.28,1.59,1.59,0,0,0-.3.43,1.4,1.4,0,0,0-.1.54,1.32,1.32,0,0,0,.19.73,1.45,1.45,0,0,0,.45.47l-.32.41a2.19,2.19,0,0,1-.61-.74,2.12,2.12,0,0,1-.18-.87,2,2,0,0,1,.15-.77,1.87,1.87,0,0,1,.41-.61,2.16,2.16,0,0,1,.62-.41,2.05,2.05,0,0,1,.79-.14,2,2,0,0,1,.78.14,2.05,2.05,0,0,1,.63.4,1.94,1.94,0,0,1,.41.6,1.85,1.85,0,0,1,.15.74,1.9,1.9,0,0,1-.15.78,1.63,1.63,0,0,1-.4.56,1.72,1.72,0,0,1-.59.34A2.09,2.09,0,0,1,172.12,66.3Zm.18-.56a1.31,1.31,0,0,0,.87-.34,1.13,1.13,0,0,0,.35-.9,1.18,1.18,0,0,0-.1-.5,1.46,1.46,0,0,0-.27-.41,1.33,1.33,0,0,0-.39-.28,1.25,1.25,0,0,0-.46-.12Z"/><path class="cls-2" d="M173.88,68l-.34,0h-.3v0a1.21,1.21,0,0,1,.53.52,1.48,1.48,0,0,1,.21.76,1.31,1.31,0,0,1-.43,1.07,1.71,1.71,0,0,1-1.12.35h-2.29v-.54h2.07a2.92,2.92,0,0,0,.54,0,1.25,1.25,0,0,0,.41-.16.86.86,0,0,0,.27-.32,1.13,1.13,0,0,0,.09-.49,1.06,1.06,0,0,0-.09-.42,1.1,1.1,0,0,0-.26-.36,1.58,1.58,0,0,0-.46-.26,2.08,2.08,0,0,0-.65-.09h-1.92v-.55h3.31l.43,0Z"/><path class="cls-2" d="M173.43,73.8V72.74h-2.19a1.51,1.51,0,0,0-.34,0,.53.53,0,0,0-.21.12.34.34,0,0,0-.11.18.78.78,0,0,0,0,.22.67.67,0,0,0,0,.24,2.25,2.25,0,0,0,.08.24l-.47,0a1.67,1.67,0,0,1-.08-.3,1.79,1.79,0,0,1,0-.34,1.22,1.22,0,0,1,0-.32.89.89,0,0,1,.15-.31.83.83,0,0,1,.31-.24,1.15,1.15,0,0,1,.5-.09h2.34v-.78h.45v.78h1.06v.54h-1.06V73.8Z"/><path class="cls-3" d="M27.87,90.48h2.88v6h2.82V99h-5.7Z"/><path class="cls-3" d="M34.26,90.84a1.26,1.26,0,0,1,.12-.55,1.39,1.39,0,0,1,.31-.45,1.49,1.49,0,0,1,.46-.31,1.51,1.51,0,0,1,.56-.11,1.33,1.33,0,0,1,.54.11,1.77,1.77,0,0,1,.46.31,1.57,1.57,0,0,1,.31.45,1.43,1.43,0,0,1,0,1.1,1.44,1.44,0,0,1-.31.45,1.7,1.7,0,0,1-.46.29,1.33,1.33,0,0,1-.54.11,1.51,1.51,0,0,1-.56-.11,1.44,1.44,0,0,1-.46-.29,1.29,1.29,0,0,1-.31-.45A1.26,1.26,0,0,1,34.26,90.84Zm.05,1.82h2.77V99H34.31Z"/><path class="cls-3" d="M38.37,92.66H41v.72h0a1.7,1.7,0,0,1,.61-.64,1.81,1.81,0,0,1,.94-.25,1.93,1.93,0,0,1,.53.06l-.21,2.35-.3-.05-.29,0a1.25,1.25,0,0,0-.87.31,1.06,1.06,0,0,0-.32.77V99H38.37Z"/><path class="cls-3" d="M43.67,90.84a1.33,1.33,0,0,1,.43-1,1.49,1.49,0,0,1,.46-.31,1.47,1.47,0,0,1,.56-.11,1.41,1.41,0,0,1,.54.11,1.57,1.57,0,0,1,.45.31,1.39,1.39,0,0,1,.31.45,1.32,1.32,0,0,1,0,1.1,1.29,1.29,0,0,1-.31.45,1.51,1.51,0,0,1-.45.29,1.41,1.41,0,0,1-.54.11,1.47,1.47,0,0,1-.56-.11,1.44,1.44,0,0,1-.46-.29,1.32,1.32,0,0,1-.32-.45A1.42,1.42,0,0,1,43.67,90.84Zm0,1.82h2.77V99H43.72Z"/><path class="cls-3" d="M47.93,94.06a1.39,1.39,0,0,1,.12-.57,1.52,1.52,0,0,1,.32-.46,1.55,1.55,0,0,1,.48-.32,1.67,1.67,0,0,1,.59-.11,1.55,1.55,0,0,1,.56.11,1.4,1.4,0,0,1,.47.32,1.52,1.52,0,0,1,.32.46,1.44,1.44,0,0,1,0,1.15,1.42,1.42,0,0,1-.79.76,1.38,1.38,0,0,1-.56.12,1.48,1.48,0,0,1-.59-.12,1.69,1.69,0,0,1-.48-.3,1.52,1.52,0,0,1-.32-.46A1.4,1.4,0,0,1,47.93,94.06Zm0,3.53a1.39,1.39,0,0,1,.12-.57,1.7,1.7,0,0,1,.32-.47,1.72,1.72,0,0,1,.48-.31,1.67,1.67,0,0,1,.59-.11,1.47,1.47,0,0,1,1,.42,1.7,1.7,0,0,1,.32.47,1.44,1.44,0,0,1,0,1.15,1.47,1.47,0,0,1-.32.45,1.54,1.54,0,0,1-.47.31,1.36,1.36,0,0,1-.56.11,1.47,1.47,0,0,1-.59-.11,1.72,1.72,0,0,1-.48-.31,1.47,1.47,0,0,1-.32-.45A1.4,1.4,0,0,1,47.93,97.59Z"/><path class="cls-3" d="M30.23,104.88h3l3.31,8.49H33.47L33,112.12h-2.7l-.42,1.25h-3Zm1.48,3-.7,2.1h1.38Z"/><path class="cls-3" d="M43.24,113.61a4.38,4.38,0,0,1-1.48-.24,3.52,3.52,0,0,1-1.16-.68,3.06,3.06,0,0,1-.77-1.07,3.5,3.5,0,0,1-.28-1.4,3.34,3.34,0,0,1,.29-1.4,3.12,3.12,0,0,1,.78-1.08,3.72,3.72,0,0,1,1.18-.68,4.44,4.44,0,0,1,1.47-.24,4.89,4.89,0,0,1,.66.05,5.81,5.81,0,0,1,.63.15,5.24,5.24,0,0,1,.57.22,2.56,2.56,0,0,1,.44.26l-1.38,2a.9.9,0,0,0-.38-.25,1.29,1.29,0,0,0-.45-.09,1.09,1.09,0,0,0-.4.07.9.9,0,0,0-.34.2,1.11,1.11,0,0,0-.25.34,1.08,1.08,0,0,0-.09.46,1.11,1.11,0,0,0,.09.46,1,1,0,0,0,.25.32,1.05,1.05,0,0,0,.34.2,1.34,1.34,0,0,0,.4.06,1.31,1.31,0,0,0,.47-.09,1.08,1.08,0,0,0,.37-.24l1.39,1.93a3.54,3.54,0,0,1-1,.53A4.15,4.15,0,0,1,43.24,113.61Z"/><path class="cls-3" d="M53.07,110.19a3.32,3.32,0,0,1-.3,1.45,3.09,3.09,0,0,1-.79,1.08,3.45,3.45,0,0,1-1.15.66,4,4,0,0,1-1.37.23,3.94,3.94,0,0,1-1.37-.23,3.31,3.31,0,0,1-1.14-.66,3.22,3.22,0,0,1-.79-1.08,3.72,3.72,0,0,1,0-2.88A3.13,3.13,0,0,1,47,107.7a3.31,3.31,0,0,1,1.14-.66,4.18,4.18,0,0,1,1.37-.22,4.23,4.23,0,0,1,1.37.22,3.45,3.45,0,0,1,1.15.66,3,3,0,0,1,.79,1.06A3.3,3.3,0,0,1,53.07,110.19Zm-3.61-1a.92.92,0,0,0-.74.31,1.05,1.05,0,0,0-.29.73,1.09,1.09,0,0,0,.29.76,1,1,0,0,0,.75.31,1,1,0,0,0,.74-.31,1.09,1.09,0,0,0,.29-.76,1.05,1.05,0,0,0-.29-.73A1,1,0,0,0,49.46,109.16Z"/><path class="cls-3" d="M58,113.37v-3.31a1.54,1.54,0,0,0-.12-.7.41.41,0,0,0-.39-.21.56.56,0,0,0-.4.19,1,1,0,0,0-.18.68v3.35H54.09v-6.31h2.7v.7h0a1.74,1.74,0,0,1,.3-.31,2.44,2.44,0,0,1,.39-.28,2.27,2.27,0,0,1,.5-.2,2.23,2.23,0,0,1,.6-.08,2.6,2.6,0,0,1,1.08.22,1.71,1.71,0,0,1,.72.69,2.69,2.69,0,0,1,.77-.64,2.22,2.22,0,0,1,1.15-.27,2.07,2.07,0,0,1,1.11.27,2,2,0,0,1,.69.66,2.28,2.28,0,0,1,.36.85,4,4,0,0,1,.11.86v3.84H61.81V110a1.36,1.36,0,0,0-.12-.69.46.46,0,0,0-.39-.17.49.49,0,0,0-.41.22,1.09,1.09,0,0,0-.17.65v3.35Z"/><path class="cls-3" d="M69.66,113.37v-3.31a1.54,1.54,0,0,0-.12-.7.41.41,0,0,0-.39-.21.52.52,0,0,0-.39.19,1,1,0,0,0-.19.68v3.35H65.8v-6.31h2.7v.7h0a1.74,1.74,0,0,1,.3-.31,3,3,0,0,1,.39-.28,2.48,2.48,0,0,1,.5-.2,2.29,2.29,0,0,1,.6-.08,2.53,2.53,0,0,1,1.08.22,1.65,1.65,0,0,1,.72.69,2.83,2.83,0,0,1,.77-.64,2.22,2.22,0,0,1,1.15-.27,2.07,2.07,0,0,1,1.11.27,2,2,0,0,1,.7.66,2.66,2.66,0,0,1,.36.85,4.64,4.64,0,0,1,.1.86v3.84H73.53V110a1.24,1.24,0,0,0-.13-.69.45.45,0,0,0-.39-.17.49.49,0,0,0-.41.22,1.1,1.1,0,0,0-.16.65v3.35Z"/><path class="cls-3" d="M80.86,109.36a.48.48,0,0,0-.2-.42.89.89,0,0,0-.52-.14,1.66,1.66,0,0,0-.73.16,2.93,2.93,0,0,0-.6.38L77.43,108a4,4,0,0,1,1.36-.85,4.62,4.62,0,0,1,1.64-.3,3.8,3.8,0,0,1,1.49.25,2.19,2.19,0,0,1,.92.7,2.73,2.73,0,0,1,.49,1,5.57,5.57,0,0,1,.13,1.25v3.32H81v-.5h0a1.3,1.3,0,0,1-.68.51,2.51,2.51,0,0,1-.87.16,2.91,2.91,0,0,1-.76-.11,2.05,2.05,0,0,1-.71-.35,1.87,1.87,0,0,1-.52-.62,2,2,0,0,1-.2-.95,1.6,1.6,0,0,1,.34-1.07,2.37,2.37,0,0,1,.87-.65,4.17,4.17,0,0,1,1.18-.32,11.28,11.28,0,0,1,1.28-.08Zm0,1.4a2.94,2.94,0,0,0-1,.13.49.49,0,0,0-.37.49.38.38,0,0,0,.06.22.54.54,0,0,0,.15.15,1,1,0,0,0,.21.09l.21,0a.83.83,0,0,0,.64-.25A.9.9,0,0,0,81,111v-.21Z"/><path class="cls-3" d="M84.6,107.06h2.7v.7h0a1.88,1.88,0,0,1,.71-.61,2.21,2.21,0,0,1,1.08-.26,2.29,2.29,0,0,1,1.1.24,2,2,0,0,1,.69.62,2.4,2.4,0,0,1,.36.85,4.2,4.2,0,0,1,.1.93v3.84H88.6V110a1.12,1.12,0,0,0-.15-.67.53.53,0,0,0-.45-.19.54.54,0,0,0-.45.22,1,1,0,0,0-.18.64v3.36H84.6Z"/><path class="cls-3" d="M92.34,110.19a3.77,3.77,0,0,1,.19-1.2,3.27,3.27,0,0,1,.54-1,2.62,2.62,0,0,1,2.15-1,2.42,2.42,0,0,1,.91.18,1.78,1.78,0,0,1,.74.49h0V104.3h2.77v9.07H97.17v-.66h0a1.8,1.8,0,0,1-.8.61,2.83,2.83,0,0,1-1.12.22,2.62,2.62,0,0,1-2.15-1.05,3.37,3.37,0,0,1-.54-1.07A4,4,0,0,1,92.34,110.19Zm2.57,0a1.13,1.13,0,0,0,.26.76,1,1,0,0,0,.77.31,1,1,0,0,0,.79-.31,1.09,1.09,0,0,0,.29-.76,1.05,1.05,0,0,0-.29-.73,1,1,0,0,0-.79-.31,1,1,0,0,0-.77.31A1.12,1.12,0,0,0,94.91,110.19Z"/><path class="cls-3" d="M103.92,104.3h2.83v9.07h-2.83Z"/><path class="cls-3" d="M108,105.24a1.33,1.33,0,0,1,.43-1,1.49,1.49,0,0,1,.46-.31,1.47,1.47,0,0,1,.56-.11,1.41,1.41,0,0,1,.54.11,1.57,1.57,0,0,1,.45.31,1.39,1.39,0,0,1,.31.45,1.32,1.32,0,0,1,0,1.1,1.29,1.29,0,0,1-.31.45,1.51,1.51,0,0,1-.45.29,1.41,1.41,0,0,1-.54.11,1.47,1.47,0,0,1-.56-.11,1.44,1.44,0,0,1-.46-.29,1.32,1.32,0,0,1-.32-.45A1.42,1.42,0,0,1,108,105.24Zm.05,1.82h2.77v6.31H108Z"/><path class="cls-3" d="M112.09,107.06h2.7v.7h0a1.88,1.88,0,0,1,.71-.61,2.24,2.24,0,0,1,1.08-.26,2.27,2.27,0,0,1,1.1.24,2,2,0,0,1,.69.62,2.4,2.4,0,0,1,.36.85,4.2,4.2,0,0,1,.1.93v3.84h-2.77V110a1.12,1.12,0,0,0-.15-.67.53.53,0,0,0-.45-.19.55.55,0,0,0-.45.22,1,1,0,0,0-.17.64v3.36h-2.78Z"/><path class="cls-3" d="M126.67,110.28v.31c0,.11,0,.2,0,.27H122.4a.51.51,0,0,0,.12.3.79.79,0,0,0,.25.23,1.24,1.24,0,0,0,.33.15,1.64,1.64,0,0,0,.38,0,1.35,1.35,0,0,0,.64-.13,1.18,1.18,0,0,0,.39-.31l2,1a2.94,2.94,0,0,1-1.22,1.08,4.16,4.16,0,0,1-1.85.39,4.25,4.25,0,0,1-1.33-.21,3.43,3.43,0,0,1-1.15-.65,3.06,3.06,0,0,1-.8-1.06,3.38,3.38,0,0,1-.3-1.47,3.55,3.55,0,0,1,.28-1.41,3,3,0,0,1,.75-1.07,3.43,3.43,0,0,1,1.12-.68,3.83,3.83,0,0,1,1.37-.24,3.51,3.51,0,0,1,1.36.26,3.17,3.17,0,0,1,1.05.72,3.22,3.22,0,0,1,.67,1.1A3.85,3.85,0,0,1,126.67,110.28Zm-2.38-.9a.73.73,0,0,0-.25-.56,1,1,0,0,0-.67-.21.92.92,0,0,0-.7.25.89.89,0,0,0-.29.52Z"/><path class="cls-3" d="M134,109.36a.47.47,0,0,0-.19-.42,1,1,0,0,0-.53-.14,1.64,1.64,0,0,0-.72.16,3.32,3.32,0,0,0-.61.38L130.56,108a4,4,0,0,1,1.37-.85,4.57,4.57,0,0,1,1.63-.3,3.77,3.77,0,0,1,1.49.25,2.29,2.29,0,0,1,.93.7,2.58,2.58,0,0,1,.48,1,5.57,5.57,0,0,1,.14,1.25v3.32h-2.51v-.5h0a1.29,1.29,0,0,1-.69.51,2.42,2.42,0,0,1-.86.16,2.91,2.91,0,0,1-.76-.11,2.05,2.05,0,0,1-.71-.35,1.76,1.76,0,0,1-.52-.62,2,2,0,0,1-.21-.95,1.65,1.65,0,0,1,.34-1.07,2.37,2.37,0,0,1,.87-.65,4.33,4.33,0,0,1,1.19-.32,11.1,11.1,0,0,1,1.27-.08Zm0,1.4a3,3,0,0,0-1,.13.5.5,0,0,0-.37.49.38.38,0,0,0,.06.22.46.46,0,0,0,.16.15.67.67,0,0,0,.21.09.76.76,0,0,0,.21,0,.82.82,0,0,0,.63-.25.9.9,0,0,0,.24-.65v-.21Z"/><path class="cls-3" d="M142.18,113.54a2.77,2.77,0,0,1-.93-.17,2,2,0,0,1-.74-.49h0v3.37h-2.75v-9.19h2.6v.64h0a2.1,2.1,0,0,1,.84-.6,2.38,2.38,0,0,1,1-.21,2.61,2.61,0,0,1,1.24.29,2.65,2.65,0,0,1,.9.76,3.29,3.29,0,0,1,.55,1,4.07,4.07,0,0,1,.19,1.2,4.27,4.27,0,0,1-.19,1.23,3.39,3.39,0,0,1-.55,1.07,2.59,2.59,0,0,1-2.13,1.05Zm.3-3.35a1.08,1.08,0,0,0-.27-.73.93.93,0,0,0-.76-.31,1,1,0,0,0-.79.31,1,1,0,0,0-.29.73,1,1,0,0,0,.29.76,1,1,0,0,0,.79.31.93.93,0,0,0,.76-.31A1.09,1.09,0,0,0,142.48,110.19Z"/><path class="cls-3" d="M150.51,113.54a2.73,2.73,0,0,1-.93-.17,2,2,0,0,1-.74-.49h0v3.37h-2.74v-9.19h2.6v.64h0a2.24,2.24,0,0,1,.84-.6,2.45,2.45,0,0,1,1-.21,2.62,2.62,0,0,1,1.25.29,2.65,2.65,0,0,1,.9.76,3.51,3.51,0,0,1,.55,1,4.06,4.06,0,0,1,.18,1.2,4.26,4.26,0,0,1-.18,1.23,3.61,3.61,0,0,1-.55,1.07,2.71,2.71,0,0,1-.89.76A2.61,2.61,0,0,1,150.51,113.54Zm.3-3.35a1.08,1.08,0,0,0-.27-.73.93.93,0,0,0-.77-.31,1,1,0,0,0-.78.31,1,1,0,0,0-.3.73,1.06,1.06,0,0,0,.3.76,1,1,0,0,0,.78.31.93.93,0,0,0,.77-.31A1.09,1.09,0,0,0,150.81,110.19Z"/><g id="Group_142322-2" data-name="Group 142322-2"><g id="Rectangle_41949-2" data-name="Rectangle 41949-2"><polyline class="cls-4" points="174.64 155.59 174.64 174.43 155.74 174.43"/></g></g><g id="Group_142322-2-2" data-name="Group 142322-2"><g id="Rectangle_41949-2-2" data-name="Rectangle 41949-2"><polyline class="cls-4" points="25.53 44.35 25.53 25.52 44.43 25.52"/></g></g></svg>