<svg xmlns="http://www.w3.org/2000/svg" xmlns:xlink="http://www.w3.org/1999/xlink" width="800" height="1000" viewBox="0 0 800 1000">
  <defs>
    <clipPath id="clip-path">
      <rect id="Rectangle_137769" data-name="Rectangle 137769" width="248" height="526" rx="28"/>
    </clipPath>
    <filter id="Rectangle_136633" x="280.5" y="682.5" width="118" height="118" filterUnits="userSpaceOnUse">
      <feOffset dy="1" input="SourceAlpha"/>
      <feGaussianBlur stdDeviation="1.5" result="blur"/>
      <feFlood flood-opacity="0.102"/>
      <feComposite operator="in" in2="blur"/>
      <feComposite in="SourceGraphic"/>
    </filter>
    <filter id="Rectangle_136633-2" x="399.5" y="682.5" width="117" height="118" filterUnits="userSpaceOnUse">
      <feOffset dy="1" input="SourceAlpha"/>
      <feGaussianBlur stdDeviation="1.5" result="blur-2"/>
      <feFlood flood-opacity="0.102"/>
      <feComposite operator="in" in2="blur-2"/>
      <feComposite in="SourceGraphic"/>
    </filter>
    <filter id="Rectangle_136633-3" x="280.5" y="327.5" width="118" height="118" filterUnits="userSpaceOnUse">
      <feOffset dy="1" input="SourceAlpha"/>
      <feGaussianBlur stdDeviation="1.5" result="blur-3"/>
      <feFlood flood-opacity="0.102"/>
      <feComposite operator="in" in2="blur-3"/>
      <feComposite in="SourceGraphic"/>
    </filter>
    <filter id="Rectangle_136633-4" x="280.5" y="445.5" width="118" height="118" filterUnits="userSpaceOnUse">
      <feOffset dy="1" input="SourceAlpha"/>
      <feGaussianBlur stdDeviation="1.5" result="blur-4"/>
      <feFlood flood-opacity="0.102"/>
      <feComposite operator="in" in2="blur-4"/>
      <feComposite in="SourceGraphic"/>
    </filter>
    <filter id="Rectangle_136633-5" x="280.5" y="564.5" width="118" height="117" filterUnits="userSpaceOnUse">
      <feOffset dy="1" input="SourceAlpha"/>
      <feGaussianBlur stdDeviation="1.5" result="blur-5"/>
      <feFlood flood-opacity="0.102"/>
      <feComposite operator="in" in2="blur-5"/>
      <feComposite in="SourceGraphic"/>
    </filter>
    <filter id="Rectangle_136633-6" x="399.5" y="327.5" width="117" height="118" filterUnits="userSpaceOnUse">
      <feOffset dy="1" input="SourceAlpha"/>
      <feGaussianBlur stdDeviation="1.5" result="blur-6"/>
      <feFlood flood-opacity="0.102"/>
      <feComposite operator="in" in2="blur-6"/>
      <feComposite in="SourceGraphic"/>
    </filter>
    <filter id="Rectangle_136633-7" x="399.5" y="445.5" width="117" height="118" filterUnits="userSpaceOnUse">
      <feOffset dy="1" input="SourceAlpha"/>
      <feGaussianBlur stdDeviation="1.5" result="blur-7"/>
      <feFlood flood-opacity="0.102"/>
      <feComposite operator="in" in2="blur-7"/>
      <feComposite in="SourceGraphic"/>
    </filter>
    <filter id="Rectangle_136633-8" x="399.5" y="564.5" width="117" height="117" filterUnits="userSpaceOnUse">
      <feOffset dy="1" input="SourceAlpha"/>
      <feGaussianBlur stdDeviation="1.5" result="blur-8"/>
      <feFlood flood-opacity="0.102"/>
      <feComposite operator="in" in2="blur-8"/>
      <feComposite in="SourceGraphic"/>
    </filter>
    <clipPath id="clip-path-2">
      <rect id="Rectangle_137366" data-name="Rectangle 137366" width="15" height="14" transform="translate(-0.357 0.433)"/>
    </clipPath>
    <clipPath id="clip-path-3">
      <rect id="Rectangle_137366-2" data-name="Rectangle 137366" width="14" height="15" transform="translate(0.254 -0.357)"/>
    </clipPath>
    <clipPath id="clip-path-4">
      <path id="Shape" d="M337.764-26.667h11.024a1.764,1.764,0,0,1,1.763,1.764v3.969h0a1.764,1.764,0,0,1-1.764,1.764H337.764A1.764,1.764,0,0,1,336-20.934V-24.9h0A1.764,1.764,0,0,1,337.764-26.667Z" transform="translate(-336 26.667)" fill="none"/>
    </clipPath>
    <clipPath id="clip-path-5">
      <path id="Shape-2" data-name="Shape" d="M359-23v2.646a1.435,1.435,0,0,0,.878-1.323A1.435,1.435,0,0,0,359-23" transform="translate(-359 23)" fill="none"/>
    </clipPath>
    <clipPath id="clip-path-6">
      <path id="Shape-3" data-name="Shape" d="M338.882-24.667h10.142a.882.882,0,0,1,.624.258.882.882,0,0,1,.258.624V-20.7h0a.882.882,0,0,1-.882.882H338.882A.882.882,0,0,1,338-20.7v-3.087h0A.882.882,0,0,1,338.882-24.667Z" transform="translate(-338 24.667)" fill="none"/>
    </clipPath>
    <clipPath id="clip-path-7">
      <path id="Shape-4" data-name="Shape" d="M320.742-25.162a5.715,5.715,0,0,1,3.937,1.573.2.2,0,0,0,.286,0l.765-.772a.213.213,0,0,0,.062-.151.213.213,0,0,0-.066-.15,7.21,7.21,0,0,0-9.974,0,.213.213,0,0,0-.066.15.213.213,0,0,0,.062.151l.765.772a.2.2,0,0,0,.286,0,5.715,5.715,0,0,1,3.938-1.573Zm0,2.513a3.246,3.246,0,0,1,2.179.84.205.205,0,0,0,.286,0l.764-.772a.213.213,0,0,0,.062-.152.213.213,0,0,0-.066-.151,4.735,4.735,0,0,0-6.45,0,.213.213,0,0,0-.066.151.213.213,0,0,0,.062.152l.763.772a.205.205,0,0,0,.286,0,3.246,3.246,0,0,1,2.177-.84Zm1.468,1.841a.208.208,0,0,0,.062-.153.208.208,0,0,0-.066-.149,2.263,2.263,0,0,0-2.923,0,.208.208,0,0,0-.066.149.208.208,0,0,0,.062.153l1.323,1.333a.206.206,0,0,0,.147.062.206.206,0,0,0,.147-.062Z" transform="translate(-315.685 26.666)" fill="none"/>
    </clipPath>
    <clipPath id="clip-path-8">
      <path id="Shape-5" data-name="Shape" d="M294.328-21.924h.661a.661.661,0,0,1,.661.661v1.323a.661.661,0,0,1-.661.661h-.661a.661.661,0,0,1-.661-.661v-1.323A.661.661,0,0,1,294.328-21.924Zm3.087-1.323h.661a.661.661,0,0,1,.661.661v2.646a.661.661,0,0,1-.661.661h-.661a.661.661,0,0,1-.661-.661v-2.646a.661.661,0,0,1,.661-.661ZM300.5-24.79h.661a.661.661,0,0,1,.661.661v4.189a.661.661,0,0,1-.661.661H300.5a.661.661,0,0,1-.661-.661v-4.189A.661.661,0,0,1,300.5-24.79Zm3.087-1.543h.661a.661.661,0,0,1,.661.661v5.733a.661.661,0,0,1-.661.661h-.661a.661.661,0,0,1-.661-.661v-5.733A.661.661,0,0,1,303.588-26.333Z" transform="translate(-293.667 26.333)" fill="none"/>
    </clipPath>
    <clipPath id="clip-path-9">
      <rect id="Rectangle_137768" data-name="Rectangle 137768" width="248" height="23" transform="translate(0 -0.099)" fill="none"/>
    </clipPath>
    <clipPath id="clip-custom_9">
      <rect width="800" height="1000"/>
    </clipPath>
  </defs>
  <g id="custom_9" data-name="custom – 9" clip-path="url(#clip-custom_9)">
    <rect width="800" height="1000" fill="#a7abaf"/>
    <g id="iPhone_X_Portrait_106" data-name="iPhone X – Portrait – 106" transform="translate(275 222)" clip-path="url(#clip-path)">
      <rect id="Rectangle_137767" data-name="Rectangle 137767" width="248" height="538" fill="#fff"/>
      <path id="Background_Overlay" data-name="Background Overlay" d="M0,0H248.034V537.076H0Z" opacity="0"/>
      <rect id="bg" width="248" height="616" transform="translate(0 61)" fill="#fbfbfb"/>
      <g id="DETAIL" transform="translate(206.034 486.114)">
        <text id="DETAIL-2" data-name="DETAIL" transform="translate(0 8)" fill="#323232" font-size="8" font-family="AdobeClean-Regular, Adobe Clean" letter-spacing="0.06em"><tspan x="0" y="0">35%</tspan></text>
      </g>
      <g id="Group_151269" data-name="Group 151269" transform="translate(10.367 464.426)">
        <g transform="matrix(1, 0, 0, 1, -285.37, -686.43)" filter="url(#Rectangle_136633)">
          <g id="Rectangle_136633-9" data-name="Rectangle 136633" transform="translate(285 686)" fill="#fff" stroke="#eaeaea" stroke-width="1">
            <rect width="109" height="109" rx="4" stroke="none"/>
            <rect x="0.5" y="0.5" width="108" height="108" rx="3.5" fill="none"/>
          </g>
        </g>
        <g id="Group_151260" data-name="Group 151260" transform="translate(21.77 25.917)">
          <g id="Group_151248" data-name="Group 151248" transform="translate(0.604 53.955)">
            <path id="Path_35152" data-name="Path 35152" d="M-958.835,6161.5h12.275l12.789-1.277,14.2-6.375,11.426,4.069,11.539-2.374" transform="translate(958.835 -6153.854)" fill="none" stroke="#d3d3d3" stroke-linecap="round" stroke-linejoin="round" stroke-width="1"/>
            <path id="Path_35151" data-name="Path 35151" d="M0,5.643,13.162,0h26.45L52.207,4.331,64.474,0" transform="translate(64.489 6.329) rotate(180)" fill="none" stroke="#378ef0" stroke-linecap="round" stroke-linejoin="round" stroke-width="1"/>
          </g>
          <g id="DETAIL-3" data-name="DETAIL" transform="translate(17.623 0)">
            <text id="DETAIL-4" data-name="DETAIL" transform="translate(0.24 8.657)" fill="#505050" font-size="9" font-family="AdobeClean-Regular, Adobe Clean" letter-spacing="0.06em"><tspan x="0" y="0">VISITS</tspan></text>
          </g>
          <g id="Heading_1" data-name="Heading 1" transform="translate(0 11.403)">
            <text id="Heading_1-2" data-name="Heading 1" transform="translate(-0.137 26.254)" fill="#323232" font-size="26" font-family="AdobeClean-Medium, Adobe Clean" font-weight="500"><tspan x="0" y="0">11.21M</tspan></text>
          </g>
        </g>
        <g id="Group_151259" data-name="Group 151259" transform="translate(5.596 4.492)">
          <g id="Group_151251" data-name="Group 151251" transform="translate(7.518)">
            <g id="DETAIL-5" data-name="DETAIL">
              <text id="DETAIL-6" data-name="DETAIL" transform="translate(0 9)" fill="#c9252d" font-size="9" font-family="AdobeClean-Regular, Adobe Clean" letter-spacing="0.06em"><tspan x="0" y="0">1%</tspan></text>
            </g>
          </g>
          <path id="Path_35227" data-name="Path 35227" d="M2,0,4.106,4.009H0Z" transform="translate(4.106 9.497) rotate(180)" fill="#c9252d"/>
        </g>
      </g>
      <g id="Group_151268" data-name="Group 151268" transform="translate(128.546 464.426)">
        <g transform="matrix(1, 0, 0, 1, -403.55, -686.43)" filter="url(#Rectangle_136633-2)">
          <g id="Rectangle_136633-10" data-name="Rectangle 136633" transform="translate(404 686)" fill="#fff" stroke="#eaeaea" stroke-width="1">
            <rect width="108" height="109" rx="4" stroke="none"/>
            <rect x="0.5" y="0.5" width="107" height="108" rx="3.5" fill="none"/>
          </g>
        </g>
        <g id="Group_151260-2" data-name="Group 151260" transform="translate(21.77 25.917)">
          <g id="Group_151248-2" data-name="Group 151248" transform="translate(0.157 51.62)">
            <path id="Path_35152-2" data-name="Path 35152" d="M-958.835,6160.2l12.972-5.323,12.691,5.323,14.164-5.323,13.24,2.589,12.082-1.811" transform="translate(958.835 -6150.874)" fill="none" stroke="#d3d3d3" stroke-linecap="round" stroke-linejoin="round" stroke-width="1"/>
            <path id="Path_35151-2" data-name="Path 35151" d="M0,0,12.984,8,26.759,6.758,39.715,8l13.01-1.245h0L65.136,0" transform="translate(65.15 8.003) rotate(180)" fill="none" stroke="#378ef0" stroke-linecap="round" stroke-linejoin="round" stroke-width="1"/>
          </g>
          <g id="DETAIL-7" data-name="DETAIL" transform="translate(0 0)">
            <text id="DETAIL-8" data-name="DETAIL" transform="translate(-0.316 8.657)" fill="#505050" font-size="9" font-family="AdobeClean-Regular, Adobe Clean" letter-spacing="0.06em"><tspan x="0" y="0">ACTIVE USERS</tspan></text>
          </g>
          <g id="Heading_1-3" data-name="Heading 1" transform="translate(15.55 11.403)">
            <text id="Heading_1-4" data-name="Heading 1" transform="translate(0.134 26.254)" fill="#323232" font-size="26" font-family="AdobeClean-Medium, Adobe Clean" font-weight="500"><tspan x="0" y="0">125</tspan></text>
          </g>
        </g>
        <g id="Group_151259-2" data-name="Group 151259" transform="translate(5.809 4.492)">
          <g id="Group_151251-2" data-name="Group 151251" transform="translate(7.519)">
            <g id="DETAIL-9" data-name="DETAIL">
              <text id="DETAIL-10" data-name="DETAIL" transform="translate(0 9)" fill="#379947" font-size="9" font-family="AdobeClean-Regular, Adobe Clean" letter-spacing="0.06em"><tspan x="0" y="0">31%</tspan></text>
            </g>
          </g>
          <path id="Path_35227-2" data-name="Path 35227" d="M8101.678,5487.881l2.109,4.01h-4.106Z" transform="translate(-8099.681 -5482.393)" fill="#379947"/>
        </g>
      </g>
      <g id="Action_Button" data-name="Action Button" transform="translate(149.28 30.063)">
        <rect id="Placement_Area" data-name="Placement Area" width="26" height="27" rx="5" transform="translate(2.72 1.937)" fill="#eaeaea" opacity="0"/>
        <rect id="Cursor_Area" data-name="Cursor Area" width="26" height="27" transform="translate(2.72 1.937)" fill="none" opacity="0.1"/>
        <rect id="Touch_Area" data-name="Touch Area" width="32" height="31" transform="translate(-0.28 -0.063)" fill="none" opacity="0.1"/>
      </g>
      <g id="Group_151261" data-name="Group 151261" transform="translate(10.367 108.85)">
        <g transform="matrix(1, 0, 0, 1, -285.37, -330.85)" filter="url(#Rectangle_136633-3)">
          <g id="Rectangle_136633-11" data-name="Rectangle 136633" transform="translate(285 331)" fill="#fff" stroke="#eaeaea" stroke-width="1">
            <rect width="109" height="109" rx="4" stroke="none"/>
            <rect x="0.5" y="0.5" width="108" height="108" rx="3.5" fill="none"/>
          </g>
        </g>
        <g id="Group_151260-3" data-name="Group 151260" transform="translate(22.374 25.917)">
          <g id="Group_151248-3" data-name="Group 151248" transform="translate(0 52.005)">
            <path id="Path_35152-3" data-name="Path 35152" d="M-958.835,6161.851l12.643-6.975,12.369,6.975,13.805-6.975,12.9,3.393,11.773-2.373" transform="translate(958.835 -6152.52)" fill="none" stroke="#d3d3d3" stroke-linecap="round" stroke-linejoin="round" stroke-width="1"/>
            <path id="Path_35151-3" data-name="Path 35151" d="M0,1.275,12.269,9.284H25.088L38.253,0,50.607,9.284,63.482,1.275" transform="translate(63.497 9.284) rotate(180)" fill="none" stroke="#378ef0" stroke-linecap="round" stroke-linejoin="round" stroke-width="1"/>
          </g>
          <g id="DETAIL-11" data-name="DETAIL" transform="translate(9.763 0)">
            <text id="DETAIL-12" data-name="DETAIL" transform="translate(0.497 9.234)" fill="#505050" font-size="9" font-family="AdobeClean-Regular, Adobe Clean" letter-spacing="0.06em"><tspan x="0" y="0">REVENUE</tspan></text>
          </g>
          <g id="Heading_1-5" data-name="Heading 1" transform="translate(1.469 12.44)">
            <text id="Heading_1-6" data-name="Heading 1" transform="translate(-0.21 24.794)" fill="#323232" font-size="25" font-family="AdobeClean-Medium, Adobe Clean" font-weight="500"><tspan x="0" y="0">10.7M</tspan></text>
          </g>
        </g>
        <g id="Group_151259-3" data-name="Group 151259" transform="translate(5.594 4.883)">
          <g id="Group_151251-3" data-name="Group 151251" transform="translate(7.519)">
            <g id="DETAIL-13" data-name="DETAIL">
              <text id="DETAIL-14" data-name="DETAIL" transform="translate(0 9)" fill="#379947" font-size="9" font-family="AdobeClean-Regular, Adobe Clean" letter-spacing="0.06em"><tspan x="0" y="0">11%</tspan></text>
            </g>
          </g>
          <path id="Path_35227-3" data-name="Path 35227" d="M8101.678,5487.881l2.109,4.01h-4.106Z" transform="translate(-8099.681 -5482.393)" fill="#379947"/>
        </g>
      </g>
      <g id="Group_151265" data-name="Group 151265" transform="translate(10.367 227.03)">
        <g transform="matrix(1, 0, 0, 1, -285.37, -449.03)" filter="url(#Rectangle_136633-4)">
          <g id="Rectangle_136633-12" data-name="Rectangle 136633" transform="translate(285 449)" fill="#fff" stroke="#eaeaea" stroke-width="1">
            <rect width="109" height="109" rx="4" stroke="none"/>
            <rect x="0.5" y="0.5" width="108" height="108" rx="3.5" fill="none"/>
          </g>
        </g>
        <g id="Group_151260-4" data-name="Group 151260" transform="translate(13.477 25.917)">
          <g id="Group_151248-4" data-name="Group 151248" transform="translate(8.831 52.8)">
            <path id="Path_35152-4" data-name="Path 35152" d="M-958.835,6161.851h25.012l13.805-6.975,12.9,3.393,11.773-2.373" transform="translate(958.901 -6153.1)" fill="none" stroke="#d3d3d3" stroke-linecap="round" stroke-linejoin="round" stroke-width="1"/>
            <path id="Path_35151-4" data-name="Path 35151" d="M0,6.485H.707L11.376,1.892,24.71,8.8l13.154-.286L51.146,1.892,63.563,0" transform="translate(63.563 8.802) rotate(180)" fill="none" stroke="#378ef0" stroke-linecap="round" stroke-linejoin="round" stroke-width="1"/>
          </g>
          <g id="DETAIL-15" data-name="DETAIL" transform="translate(0 0)">
            <text id="DETAIL-16" data-name="DETAIL" transform="translate(0.157 9.054)" fill="#505050" font-size="9" font-family="AdobeClean-Regular, Adobe Clean" letter-spacing="0.06em"><tspan x="0" y="0">UNIQUE VISITORS</tspan></text>
          </g>
          <g id="Heading_1-7" data-name="Heading 1" transform="translate(11.403 12.44)">
            <text id="Heading_1-8" data-name="Heading 1" transform="translate(-0.247 24.614)" fill="#323232" font-size="25" font-family="AdobeClean-Medium, Adobe Clean" font-weight="500"><tspan x="0" y="0">54.3K</tspan></text>
          </g>
        </g>
        <g id="Group_151259-4" data-name="Group 151259" transform="translate(5.594 5.098)">
          <g id="Group_151251-4" data-name="Group 151251" transform="translate(7.519)">
            <g id="DETAIL-17" data-name="DETAIL">
              <text id="DETAIL-18" data-name="DETAIL" transform="translate(0 9)" fill="#379947" font-size="9" font-family="AdobeClean-Regular, Adobe Clean" letter-spacing="0.06em"><tspan x="0" y="0">24%</tspan></text>
            </g>
          </g>
          <path id="Path_35227-4" data-name="Path 35227" d="M8101.678,5487.881l2.109,4.01h-4.106Z" transform="translate(-8099.681 -5482.393)" fill="#379947"/>
        </g>
      </g>
      <g id="Group_151267" data-name="Group 151267" transform="translate(10.367 346.246)">
        <g transform="matrix(1, 0, 0, 1, -285.37, -568.25)" filter="url(#Rectangle_136633-5)">
          <g id="Rectangle_136633-13" data-name="Rectangle 136633" transform="translate(285 568)" fill="#fff" stroke="#eaeaea" stroke-width="1">
            <rect width="109" height="108" rx="4" stroke="none"/>
            <rect x="0.5" y="0.5" width="108" height="107" rx="3.5" fill="none"/>
          </g>
        </g>
        <g id="Group_151260-5" data-name="Group 151260" transform="translate(15.55 25.917)">
          <g id="Group_151248-5" data-name="Group 151248" transform="translate(6.162 53.107)">
            <path id="Path_35152-5" data-name="Path 35152" d="M-958.835,6160.856l13.1-5.979,12.821,5.979,14.309-5.979,13.375,2.911,12.205-2.034" transform="translate(958.835 -6153.233)" fill="none" stroke="#d3d3d3" stroke-linecap="round" stroke-linejoin="round" stroke-width="1"/>
            <path id="Path_35151-5" data-name="Path 35151" d="M0,0,13.371,6.3,25.438,0H40.393l12.87,6.3L65.8,0" transform="translate(65.814 6.301) rotate(180)" fill="none" stroke="#378ef0" stroke-linecap="round" stroke-linejoin="round" stroke-width="1"/>
          </g>
          <g id="DETAIL-19" data-name="DETAIL" transform="translate(0 0)">
            <text id="DETAIL-20" data-name="DETAIL" transform="translate(0.083 8.837)" fill="#505050" font-size="9" font-family="AdobeClean-Regular, Adobe Clean" letter-spacing="0.06em"><tspan x="0" y="0">NEW USERS 2019</tspan></text>
          </g>
          <g id="Heading_1-9" data-name="Heading 1" transform="translate(12.44 11.403)">
            <text id="Heading_1-10" data-name="Heading 1" transform="translate(-0.357 26.434)" fill="#323232" font-size="26" font-family="AdobeClean-Medium, Adobe Clean" font-weight="500"><tspan x="0" y="0">1.79B</tspan></text>
          </g>
        </g>
        <g id="Group_151259-5" data-name="Group 151259" transform="translate(5.596 4.277)">
          <g id="Group_151251-5" data-name="Group 151251" transform="translate(7.518)">
            <g id="DETAIL-21" data-name="DETAIL">
              <text id="DETAIL-22" data-name="DETAIL" transform="translate(0 9)" fill="#c9252d" font-size="9" font-family="AdobeClean-Regular, Adobe Clean" letter-spacing="0.06em"><tspan x="0" y="0">2%</tspan></text>
            </g>
          </g>
          <path id="Path_35227-5" data-name="Path 35227" d="M2,0,4.106,4.009H0Z" transform="translate(4.106 9.497) rotate(180)" fill="#c9252d"/>
        </g>
      </g>
      <g id="Group_151263" data-name="Group 151263" transform="translate(128.546 108.85)">
        <g transform="matrix(1, 0, 0, 1, -403.55, -330.85)" filter="url(#Rectangle_136633-6)">
          <g id="Rectangle_136633-14" data-name="Rectangle 136633" transform="translate(404 331)" fill="#fff" stroke="#eaeaea" stroke-width="1">
            <rect width="108" height="109" rx="4" stroke="none"/>
            <rect x="0.5" y="0.5" width="107" height="108" rx="3.5" fill="none"/>
          </g>
        </g>
        <g id="Group_151260-6" data-name="Group 151260" transform="translate(14.513 25.917)">
          <g id="Group_151248-6" data-name="Group 151248" transform="translate(8.076 54.361)">
            <path id="Path_35152-6" data-name="Path 35152" d="M-958.835,6161.851l12.643-6.975,12.46,1.02,14.613,5.953,12.005-3.582,11.773-2.373" transform="translate(958.835 -6154.876)" fill="none" stroke="#d3d3d3" stroke-linecap="round" stroke-linejoin="round" stroke-width="1"/>
            <path id="Path_35151-6" data-name="Path 35151" d="M0,0,12.9,4.331,24.539,0H38.97L51.387,4.331,63.482,0" transform="translate(63.497 5.653) rotate(180)" fill="none" stroke="#378ef0" stroke-linecap="round" stroke-linejoin="round" stroke-width="1"/>
          </g>
          <g id="DETAIL-23" data-name="DETAIL" transform="translate(0 0)">
            <text id="DETAIL-24" data-name="DETAIL" transform="translate(-0.06 9.234)" fill="#505050" font-size="9" font-family="AdobeClean-Regular, Adobe Clean" letter-spacing="0.06em"><tspan x="0" y="0">CART ABANDONS</tspan></text>
          </g>
          <g id="Heading_1-11" data-name="Heading 1" transform="translate(13.477 12.44)">
            <text id="Heading_1-12" data-name="Heading 1" transform="translate(0.464 25.794)" fill="#323232" font-size="26" font-family="AdobeClean-Medium, Adobe Clean" font-weight="500"><tspan x="0" y="0">1,580</tspan></text>
          </g>
        </g>
        <g id="Group_151259-6" data-name="Group 151259" transform="translate(5.811 4.883)">
          <g id="Group_151251-6" data-name="Group 151251" transform="translate(7.518)">
            <g id="DETAIL-25" data-name="DETAIL">
              <text id="DETAIL-26" data-name="DETAIL" transform="translate(0 9)" fill="#379947" font-size="9" font-family="AdobeClean-Regular, Adobe Clean" letter-spacing="0.06em"><tspan x="0" y="0">6%</tspan></text>
            </g>
          </g>
          <path id="Path_35227-6" data-name="Path 35227" d="M2,0,4.106,4.009H0Z" transform="translate(4.106 8.835) rotate(180)" fill="#379947"/>
        </g>
      </g>
      <g id="Group_151264" data-name="Group 151264" transform="translate(128.546 227.03)">
        <g transform="matrix(1, 0, 0, 1, -403.55, -449.03)" filter="url(#Rectangle_136633-7)">
          <g id="Rectangle_136633-15" data-name="Rectangle 136633" transform="translate(404 449)" fill="#fff" stroke="#eaeaea" stroke-width="1">
            <rect width="108" height="109" rx="4" stroke="none"/>
            <rect x="0.5" y="0.5" width="107" height="108" rx="3.5" fill="none"/>
          </g>
        </g>
        <g id="Group_151260-7" data-name="Group 151260" transform="translate(22.589 25.917)">
          <g id="Group_151248-7" data-name="Group 151248" transform="translate(0 53.915)">
            <path id="Path_35152-7" data-name="Path 35152" d="M-958.835,6161.851l12.816-6.975h26.534l13.2,6.975,11.814-5.953" transform="translate(958.835 -6154.876)" fill="none" stroke="#d3d3d3" stroke-linecap="round" stroke-linejoin="round" stroke-width="1"/>
            <path id="Path_35151-7" data-name="Path 35151" d="M0,0,12.064,2.57l12.68.886L38.991,1.823,51.525,4.414,63.848.174,64.357,0" transform="translate(64.369 5.653) rotate(180)" fill="none" stroke="#378ef0" stroke-linecap="round" stroke-linejoin="round" stroke-width="1"/>
          </g>
          <g id="DETAIL-27" data-name="DETAIL" transform="translate(3.328 0)">
            <text id="DETAIL-28" data-name="DETAIL" transform="translate(-0.463 9.054)" fill="#505050" font-size="9" font-family="AdobeClean-Regular, Adobe Clean" letter-spacing="0.06em"><tspan x="0" y="0">PAGE VIEWS</tspan></text>
          </g>
          <g id="Heading_1-13" data-name="Heading 1" transform="translate(5.401 12.44)">
            <text id="Heading_1-14" data-name="Heading 1" transform="translate(0.464 25.614)" fill="#323232" font-size="26" font-family="AdobeClean-Medium, Adobe Clean" font-weight="500"><tspan x="0" y="0">567K</tspan></text>
          </g>
        </g>
        <g id="Group_151259-7" data-name="Group 151259" transform="translate(5.811 5.098)">
          <g id="Group_151251-7" data-name="Group 151251" transform="translate(7.518)">
            <g id="DETAIL-29" data-name="DETAIL">
              <text id="DETAIL-30" data-name="DETAIL" transform="translate(0 9)" fill="#c9252d" font-size="9" font-family="AdobeClean-Regular, Adobe Clean" letter-spacing="0.06em"><tspan x="0" y="0">9%</tspan></text>
            </g>
          </g>
          <path id="Path_35227-7" data-name="Path 35227" d="M2,0,4.106,4.009H0Z" transform="translate(4.106 9.497) rotate(180)" fill="#c9252d"/>
        </g>
      </g>
      <g id="Group_151266" data-name="Group 151266" transform="translate(128.546 346.246)">
        <g transform="matrix(1, 0, 0, 1, -403.55, -568.25)" filter="url(#Rectangle_136633-8)">
          <g id="Rectangle_136633-16" data-name="Rectangle 136633" transform="translate(404 568)" fill="#fff" stroke="#eaeaea" stroke-width="1">
            <rect width="108" height="108" rx="4" stroke="none"/>
            <rect x="0.5" y="0.5" width="107" height="107" rx="3.5" fill="none"/>
          </g>
        </g>
        <g id="Group_151260-8" data-name="Group 151260" transform="translate(14.513 25.917)">
          <g id="Group_151248-8" data-name="Group 151248" transform="translate(8.076 51.901)">
            <path id="Path_35152-8" data-name="Path 35152" d="M-958.835,6161.754l12.127-7.164,12.066,3.987,15.193,3.174,12.336-3.582,11.773-2.373" transform="translate(958.835 -6152.926)" fill="none" stroke="#d3d3d3" stroke-linecap="round" stroke-linejoin="round" stroke-width="1"/>
            <path id="Path_35151-8" data-name="Path 35151" d="M0,0H12.162L25.211,7.507,38.97,0,51.387,4.331,63.482,0" transform="translate(63.497 7.507) rotate(180)" fill="none" stroke="#378ef0" stroke-linecap="round" stroke-linejoin="round" stroke-width="1"/>
          </g>
          <g id="DETAIL-31" data-name="DETAIL" transform="translate(0 0)">
            <text id="DETAIL-32" data-name="DETAIL" transform="translate(-0.06 8.837)" fill="#505050" font-size="9" font-family="AdobeClean-Regular, Adobe Clean" letter-spacing="0.06em"><tspan x="0" y="0">AVERAGE TIME …</tspan></text>
          </g>
          <g id="Heading_1-15" data-name="Heading 1" transform="translate(6.22 11.403)">
            <text id="Heading_1-16" data-name="Heading 1" transform="translate(-0.28 24.434)" fill="#323232" font-size="24" font-family="AdobeClean-Medium, Adobe Clean" font-weight="500"><tspan x="0" y="0">20min</tspan></text>
          </g>
        </g>
        <g id="Group_151259-8" data-name="Group 151259" transform="translate(5.809 4.277)">
          <g id="Group_151251-8" data-name="Group 151251" transform="translate(7.519)">
            <g id="DETAIL-33" data-name="DETAIL">
              <text id="DETAIL-34" data-name="DETAIL" transform="translate(0 9)" fill="#379947" font-size="9" font-family="AdobeClean-Regular, Adobe Clean" letter-spacing="0.06em"><tspan x="0" y="0">10%</tspan></text>
            </g>
          </g>
          <path id="Path_35227-8" data-name="Path 35227" d="M8101.678,5487.881l2.109,4.01h-4.106Z" transform="translate(-8099.681 -5482.393)" fill="#379947"/>
        </g>
      </g>
      <g id="Group_151279" data-name="Group 151279">
        <g id="Group_151278" data-name="Group 151278">
          <g id="Action_Button-2" data-name="Action Button" transform="translate(148.82 29.469)">
            <rect id="Placement_Area-2" data-name="Placement Area" width="26.457" height="26.457" rx="5" transform="translate(3.307 2.646)" fill="#eaeaea" opacity="0"/>
            <rect id="Cursor_Area-2" data-name="Cursor Area" width="26.457" height="26.457" transform="translate(3.307 2.646)" fill="none" opacity="0.1"/>
            <rect id="Touch_Area-2" data-name="Touch Area" width="33.071" height="31.748" fill="none" opacity="0.1"/>
          </g>
          <rect id="Rectangle_136473" data-name="Rectangle 136473" width="248" height="37" transform="translate(0 60)" fill="#fff"/>
          <rect id="Placement_Area-3" data-name="Placement Area" width="38" height="27" transform="translate(10 65)" fill="red" opacity="0"/>
          <g id="Background" transform="translate(10.583 65.487)" fill="#fff" stroke="#eaeaea" stroke-width="1">
            <rect width="227.604" height="27.112" rx="5" stroke="none"/>
            <rect x="0.5" y="0.5" width="226.604" height="26.112" rx="4.5" fill="none"/>
          </g>
          <text id="Edit" transform="translate(43.728 81.716)" fill="#505050" font-size="10" font-family="AdobeClean-Regular, Adobe Clean"><tspan x="0" y="0">Wednesday Mar 18 vs.</tspan></text>
          <text id="Edit-2" data-name="Edit" transform="translate(157.493 81.716)" fill="#505050" font-size="10" font-family="AdobeClean-Regular, Adobe Clean"><tspan x="0" y="0">Tuesday Mar 17</tspan></text>
          <g id="Group_151217" data-name="Group 151217" transform="translate(15.55 71.53)">
            <rect id="Canvas" width="16" height="15" transform="translate(0.45 0.47)" fill="#ff13dc" opacity="0"/>
            <rect id="Rectangle_137645" data-name="Rectangle 137645" width="1" height="1" rx="0.5" transform="translate(4.45 6.47)" fill="#707070"/>
            <rect id="Rectangle_137646" data-name="Rectangle 137646" width="1" height="1" rx="0.5" transform="translate(6.45 6.47)" fill="#707070"/>
            <rect id="Rectangle_137647" data-name="Rectangle 137647" width="1" height="1" rx="0.5" transform="translate(9.45 6.47)" fill="#707070"/>
            <rect id="Rectangle_137648" data-name="Rectangle 137648" width="1" height="1" rx="0.5" transform="translate(11.45 6.47)" fill="#707070"/>
            <rect id="Rectangle_137649" data-name="Rectangle 137649" width="1" height="1" rx="0.5" transform="translate(4.45 8.47)" fill="#707070"/>
            <rect id="Rectangle_137650" data-name="Rectangle 137650" width="1" height="1" rx="0.5" transform="translate(6.45 8.47)" fill="#707070"/>
            <rect id="Rectangle_137651" data-name="Rectangle 137651" width="1" height="1" rx="0.5" transform="translate(9.45 8.47)" fill="#707070"/>
            <rect id="Rectangle_137652" data-name="Rectangle 137652" width="1" height="1" rx="0.5" transform="translate(11.45 8.47)" fill="#707070"/>
            <rect id="Rectangle_137653" data-name="Rectangle 137653" width="1" height="2" rx="0.5" transform="translate(4.45 9.47)" fill="#707070"/>
            <rect id="Rectangle_137654" data-name="Rectangle 137654" width="1" height="2" rx="0.5" transform="translate(6.45 9.47)" fill="#707070"/>
            <rect id="Rectangle_137655" data-name="Rectangle 137655" width="1" height="2" rx="0.5" transform="translate(9.45 9.47)" fill="#707070"/>
            <rect id="Rectangle_137656" data-name="Rectangle 137656" width="1" height="2" rx="0.5" transform="translate(11.45 9.47)" fill="#707070"/>
            <path id="Path_35180" data-name="Path 35180" d="M15.221,3.323H12.906V2.331A.331.331,0,0,0,12.575,2h-.661a.331.331,0,0,0-.331.331v.992H4.969V2.331A.331.331,0,0,0,4.638,2H3.976a.331.331,0,0,0-.331.331v.992H1.331A.331.331,0,0,0,1,3.654V14.236a.331.331,0,0,0,.331.331h13.89a.331.331,0,0,0,.331-.331V3.654A.331.331,0,0,0,15.221,3.323Zm-.992,9.921H2.323v-8.6H3.646v.331a.331.331,0,0,0,.331.331h.661a.331.331,0,0,0,.331-.331V4.646h6.614v.331a.331.331,0,0,0,.331.331h.661a.331.331,0,0,0,.331-.331V4.646h1.323Z" transform="translate(-0.014 -0.773)" fill="#707070"/>
          </g>
          <g id="Group_151272" data-name="Group 151272">
            <g id="topNavBar">
              <g id="Background-2" data-name="Background">
                <rect id="Background-3" data-name="Background" width="248" height="61" fill="#fff"/>
              </g>
              <rect id="Rectangle_136484" data-name="Rectangle 136484" width="248" transform="translate(0 61)" fill="rgba(0,0,0,0.08)"/>
              <rect id="Rectangle_136950" data-name="Rectangle 136950" width="248" height="32" transform="translate(0 29)" fill="#fff"/>
              <text id="Title" transform="translate(36.554 47.701)" fill="#2c2c2c" font-size="10" font-family="AdobeClean-Bold, Adobe Clean" font-weight="700"><tspan x="0" y="0">Key Metrics</tspan></text>
            </g>
            <g id="Action_Button-3" data-name="Action Button" transform="translate(214.59 30.063)">
              <rect id="Placement_Area-4" data-name="Placement Area" width="26" height="27" rx="5" transform="translate(4.41 1.937)" fill="#eaeaea" opacity="0"/>
              <rect id="Cursor_Area-3" data-name="Cursor Area" width="26" height="27" transform="translate(4.41 1.937)" fill="none" opacity="0.1"/>
              <rect id="Touch_Area-3" data-name="Touch Area" width="33" height="31" transform="translate(0.41 -0.063)" fill="none" opacity="0.1"/>
              <g id="s_morevertical_24" transform="translate(23.843 8.293) rotate(90)" clip-path="url(#clip-path-2)">
                <g id="Group_274" data-name="Group 274" transform="translate(6.295 1.636)">
                  <path id="Path_1132" data-name="Path 1132" d="M.972,0A1.042,1.042,0,1,1,0,1.046H0A1.007,1.007,0,0,1,.972,0Z" transform="translate(0.02 0)" fill="#6f6f6f"/>
                  <path id="Path_1133" data-name="Path 1133" d="M.972,0A1.042,1.042,0,1,1,0,1.046H0A1.007,1.007,0,0,1,.972.007Z" transform="translate(0.02 4.242)" fill="#6f6f6f"/>
                  <path id="Path_1134" data-name="Path 1134" d="M.993,0A1.063,1.063,0,1,1,0,1.067H0A1.027,1.027,0,0,1,.993.009Z" transform="translate(0 8.462)" fill="#6f6f6f"/>
                </g>
              </g>
            </g>
            <g id="Action_Button-4" data-name="Action Button" transform="translate(181.416 30.063)">
              <rect id="Placement_Area-5" data-name="Placement Area" width="25" height="27" rx="5" transform="translate(4.584 1.937)" fill="#eaeaea" opacity="0"/>
              <rect id="Cursor_Area-4" data-name="Cursor Area" width="25" height="27" transform="translate(4.584 1.937)" fill="none" opacity="0.1"/>
              <rect id="Touch_Area-4" data-name="Touch Area" width="34" height="31" transform="translate(-0.416 -0.063)" fill="none" opacity="0.1"/>
              <g id="ga_circle_5d99ff__4" data-name="ga_circle_5d99ff _4" transform="translate(9.33 8.293)" clip-path="url(#clip-path-3)">
                <rect id="Rectangle_137364" data-name="Rectangle 137364" width="14" height="15" transform="translate(0.254 -0.357)" fill="#fff" opacity="0"/>
                <g id="GA_circle_5d99ff__4-2" data-name="GA_circle_5d99ff _4" transform="translate(0 0)">
                  <g id="Layer_1" data-name="Layer 1">
                    <ellipse id="Ellipse_9" data-name="Ellipse 9" cx="7" cy="7.5" rx="7" ry="7.5" transform="translate(0.254 -0.357)" fill="#5d99ff"/>
                    <g id="Group_217" data-name="Group 217" transform="translate(5.862 3.644)" opacity="0.25">
                      <path id="Path_779" data-name="Path 779" d="M24,16l4.365,10.459A7.276,7.276,0,0,0,32.119,16Z" transform="translate(-24 -16)" fill="#001434"/>
                    </g>
                  </g>
                </g>
              </g>
            </g>
            <g id="Status_Bar_Light" data-name="Status Bar Light">
              <g id="Bars_Status_Bar_Light_Status_Bar" data-name="Bars/Status Bar/Light Status Bar">
                <path id="Background-4" data-name="Background" d="M0-44H248.034v29.1H0Z" transform="translate(0 44)" fill="none"/>
                <g id="Battery" transform="translate(222.238 11.464)">
                  <g id="Border" clip-path="url(#clip-path-4)">
                    <path id="Fill" d="M1.764,0H12.787a1.764,1.764,0,0,1,1.764,1.764V5.733h0A1.764,1.764,0,0,1,12.787,7.5H1.764A1.764,1.764,0,0,1,0,5.733V1.764H0A1.764,1.764,0,0,1,1.764,0Z" fill="none" stroke="rgba(0,0,0,0.35)" stroke-width="2"/>
                  </g>
                  <g id="Cap" transform="translate(15.213 2.425)" clip-path="url(#clip-path-5)">
                    <path id="Fill-2" data-name="Fill" d="M354-28h7.493v9.26H354Z" transform="translate(-357.307 24.693)" fill="rgba(0,0,0,0.4)"/>
                  </g>
                  <g id="Capacity" transform="translate(1.323 1.323)" clip-path="url(#clip-path-6)">
                    <path id="Fill-3" data-name="Fill" d="M333-29.667h18.52V-18.2H333Z" transform="translate(-336.307 26.36)"/>
                  </g>
                </g>
                <g id="Wifi" transform="translate(208.802 11.465)">
                  <g id="Wifi-2" data-name="Wifi" transform="translate(0 0)" clip-path="url(#clip-path-7)">
                    <path id="Fill-4" data-name="Fill" d="M310.694-31.669H327.41V-17.8H310.694Z" transform="translate(-313.995 28.36)"/>
                  </g>
                </g>
                <g id="Cellular_Connection" data-name="Cellular Connection" transform="translate(194.238 11.685)">
                  <g id="Cellular_Connection-2" data-name="Cellular Connection" clip-path="url(#clip-path-8)">
                    <path id="Fill-5" data-name="Fill" d="M288.667-31.333h17.858v13.67H288.667Z" transform="translate(-291.974 28.026)"/>
                  </g>
                </g>
                <g id="Bars___Time_Black" data-name="Bars/_/Time Black" transform="translate(13.89 9.921)">
                  <path id="Background-5" data-name="Background" d="M21-24.417H56.717V-35H21Z" transform="translate(-21 35)" fill="none"/>
                  <text id="_Time" data-name="↳ Time" transform="translate(8.843 7.323)" font-size="8" font-family="Helvetica"><tspan x="0" y="0">9:41</tspan></text>
                </g>
              </g>
            </g>
            <g id="group-35" transform="translate(5.183 39.393)">
              <rect id="rectangle-3" width="13" height="13" transform="translate(-0.183 -0.393)" fill="red" opacity="0"/>
              <path id="path-7" d="M36.953,32.96a.661.661,0,0,1-.47-.192l-5.291-5.309a.665.665,0,0,1,0-.936l5.291-5.309a.661.661,0,0,1,.933.936l-4.822,4.838,4.822,4.838a.661.661,0,0,1-.463,1.135Z" transform="translate(-28.245 -20.762)" fill="#707070"/>
            </g>
          </g>
          <circle id="Ellipse_5452" data-name="Ellipse 5452" cx="1.984" cy="1.984" r="1.984" transform="translate(37.04 78.159)" fill="#378ef0"/>
          <circle id="Ellipse_5453" data-name="Ellipse 5453" cx="1.984" cy="1.984" r="1.984" transform="translate(150.805 78.159)" fill="#d3d3d3"/>
        </g>
        <rect id="Rectangle_137644" data-name="Rectangle 137644" width="248" height="1" transform="translate(0 97)" fill="rgba(0,0,0,0.08)"/>
      </g>
      <g id="Group_151342" data-name="Group 151342" transform="translate(0 536.993)">
        <rect id="Tray" width="248" height="116" transform="translate(0 0.007)" fill="#fff"/>
        <g id="Symbol_2_7" data-name="Symbol 2 – 7" transform="translate(0 116.107)" clip-path="url(#clip-path-9)">
          <rect id="Background-6" data-name="Background" width="248" height="23" transform="translate(0 -0.099)" fill="#fff"/>
          <rect id="Bar" width="89" height="3" rx="1.5" transform="translate(80 13.901)"/>
        </g>
        <g id="Group_151215" data-name="Group 151215" transform="translate(10.367 10.367)">
          <g id="Group_151214" data-name="Group 151214" transform="translate(0.216 63.797)">
            <rect id="Rectangle_740" data-name="Rectangle 740" width="227.488" height="31.748" fill="#fff"/>
            <text id="Typography" transform="translate(10.417 17.844)" fill="#0d66d0" font-size="10" font-family="AdobeClean-Regular, Adobe Clean"><tspan x="0" y="0">Grid View</tspan></text>
            <g id="Group_542" data-name="Group 542" transform="translate(206.323 11.244)">
              <rect id="Frame" width="10.583" height="10.583" fill="#f0f" opacity="0"/>
              <path id="Shape-6" data-name="Shape" d="M11.091,2.161a.661.661,0,0,0-1.129-.468L4.807,6.848,2.629,4.67a.661.661,0,1,0-.935.935L4.339,8.251a.661.661,0,0,0,.936,0L10.9,2.629A.661.661,0,0,0,11.091,2.161Z" transform="translate(-0.508 -0.508)" fill="#2680eb"/>
            </g>
          </g>
          <rect id="Rectangle_574" data-name="Rectangle 574" width="133" height="32" transform="translate(-0.367 -0.359)" fill="#fff"/>
          <rect id="Rectangle_137643" data-name="Rectangle 137643" width="133" height="33" transform="translate(-0.367 31.641)" fill="#fff"/>
          <text id="Typography-2" data-name="Typography" transform="translate(10.633 18.641)" fill="#4b4b4b" font-size="10" font-family="AdobeClean-Regular, Adobe Clean"><tspan x="0" y="0">Favorite</tspan></text>
          <text id="Typography-3" data-name="Typography" transform="translate(10.633 50.641)" fill="#4b4b4b" font-size="10" font-family="AdobeClean-Regular, Adobe Clean"><tspan x="0" y="0">List View</tspan></text>
        </g>
      </g>
      <path id="Path_35186" data-name="Path 35186" d="M3311.907,3136.52h86.165" transform="translate(-3229.952 -2607.037)" fill="none" stroke="#000" stroke-linecap="round" stroke-width="5"/>
    </g>
    <text id="KEY_INDICATORS_VIEW" data-name="KEY INDICATORS VIEW" transform="translate(301 116)" fill="#fff" font-size="14" font-family="AdobeClean-Black, Adobe Clean" font-weight="800" letter-spacing="0.2em"><tspan x="5.744" y="14">KEY INDICATORS VIEW</tspan></text>
    <text id="The_tiled_key_indicators_view_of_the_mobile_app_gives_a_holistic_view_of_the_business_in_one_glance." data-name="The tiled key indicators view of the mobile app gives a holistic view of the business in one glance." transform="translate(253 141)" fill="#fff" font-size="12" font-family="AdobeClean-Regular, Adobe Clean"><tspan x="16.292" y="12">The tiled key indicators view of the mobile app gives a </tspan><tspan x="45.044" y="28">holistic view of the business in one glance.</tspan></text>
    <path id="Rectangle_137772" data-name="Rectangle 137772" d="M2,0H133a2,2,0,0,1,2,2V6a6,6,0,0,1-6,6H2a2,2,0,0,1-2-2V2A2,2,0,0,1,2,0Z" transform="translate(333 220)" fill="#a7abaf"/>
    <g id="Group_154318" data-name="Group 154318" transform="translate(199.608 166.343)">
      <path id="Rectangle_137760" data-name="Rectangle 137760" d="M3.059,0H134.14A3.059,3.059,0,0,1,137.2,3.059v0a20.8,20.8,0,0,1-20.8,20.8H20.8A20.8,20.8,0,0,1,0,3.059v0A3.059,3.059,0,0,1,3.059,0Z" transform="translate(130.714 56.477)" fill="#a7abaf"/>
      <g id="Group_154317" data-name="Group 154317" transform="translate(59.392 43.657)">
        <g id="Group_154307" data-name="Group 154307" transform="translate(0 74.834)">
          <rect id="Rectangle_137761" data-name="Rectangle 137761" width="3.662" height="21.418" fill="#fff"/>
        </g>
        <path id="Path_35245" data-name="Path 35245" d="M62.154,216.521" transform="translate(-60.323 -101.947)" fill="#fff" stroke="#f0f" stroke-miterlimit="10" stroke-width="14"/>
        <g id="Group_154308" data-name="Group 154308" transform="translate(0 114.574)">
          <rect id="Rectangle_137762" data-name="Rectangle 137762" width="3.662" height="39.224" fill="#fff"/>
        </g>
        <g id="Group_154309" data-name="Group 154309" transform="translate(0 165.152)">
          <rect id="Rectangle_137763" data-name="Rectangle 137763" width="3.662" height="39.224" fill="#fff"/>
        </g>
        <g id="Group_154310" data-name="Group 154310" transform="translate(278.43 127.734)">
          <rect id="Rectangle_137764" data-name="Rectangle 137764" width="3.662" height="64.512" fill="#fff"/>
        </g>
        <g id="Group_154311" data-name="Group 154311" transform="translate(3.728)">
          <path id="Path_35246" data-name="Path 35246" d="M68.678,86.154c0-21.441,17.683-38.885,39.418-38.885H296.863c21.734,0,39.417,17.444,39.417,38.885v9.886h3.662V86.154c0-23.433-19.325-42.5-43.079-42.5H108.1c-23.755,0-43.08,19.064-43.08,42.5v9.886h3.662Z" transform="translate(-65.016 -43.657)" fill="#fff"/>
          <path id="Path_35247" data-name="Path 35247" d="M336.28,129.7V583.174c0,21.441-17.683,38.884-39.417,38.884H108.1c-21.735,0-39.418-17.443-39.418-38.884V129.7H65.016V583.174c0,23.433,19.325,42.5,43.08,42.5H296.863c23.754,0,43.079-19.064,43.079-42.5V129.7Z" transform="translate(-65.016 -72.671)" fill="#fff"/>
        </g>
        <g id="Group_154315" data-name="Group 154315" transform="translate(17.722 12.714)">
          <path id="Path_35249" data-name="Path 35249" d="M305.1,590.411h-191A27.813,27.813,0,0,1,86.13,562.82V90.43A27.813,27.813,0,0,1,114.1,62.84h28.338v7.634A14.084,14.084,0,0,0,156.6,84.446H262.467a14.085,14.085,0,0,0,14.163-13.972V62.84H305.1a27.813,27.813,0,0,1,27.969,27.59V562.82A27.813,27.813,0,0,1,305.1,590.411ZM114.1,66.453A24.171,24.171,0,0,0,89.793,90.43V562.82A24.171,24.171,0,0,0,114.1,586.8h191a24.171,24.171,0,0,0,24.306-23.977V90.43A24.171,24.171,0,0,0,305.1,66.453H280.292v4.021a17.727,17.727,0,0,1-17.825,17.585H156.6a17.726,17.726,0,0,1-17.825-17.585V66.453Z" transform="translate(-86.13 -62.84)" fill="#fff"/>
        </g>
        <g id="Group_154316" data-name="Group 154316" transform="translate(1.831 495.713)">
          <rect id="Rectangle_137765" data-name="Rectangle 137765" width="7.063" height="4.645" transform="translate(271.526)" fill="#a7abaf"/>
          <rect id="Rectangle_137766" data-name="Rectangle 137766" width="7.063" height="4.645" fill="#a7abaf"/>
        </g>
        <g id="Group_154312" data-name="Group 154312" transform="translate(123.992 21.418)">
          <path id="Path_35248" data-name="Path 35248" d="M279.163,79.584H248.3a1.807,1.807,0,1,1,0-3.613h30.867a1.807,1.807,0,1,1,0,3.613Z" transform="translate(-246.465 -75.971)" fill="#fff"/>
        </g>
        <g id="Group_154313" data-name="Group 154313" transform="translate(109.604 19.87)">
          <ellipse id="Ellipse_5454" data-name="Ellipse 5454" cx="2.616" cy="2.58" rx="2.616" ry="2.58" fill="#fff"/>
        </g>
        <g id="Group_154314" data-name="Group 154314" transform="translate(168.2 18.321)">
          <ellipse id="Ellipse_5455" data-name="Ellipse 5455" cx="4.185" cy="4.129" rx="4.185" ry="4.129" fill="#fff"/>
        </g>
      </g>
    </g>
  </g>
</svg>
