<svg xmlns="http://www.w3.org/2000/svg" xmlns:xlink="http://www.w3.org/1999/xlink" width="932" height="368" viewBox="0 0 932 368">
  <defs>
    <clipPath id="clip-Artboard_10">
      <rect width="932" height="368"/>
    </clipPath>
  </defs>
  <g id="Artboard_10" data-name="Artboard – 10" clip-path="url(#clip-Artboard_10)">
    <rect width="932" height="368" fill="#f5f5f5"/>
    <g id="Group_154325" data-name="Group 154325" transform="translate(85 26)">
      <g id="Group_154323" data-name="Group 154323" transform="translate(0 -1)">
        <g id="Ellipse_5456" data-name="Ellipse 5456" transform="translate(113 156)" fill="none" stroke="#455976" stroke-width="3">
          <circle cx="5" cy="5" r="5" stroke="none"/>
          <circle cx="5" cy="5" r="3.5" fill="none"/>
        </g>
        <path id="Path_35251" data-name="Path 35251" d="M1308.654,3484.8h101.316s11.789-1.574,12.922,14.975,4.427,19.334,9.307,21.3c2.689,1.083,11.745,2.816,17.492,0,4.357-2.134,5.8-8.485,5.929-11.017.167-3.385.173-8.683.128-14.96-.073-10.1-.294-22.629-.128-31.861.264-14.678-2.088-24.429,11.613-25.09s14.9,0,14.9,0,11.758-1.5,12.71,10.262,0,59.247,0,59.247.37,9.439,9.128,10.433a78.783,78.783,0,0,0,16.652,0s8.263-2.758,8.5-11.636.272-31.664-1.092-40.929-5.2-13.328-19.994-12.19-32.585-2.89-34.026,18.153,0,62.449,0,62.449.3,17.35,16.736,18.289,59.463,0,59.463,0,18.112-2.062,18.6-18.289-1.308-98.338-1.308-98.338,2.511-19.416-17.293-22.8-39.542.523-40.547,17.309,0,58.386,0,58.386,2.762,10.256,8.7,10.587,7.65-2.324,9.67-6.774.808-21.013,12.53-21.122,11.841,8.686,13.293,12.5,1.84,13.588,13.567,13.875,13.632-11.6,13.632-11.6v-20.433s-.633-13.869,16.667-13.2,17.205,3.816,18.9,10.457a50.772,50.772,0,0,1,1.211,13.845s1.925,7.571,8.41,7.053,7.51-7.053,7.51-7.053l-1.14-37.121s.718-5.3-8.555-5.128-21.674,0-21.674,0-9.058-.763-9.126,6.575,0,63.038,0,63.038-1.125,8.693,8.347,8.744,45.474,0,45.474,0,6.174-.013,6.2-7.423,0-23.663,0-23.663-1.193-8.351-9.793-9.024-31.884,0-31.884,0-7.913.057-7.573,8.135,0,41.381,0,41.381-.7,8.236,7.573,8.629,49.146,0,49.146,0,7.2.575,7.128-7.771-.877-55.865-.877-55.865.968-8.021,6.805-7.7,6.531,6.083,6.531,6.083v34.589s-.455,5.723,6.58,6.341,6.52-6.341,6.52-6.341-.188-5.974,0-9.4,1.523-5.458,7.072-5.774,103.609-1.253,103.609-1.253" transform="translate(-1185.687 -3323)" fill="none" stroke="#455976" stroke-width="3"/>
        <g id="Ellipse_5457" data-name="Ellipse 5457" transform="translate(618 155)" fill="none" stroke="#455976" stroke-width="3">
          <ellipse cx="5" cy="5.5" rx="5" ry="5.5" stroke="none"/>
          <ellipse cx="5" cy="5.5" rx="3.5" ry="4" fill="none"/>
        </g>
      </g>
      <text id="Project_Idea" data-name="Project Idea" transform="translate(53 184)" fill="#455976" font-size="16" font-family="Avenir-Light, Avenir" font-weight="300"><tspan x="31.108" y="16">Project Idea</tspan></text>
      <text id="Finished_Project" data-name="Finished Project" transform="translate(548 179)" fill="#455976" font-size="16" font-family="Avenir-Light, Avenir" font-weight="300"><tspan x="23.748" y="16">Finished Project</tspan></text>
    </g>
    <text id="HOW_THE_DESIGN_PROCESS_IS_ALWAYS_DESCRIBED" data-name="HOW THE DESIGN PROCESS IS ALWAYS DESCRIBED" transform="translate(248 54)" fill="#455976" font-size="14" font-family="AdobeClean-Black, Adobe Clean" font-weight="800" letter-spacing="0.2em"><tspan x="0" y="14">HOW THE DESIGN PROCESS IS ALWAYS DESCRIBED</tspan></text>
  </g>
</svg>
