<svg xmlns="http://www.w3.org/2000/svg" xmlns:xlink="http://www.w3.org/1999/xlink" width="932" height="368" viewBox="0 0 932 368">
  <defs>
    <clipPath id="clip-Artboard_12">
      <rect width="932" height="368"/>
    </clipPath>
  </defs>
  <g id="Artboard_12" data-name="Artboard – 12" clip-path="url(#clip-Artboard_12)">
    <rect width="932" height="368" fill="#f5f5f5"/>
    <text id="ADDING_LAYERS_OF_INFORMATION_TO_INSPIRE_AND_GUIDE_CREATIVITY" data-name="ADDING LAYERS OF INFORMATION TO INSPIRE AND GUIDE CREATIVITY" transform="translate(156 39)" fill="#455976" font-size="14" font-family="AdobeClean-Black, Adobe Clean" font-weight="800" letter-spacing="0.2em"><tspan x="0" y="14">ADDING LAYERS OF INFORMATION TO INSPIRE AND GUIDE CREATIVITY</tspan></text>
    <g id="Group_154326" data-name="Group 154326" transform="translate(-21.985 -44)">
      <path id="Path_42" data-name="Path 42" d="M10108.293,8441.674c-23.221,33.515-53.749,61.352-87.429,74.314-28.681,8.715-57.393,7.221-81.157,3.185-33.563-5.7-56.963-16.552-56.963-16.552v-60.947Z" transform="translate(-9507.322 -8305.295)" fill="#455976"/>
      <path id="Path_41" data-name="Path 41" d="M10108.156,8441.186s-40.025,62.713-98.117,76.294-126.935-15.631-126.935-15.631v163.557h225.052Z" transform="translate(-9508.154 -8305.22)" fill="#a7697e"/>
      <path id="Path_39" data-name="Path 39" d="M9883.982,8630.087c51.081-48.31,88.751-31.539,137.15-4.931s86.46-10,86.46-10v128.874h-223.6Z" transform="translate(-9507.591 -8384.634)" fill="#d36e7b"/>
      <text id="Not_a_linear_or_circular_journey." data-name="Not a linear or circular journey." transform="translate(414.985 223)" fill="#fff" font-size="16" font-family="Avenir-Heavy, Avenir" font-weight="800"><tspan x="18.488" y="16">Not a linear or </tspan><tspan x="14.016" y="38">circular journey.</tspan></text>
      <path id="Path_38" data-name="Path 38" d="M10106.576,8705.512c-149.818-56.766-222.5,66-222.5,66h222.5Z" transform="translate(-9507.399 -8411.901)" fill="#f5b569"/>
      <g id="Rectangle_1" data-name="Rectangle 1" transform="translate(374.985 135)" fill="none" stroke="#615b76" stroke-width="5">
        <rect width="226" height="226" stroke="none"/>
        <rect x="2.5" y="2.5" width="221" height="221" fill="none"/>
      </g>
    </g>
  </g>
</svg>
