<svg xmlns="http://www.w3.org/2000/svg" xmlns:xlink="http://www.w3.org/1999/xlink" width="800" height="1000" viewBox="0 0 800 1000">
  <defs>
    <clipPath id="clip-custom_3">
      <rect width="800" height="1000"/>
    </clipPath>
  </defs>
  <g id="custom_3" data-name="custom – 3" clip-path="url(#clip-custom_3)">
    <rect width="800" height="1000" fill="#fff"/>
    <rect id="Rectangle_41948" data-name="Rectangle 41948" width="800" height="358" fill="#f5f5f5"/>
    <g id="Group_142323" data-name="Group 142323" transform="translate(-77 31)">
      <g id="Group_142322" data-name="Group 142322" transform="translate(138)">
        <path id="Path_27107" data-name="Path 27107" d="M9983.84,8698.389c-67.175-29.789-99.764,34.636-99.764,34.636h99.764Z" transform="translate(-9787.012 -8442.024)" fill="#f5b569"/>
        <g id="Rectangle_41949" data-name="Rectangle 41949" transform="translate(97 191)" fill="none" stroke="#f5b569" stroke-width="5">
          <rect width="100" height="99.687" stroke="none"/>
          <rect x="2.5" y="2.5" width="95" height="94.687" fill="none"/>
        </g>
      </g>
    </g>
    <g id="Group_142324" data-name="Group 142324" transform="translate(-205 31)">
      <g id="Group_142322-2" data-name="Group 142322" transform="translate(138)">
        <g id="Rectangle_41949-2" data-name="Rectangle 41949" transform="translate(97 191)" fill="none" stroke="#615b76" stroke-width="5">
          <rect width="100" height="99.687" stroke="none"/>
          <rect x="2.5" y="2.5" width="95" height="94.687" fill="none"/>
        </g>
      </g>
    </g>
    <g id="Group_142326" data-name="Group 142326" transform="translate(-74.829 31)">
      <path id="Path_27108" data-name="Path 27108" d="M9883.982,8613.122c22.884-21.641,39.759-14.128,61.439-2.208s38.731-4.479,38.731-4.479v57.732H9883.985Z" transform="translate(-9523.153 -8373.889)" fill="#d36e7b"/>
      <g id="Group_142325" data-name="Group 142325" transform="translate(126)">
        <g id="Group_142322-3" data-name="Group 142322" transform="translate(138)">
          <g id="Rectangle_41949-3" data-name="Rectangle 41949" transform="translate(97 191)" fill="none" stroke="#d36e7b" stroke-width="5">
            <rect width="100" height="99.687" stroke="none"/>
            <rect x="2.5" y="2.5" width="95" height="94.687" fill="none"/>
          </g>
        </g>
      </g>
    </g>
    <g id="Group_142330" data-name="Group 142330" transform="translate(-16 3)">
      <g id="Group_142327" data-name="Group 142327" transform="translate(70 28)">
        <g id="Group_142325-2" data-name="Group 142325" transform="translate(126)">
          <g id="Group_142322-4" data-name="Group 142322" transform="translate(138)">
            <g id="Rectangle_41949-4" data-name="Rectangle 41949" transform="translate(97 191)" fill="none" stroke="#a7697e" stroke-width="5">
              <rect width="100" height="99.687" stroke="none"/>
              <rect x="2.5" y="2.5" width="95" height="94.687" fill="none"/>
            </g>
          </g>
        </g>
      </g>
      <path id="Path_41" data-name="Path 41" d="M9978.222,8441.188s-16.917,26.5-41.469,32.244-53.647-6.605-53.647-6.605v69.126h95.116Z" transform="translate(-9449.684 -8220.187)" fill="#a7697e"/>
    </g>
    <g id="Group_142329" data-name="Group 142329" transform="translate(-16 3)">
      <g id="Group_142328" data-name="Group 142328" transform="translate(198 28)">
        <g id="Group_142325-3" data-name="Group 142325" transform="translate(126)">
          <g id="Group_142322-5" data-name="Group 142322" transform="translate(138)">
            <g id="Rectangle_41949-5" data-name="Rectangle 41949" transform="translate(97 191)" fill="none" stroke="#455976" stroke-width="5">
              <rect width="100" height="99.687" stroke="none"/>
              <rect x="2.5" y="2.5" width="95" height="94.687" fill="none"/>
            </g>
          </g>
        </g>
      </g>
      <path id="Path_27109" data-name="Path 27109" d="M9973.812,8441.675c-9.376,13.425-21.7,24.574-35.3,29.769-11.581,3.49-23.173,2.892-32.769,1.274a100.551,100.551,0,0,1-23-6.631v-24.412Z" transform="translate(-9319.441 -8218.032)" fill="#455976"/>
    </g>
    <rect id="Rectangle_41950" data-name="Rectangle 41950" width="100" height="100" transform="translate(671 222)" fill="#615b76"/>
    <text id="Finished_Project" data-name="Finished 
Project" transform="translate(678 151)" fill="#615b76" font-size="21" font-family="Avenir-Black, Avenir" font-weight="800"><tspan x="2.256" y="21">Finished </tspan><tspan x="8.304" y="50">Project</tspan></text>
    <text id="Project_Idea" data-name="Project 
Idea" transform="translate(37 151)" fill="#615b76" font-size="21" font-family="Avenir-Black, Avenir" font-weight="800"><tspan x="7.804" y="21">Project </tspan><tspan x="21.611" y="50">Idea</tspan></text>
    <text id="Discovery" transform="translate(158 151)" fill="#f5b569" font-size="21" font-family="Avenir-Black, Avenir" font-weight="800"><tspan x="1.496" y="21">Discovery</tspan></text>
    <text id="Concept_Validation" data-name="Concept Validation" transform="translate(286 151)" fill="#d36e7b" font-size="21" font-family="Avenir-Black, Avenir" font-weight="800"><tspan x="8.899" y="21">Concept </tspan><tspan x="0.898" y="50">Validation</tspan></text>
    <text id="Design" transform="translate(429 151)" fill="#a7697e" font-size="21" font-family="Avenir-Black, Avenir" font-weight="800"><tspan x="2.27" y="21">Design</tspan></text>
    <text id="Useability_Testing" data-name="Useability &amp; Testing" transform="translate(543 151)" fill="#455976" font-size="21" font-family="Avenir-Black, Avenir" font-weight="800"><tspan x="0.276" y="21">Useability </tspan><tspan x="3.027" y="50">&amp; Testing</tspan></text>
    <path id="Path_27111" data-name="Path 27111" d="M9982.521,8441.675c-10.272,14.826-23.776,27.14-38.676,32.874-12.687,3.855-25.389,3.194-35.9,1.409a109.56,109.56,0,0,1-25.2-7.321v-26.962Z" transform="translate(-9211.535 -8219.053)" fill="#455976"/>
    <path id="Path_27112" data-name="Path 27112" d="M9982.661,8441.187s-17.706,27.742-43.4,33.75-56.152-6.915-56.152-6.915v72.354h99.557Z" transform="translate(-9212.104 -8218.747)" fill="#a7697e"/>
    <path id="Path_27113" data-name="Path 27113" d="M9883.982,8612.95c22.6-21.37,39.261-13.952,60.672-2.181s38.247-4.422,38.247-4.422v57.01h-98.916Z" transform="translate(-9212.345 -8342.077)" fill="#d36e7b"/>
    <path id="Path_27114" data-name="Path 27114" d="M9982.5,8697.154c-66.275-25.111-98.428,29.2-98.428,29.2H9982.5Z" transform="translate(-9212.313 -8404.978)" fill="#f5b569"/>
    <g id="Rectangle_41951" data-name="Rectangle 41951" transform="translate(671 222)" fill="none" stroke="#615b76" stroke-width="5">
      <rect width="100" height="100" stroke="none"/>
      <rect x="2.5" y="2.5" width="95" height="95" fill="none"/>
    </g>
    <g id="Group_142331" data-name="Group 142331" transform="translate(7 -16)">
      <path id="Path_42" data-name="Path 42" d="M10381.988,8441.674c-51.4,74.184-118.972,135.8-193.521,164.49-63.484,19.29-127.035,15.984-179.637,7.05-74.294-12.624-126.087-36.635-126.087-36.635V8441.674Z" transform="translate(-9738.753 -8015.186)" fill="#455976"/>
      <path id="Path_41-2" data-name="Path 41" d="M10381.247,8441.187s-88.6,138.811-217.179,168.871-280.964-34.6-280.964-34.6v362.024h498.143Z" transform="translate(-9740.158 -8015.612)" fill="#a7697e"/>
      <path id="Path_39" data-name="Path 39" d="M9883.982,8667.379c113.066-106.931,196.447-69.812,303.576-10.913s191.375-22.128,191.375-22.128V8919.6H9883.994Z" transform="translate(-9737.846 -7999.458)" fill="#d36e7b"/>
      <path id="Path_38" data-name="Path 38" d="M10376.568,8723.7c-331.615-125.647-492.492,146.091-492.492,146.091h492.492Z" transform="translate(-9737.307 -7949.184)" fill="#f5b569"/>
      <g id="Rectangle_1" data-name="Rectangle 1" transform="translate(143 423)" fill="none" stroke="#615b76" stroke-width="7">
        <rect width="500" height="500" stroke="none"/>
        <rect x="3.5" y="3.5" width="493" height="493" fill="none"/>
      </g>
      <text id="Define_the_problem_you_want_to_test_with_the_team" data-name="Define the problem you want to test with the team" transform="translate(353 846)" fill="#fff" font-size="21" font-family="Avenir-Medium, Avenir" font-weight="500"><tspan x="40.956" y="21">Define the problem you </tspan><tspan x="14.958" y="50">want to test with the team</tspan></text>
      <text id="Test_your_problem_statement_with_customer_calls_and_data" data-name="Test your problem statement with customer calls and data" transform="translate(162 681)" fill="#fff" font-size="21" font-family="Avenir-Medium, Avenir" font-weight="500"><tspan x="0" y="21">Test your problem statement </tspan><tspan x="0" y="50">with customer calls and data</tspan></text>
      <text id="Turn_feedback_knowledge_into_designs" data-name="Turn feedback &amp; knowledge into designs" transform="translate(452 584)" fill="#fff" font-size="21" font-family="Avenir-Medium, Avenir" font-weight="500"><tspan x="6.09" y="21">Turn feedback &amp; </tspan><tspan x="10.08" y="50">knowledge into </tspan><tspan x="47.649" y="79">designs</tspan></text>
      <text id="Repeat_until_a_solution_has_been_found_that_fits_within_the_product_teams_scope_and_addresses_customer_need._" data-name="Repeat until a solution has been found that fits within the product teams scope and addresses customer need.
" transform="translate(162 440)" fill="#fff" font-size="21" font-family="Avenir-Medium, Avenir" font-weight="500"><tspan x="0" y="21">Repeat until a solution has </tspan><tspan x="0" y="50">been found that fits within the </tspan><tspan x="0" y="79">product teams scope and </tspan><tspan x="0" y="108">addresses customer need.</tspan></text>
    </g>
  </g>
</svg>
