<svg id="Layer_1" data-name="Layer 1" xmlns="http://www.w3.org/2000/svg" viewBox="0 0 200 200"><defs><style>.cls-1{stroke:#231f20;}.cls-1,.cls-5,.cls-6{stroke-miterlimit:10;}.cls-2{fill:#0f2e4a;}.cls-3{fill:#fff;}.cls-4,.cls-5{fill:none;}.cls-5,.cls-6{stroke:#0e2e4a;stroke-width:2px;}.cls-6{fill:#0e2e4a;}</style></defs><title>reserach-art</title><rect class="cls-1" width="200" height="200"/><polygon class="cls-2" points="24.36 24.65 24.36 39.28 24.45 39.28 30.37 24.65 24.36 24.65"/><polygon class="cls-2" points="34.98 24.65 41.09 39.28 41.09 24.65 34.98 24.65"/><polygon class="cls-2" points="32.72 29.84 30.02 36.43 33.03 36.43 34.26 39.28 36.79 39.28 32.72 29.84"/><path class="cls-2" d="M168.75,26v-.54h5.66V26h-.64v0a1.44,1.44,0,0,1,.55.62,1.69,1.69,0,0,1,.19.78,2,2,0,0,1-.15.8,1.75,1.75,0,0,1-.42.61,1.72,1.72,0,0,1-.62.39,2.22,2.22,0,0,1-1.55,0,1.75,1.75,0,0,1-1-1,1.87,1.87,0,0,1-.16-.8,1.83,1.83,0,0,1,.19-.78,1.55,1.55,0,0,1,.54-.62v0Zm3.79,2.79a1.87,1.87,0,0,0,.59-.09,1.64,1.64,0,0,0,.48-.28,1.28,1.28,0,0,0,.32-.44,1.46,1.46,0,0,0,.12-.6,1.4,1.4,0,0,0-.11-.58,1.47,1.47,0,0,0-.32-.45,1.5,1.5,0,0,0-.48-.3,1.46,1.46,0,0,0-.6-.11,1.44,1.44,0,0,0-.59.11,1.31,1.31,0,0,0-.48.3,1.47,1.47,0,0,0-.32.45,1.58,1.58,0,0,0-.11.58,1.64,1.64,0,0,0,.11.6,1.43,1.43,0,0,0,.32.44,1.57,1.57,0,0,0,.49.28A1.81,1.81,0,0,0,172.54,28.82Z"/><path class="cls-2" d="M174,30.56l.43,0v.52l-.33,0h-.31a1.3,1.3,0,0,1,.74,1.2,1.09,1.09,0,0,1,0,.19.51.51,0,0,1,0,.17l-.52-.07a.91.91,0,0,0,0-.16,1.64,1.64,0,0,0,0-.22,1.16,1.16,0,0,0-.08-.42.94.94,0,0,0-.25-.35,1.32,1.32,0,0,0-.44-.24,2,2,0,0,0-.64-.09h-1.92v-.54H174Z"/><path class="cls-2" d="M172.54,37a2.21,2.21,0,0,1-.78-.14,1.93,1.93,0,0,1-.63-.42,1.86,1.86,0,0,1-.41-.63,2.09,2.09,0,0,1-.15-.81,2.11,2.11,0,0,1,.15-.8,1.82,1.82,0,0,1,1-1,2.13,2.13,0,0,1,1.57,0,2,2,0,0,1,.62.41,1.91,1.91,0,0,1,.41.63,2.11,2.11,0,0,1,.15.8,2.09,2.09,0,0,1-.15.81,1.72,1.72,0,0,1-.41.63,1.89,1.89,0,0,1-.62.42A2.22,2.22,0,0,1,172.54,37Zm0-.57a1.87,1.87,0,0,0,.59-.1,1.47,1.47,0,0,0,.48-.29,1.28,1.28,0,0,0,.32-.44,1.46,1.46,0,0,0,.12-.6,1.34,1.34,0,0,0-.12-.58,1.23,1.23,0,0,0-.32-.45,1.44,1.44,0,0,0-.48-.28,1.63,1.63,0,0,0-.59-.1,1.57,1.57,0,0,0-.58.1,1.39,1.39,0,0,0-.49.28,1.36,1.36,0,0,0-.32.45A1.5,1.5,0,0,0,171,35a1.64,1.64,0,0,0,.11.6,1.38,1.38,0,0,0,.81.73A1.81,1.81,0,0,0,172.54,36.45Z"/><path class="cls-2" d="M173.56,40.89a1.06,1.06,0,0,0,.35-.4,1.08,1.08,0,0,0,.14-.56,1.46,1.46,0,0,0-.11-.6,1.6,1.6,0,0,0-.32-.45,1.44,1.44,0,0,0-.48-.28,1.64,1.64,0,0,0-.6-.1,1.63,1.63,0,0,0-.59.1,1.44,1.44,0,0,0-.48.28,1.36,1.36,0,0,0-.32.45,1.55,1.55,0,0,0-.11.59,1.28,1.28,0,0,0,.13.61,1.42,1.42,0,0,0,.36.41l-.31.4a1.91,1.91,0,0,1-.47-.58,1.86,1.86,0,0,1-.18-.84,2.14,2.14,0,0,1,.15-.82,1.86,1.86,0,0,1,.41-.63,1.91,1.91,0,0,1,.63-.41,2.27,2.27,0,0,1,1.57,0,1.86,1.86,0,0,1,.62.41,1.72,1.72,0,0,1,.41.63,2.14,2.14,0,0,1,.15.82,1.92,1.92,0,0,1-.16.76,1.46,1.46,0,0,1-.49.63Z"/><path class="cls-2" d="M172.65,45.6h-.25v-3.1a1.36,1.36,0,0,0-.53.11,1.26,1.26,0,0,0-.43.29,1.3,1.3,0,0,0-.29.43,1.17,1.17,0,0,0-.11.53,1.36,1.36,0,0,0,.19.74,1.72,1.72,0,0,0,.46.47l-.32.4a1.91,1.91,0,0,1-.61-.74,2.13,2.13,0,0,1-.19-.87,1.92,1.92,0,0,1,.56-1.38,2.05,2.05,0,0,1,.63-.4,2,2,0,0,1,.78-.15,2.22,2.22,0,0,1,.79.14,2,2,0,0,1,.62.4,1.78,1.78,0,0,1,.41.6,2,2,0,0,1,0,1.52,1.54,1.54,0,0,1-.4.56,1.62,1.62,0,0,1-.58.34A2.19,2.19,0,0,1,172.65,45.6Zm.18-.55a1.41,1.41,0,0,0,.88-.34,1.15,1.15,0,0,0,.34-.9,1.44,1.44,0,0,0-.09-.51,1.26,1.26,0,0,0-.28-.4,1.08,1.08,0,0,0-.39-.28,1.25,1.25,0,0,0-.46-.12Z"/><path class="cls-2" d="M173.53,48.76a1,1,0,0,0,.38-.36,1.16,1.16,0,0,0,.14-.56,1.43,1.43,0,0,0,0-.29.82.82,0,0,0-.1-.26.66.66,0,0,0-.19-.18.53.53,0,0,0-.26-.06.44.44,0,0,0-.4.21,1.88,1.88,0,0,0-.24.68,2.14,2.14,0,0,1-.4,1,.85.85,0,0,1-.7.32,1,1,0,0,1-.54-.13,1.22,1.22,0,0,1-.36-.32,1.32,1.32,0,0,1-.2-.45,2.22,2.22,0,0,1-.06-.51,2,2,0,0,1,.18-.82,1.53,1.53,0,0,1,.55-.66l.32.43a1.21,1.21,0,0,0-.41.43,1.08,1.08,0,0,0-.17.61,1.87,1.87,0,0,0,0,.34.78.78,0,0,0,.11.28.64.64,0,0,0,.21.19.56.56,0,0,0,.3.07.48.48,0,0,0,.45-.28,3.39,3.39,0,0,0,.27-.82c0-.11.06-.23.1-.36a1.11,1.11,0,0,1,.18-.34,1.06,1.06,0,0,1,.29-.27.87.87,0,0,1,.44-.1.94.94,0,0,1,.49.11.89.89,0,0,1,.34.3,1.42,1.42,0,0,1,.2.43,2,2,0,0,1,.06.49,1.7,1.7,0,0,1-.18.76,1.15,1.15,0,0,1-.49.55Z"/><path class="cls-2" d="M173.53,52.31a1,1,0,0,0,.38-.36,1.16,1.16,0,0,0,.14-.56,1.43,1.43,0,0,0,0-.29.69.69,0,0,0-.1-.25.47.47,0,0,0-.19-.18.5.5,0,0,0-.66.14,2,2,0,0,0-.24.68,2.24,2.24,0,0,1-.4,1,.84.84,0,0,1-.7.31,1.13,1.13,0,0,1-.54-.12,1.26,1.26,0,0,1-.36-.33,1.32,1.32,0,0,1-.2-.45,2.22,2.22,0,0,1-.06-.51,2,2,0,0,1,.18-.82,1.53,1.53,0,0,1,.55-.66l.32.43a1.21,1.21,0,0,0-.41.43,1.1,1.1,0,0,0-.17.61,1.87,1.87,0,0,0,0,.34.78.78,0,0,0,.11.28.55.55,0,0,0,.21.19.56.56,0,0,0,.3.07.48.48,0,0,0,.45-.28,3.39,3.39,0,0,0,.27-.82c0-.11.06-.23.1-.36a1.11,1.11,0,0,1,.18-.34,1.06,1.06,0,0,1,.29-.27.87.87,0,0,1,.44-.1,1,1,0,0,1,.49.11,1.1,1.1,0,0,1,.34.3,1.54,1.54,0,0,1,.2.43,2,2,0,0,1,.06.49,1.67,1.67,0,0,1-.18.76,1.22,1.22,0,0,1-.49.56Z"/><path class="cls-2" d="M162.38,29l-1.31,1.27v-.8l.84-.8a2.4,2.4,0,0,1-.71-.76,2,2,0,0,1-.23-1,2.26,2.26,0,0,1,.11-.69,1.77,1.77,0,0,1,.3-.56,1.32,1.32,0,0,1,.49-.38,1.57,1.57,0,0,1,.67-.14,1.5,1.5,0,0,1,.58.1,1.67,1.67,0,0,1,.46.28,1.8,1.8,0,0,1,.36.41,2.87,2.87,0,0,1,.28.52l.28-.25a2.27,2.27,0,0,1,.32-.22,1.87,1.87,0,0,1,.35-.16,1.15,1.15,0,0,1,.37-.06,1.26,1.26,0,0,1,.57.12,1.08,1.08,0,0,1,.42.3,1.43,1.43,0,0,1,.26.45,1.61,1.61,0,0,1,.09.54,1.55,1.55,0,0,1-.09.53,1.26,1.26,0,0,1-.24.44,1.28,1.28,0,0,1-.4.29,1.33,1.33,0,0,1-.54.11,1.19,1.19,0,0,1-.51-.11,1.41,1.41,0,0,1-.4-.29,1.88,1.88,0,0,1-.32-.41c-.09-.15-.18-.3-.26-.46l-1.36,1.32,1.37.78V30Zm1.47-2.21a2,2,0,0,0-.54-.77,1.16,1.16,0,0,0-.78-.27,1.12,1.12,0,0,0-.44.09,1.06,1.06,0,0,0-.34.26,1.4,1.4,0,0,0-.22.38,1.34,1.34,0,0,0-.08.46,1.36,1.36,0,0,0,.21.77,2.24,2.24,0,0,0,.63.58ZM165.61,28a.79.79,0,0,0,.8-.8.84.84,0,0,0-.24-.62.86.86,0,0,0-.64-.24.73.73,0,0,0-.31.07,1.3,1.3,0,0,0-.31.16,1.79,1.79,0,0,0-.26.2,1.68,1.68,0,0,0-.19.19c.06.13.13.25.2.37a1.72,1.72,0,0,0,.24.34,1.18,1.18,0,0,0,.31.24A.87.87,0,0,0,165.61,28Z"/><path class="cls-2" d="M164.38,33.11l.43,0v.52l-.33,0h-.31a1.3,1.3,0,0,1,.74,1.2,1.09,1.09,0,0,1,0,.19.47.47,0,0,1,0,.17l-.52-.07a.91.91,0,0,0,0-.16,1.64,1.64,0,0,0,0-.22,1.2,1.2,0,0,0-.08-.42.84.84,0,0,0-.25-.34,1.54,1.54,0,0,0-.44-.25,2,2,0,0,0-.64-.09h-1.92v-.54h3.31Z"/><path class="cls-2" d="M163.05,39.26h-.25V36.15a1.57,1.57,0,0,0-.53.11,1.42,1.42,0,0,0-.43.29,1.26,1.26,0,0,0-.29.43,1.24,1.24,0,0,0-.11.54,1.32,1.32,0,0,0,.19.73,1.59,1.59,0,0,0,.46.47l-.32.41a2,2,0,0,1-.61-.74,2.13,2.13,0,0,1-.19-.87,1.92,1.92,0,0,1,.15-.77,1.87,1.87,0,0,1,.41-.61,1.91,1.91,0,0,1,.63-.41,2,2,0,0,1,.78-.15,2.06,2.06,0,0,1,.79.15,1.84,1.84,0,0,1,.62.4,1.78,1.78,0,0,1,.41.6,1.81,1.81,0,0,1,.15.74,1.94,1.94,0,0,1-.15.78,1.63,1.63,0,0,1-.4.56,1.72,1.72,0,0,1-.59.34A2.36,2.36,0,0,1,163.05,39.26Zm.18-.55a1.33,1.33,0,0,0,.88-.34,1.15,1.15,0,0,0,.34-.9,1.18,1.18,0,0,0-.1-.5,1.13,1.13,0,0,0-.27-.41,1.21,1.21,0,0,0-.39-.28,1.25,1.25,0,0,0-.46-.12Z"/><path class="cls-2" d="M163.93,42.42a1,1,0,0,0,.38-.36,1.13,1.13,0,0,0,.14-.56,1.5,1.5,0,0,0,0-.29.69.69,0,0,0-.1-.25.47.47,0,0,0-.19-.18.44.44,0,0,0-.26-.07.43.43,0,0,0-.4.22,1.81,1.81,0,0,0-.24.68,2.19,2.19,0,0,1-.4,1,.84.84,0,0,1-.7.31,1.13,1.13,0,0,1-.54-.12,1.22,1.22,0,0,1-.36-.32A1.46,1.46,0,0,1,161,42a2.14,2.14,0,0,1-.06-.5,2,2,0,0,1,.18-.83,1.51,1.51,0,0,1,.55-.65l.32.43a1.23,1.23,0,0,0-.58,1,1.76,1.76,0,0,0,0,.33.78.78,0,0,0,.11.28.55.55,0,0,0,.21.19.56.56,0,0,0,.3.08.49.49,0,0,0,.45-.29,3.39,3.39,0,0,0,.27-.82c0-.11.07-.23.1-.35a1.16,1.16,0,0,1,.18-.35,1.06,1.06,0,0,1,.29-.27,1,1,0,0,1,.44-.1,1,1,0,0,1,.49.11,1.1,1.1,0,0,1,.34.3,1.54,1.54,0,0,1,.2.43,2.07,2.07,0,0,1,.06.5,1.73,1.73,0,0,1-.18.76,1.2,1.2,0,0,1-.49.55Z"/><path class="cls-2" d="M163.05,47.39h-.25v-3.1a1.36,1.36,0,0,0-.53.11,1.42,1.42,0,0,0-.43.29,1.26,1.26,0,0,0-.29.43,1.22,1.22,0,0,0-.11.54,1.35,1.35,0,0,0,.19.73,1.72,1.72,0,0,0,.46.47l-.32.4a1.91,1.91,0,0,1-.61-.74,2,2,0,0,1-.19-.86,2,2,0,0,1,.15-.78,2,2,0,0,1,.41-.61,2.05,2.05,0,0,1,.63-.4,2,2,0,0,1,.78-.15,2.26,2.26,0,0,1,.79.14,1.85,1.85,0,0,1,1,1,2,2,0,0,1,0,1.52,1.46,1.46,0,0,1-.4.56,1.58,1.58,0,0,1-.59.34A2.09,2.09,0,0,1,163.05,47.39Zm.18-.55a1.39,1.39,0,0,0,.88-.34,1.15,1.15,0,0,0,.34-.9,1.25,1.25,0,0,0-.1-.51,1.09,1.09,0,0,0-.27-.4,1.21,1.21,0,0,0-.39-.28,1.25,1.25,0,0,0-.46-.12Z"/><path class="cls-2" d="M163.49,50.87a.92.92,0,0,0,.73-.26,1,1,0,0,0,.23-.74,1.59,1.59,0,0,0-.12-.62,1.31,1.31,0,0,0-.32-.49l.37-.31a1.87,1.87,0,0,1,.38.62,2.31,2.31,0,0,1,.15.86,2,2,0,0,1-.08.56,1.27,1.27,0,0,1-.26.47,1.1,1.1,0,0,1-.42.31,1.4,1.4,0,0,1-.6.11h-1.64l-.45,0-.39.05V51l.3,0,.31,0h0a1.63,1.63,0,0,1-.54-.58,1.73,1.73,0,0,1-.17-.78,1.41,1.41,0,0,1,.07-.45,1,1,0,0,1,.19-.41,1.2,1.2,0,0,1,.35-.32,1.12,1.12,0,0,1,.53-.12,1,1,0,0,1,.69.22,1.37,1.37,0,0,1,.38.59,3.8,3.8,0,0,1,.16.84c0,.32,0,.65,0,1Zm-.55-.16c0-.22,0-.45,0-.68a2.28,2.28,0,0,0-.11-.61,1,1,0,0,0-.24-.45.55.55,0,0,0-.43-.18.67.67,0,0,0-.33.08.61.61,0,0,0-.22.2.77.77,0,0,0-.12.28,1.17,1.17,0,0,0,0,.32,1.36,1.36,0,0,0,.1.51,1.19,1.19,0,0,0,.27.38,1.23,1.23,0,0,0,.4.23,1.5,1.5,0,0,0,.47.08h.28Z"/><path class="cls-2" d="M164.38,52.77l.43,0v.52l-.33,0h-.31v0a1.38,1.38,0,0,1,.54.48,1.34,1.34,0,0,1,.2.72,1.15,1.15,0,0,1,0,.19.55.55,0,0,1,0,.17l-.52-.07a1.57,1.57,0,0,0,0-.16,1.79,1.79,0,0,0,0-.23,1.15,1.15,0,0,0-.08-.41.87.87,0,0,0-.25-.35,1.32,1.32,0,0,0-.44-.24,2,2,0,0,0-.64-.09h-1.92v-.55h3.31Z"/><path class="cls-2" d="M164,58.21a1,1,0,0,0,.35-.39,1.1,1.1,0,0,0,.14-.57,1.44,1.44,0,0,0-.11-.59,1.6,1.6,0,0,0-.32-.45,1.66,1.66,0,0,0-.48-.29,1.93,1.93,0,0,0-.6-.1,1.87,1.87,0,0,0-.59.1,1.33,1.33,0,0,0-.47.29,1.31,1.31,0,0,0-.33.44,1.64,1.64,0,0,0-.11.6,1.16,1.16,0,0,0,.49,1l-.31.41a1.81,1.81,0,0,1-.47-.59,1.78,1.78,0,0,1-.18-.83,2.19,2.19,0,0,1,.15-.83,2.08,2.08,0,0,1,.41-.63,2.05,2.05,0,0,1,.63-.4,2,2,0,0,1,.78-.14,2.05,2.05,0,0,1,.79.14,2,2,0,0,1,.62.4,1.91,1.91,0,0,1,.41.63,2.19,2.19,0,0,1,.15.83,1.92,1.92,0,0,1-.16.76,1.46,1.46,0,0,1-.49.63Z"/><path class="cls-2" d="M164.2,60.09a1.16,1.16,0,0,1,.52.51,1.49,1.49,0,0,1,.19.75,1.34,1.34,0,0,1-.42,1.07,1.69,1.69,0,0,1-1.12.35h-2.3v-.54h2.07a2.92,2.92,0,0,0,.54,0,1,1,0,0,0,.41-.16.81.81,0,0,0,.27-.31,1.21,1.21,0,0,0,.09-.5,1.25,1.25,0,0,0-.08-.42,1.14,1.14,0,0,0-.27-.36,1.35,1.35,0,0,0-.46-.26,2.08,2.08,0,0,0-.65-.09h-1.92v-.55h6.05v.55H164.2Z"/><path class="cls-3" d="M25.15,96.35v-8.5h3.17a9.36,9.36,0,0,1,1.93.2,4.37,4.37,0,0,1,1.62.69A3.52,3.52,0,0,1,33,90a4.93,4.93,0,0,1,0,4,3.6,3.6,0,0,1-1.07,1.33,4.53,4.53,0,0,1-1.55.78,6.45,6.45,0,0,1-1.82.25Zm2.75-6.07v3.61h.53A2.42,2.42,0,0,0,30,93.45,1.75,1.75,0,0,0,30.51,92,1.62,1.62,0,0,0,30,90.74a2.15,2.15,0,0,0-1.44-.46Z"/><path class="cls-3" d="M41,93.25c0,.11,0,.21,0,.32s0,.2,0,.27H36.77a.55.55,0,0,0,.11.3.92.92,0,0,0,.25.23,1.16,1.16,0,0,0,.34.14,1.2,1.2,0,0,0,.38,0,1.31,1.31,0,0,0,1-.44l2,1a2.86,2.86,0,0,1-1.22,1.08,4,4,0,0,1-1.85.4,4.09,4.09,0,0,1-1.34-.22,3.2,3.2,0,0,1-1.14-.64,3,3,0,0,1-.8-1.06,3.43,3.43,0,0,1-.3-1.48,3.38,3.38,0,0,1,.28-1.41,3,3,0,0,1,.75-1.06A3.14,3.14,0,0,1,36.34,90a3.91,3.91,0,0,1,1.37-.24,3.33,3.33,0,0,1,1.36.26,3,3,0,0,1,1,.72,3.2,3.2,0,0,1,.68,1.09A3.93,3.93,0,0,1,41,93.25Zm-2.39-.9a.72.72,0,0,0-.24-.55,1,1,0,0,0-.67-.21,1,1,0,0,0-1,.76Z"/><path class="cls-3" d="M47.17,94.35a1.94,1.94,0,0,1-.27,1.06,2,2,0,0,1-.68.69,2.78,2.78,0,0,1-.9.38,4.52,4.52,0,0,1-.93.11,5.73,5.73,0,0,1-1.6-.23,4.38,4.38,0,0,1-1.37-.67l1.36-1.57a2.23,2.23,0,0,0,.68.42,1.93,1.93,0,0,0,.75.17.66.66,0,0,0,.27-.06.19.19,0,0,0,.12-.2c0-.1-.07-.18-.22-.24a5.36,5.36,0,0,0-.77-.22,3.67,3.67,0,0,1-.61-.21,2.72,2.72,0,0,1-.58-.37,1.83,1.83,0,0,1-.42-.56,1.73,1.73,0,0,1-.17-.78,2,2,0,0,1,.27-1,2.2,2.2,0,0,1,.69-.7,3.11,3.11,0,0,1,.89-.4,3.88,3.88,0,0,1,.92-.12,5.09,5.09,0,0,1,1.45.21,5,5,0,0,1,1.3.6l-1.3,1.55a2.65,2.65,0,0,0-.61-.3,1.92,1.92,0,0,0-.61-.11.75.75,0,0,0-.33.06.2.2,0,0,0-.14.21q0,.12.15.18a3.41,3.41,0,0,0,.69.18,3.53,3.53,0,0,1,.72.22,2.71,2.71,0,0,1,.64.38,1.89,1.89,0,0,1,.44.57A1.69,1.69,0,0,1,47.17,94.35Z"/><path class="cls-3" d="M48.13,88.21a1.44,1.44,0,0,1,.43-1,1.49,1.49,0,0,1,.46-.31,1.51,1.51,0,0,1,.56-.11,1.33,1.33,0,0,1,.54.11,1.57,1.57,0,0,1,.45.31,1.44,1.44,0,0,1,.43,1,1.31,1.31,0,0,1-.12.56,1.25,1.25,0,0,1-.31.45,1.51,1.51,0,0,1-.45.29,1.33,1.33,0,0,1-.54.11,1.51,1.51,0,0,1-.56-.11,1.44,1.44,0,0,1-.46-.29,1.25,1.25,0,0,1-.31-.45A1.31,1.31,0,0,1,48.13,88.21Zm0,1.83H51v6.31H48.18Z"/><path class="cls-3" d="M52,93.17a3.77,3.77,0,0,1,.19-1.2,3.43,3.43,0,0,1,.54-1.06,2.84,2.84,0,0,1,.9-.75,2.65,2.65,0,0,1,1.25-.29,2.6,2.6,0,0,1,1,.19,1.79,1.79,0,0,1,.8.61h0V90h2.6V95.7A4,4,0,0,1,59,97.42a2.91,2.91,0,0,1-.9,1.08,3.42,3.42,0,0,1-1.27.57,6.29,6.29,0,0,1-1.44.16,7.4,7.4,0,0,1-1.8-.23A5.34,5.34,0,0,1,52,98.31l1.21-1.84a3.43,3.43,0,0,0,1,.51,3.11,3.11,0,0,0,1,.16,1.79,1.79,0,0,0,.57-.08,1.51,1.51,0,0,0,.48-.22,1.18,1.18,0,0,0,.32-.38A1,1,0,0,0,56.6,96v-.27h0a2.07,2.07,0,0,1-.68.47,2.56,2.56,0,0,1-1,.2,3,3,0,0,1-1.27-.26,2.58,2.58,0,0,1-.9-.69,2.84,2.84,0,0,1-.53-1A4,4,0,0,1,52,93.17Zm2.57,0a1.15,1.15,0,0,0,.26.76,1,1,0,0,0,.77.31,1.07,1.07,0,0,0,.79-.31,1.09,1.09,0,0,0,.29-.76,1.05,1.05,0,0,0-.29-.73,1,1,0,0,0-.79-.31,1,1,0,0,0-.77.31A1.12,1.12,0,0,0,54.55,93.17Z"/><path class="cls-3" d="M60.6,90h2.7v.69h0a2,2,0,0,1,.71-.6,2.28,2.28,0,0,1,1.09-.26,2.23,2.23,0,0,1,1.09.24,2.1,2.1,0,0,1,.7.62,2.24,2.24,0,0,1,.35.84,4.38,4.38,0,0,1,.11.94v3.84H64.59V93a1.21,1.21,0,0,0-.14-.67.61.61,0,0,0-.91,0,1.06,1.06,0,0,0-.17.64v3.36H60.6Z"/><path class="cls-3" d="M71.59,90h2.66v.72h0a1.67,1.67,0,0,1,.6-.64,1.75,1.75,0,0,1,1-.25,1.86,1.86,0,0,1,.52.06l-.21,2.35-.3,0-.29,0a1.16,1.16,0,0,0-.86.31,1,1,0,0,0-.33.77v3.06H71.59Z"/><path class="cls-3" d="M83.3,93.25v.32c0,.11,0,.2,0,.27H79a.56.56,0,0,0,.12.3.79.79,0,0,0,.25.23,1.22,1.22,0,0,0,.33.14,1.36,1.36,0,0,0,1.41-.39l2,1a2.86,2.86,0,0,1-1.22,1.08,4,4,0,0,1-1.85.4,4,4,0,0,1-1.33-.22,3.25,3.25,0,0,1-1.15-.64,3.16,3.16,0,0,1-.8-1.06,3.43,3.43,0,0,1-.3-1.48,3.38,3.38,0,0,1,.28-1.41,3,3,0,0,1,.75-1.06A3.18,3.18,0,0,1,78.61,90,3.83,3.83,0,0,1,80,89.8a3.28,3.28,0,0,1,1.35.26,3,3,0,0,1,1,.72,3.05,3.05,0,0,1,.68,1.09A3.93,3.93,0,0,1,83.3,93.25Zm-2.38-.9a.73.73,0,0,0-.25-.55,1,1,0,0,0-.67-.21,1,1,0,0,0-.71.25.94.94,0,0,0-.28.51Z"/><path class="cls-3" d="M89.43,94.35a2,2,0,0,1-.26,1.06,2.14,2.14,0,0,1-.68.69,2.93,2.93,0,0,1-.91.38,4.36,4.36,0,0,1-.93.11,5.78,5.78,0,0,1-1.6-.23,4.22,4.22,0,0,1-1.36-.67L85,94.12a2.23,2.23,0,0,0,.68.42,1.93,1.93,0,0,0,.75.17.6.6,0,0,0,.27-.06.2.2,0,0,0,.13-.2c0-.1-.08-.18-.23-.24a4.65,4.65,0,0,0-.77-.22,4,4,0,0,1-.61-.21,2.43,2.43,0,0,1-.57-.37,2,2,0,0,1-.43-.56,1.73,1.73,0,0,1-.17-.78,2,2,0,0,1,.27-1,2.2,2.2,0,0,1,.69-.7,3.05,3.05,0,0,1,.9-.4,3.81,3.81,0,0,1,.92-.12,5.19,5.19,0,0,1,1.45.21,5.1,5.1,0,0,1,1.29.6l-1.29,1.55a2.65,2.65,0,0,0-.61-.3,2,2,0,0,0-.62-.11.81.81,0,0,0-.33.06.19.19,0,0,0-.13.21q0,.12.15.18a3.24,3.24,0,0,0,.68.18,3.83,3.83,0,0,1,.73.22,2.85,2.85,0,0,1,.63.38,1.78,1.78,0,0,1,.45.57A1.81,1.81,0,0,1,89.43,94.35Z"/><path class="cls-3" d="M97,93.25c0,.11,0,.21,0,.32a1.87,1.87,0,0,1,0,.27H92.75a.48.48,0,0,0,.11.3.92.92,0,0,0,.25.23,1.16,1.16,0,0,0,.34.14,1.2,1.2,0,0,0,.38,0,1.31,1.31,0,0,0,1-.44l2,1a2.86,2.86,0,0,1-1.22,1.08,4.35,4.35,0,0,1-3.19.18,3.2,3.2,0,0,1-1.14-.64,3,3,0,0,1-.8-1.06,3.43,3.43,0,0,1-.3-1.48,3.55,3.55,0,0,1,.27-1.41A3.21,3.21,0,0,1,92.32,90a3.91,3.91,0,0,1,1.37-.24,3.33,3.33,0,0,1,1.36.26,3,3,0,0,1,1,.72,3.2,3.2,0,0,1,.68,1.09A3.93,3.93,0,0,1,97,93.25Zm-2.39-.9a.7.7,0,0,0-.25-.55,1,1,0,0,0-.66-.21,1,1,0,0,0-.71.25,1,1,0,0,0-.29.51Z"/><path class="cls-3" d="M101.27,92.34a.48.48,0,0,0-.2-.42.84.84,0,0,0-.52-.14,1.66,1.66,0,0,0-.73.16,2.86,2.86,0,0,0-.61.38L97.83,91a4,4,0,0,1,1.37-.85,4.57,4.57,0,0,1,1.63-.3,3.77,3.77,0,0,1,1.49.25,2.29,2.29,0,0,1,.93.7,2.58,2.58,0,0,1,.48,1,5.57,5.57,0,0,1,.14,1.25v3.32h-2.51v-.5h0a1.29,1.29,0,0,1-.69.51,2.42,2.42,0,0,1-.86.16,2.91,2.91,0,0,1-.76-.11,2.05,2.05,0,0,1-.71-.35,1.85,1.85,0,0,1-.52-.62,2,2,0,0,1-.21-1,1.6,1.6,0,0,1,.35-1.07,2.13,2.13,0,0,1,.87-.65,4.17,4.17,0,0,1,1.18-.32,9.26,9.26,0,0,1,1.28-.08Zm0,1.39a2.87,2.87,0,0,0-1,.14.49.49,0,0,0-.38.49.38.38,0,0,0,.06.22.57.57,0,0,0,.16.15.67.67,0,0,0,.21.09l.21,0a.84.84,0,0,0,.64-.25.92.92,0,0,0,.24-.65v-.22Z"/><path class="cls-3" d="M105,90h2.66v.72h0a1.67,1.67,0,0,1,.6-.64,1.75,1.75,0,0,1,1-.25,1.86,1.86,0,0,1,.52.06l-.21,2.35-.3,0-.29,0a1.16,1.16,0,0,0-.86.31,1,1,0,0,0-.33.77v3.06H105Z"/><path class="cls-3" d="M113.57,96.59a4.38,4.38,0,0,1-1.48-.24,3.42,3.42,0,0,1-1.16-.68,3.15,3.15,0,0,1-.77-1.07,3.38,3.38,0,0,1-.28-1.41,3.48,3.48,0,0,1,.28-1.39,3.15,3.15,0,0,1,.79-1.08,3.72,3.72,0,0,1,1.18-.68,4.36,4.36,0,0,1,1.47-.24,4.89,4.89,0,0,1,.66,0,5.81,5.81,0,0,1,.63.15c.21.07.39.14.57.22a2.44,2.44,0,0,1,.43.26l-1.38,2a.88.88,0,0,0-.37-.24,1.29,1.29,0,0,0-.45-.09,1.34,1.34,0,0,0-.4.06,1.08,1.08,0,0,0-.34.21,1.2,1.2,0,0,0-.25.33,1.16,1.16,0,0,0-.09.47,1.11,1.11,0,0,0,.09.46A1,1,0,0,0,113,94a.88.88,0,0,0,.34.19,1.09,1.09,0,0,0,.4.07,1.22,1.22,0,0,0,.46-.09.94.94,0,0,0,.38-.25l1.39,1.94a3.67,3.67,0,0,1-1,.53A4.15,4.15,0,0,1,113.57,96.59Z"/><path class="cls-3" d="M121,89.87a2.27,2.27,0,0,1,1.1.24,2,2,0,0,1,.69.62,2.43,2.43,0,0,1,.36.84,4.36,4.36,0,0,1,.1.94v3.84h-2.77V93a1.12,1.12,0,0,0-.15-.67.53.53,0,0,0-.45-.19.57.57,0,0,0-.43.21,1,1,0,0,0-.19.66v3.35h-2.77V87.28h2.77v3.45h0a2.11,2.11,0,0,1,.68-.6A2.08,2.08,0,0,1,121,89.87Z"/><path class="cls-3" d="M29.44,110.92a2.52,2.52,0,0,1-.93-.18,1.83,1.83,0,0,1-.74-.48h0v3.37H25v-9.19h2.6v.63h0a2.4,2.4,0,0,1,.84-.6,2.63,2.63,0,0,1,2.21.09,2.74,2.74,0,0,1,.9.75,3.68,3.68,0,0,1,.55,1.06,4.06,4.06,0,0,1,.18,1.2,4.19,4.19,0,0,1-.18,1.22,3.67,3.67,0,0,1-.55,1.08,2.84,2.84,0,0,1-.89.76A2.61,2.61,0,0,1,29.44,110.92Zm.3-3.35a1.08,1.08,0,0,0-.27-.73,1,1,0,0,0-.77-.31,1,1,0,0,0-.78.31,1,1,0,0,0-.3.73,1,1,0,0,0,1.08,1.07,1,1,0,0,0,.77-.31A1.1,1.1,0,0,0,29.74,107.57Z"/><path class="cls-3" d="M33.32,104.44H36v.72h0a1.71,1.71,0,0,1,1.55-.89,2,2,0,0,1,.53.06l-.22,2.35-.29-.05-.3,0a1.16,1.16,0,0,0-.86.31,1,1,0,0,0-.33.77v3.06H33.32Z"/><path class="cls-3" d="M45.39,107.57A3.35,3.35,0,0,1,45.1,109a3.32,3.32,0,0,1-.79,1.08,3.45,3.45,0,0,1-1.15.66,4.25,4.25,0,0,1-1.38.23,4.18,4.18,0,0,1-1.36-.23,3.36,3.36,0,0,1-1.15-.66,3.29,3.29,0,0,1-.78-1.08,3.36,3.36,0,0,1-.3-1.45,3.32,3.32,0,0,1,1.08-2.5,3.51,3.51,0,0,1,1.15-.65,4.17,4.17,0,0,1,1.36-.22,4.24,4.24,0,0,1,1.38.22,3.61,3.61,0,0,1,1.15.65,3.22,3.22,0,0,1,1.08,2.5Zm-3.61-1a1,1,0,0,0-.74.31,1.12,1.12,0,0,0,0,1.49,1.05,1.05,0,0,0,1.49,0,1.09,1.09,0,0,0,.29-.76,1,1,0,0,0-.3-.73A1,1,0,0,0,41.78,106.54Z"/><path class="cls-3" d="M49.85,111a4.38,4.38,0,0,1-1.48-.24,3.52,3.52,0,0,1-1.16-.68,3.15,3.15,0,0,1-.77-1.07,3.38,3.38,0,0,1-.28-1.41,3.32,3.32,0,0,1,.29-1.39,3.12,3.12,0,0,1,.78-1.08,3.72,3.72,0,0,1,1.18-.68,4.44,4.44,0,0,1,1.47-.24,4.89,4.89,0,0,1,.66,0,5.81,5.81,0,0,1,.63.15,5.24,5.24,0,0,1,.57.22,2.56,2.56,0,0,1,.44.26l-1.39,2a1,1,0,0,0-.37-.25,1.53,1.53,0,0,0-.45-.08,1.34,1.34,0,0,0-.4.06,1.08,1.08,0,0,0-.34.21,1.2,1.2,0,0,0-.25.33,1.16,1.16,0,0,0-.09.47,1.11,1.11,0,0,0,.09.46,1,1,0,0,0,.25.32.88.88,0,0,0,.34.19,1.09,1.09,0,0,0,.4.07,1.22,1.22,0,0,0,.46-.09.94.94,0,0,0,.38-.25l1.39,1.94a3.54,3.54,0,0,1-1,.53A4.15,4.15,0,0,1,49.85,111Z"/><path class="cls-3" d="M59.31,107.65V108c0,.11,0,.2,0,.27H55a.56.56,0,0,0,.12.3.79.79,0,0,0,.25.23,1.16,1.16,0,0,0,.34.14,1.18,1.18,0,0,0,.37,0,1.24,1.24,0,0,0,.64-.14,1.19,1.19,0,0,0,.4-.3l2,1a2.84,2.84,0,0,1-1.21,1.08,4.1,4.1,0,0,1-1.86.4,4,4,0,0,1-1.33-.22,3.25,3.25,0,0,1-1.15-.64,3.16,3.16,0,0,1-.8-1.06,3.58,3.58,0,0,1-.3-1.48,3.55,3.55,0,0,1,.28-1.41,3,3,0,0,1,.75-1.06,3.27,3.27,0,0,1,1.12-.68A3.83,3.83,0,0,1,56,104.2a3.33,3.33,0,0,1,1.36.26,3.13,3.13,0,0,1,1.73,1.81A4.16,4.16,0,0,1,59.31,107.65Zm-2.38-.9a.73.73,0,0,0-.25-.55A1,1,0,0,0,56,106a.92.92,0,0,0-.7.25.9.9,0,0,0-.29.51Z"/><path class="cls-3" d="M65.45,108.75a1.94,1.94,0,0,1-.27,1.06,2.14,2.14,0,0,1-.68.69,2.93,2.93,0,0,1-.91.38,4.36,4.36,0,0,1-.93.11,5.78,5.78,0,0,1-1.6-.23,4.32,4.32,0,0,1-1.36-.67l1.35-1.57a2.35,2.35,0,0,0,.68.42,1.93,1.93,0,0,0,.75.17.6.6,0,0,0,.27-.06.19.19,0,0,0,.13-.2c0-.1-.08-.18-.22-.24a5.2,5.2,0,0,0-.78-.22,4,4,0,0,1-.61-.21,2.43,2.43,0,0,1-.57-.37,2,2,0,0,1-.43-.56,1.73,1.73,0,0,1-.16-.78,2,2,0,0,1,.27-1,2.17,2.17,0,0,1,.68-.7,3.3,3.3,0,0,1,.9-.4,3.81,3.81,0,0,1,.92-.12,5.14,5.14,0,0,1,1.45.21,5.34,5.34,0,0,1,1.3.6l-1.3,1.55a2.65,2.65,0,0,0-.61-.3,1.92,1.92,0,0,0-.61-.11.83.83,0,0,0-.34.06.19.19,0,0,0-.13.21q0,.12.15.18a3.45,3.45,0,0,0,.68.18,3.83,3.83,0,0,1,.73.22,2.85,2.85,0,0,1,.63.38,1.78,1.78,0,0,1,.45.57A1.81,1.81,0,0,1,65.45,108.75Z"/><path class="cls-3" d="M71.6,108.75a1.94,1.94,0,0,1-.27,1.06,2,2,0,0,1-.68.69,2.78,2.78,0,0,1-.9.38,4.52,4.52,0,0,1-.93.11,5.73,5.73,0,0,1-1.6-.23,4.38,4.38,0,0,1-1.37-.67l1.36-1.57a2.23,2.23,0,0,0,.68.42,1.93,1.93,0,0,0,.75.17.66.66,0,0,0,.27-.06.19.19,0,0,0,.12-.2c0-.1-.07-.18-.22-.24a5,5,0,0,0-.77-.22,3.67,3.67,0,0,1-.61-.21,2.43,2.43,0,0,1-.57-.37,1.72,1.72,0,0,1-.6-1.34,2,2,0,0,1,.27-1,2.2,2.2,0,0,1,.69-.7,3.05,3.05,0,0,1,.9-.4,3.8,3.8,0,0,1,.91-.12,5.21,5.21,0,0,1,1.46.21,5.1,5.1,0,0,1,1.29.6l-1.29,1.55a2.87,2.87,0,0,0-.61-.3,2,2,0,0,0-.62-.11.78.78,0,0,0-.33.06.2.2,0,0,0-.14.21q0,.12.15.18a3.41,3.41,0,0,0,.69.18,3.53,3.53,0,0,1,.72.22,2.71,2.71,0,0,1,.64.38,2.1,2.1,0,0,1,.45.57A1.81,1.81,0,0,1,71.6,108.75Z"/><g id="Group_142323" data-name="Group 142323"><g id="Group_142322" data-name="Group 142322"><path id="Path_27107" data-name="Path 27107" class="cls-2" d="M71.29,167.82c-13.72-6.08-20.37,7.07-20.37,7.07H71.29Z"/><g id="Rectangle_41949" data-name="Rectangle 41949"><rect class="cls-4" x="50.91" y="154.47" width="20.42" height="20.35"/><rect class="cls-5" x="51.66" y="155.23" width="18.9" height="18.84"/></g></g></g><g id="Group_142324" data-name="Group 142324"><g id="Group_142322-2" data-name="Group 142322-2"><g id="Rectangle_41949-2" data-name="Rectangle 41949-2"><rect class="cls-5" x="25.72" y="155.26" width="18.9" height="18.84"/></g></g></g><g id="Group_142324-2" data-name="Group 142324"><g id="Group_142322-2-2" data-name="Group 142322-2"><g id="Rectangle_41949-2-2" data-name="Rectangle 41949-2"><rect class="cls-5" x="77.61" y="155.26" width="18.9" height="18.84"/></g></g></g><g id="Group_142324-3" data-name="Group 142324"><g id="Group_142322-2-3" data-name="Group 142322-2"><g id="Rectangle_41949-2-3" data-name="Rectangle 41949-2"><rect class="cls-5" x="103.56" y="155.26" width="18.9" height="18.84"/></g></g></g><g id="Group_142324-4" data-name="Group 142324"><g id="Group_142322-2-4" data-name="Group 142322-2"><g id="Rectangle_41949-2-4" data-name="Rectangle 41949-2"><rect class="cls-5" x="129.51" y="155.26" width="18.9" height="18.84"/></g></g></g><g id="Group_142324-5" data-name="Group 142324"><g id="Group_142322-2-5" data-name="Group 142322-2"><g id="Rectangle_41949-2-5" data-name="Rectangle 41949-2"><rect class="cls-6" x="155.46" y="155.26" width="18.9" height="18.84"/></g></g></g><path id="Path_27108" data-name="Path 27108" class="cls-2" d="M76.84,164.47c4.67-4.42,8.12-2.89,12.54-.45a6.86,6.86,0,0,0,7.91-.92v11.79H76.84Z"/><path id="Path_41" data-name="Path 41" class="cls-2" d="M122.72,155s-3.45,5.41-8.46,6.58-11-1.35-11-1.35v14.12h19.42Z"/><path id="Path_27109" data-name="Path 27109" class="cls-2" d="M148.26,155.26a16.45,16.45,0,0,1-7.21,6.08,14.75,14.75,0,0,1-6.69.26,20.64,20.64,0,0,1-4.69-1.35v-5Z"/></svg>