<svg id="Layer_1" data-name="Layer 1" xmlns="http://www.w3.org/2000/svg" viewBox="0 0 544 922"><defs><style>.cls-1{fill:#cfc7c6;}.cls-2{fill:#5d6266;}.cls-3{fill:#e3deda;}.cls-4{fill:#a7abaf;}.cls-5,.cls-6{fill:none;}.cls-6{stroke:#fff;stroke-width:10px;}</style></defs><title>research</title><path id="Path_35031" data-name="Path 35031" class="cls-1" d="M-.29-1H545V923H-.29Z"/><path id="Path_42" data-name="Path 42" class="cls-2" d="M472.54,265.42c-40.68,58.72-94.18,107.49-153.19,130.21-50.26,15.27-100.56,12.65-142.2,5.58-58.82-10-99.82-29-99.82-29V265.42Z"/><path id="Path_41" data-name="Path 41" class="cls-3" d="M470.84,264.69S400.71,374.58,298.92,398.37,76.5,371,76.5,371V657.57H470.84Z"/><path id="Path_39" data-name="Path 39" class="cls-1" d="M79,456.54c89.51-84.65,155.51-55.27,240.32-8.64s151.49-17.52,151.49-17.52V656.2H79Z"/><path id="Path_38" data-name="Path 38" class="cls-4" d="M469.4,540.92C206.89,441.45,79.53,656.57,79.53,656.57H469.4Z"/><g id="Rectangle_1" data-name="Rectangle 1"><rect class="cls-5" x="76.54" y="263" width="396" height="396"/><rect class="cls-6" x="78.04" y="264.49" width="393.01" height="393.01"/></g></svg>