<svg id="Layer_1" data-name="Layer 1" xmlns="http://www.w3.org/2000/svg" viewBox="0 0 544 922"><defs><style>.cls-1{fill:#e3deda;}.cls-2{fill:#fff;}.cls-3{fill:#5d6266;}.cls-4{fill:#a7abaf;}.cls-5{fill:#cfc7c6;}</style></defs><title>segments</title><path id="Path_35031" data-name="Path 35031" class="cls-1" d="M-1.29-2H544V922H-1.29Z"/><g id="Group_137584" data-name="Group 137584"><g id="Group_137582" data-name="Group 137582"><path id="Subtraction_84" data-name="Subtraction 84" class="cls-2" d="M271.35,636.59a175.34,175.34,0,1,1,68.34-13.8A174.77,174.77,0,0,1,271.35,636.59Zm0-327.75a152.13,152.13,0,1,0,59.23,12h0A151.17,151.17,0,0,0,271.35,308.84Z"/><path id="Subtraction_85" data-name="Subtraction 85" class="cls-2" d="M271.35,607.32a146.25,146.25,0,1,1,57-11.49A146.35,146.35,0,0,1,271.35,607.32Zm0-269.21a122.86,122.86,0,1,0,47.85,9.65A122.94,122.94,0,0,0,271.35,338.11Z"/><path id="Subtraction_86" data-name="Subtraction 86" class="cls-2" d="M271.35,578.06a117,117,0,1,1,45.57-9.2h0A116.36,116.36,0,0,1,271.35,578.06Zm0-210.69a93.41,93.41,0,1,0,36.45,7.36A93.66,93.66,0,0,0,271.35,367.37Z"/><path id="Subtraction_87" data-name="Subtraction 87" class="cls-2" d="M271.35,548.8a87.42,87.42,0,1,1,34.17-6.9A87.82,87.82,0,0,1,271.35,548.8Zm0-152.17a64.19,64.19,0,1,0,25.06,5.06A64.18,64.18,0,0,0,271.35,396.63Z"/></g><g id="Group_137583" data-name="Group 137583"><path id="Subtraction_91" data-name="Subtraction 91" class="cls-3" d="M399.65,379.13h0a153.07,153.07,0,0,0-69.06-58.33,151.26,151.26,0,0,0-59.24-12V285.43a175.54,175.54,0,0,1,145.59,77.41c.82,1.21,1.64,2.46,2.43,3.7l-19.72,12.58Z"/><path id="Subtraction_90" data-name="Subtraction 90" class="cls-4" d="M362,575.89h0l-14.5-18.38a122.88,122.88,0,0,0-76.14-219.4V314.7A146.27,146.27,0,0,1,374.82,564.47,149.15,149.15,0,0,1,362,575.88Z"/><path id="Subtraction_89" data-name="Subtraction 89" class="cls-5" d="M386.73,480.91h0l-23.07-4A95.47,95.47,0,0,0,365,461a93.56,93.56,0,0,0-93.49-93.64h-.16V344A117,117,0,0,1,388.41,460.82V461A118.44,118.44,0,0,1,386.73,480.91Z"/><path id="Subtraction_88" data-name="Subtraction 88" class="cls-4" d="M271.35,548.8a87.23,87.23,0,0,1-34.17-6.9l-.86-.37,9.34-21.47.63.27a64.4,64.4,0,1,0,25.06-123.7V373.22a87.79,87.79,0,0,1,0,175.58Z"/></g></g></svg>