<svg id="Layer_1" data-name="Layer 1" xmlns="http://www.w3.org/2000/svg" viewBox="0 0 200 200"><defs><style>.cls-1{stroke:#231f20;stroke-miterlimit:10;}.cls-2{fill:#fff;}.cls-3{fill:#f04e68;}.cls-4{opacity:0.4;}</style></defs><title>segment-art</title><rect class="cls-1" width="200" height="200"/><path class="cls-2" d="M28.19,87.64h3l3.32,8.49H31.43L31,94.89h-2.7l-.42,1.24h-3Zm1.47,3L29,92.7h1.38Z"/><path class="cls-2" d="M39.42,96.3a2.67,2.67,0,0,1-.92-.17,1.92,1.92,0,0,1-.75-.49h0V99H35V89.82h2.6v.64h0a2.1,2.1,0,0,1,.84-.6,2.41,2.41,0,0,1,1-.21,2.68,2.68,0,0,1,1.25.29,2.73,2.73,0,0,1,.89.76,3.29,3.29,0,0,1,.55,1,4.17,4.17,0,0,1,.19,1.2,4.27,4.27,0,0,1-.19,1.23,3.29,3.29,0,0,1-.55,1.07,2.53,2.53,0,0,1-.89.76A2.5,2.5,0,0,1,39.42,96.3Zm.3-3.35a1.12,1.12,0,0,0-.26-.73,1,1,0,0,0-.77-.31,1,1,0,0,0-.79.31,1.05,1.05,0,0,0-.29.73,1.09,1.09,0,0,0,.29.76,1,1,0,0,0,.79.31,1,1,0,0,0,.77-.3A1.18,1.18,0,0,0,39.72,93Z"/><path class="cls-2" d="M47.75,96.3a2.73,2.73,0,0,1-.93-.17,2,2,0,0,1-.74-.49h0V99H43.31V89.82h2.6v.64h0a2.24,2.24,0,0,1,.84-.6,2.45,2.45,0,0,1,1-.21,2.62,2.62,0,0,1,1.25.29,2.77,2.77,0,0,1,.9.76,3.51,3.51,0,0,1,.55,1,4.16,4.16,0,0,1,.18,1.2,4.26,4.26,0,0,1-.18,1.23,3.5,3.5,0,0,1-.55,1.07A2.71,2.71,0,0,1,49,96,2.5,2.5,0,0,1,47.75,96.3Zm.3-3.35a1.08,1.08,0,0,0-.27-.73.93.93,0,0,0-.77-.31,1,1,0,0,0-.78.31,1,1,0,0,0-.3.73,1.06,1.06,0,0,0,.3.76A1,1,0,0,0,47,94a1,1,0,0,0,.77-.3A1.13,1.13,0,0,0,48.05,93Z"/><path class="cls-2" d="M51.63,89.82H54.3v.72h0a1.67,1.67,0,0,1,.61-.63,1.72,1.72,0,0,1,.94-.26,1.93,1.93,0,0,1,.53.06l-.22,2.36a1.24,1.24,0,0,0-.29-.06l-.3,0a1.2,1.2,0,0,0-.86.32,1,1,0,0,0-.32.76v3.06H51.63Z"/><path class="cls-2" d="M63.71,93a3.4,3.4,0,0,1-.3,1.46,3.14,3.14,0,0,1-.79,1.07,3.55,3.55,0,0,1-1.15.67,4.38,4.38,0,0,1-2.74,0,3.61,3.61,0,0,1-1.14-.67,3.28,3.28,0,0,1-.79-1.07A3.4,3.4,0,0,1,56.51,93a3.29,3.29,0,0,1,.29-1.43,3.24,3.24,0,0,1,.79-1.06,3.41,3.41,0,0,1,1.14-.66,4.38,4.38,0,0,1,2.74,0,3.36,3.36,0,0,1,1.15.66,3.1,3.1,0,0,1,.79,1.06A3.3,3.3,0,0,1,63.71,93Zm-3.62-1a1,1,0,0,0-.73.31,1.13,1.13,0,0,0,0,1.49,1.05,1.05,0,0,0,1.49,0,1.08,1.08,0,0,0,.29-.75,1,1,0,0,0-.3-.74A1,1,0,0,0,60.09,91.92Z"/><path class="cls-2" d="M68.08,92.13a.49.49,0,0,0-.2-.43.92.92,0,0,0-.53-.14,1.8,1.8,0,0,0-.72.16,3.32,3.32,0,0,0-.61.38l-1.38-1.37A4.17,4.17,0,0,1,66,89.88a4.57,4.57,0,0,1,1.63-.3,4,4,0,0,1,1.49.25,2.29,2.29,0,0,1,.93.7,2.64,2.64,0,0,1,.48,1,5.57,5.57,0,0,1,.14,1.25v3.32H68.17v-.5h0a1.36,1.36,0,0,1-.69.52,2.64,2.64,0,0,1-.86.15,2.54,2.54,0,0,1-.76-.11,2,2,0,0,1-.71-.34,1.8,1.8,0,0,1-.52-.63,1.94,1.94,0,0,1-.21-1,1.62,1.62,0,0,1,.35-1.07,2.22,2.22,0,0,1,.87-.65,4.53,4.53,0,0,1,1.18-.32,11.13,11.13,0,0,1,1.28-.08Zm0,1.39a2.9,2.9,0,0,0-1,.13.5.5,0,0,0-.38.49.38.38,0,0,0,.06.22.46.46,0,0,0,.16.15.67.67,0,0,0,.21.09.87.87,0,0,0,.84-.22.9.9,0,0,0,.24-.65v-.21Z"/><path class="cls-2" d="M75.25,96.37a4.38,4.38,0,0,1-1.48-.24,3.45,3.45,0,0,1-1.16-.68,3.19,3.19,0,0,1-.77-1.07,3.46,3.46,0,0,1-.27-1.4,3.37,3.37,0,0,1,.28-1.4,3.12,3.12,0,0,1,.78-1.07,3.51,3.51,0,0,1,1.19-.69,4.36,4.36,0,0,1,1.47-.24,3.66,3.66,0,0,1,.65.06,3.5,3.5,0,0,1,.64.15,4.08,4.08,0,0,1,.56.21,2.06,2.06,0,0,1,.44.27l-1.38,2a.94.94,0,0,0-.38-.25,1.24,1.24,0,0,0-.45-.09A1.09,1.09,0,0,0,75,92a1,1,0,0,0-.34.2,1,1,0,0,0-.24.34,1.11,1.11,0,0,0,0,.92,1,1,0,0,0,.24.33A1.41,1.41,0,0,0,75,94a1.34,1.34,0,0,0,.4.06,1.27,1.27,0,0,0,.47-.09,1.08,1.08,0,0,0,.37-.24l1.39,1.93a3.25,3.25,0,0,1-1,.53A4.21,4.21,0,0,1,75.25,96.37Z"/><path class="cls-2" d="M82.65,89.65a2.23,2.23,0,0,1,1.09.24,1.93,1.93,0,0,1,.7.62,2.48,2.48,0,0,1,.36.85,4.9,4.9,0,0,1,.1.93v3.84H82.13V92.77A1.12,1.12,0,0,0,82,92.1a.53.53,0,0,0-.45-.19.59.59,0,0,0-.44.21,1,1,0,0,0-.19.67v3.34H78.13V87.06H80.9v3.46h0a2.06,2.06,0,0,1,1.72-.87Z"/><path class="cls-2" d="M89.47,92.13a.49.49,0,0,0-.2-.43.89.89,0,0,0-.52-.14,1.81,1.81,0,0,0-.73.16,3.23,3.23,0,0,0-.6.38L86,90.73a4.07,4.07,0,0,1,1.37-.85,4.53,4.53,0,0,1,1.63-.3,4,4,0,0,1,1.49.25,2.29,2.29,0,0,1,.93.7,3,3,0,0,1,.48,1,5.57,5.57,0,0,1,.13,1.25v3.32h-2.5v-.5h0a1.37,1.37,0,0,1-.68.52,2.75,2.75,0,0,1-.87.15,2.59,2.59,0,0,1-.76-.11,2.12,2.12,0,0,1-.71-.34,1.91,1.91,0,0,1-.52-.63,2.06,2.06,0,0,1-.2-1,1.62,1.62,0,0,1,.34-1.07,2.37,2.37,0,0,1,.87-.65,4.64,4.64,0,0,1,1.18-.32,11.28,11.28,0,0,1,1.28-.08Zm0,1.39a3,3,0,0,0-1,.13.49.49,0,0,0-.37.49.38.38,0,0,0,.06.22.54.54,0,0,0,.15.15,1,1,0,0,0,.21.09l.21,0a.83.83,0,0,0,.64-.25.9.9,0,0,0,.24-.65v-.21Z"/><path class="cls-2" d="M100.52,93a4.26,4.26,0,0,1-.18,1.23,3.5,3.5,0,0,1-.55,1.07,2.65,2.65,0,0,1-.9.76,2.5,2.5,0,0,1-1.24.29,2.78,2.78,0,0,1-1.11-.22,1.83,1.83,0,0,1-.81-.61h0v.66h-2.5V87.06H96v3.27h0a1.67,1.67,0,0,1,.73-.5,2.46,2.46,0,0,1,.91-.18,2.58,2.58,0,0,1,1.24.29,2.77,2.77,0,0,1,.9.76,3.51,3.51,0,0,1,.55,1A4.16,4.16,0,0,1,100.52,93ZM98,93a1.07,1.07,0,0,0-.26-.73,1,1,0,0,0-.77-.31,1,1,0,0,0-.78.31,1,1,0,0,0-.3.73,1.06,1.06,0,0,0,.3.76,1,1,0,0,0,.78.31,1,1,0,0,0,.77-.3A1.12,1.12,0,0,0,98,93Z"/><path class="cls-2" d="M101.54,87.06h2.83v9.07h-2.83Z"/><path class="cls-2" d="M112.23,93v.32c0,.1,0,.19,0,.27H108a.56.56,0,0,0,.12.3.9.9,0,0,0,.25.22,1,1,0,0,0,.33.15,1.65,1.65,0,0,0,.38,0,1.35,1.35,0,0,0,.64-.14,1.07,1.07,0,0,0,.39-.31l2,1A2.94,2.94,0,0,1,110.82,96a4.16,4.16,0,0,1-1.85.39,4.25,4.25,0,0,1-1.33-.21,3.59,3.59,0,0,1-1.15-.64,3.2,3.2,0,0,1-.8-1.07,3.38,3.38,0,0,1-.3-1.47,3.55,3.55,0,0,1,.28-1.41,3,3,0,0,1,.75-1.07,3.43,3.43,0,0,1,1.12-.68,3.83,3.83,0,0,1,1.37-.24,3.51,3.51,0,0,1,1.36.26,3.17,3.17,0,0,1,1,.72,3.22,3.22,0,0,1,.67,1.1A3.85,3.85,0,0,1,112.23,93Zm-2.38-.9a.7.7,0,0,0-.25-.55,1,1,0,0,0-.67-.22.92.92,0,0,0-.7.25.89.89,0,0,0-.29.52Z"/><path class="cls-2" d="M116.17,88a1.46,1.46,0,0,1,.11-.55,1.42,1.42,0,0,1,.32-.45,1.54,1.54,0,0,1,1-.42,1.25,1.25,0,0,1,.54.12,1.37,1.37,0,0,1,.45.3,1.39,1.39,0,0,1,.31.45A1.3,1.3,0,0,1,119,88a1.34,1.34,0,0,1-.12.56,1.25,1.25,0,0,1-.31.44,1.51,1.51,0,0,1-.45.29,1.24,1.24,0,0,1-.54.11,1.3,1.3,0,0,1-.56-.11,1.44,1.44,0,0,1-.46-.29,1.28,1.28,0,0,1-.32-.44A1.51,1.51,0,0,1,116.17,88Zm0,1.82H119v6.31h-2.77Z"/><path class="cls-2" d="M120.27,89.82H123v.7h0a2,2,0,0,1,.71-.61,2.24,2.24,0,0,1,1.08-.26,2.27,2.27,0,0,1,1.1.24,2,2,0,0,1,.69.62,2.48,2.48,0,0,1,.36.85,4.2,4.2,0,0,1,.1.93v3.84h-2.77V92.77a1.12,1.12,0,0,0-.15-.67.53.53,0,0,0-.45-.19.55.55,0,0,0-.45.22,1,1,0,0,0-.17.64v3.36h-2.78Z"/><path class="cls-2" d="M128.26,87.06h2.84v9.07h-2.84Z"/><path class="cls-2" d="M132.33,88a1.3,1.3,0,0,1,.12-.55,1.39,1.39,0,0,1,.31-.45,1.31,1.31,0,0,1,.46-.3,1.35,1.35,0,0,1,.57-.12,1.25,1.25,0,0,1,.54.12,1.61,1.61,0,0,1,.45.3,1.57,1.57,0,0,1,.31.45,1.46,1.46,0,0,1,.11.55,1.51,1.51,0,0,1-.11.56,1.4,1.4,0,0,1-.31.44,1.82,1.82,0,0,1-.45.29,1.24,1.24,0,0,1-.54.11,1.35,1.35,0,0,1-.57-.11,1.44,1.44,0,0,1-.46-.29,1.25,1.25,0,0,1-.31-.44A1.34,1.34,0,0,1,132.33,88Zm0,1.82h2.77v6.31h-2.77Z"/><path class="cls-2" d="M136.44,89.82h2.7v.7h0a2.06,2.06,0,0,1,.71-.61,2.28,2.28,0,0,1,1.09-.26,2.25,2.25,0,0,1,1.09.24,2,2,0,0,1,.69.62,2.15,2.15,0,0,1,.36.85,4.22,4.22,0,0,1,.11.93v3.84h-2.78V92.77a1.12,1.12,0,0,0-.15-.67.53.53,0,0,0-.45-.19.55.55,0,0,0-.45.22,1.06,1.06,0,0,0-.17.64v3.36h-2.77Z"/><path class="cls-2" d="M151,93c0,.1,0,.21,0,.32a2.13,2.13,0,0,1,0,.27h-4.24a.48.48,0,0,0,.11.3,1.07,1.07,0,0,0,.25.22,1,1,0,0,0,.34.15,1.58,1.58,0,0,0,.38,0,1.41,1.41,0,0,0,.64-.14,1.27,1.27,0,0,0,.39-.31l2,1A3.06,3.06,0,0,1,149.61,96a4.18,4.18,0,0,1-1.86.39,4.3,4.3,0,0,1-1.33-.21,3.54,3.54,0,0,1-1.14-.64,3.07,3.07,0,0,1-.8-1.07,3.38,3.38,0,0,1-.3-1.47,3.55,3.55,0,0,1,.27-1.41,3.32,3.32,0,0,1,.75-1.07,3.43,3.43,0,0,1,1.12-.68,3.91,3.91,0,0,1,1.37-.24,3.51,3.51,0,0,1,1.36.26,3,3,0,0,1,1,.72,3.24,3.24,0,0,1,.68,1.1A3.85,3.85,0,0,1,151,93Zm-2.39-.9a.67.67,0,0,0-.25-.55.92.92,0,0,0-.66-.22,1,1,0,0,0-1,.77Z"/><path class="cls-2" d="M30.83,108.53a2,2,0,0,1-.27,1.07,2.14,2.14,0,0,1-.68.69,3.22,3.22,0,0,1-.9.37,3.94,3.94,0,0,1-.94.11,5.43,5.43,0,0,1-1.6-.23,4.32,4.32,0,0,1-1.36-.67l1.35-1.57a2.38,2.38,0,0,0,.68.43,1.91,1.91,0,0,0,.75.16.76.76,0,0,0,.27,0,.2.2,0,0,0,.13-.2c0-.11-.08-.19-.22-.25a6.81,6.81,0,0,0-.78-.22,4,4,0,0,1-.61-.21,1.93,1.93,0,0,1-.57-.37,1.79,1.79,0,0,1-.42-.55,1.64,1.64,0,0,1-.17-.79,1.89,1.89,0,0,1,.27-1,2.31,2.31,0,0,1,.68-.71,3,3,0,0,1,.9-.39,3.46,3.46,0,0,1,.92-.13,4.81,4.81,0,0,1,1.45.22,4.69,4.69,0,0,1,1.3.6l-1.3,1.55a2.65,2.65,0,0,0-.61-.3,1.68,1.68,0,0,0-.61-.11,1.06,1.06,0,0,0-.34,0,.21.21,0,0,0-.13.21c0,.08.05.14.15.19a4.72,4.72,0,0,0,.69.17,4,4,0,0,1,.72.22,2.55,2.55,0,0,1,.63.39,1.59,1.59,0,0,1,.45.57A1.77,1.77,0,0,1,30.83,108.53Z"/><path class="cls-2" d="M38.41,107.44c0,.1,0,.21,0,.32s0,.19,0,.27H34.14a.55.55,0,0,0,.11.3,1.07,1.07,0,0,0,.25.22,1,1,0,0,0,.34.15,1.58,1.58,0,0,0,.38,0,1.38,1.38,0,0,0,.64-.14,1.27,1.27,0,0,0,.39-.31l2,1A3,3,0,0,1,37,110.38a4.16,4.16,0,0,1-1.85.39,4.36,4.36,0,0,1-1.34-.21,3.54,3.54,0,0,1-1.14-.64,3.2,3.2,0,0,1-.8-1.07,3.72,3.72,0,0,1,0-2.88,3,3,0,0,1,.75-1.07,3.39,3.39,0,0,1,1.11-.68,3.93,3.93,0,0,1,1.38-.24,3.46,3.46,0,0,1,1.35.26,3,3,0,0,1,1.05.72,3.09,3.09,0,0,1,.68,1.1A3.85,3.85,0,0,1,38.41,107.44Zm-2.39-.9a.69.69,0,0,0-.24-.55,1.13,1.13,0,0,0-1.38,0,.87.87,0,0,0-.28.52Z"/><path class="cls-2" d="M39.13,107.35a3.86,3.86,0,0,1,.19-1.2,3.27,3.27,0,0,1,.54-1.05,2.77,2.77,0,0,1,.9-.76,2.65,2.65,0,0,1,1.25-.29,2.61,2.61,0,0,1,1,.2,1.72,1.72,0,0,1,.8.61h0v-.64h2.61v5.67a3.78,3.78,0,0,1-.34,1.71,2.83,2.83,0,0,1-.89,1.09,3.4,3.4,0,0,1-1.27.56,6.29,6.29,0,0,1-1.44.16,7,7,0,0,1-1.8-.23,5.23,5.23,0,0,1-1.57-.69l1.21-1.84a3,3,0,0,0,1,.51,3.14,3.14,0,0,0,1,.17,2.12,2.12,0,0,0,.57-.08,1.53,1.53,0,0,0,.48-.23,1.14,1.14,0,0,0,.32-.37,1.07,1.07,0,0,0,.12-.51v-.28h0a1.88,1.88,0,0,1-.67.47,2.43,2.43,0,0,1-1,.2,2.94,2.94,0,0,1-1.27-.25,2.73,2.73,0,0,1-.9-.7,3,3,0,0,1-.54-1A4.44,4.44,0,0,1,39.13,107.35Zm2.57,0a1.18,1.18,0,0,0,.26.77,1,1,0,0,0,.77.3,1,1,0,0,0,.79-.31,1.09,1.09,0,0,0,.29-.76,1.05,1.05,0,0,0-.29-.73,1,1,0,0,0-.79-.31,1,1,0,0,0-.77.31A1.12,1.12,0,0,0,41.7,107.35Z"/><path class="cls-2" d="M51.61,110.53v-3.31a1.47,1.47,0,0,0-.12-.69.41.41,0,0,0-.4-.22.52.52,0,0,0-.38.19,1,1,0,0,0-.19.69v3.34H47.75v-6.31h2.7v.7h0a2.09,2.09,0,0,1,.29-.31,2.33,2.33,0,0,1,.4-.27,1.88,1.88,0,0,1,.5-.21,2.23,2.23,0,0,1,.6-.08,2.45,2.45,0,0,1,1.08.23,1.6,1.6,0,0,1,.72.69,2.56,2.56,0,0,1,.77-.65,2.2,2.2,0,0,1,1.15-.27,2.07,2.07,0,0,1,1.11.27,2,2,0,0,1,.69.66,2.44,2.44,0,0,1,.37.86,4.45,4.45,0,0,1,.1.85v3.84H55.48v-3.36a1.34,1.34,0,0,0-.13-.69.48.48,0,0,0-.39-.17.49.49,0,0,0-.41.22,1.11,1.11,0,0,0-.17.66v3.34Z"/><path class="cls-2" d="M66.05,107.44c0,.1,0,.21,0,.32a2.13,2.13,0,0,1,0,.27H61.78a.48.48,0,0,0,.11.3,1.07,1.07,0,0,0,.25.22,1,1,0,0,0,.34.15,1.58,1.58,0,0,0,.38,0,1.38,1.38,0,0,0,.64-.14,1.27,1.27,0,0,0,.39-.31l2,1a3,3,0,0,1-1.22,1.08,4.18,4.18,0,0,1-1.86.39,4.3,4.3,0,0,1-1.33-.21,3.54,3.54,0,0,1-1.14-.64,3.07,3.07,0,0,1-.8-1.07,3.38,3.38,0,0,1-.3-1.47,3.55,3.55,0,0,1,.27-1.41,3.32,3.32,0,0,1,.75-1.07,3.43,3.43,0,0,1,1.12-.68,3.91,3.91,0,0,1,1.37-.24,3.51,3.51,0,0,1,1.36.26,3,3,0,0,1,1,.72,3.24,3.24,0,0,1,.68,1.1A3.85,3.85,0,0,1,66.05,107.44Zm-2.39-.9a.67.67,0,0,0-.25-.55.92.92,0,0,0-.66-.22,1,1,0,0,0-1,.77Z"/><path class="cls-2" d="M67,104.22h2.7v.7h0a2.06,2.06,0,0,1,.71-.61,2.28,2.28,0,0,1,1.09-.26,2.23,2.23,0,0,1,1.09.24,2.1,2.1,0,0,1,.7.62,2.28,2.28,0,0,1,.35.85,4.22,4.22,0,0,1,.11.93v3.84H71v-3.36a1.21,1.21,0,0,0-.14-.67.61.61,0,0,0-.91,0,1.06,1.06,0,0,0-.17.64v3.36H67Z"/><path class="cls-2" d="M77.76,110.7a2.81,2.81,0,0,1-1.89-.54,2.2,2.2,0,0,1-.61-1.7V106.2h-.89v-2h.88v-1.41h2.69v1.41h1.37v2H77.94v1.68a.74.74,0,0,0,.2.62.81.81,0,0,0,.54.16l.28,0,.23,0v1.9a2.85,2.85,0,0,1-.61.15A5.36,5.36,0,0,1,77.76,110.7Z"/><path class="cls-2" d="M83.41,106.53a.49.49,0,0,0-.2-.43.89.89,0,0,0-.52-.14,1.81,1.81,0,0,0-.73.16,3.23,3.23,0,0,0-.6.38L80,105.13a4.07,4.07,0,0,1,1.37-.85A4.57,4.57,0,0,1,83,104a4,4,0,0,1,1.49.25,2.29,2.29,0,0,1,.93.7,2.79,2.79,0,0,1,.48,1,5.57,5.57,0,0,1,.13,1.25v3.32h-2.5V110h0a1.37,1.37,0,0,1-.68.52,2.75,2.75,0,0,1-.87.15,2.59,2.59,0,0,1-.76-.11,2.12,2.12,0,0,1-.71-.34,1.91,1.91,0,0,1-.52-.63,2.06,2.06,0,0,1-.2-1,1.62,1.62,0,0,1,.34-1.07A2.37,2.37,0,0,1,81,107a4.64,4.64,0,0,1,1.18-.32,11.42,11.42,0,0,1,1.28-.08Zm0,1.39a3,3,0,0,0-1,.13.49.49,0,0,0-.37.49.38.38,0,0,0,.06.22.54.54,0,0,0,.15.15,1,1,0,0,0,.21.09l.21,0a.83.83,0,0,0,.64-.25.9.9,0,0,0,.24-.65v-.21Z"/><path class="cls-2" d="M89.78,110.7a2.78,2.78,0,0,1-1.88-.54,2.17,2.17,0,0,1-.61-1.7V106.2H86.4v-2h.87v-1.41H90v1.41h1.37v2H90v1.68a.78.78,0,0,0,.2.62.82.82,0,0,0,.55.16l.27,0,.23,0v1.9a2.7,2.7,0,0,1-.61.15A5.36,5.36,0,0,1,89.78,110.7Z"/><path class="cls-2" d="M92.05,102.4a1.46,1.46,0,0,1,.11-.55,1.42,1.42,0,0,1,.32-.45,1.54,1.54,0,0,1,1-.42,1.25,1.25,0,0,1,.54.12,1.37,1.37,0,0,1,.45.3,1.39,1.39,0,0,1,.31.45,1.3,1.3,0,0,1,.12.55,1.34,1.34,0,0,1-.12.56,1.25,1.25,0,0,1-.31.44,1.51,1.51,0,0,1-.45.29,1.24,1.24,0,0,1-.54.11,1.3,1.3,0,0,1-.56-.11,1.44,1.44,0,0,1-.46-.29,1.28,1.28,0,0,1-.32-.44A1.51,1.51,0,0,1,92.05,102.4Zm0,1.82h2.77v6.31H92.1Z"/><path class="cls-2" d="M103.1,107.35a3.56,3.56,0,0,1-.29,1.46,3.28,3.28,0,0,1-.79,1.07,3.71,3.71,0,0,1-1.16.67,4.34,4.34,0,0,1-2.73,0,3.55,3.55,0,0,1-1.15-.67,3.12,3.12,0,0,1-.78-1.07,3.4,3.4,0,0,1-.3-1.46,3.3,3.3,0,0,1,.3-1.43,3.08,3.08,0,0,1,.78-1.06,3.36,3.36,0,0,1,1.15-.66,4.34,4.34,0,0,1,2.73,0,3.5,3.5,0,0,1,1.16.66,3.24,3.24,0,0,1,.79,1.06A3.45,3.45,0,0,1,103.1,107.35Zm-3.61-1a1,1,0,0,0-.74.31,1.07,1.07,0,0,0-.28.74,1.08,1.08,0,0,0,.29.75,1,1,0,0,0,.74.31,1,1,0,0,0,.75-.31,1.08,1.08,0,0,0,.28-.75,1,1,0,0,0-1-1.05Z"/><path class="cls-2" d="M104.12,104.22h2.7v.7h0a2,2,0,0,1,.71-.61,2.21,2.21,0,0,1,1.08-.26,2.29,2.29,0,0,1,1.1.24,2,2,0,0,1,.69.62,2.48,2.48,0,0,1,.36.85,4.2,4.2,0,0,1,.1.93v3.84h-2.77v-3.36a1.12,1.12,0,0,0-.15-.67.6.6,0,0,0-.9,0,1,1,0,0,0-.18.64v3.36h-2.77Z"/><polygon class="cls-3" points="24.36 24.43 24.36 39.06 24.45 39.06 30.37 24.43 24.36 24.43"/><polygon class="cls-3" points="34.98 24.43 41.09 39.06 41.09 24.43 34.98 24.43"/><polygon class="cls-3" points="32.72 29.61 30.02 36.21 33.03 36.21 34.26 39.06 36.79 39.06 32.72 29.61"/><path class="cls-3" d="M170.13,27.74a1.57,1.57,0,0,1-.55-.62,1.86,1.86,0,0,1-.18-.79,2.07,2.07,0,0,1,.15-.8,1.85,1.85,0,0,1,.42-.61,2,2,0,0,1,.62-.39,2.21,2.21,0,0,1,.78-.14,2.15,2.15,0,0,1,.77.14,2.23,2.23,0,0,1,.63.39,2,2,0,0,1,.41.61,2.07,2.07,0,0,1,.15.8,1.86,1.86,0,0,1-.18.79,1.52,1.52,0,0,1-.56.62v0h2.95v.54h-6v-.54h.63ZM171.37,25a1.87,1.87,0,0,0-.59.09,1.64,1.64,0,0,0-.48.28,1.28,1.28,0,0,0-.32.44,1.46,1.46,0,0,0-.12.6A1.4,1.4,0,0,0,170,27a1.36,1.36,0,0,0,.32.46,1.72,1.72,0,0,0,.47.3,1.68,1.68,0,0,0,.6.1,1.5,1.5,0,0,0,1.07-.4,1.23,1.23,0,0,0,.32-.46,1.4,1.4,0,0,0,.12-.58,1.46,1.46,0,0,0-.12-.6,1.43,1.43,0,0,0-.32-.44,1.64,1.64,0,0,0-.48-.28A1.92,1.92,0,0,0,171.37,25Z"/><path class="cls-3" d="M171.48,33.17h-.26v-3.1a1.37,1.37,0,0,0-1.36,1.36,1.36,1.36,0,0,0,.2.74,1.42,1.42,0,0,0,.45.46l-.32.41a1.92,1.92,0,0,1-.79-1.61,2,2,0,0,1,.15-.77A1.73,1.73,0,0,1,170,30a2,2,0,0,1,1.41-.55,2.21,2.21,0,0,1,.78.14,2.05,2.05,0,0,1,.63.4,1.94,1.94,0,0,1,.41.6,2.13,2.13,0,0,1,0,1.52,1.54,1.54,0,0,1-.4.56,1.82,1.82,0,0,1-.59.34A2.09,2.09,0,0,1,171.48,33.17Zm.18-.55a1.36,1.36,0,0,0,.87-.34,1.16,1.16,0,0,0,.35-.9,1.25,1.25,0,0,0-.1-.51,1.62,1.62,0,0,0-.27-.41,1.75,1.75,0,0,0-.39-.28,1.25,1.25,0,0,0-.46-.12Z"/><path class="cls-3" d="M172.35,36.33a.9.9,0,0,0,.38-.37,1,1,0,0,0,.15-.55,1.43,1.43,0,0,0,0-.29.76.76,0,0,0-.11-.26.62.62,0,0,0-.18-.18.53.53,0,0,0-.26-.06.47.47,0,0,0-.41.21,2.12,2.12,0,0,0-.23.68,2.26,2.26,0,0,1-.4,1,.86.86,0,0,1-.7.32,1,1,0,0,1-.54-.13,1,1,0,0,1-.36-.32,1.32,1.32,0,0,1-.2-.45,2.22,2.22,0,0,1-.06-.51,2,2,0,0,1,.18-.82,1.47,1.47,0,0,1,.55-.66l.32.43a1.24,1.24,0,0,0-.59,1,1.27,1.27,0,0,0,0,.34A.63.63,0,0,0,170,36a.61.61,0,0,0,.2.19.59.59,0,0,0,.31.07A.46.46,0,0,0,171,36a3.83,3.83,0,0,0,.28-.82c0-.11.06-.23.1-.36a1.29,1.29,0,0,1,.18-.35.92.92,0,0,1,.29-.26.82.82,0,0,1,.44-.1,1,1,0,0,1,.49.11.89.89,0,0,1,.34.3,1.4,1.4,0,0,1,.19.43,2,2,0,0,1,.06.49,1.69,1.69,0,0,1-.17.76,1.17,1.17,0,0,1-.5.55Z"/><path class="cls-3" d="M169.5,38.44V37.9h3.74v.54Zm5.18.11a.38.38,0,0,1-.28-.12.39.39,0,0,1-.1-.26.39.39,0,0,1,.1-.27.39.39,0,0,1,.56,0,.39.39,0,0,1,.1.27.39.39,0,0,1-.1.26A.38.38,0,0,1,174.68,38.55Z"/><path class="cls-3" d="M168.74,40.09a1.91,1.91,0,0,0-.49.61,1.8,1.8,0,0,0-.19.82,1.73,1.73,0,0,0,.11.68,1.08,1.08,0,0,0,.32.45,1.12,1.12,0,0,0,.47.25,1.75,1.75,0,0,0,.57.08h.7a1.52,1.52,0,0,1-.54-.61,1.85,1.85,0,0,1-.19-.81,2,2,0,0,1,.14-.79,1.85,1.85,0,0,1,.4-.61,1.64,1.64,0,0,1,.6-.39,1.9,1.9,0,0,1,.76-.14,1.86,1.86,0,0,1,.75.14,1.81,1.81,0,0,1,.62.39,1.87,1.87,0,0,1,.41.61,2,2,0,0,1,.15.79,1.77,1.77,0,0,1-.19.8,1.44,1.44,0,0,1-.55.62h.65v.55h-3.71a2.6,2.6,0,0,1-.65-.09,1.55,1.55,0,0,1-.63-.31,1.8,1.8,0,0,1-.48-.62,2.28,2.28,0,0,1-.19-1,2.45,2.45,0,0,1,.2-1,2.24,2.24,0,0,1,.55-.8Zm2.68.1a1.47,1.47,0,0,0-.56.1,1.29,1.29,0,0,0-.47.27,1.21,1.21,0,0,0-.31.45,1.4,1.4,0,0,0-.12.6,1.48,1.48,0,0,0,.1.57,1.33,1.33,0,0,0,.76.76,1.64,1.64,0,0,0,.6.11,1.55,1.55,0,0,0,.56-.11,1.41,1.41,0,0,0,.46-.3,1.52,1.52,0,0,0,.32-.46,1.32,1.32,0,0,0,.12-.57,1.4,1.4,0,0,0-.12-.6,1.36,1.36,0,0,0-.32-.45,1.33,1.33,0,0,0-.46-.27A1.54,1.54,0,0,0,171.42,40.19Z"/><path class="cls-3" d="M173.24,45.43l-.34,0h-.3v0a1.21,1.21,0,0,1,.53.52,1.47,1.47,0,0,1,.2.76,1.32,1.32,0,0,1-.42,1.07,1.67,1.67,0,0,1-1.12.35H169.5v-.54h2.07a2.89,2.89,0,0,0,.53,0,1.11,1.11,0,0,0,.42-.16.79.79,0,0,0,.26-.31,1.16,1.16,0,0,0,0-.92,1.14,1.14,0,0,0-.27-.36,1.4,1.4,0,0,0-.45-.26,2.13,2.13,0,0,0-.65-.09H169.5v-.55h3.31l.43,0Z"/><path class="cls-3" d="M161.21,28.18l-1.31,1.27v-.8l.84-.8a2.51,2.51,0,0,1-.71-.76,2,2,0,0,1-.23-1,2.2,2.2,0,0,1,.1-.68,1.67,1.67,0,0,1,.3-.56,1.41,1.41,0,0,1,.49-.38,1.7,1.7,0,0,1,1.25,0,1.33,1.33,0,0,1,.46.27,2.14,2.14,0,0,1,.37.42,3.66,3.66,0,0,1,.28.52,2.26,2.26,0,0,1,.28-.25,1.6,1.6,0,0,1,.31-.22A1.58,1.58,0,0,1,164,25a1.21,1.21,0,0,1,.38-.06,1.48,1.48,0,0,1,.57.11,1.43,1.43,0,0,1,.42.31,1.28,1.28,0,0,1,.26.44,2,2,0,0,1,.08.55,1.84,1.84,0,0,1-.08.53,1.31,1.31,0,0,1-.25.43,1.08,1.08,0,0,1-.4.3,1.33,1.33,0,0,1-.54.11,1.18,1.18,0,0,1-.5-.11,1.46,1.46,0,0,1-.41-.29,2.64,2.64,0,0,1-.32-.41c-.09-.15-.18-.31-.26-.47l-1.36,1.32,1.38.79v.65ZM162.68,26a2.29,2.29,0,0,0-.55-.78,1.19,1.19,0,0,0-.77-.26,1,1,0,0,0-.44.09,1,1,0,0,0-.34.26,1.19,1.19,0,0,0-.22.38,1.43,1.43,0,0,0,.13,1.22,2.06,2.06,0,0,0,.62.58Zm1.75,1.21A.78.78,0,0,0,165,27a.77.77,0,0,0,.22-.57.88.88,0,0,0-.23-.62.86.86,0,0,0-.64-.24,1,1,0,0,0-.32.06,2.11,2.11,0,0,0-.3.16l-.27.21a1,1,0,0,0-.18.19c.06.12.12.25.19.37a2.19,2.19,0,0,0,.25.33,1,1,0,0,0,.31.24A.76.76,0,0,0,164.43,27.18Z"/><path class="cls-3" d="M163.21,32.29c.16,0,.3,0,.43,0v.52a3.07,3.07,0,0,1-.34,0H163a1.29,1.29,0,0,1,.53.48,1.32,1.32,0,0,1,.21.72c0,.07,0,.13,0,.19l0,.17-.53-.07a.4.4,0,0,0,0-.16,1.62,1.62,0,0,0,0-.22,1,1,0,0,0-.08-.42.84.84,0,0,0-.25-.35,1.23,1.23,0,0,0-.44-.24,2,2,0,0,0-.64-.09H159.9V32.3h3.31Z"/><path class="cls-3" d="M161.88,38.44h-.26v-3.1a1.31,1.31,0,0,0-.52.11,1.46,1.46,0,0,0-.44.29,1.42,1.42,0,0,0-.29.43,1.37,1.37,0,0,0-.11.54,1.35,1.35,0,0,0,.2.73,1.56,1.56,0,0,0,.45.47l-.32.4a2.1,2.1,0,0,1-.61-.74,2,2,0,0,1-.18-.86,2,2,0,0,1,.15-.78,1.82,1.82,0,0,1,.41-.61,2,2,0,0,1,.62-.4,2.06,2.06,0,0,1,.79-.15,2.21,2.21,0,0,1,.78.14,1.89,1.89,0,0,1,.62.4,2,2,0,0,1,.42.6,2,2,0,0,1,0,1.52,1.46,1.46,0,0,1-.4.56,1.66,1.66,0,0,1-.59.34A2.09,2.09,0,0,1,161.88,38.44Zm.18-.55a1.36,1.36,0,0,0,.87-.34,1.16,1.16,0,0,0,.35-.9,1.25,1.25,0,0,0-.1-.51,1.41,1.41,0,0,0-.27-.4,1.48,1.48,0,0,0-.39-.28,1.25,1.25,0,0,0-.46-.12Z"/><path class="cls-3" d="M162.75,41.6a.94.94,0,0,0,.38-.36,1.07,1.07,0,0,0,.15-.56,1.43,1.43,0,0,0,0-.29.71.71,0,0,0-.11-.25A.45.45,0,0,0,163,40a.51.51,0,0,0-.67.14,2.12,2.12,0,0,0-.23.68,2.39,2.39,0,0,1-.4,1,.86.86,0,0,1-.7.32,1.13,1.13,0,0,1-.54-.12,1,1,0,0,1-.36-.33,1.32,1.32,0,0,1-.2-.45,2.22,2.22,0,0,1-.06-.51,2,2,0,0,1,.18-.82,1.47,1.47,0,0,1,.55-.66l.32.43a1.16,1.16,0,0,0-.42.43,1.19,1.19,0,0,0-.17.61,1.27,1.27,0,0,0,0,.34.63.63,0,0,0,.11.28.61.61,0,0,0,.2.19.59.59,0,0,0,.31.07.46.46,0,0,0,.44-.28,3.83,3.83,0,0,0,.28-.82c0-.11.06-.23.1-.36a1.11,1.11,0,0,1,.18-.34.81.81,0,0,1,.73-.37,1.07,1.07,0,0,1,.49.11,1,1,0,0,1,.34.3,1.52,1.52,0,0,1,.19.43,2,2,0,0,1,.07.49,1.67,1.67,0,0,1-.18.76,1.24,1.24,0,0,1-.5.56Z"/><path class="cls-3" d="M161.88,46.57h-.26v-3.1a1.37,1.37,0,0,0-1.36,1.36,1.36,1.36,0,0,0,.2.74,1.42,1.42,0,0,0,.45.46l-.32.41a1.92,1.92,0,0,1-.79-1.61,2,2,0,0,1,.15-.77,1.73,1.73,0,0,1,.41-.61A1.84,1.84,0,0,1,161,43a2.06,2.06,0,0,1,.79-.15,2.21,2.21,0,0,1,.78.14,1.89,1.89,0,0,1,.62.4,1.81,1.81,0,0,1,.42.6,2,2,0,0,1,0,1.52,1.54,1.54,0,0,1-.4.56,1.82,1.82,0,0,1-.59.34A2.09,2.09,0,0,1,161.88,46.57Zm.18-.55a1.36,1.36,0,0,0,.87-.34,1.16,1.16,0,0,0,.35-.9,1.22,1.22,0,0,0-.1-.51,1.62,1.62,0,0,0-.27-.41,1.75,1.75,0,0,0-.39-.28,1.25,1.25,0,0,0-.46-.12Z"/><path class="cls-3" d="M162.32,50.05a1,1,0,0,0,.72-.26,1,1,0,0,0,.24-.74,1.64,1.64,0,0,0-.12-.63,1.49,1.49,0,0,0-.32-.48l.36-.31a1.92,1.92,0,0,1,.38.61,2.35,2.35,0,0,1,.16.86,1.7,1.7,0,0,1-.09.57,1.33,1.33,0,0,1-.25.47,1.21,1.21,0,0,1-.42.31,1.64,1.64,0,0,1-.6.11h-1.64l-.45,0-.39,0v-.48l.29,0,.31,0v0a1.55,1.55,0,0,1-.54-.58,1.67,1.67,0,0,1-.16-.78,1.72,1.72,0,0,1,.06-.44,1.35,1.35,0,0,1,.2-.42,1,1,0,0,1,.88-.43,1,1,0,0,1,.69.22,1.3,1.3,0,0,1,.37.59,2.92,2.92,0,0,1,.16.84c0,.32,0,.65,0,1Zm-.55-.16c0-.23,0-.45,0-.68a3.5,3.5,0,0,0-.11-.61,1.19,1.19,0,0,0-.25-.46A.54.54,0,0,0,161,48a.71.71,0,0,0-.34.07.63.63,0,0,0-.22.21,1.18,1.18,0,0,0-.12.28,1.73,1.73,0,0,0,0,.32,1.19,1.19,0,0,0,.1.51,1,1,0,0,0,.27.38,1.31,1.31,0,0,0,.4.23,1.45,1.45,0,0,0,.47.08h.28Z"/><path class="cls-3" d="M163.21,52l.43,0v.52l-.34,0H163v0a1.17,1.17,0,0,1,.53.48,1.27,1.27,0,0,1,.21.72c0,.07,0,.13,0,.18l0,.18-.53-.08a.4.4,0,0,0,0-.16,1.55,1.55,0,0,0,0-.22,1,1,0,0,0-.08-.42.76.76,0,0,0-.25-.34,1.23,1.23,0,0,0-.44-.24,2,2,0,0,0-.64-.1H159.9V52h3.31Z"/><path class="cls-3" d="M162.78,57.39a1,1,0,0,0,.36-.39,1.26,1.26,0,0,0,.14-.57,1.41,1.41,0,0,0-.12-.59,1.12,1.12,0,0,0-.32-.45,1.29,1.29,0,0,0-.48-.29,1.63,1.63,0,0,0-.59-.1,1.68,1.68,0,0,0-.6.1,1.47,1.47,0,0,0-.47.28,1.42,1.42,0,0,0-.32.45,1.45,1.45,0,0,0-.12.59,1.25,1.25,0,0,0,.14.61,1.27,1.27,0,0,0,.35.41l-.3.41a1.68,1.68,0,0,1-.47-.59,1.8,1.8,0,0,1-.18-.84,2.14,2.14,0,0,1,.15-.82,1.72,1.72,0,0,1,.41-.63,1.84,1.84,0,0,1,.62-.4,2.06,2.06,0,0,1,.79-.15,2,2,0,0,1,.78.15,1.84,1.84,0,0,1,1,1,2.14,2.14,0,0,1,.15.82,2,2,0,0,1-.17.77,1.52,1.52,0,0,1-.48.63Z"/><path class="cls-3" d="M163,59.27a1.07,1.07,0,0,1,.52.51,1.5,1.5,0,0,1,.2.75,1.34,1.34,0,0,1-.43,1.07,1.71,1.71,0,0,1-1.12.35H159.9v-.54H162a2.81,2.81,0,0,0,.53,0,1.31,1.31,0,0,0,.42-.16.82.82,0,0,0,.26-.32,1,1,0,0,0,.1-.49,1.06,1.06,0,0,0-.09-.42,1,1,0,0,0-.27-.36,1.4,1.4,0,0,0-.45-.26,2.13,2.13,0,0,0-.65-.09H159.9v-.55h6v.55H163Z"/><g id="Group_137584" data-name="Group 137584"><g id="Group_137582" data-name="Group 137582" class="cls-4"><path id="Subtraction_84" data-name="Subtraction 84" class="cls-3" d="M159.12,175.64a16.51,16.51,0,0,1-13.69-25.74,16.51,16.51,0,1,1,13.69,25.74Zm0-30.82a14.32,14.32,0,1,0,5.57,1.13h0A14.18,14.18,0,0,0,159.12,144.82Z"/><path id="Subtraction_85" data-name="Subtraction 85" class="cls-3" d="M159.12,172.89a13.75,13.75,0,1,1,5.36-1.08A13.77,13.77,0,0,1,159.12,172.89Zm0-25.32a11.56,11.56,0,1,0,4.5.91A11.57,11.57,0,0,0,159.12,147.57Z"/><path id="Subtraction_86" data-name="Subtraction 86" class="cls-3" d="M159.12,170.14a11,11,0,1,1,4.29-.87h0A10.89,10.89,0,0,1,159.12,170.14Zm0-19.81a8.78,8.78,0,1,0,3.43.69A8.58,8.58,0,0,0,159.12,150.33Z"/><path id="Subtraction_87" data-name="Subtraction 87" class="cls-3" d="M159.12,167.39a8.22,8.22,0,1,1,3.22-.65A8.27,8.27,0,0,1,159.12,167.39Zm0-14.31a6,6,0,1,0,2.36.47A6.13,6.13,0,0,0,159.12,153.08Z"/></g><g id="Group_137583" data-name="Group 137583"><path id="Subtraction_91" data-name="Subtraction 91" class="cls-3" d="M171.19,151.43h0a14.35,14.35,0,0,0-6.5-5.48,14.18,14.18,0,0,0-5.57-1.13v-2.2a16.51,16.51,0,0,1,13.69,7.28c.08.11.16.23.23.35l-1.85,1.18Z"/><path id="Subtraction_90" data-name="Subtraction 90" class="cls-3" d="M167.65,169.93h0l-1.37-1.72a12.72,12.72,0,0,0,1-.91,11.56,11.56,0,0,0-8.18-19.73v-2.2a13.75,13.75,0,0,1,9.73,23.49,13.49,13.49,0,0,1-1.2,1.07Z"/><path id="Subtraction_89" data-name="Subtraction 89" class="cls-3" d="M170,161h0l-2.17-.37a8.44,8.44,0,0,0,.13-1.5,8.79,8.79,0,0,0-8.79-8.8h0v-2.21a11,11,0,0,1,11,11v0A10.65,10.65,0,0,1,170,161Z"/><path id="Subtraction_88" data-name="Subtraction 88" class="cls-3" d="M159.12,167.39a8.26,8.26,0,0,1-3.21-.65l-.08,0,.88-2,.06,0a6.05,6.05,0,1,0,2.35-11.63v-2.2a8.26,8.26,0,1,1,0,16.51Z"/></g></g></svg>