<svg id="Layer_1" data-name="Layer 1" xmlns="http://www.w3.org/2000/svg" viewBox="0 0 200 200"><defs><style>.cls-1{stroke:#231f20;stroke-miterlimit:10;}.cls-2,.cls-3{fill:#0f2e4a;}.cls-3{font-size:8px;font-family:AvenirNext-Regular, Avenir Next;}.cls-4{letter-spacing:-0.02em;}.cls-5{letter-spacing:0em;}.cls-6{letter-spacing:-0.01em;}.cls-7{letter-spacing:0em;}.cls-8{letter-spacing:-0.02em;}.cls-9{font-size:12px;fill:#fff;font-family:AvenirNext-Heavy, Avenir Next;font-weight:800;}.cls-10{letter-spacing:-0.04em;}.cls-11{letter-spacing:-0.02em;}.cls-12{opacity:0.58;}.cls-13{fill:#071e25;}.cls-14{opacity:0.6;}</style></defs><title>sharing-art</title><rect class="cls-1" y="0.73" width="200" height="200"/><polygon class="cls-2" points="24.36 24.36 24.36 39 24.45 39 30.37 24.36 24.36 24.36"/><polygon class="cls-2" points="34.98 24.36 41.09 39 41.09 24.36 34.98 24.36"/><polygon class="cls-2" points="32.72 29.55 30.02 36.14 33.03 36.14 34.26 39 36.79 39 32.72 29.55"/><text class="cls-3" transform="translate(169.63 23.96) rotate(90)">design <tspan x="0" y="9.6">&amp; </tspan><tspan class="cls-4" x="7.63" y="9.6">r</tspan><tspan class="cls-5" x="10.37" y="9.6">es</tspan><tspan class="cls-6" x="18.5" y="9.6">e</tspan><tspan class="cls-7" x="23.02" y="9.6">a</tspan><tspan class="cls-8" x="27.3" y="9.6">r</tspan><tspan x="30.03" y="9.6">ch</tspan></text><text class="cls-9" transform="translate(24.36 96.13)"><tspan class="cls-10">P</tspan><tspan class="cls-11" x="7.7" y="0">r</tspan><tspan x="12.83" y="0">oject sharing &amp;</tspan><tspan x="0" y="14.4">permissions</tspan></text><g id="_1_00cfff" data-name=" 1  00cfff"><circle id="Ellipse_88" data-name="Ellipse 88" class="cls-2" cx="122.44" cy="166.26" r="9.38"/><g id="Group_143" data-name="Group 143" class="cls-12"><path id="Path_12947" data-name="Path 12947" class="cls-13" d="M129.35,168.31l1.15,2.74a9.39,9.39,0,0,0-7.1-14.13l-5,11.39Z"/></g></g><g id="_2_00cfff" data-name=" 2  00cfff"><g id="Layer_1-2" data-name="Layer 1-2"><circle id="Ellipse_89" data-name="Ellipse 89" class="cls-2" cx="144.43" cy="166.26" r="9.38"/><g id="Group_144" data-name="Group 144" class="cls-14"><path id="Path_12948" data-name="Path 12948" class="cls-13" d="M152.41,171.2l-5.89-14.09a9.38,9.38,0,0,1,7.06,11.23A9.53,9.53,0,0,1,152.41,171.2Zm-16.16-.35a9.38,9.38,0,0,0,7.79,4.78L139.14,164Z"/></g></g></g><g id="_3_00cfff" data-name=" 3  00cfff"><g id="Layer_1-3" data-name="Layer 1-3"><circle id="Ellipse_90" data-name="Ellipse 90" class="cls-2" cx="166.43" cy="166.26" r="9.38"/><g id="Group_145" data-name="Group 145" class="cls-14"><path id="Path_12949" data-name="Path 12949" class="cls-13" d="M172.29,158.93v14.65a7.69,7.69,0,0,1-.8.57l-7.12-17.05A9.37,9.37,0,0,1,172.29,158.93ZM157,166.26a9.39,9.39,0,0,0,6.33,8.87l-5.43-12.88A9.4,9.4,0,0,0,157,166.26Z"/></g></g></g></svg>