<svg id="Layer_1" data-name="Layer 1" xmlns="http://www.w3.org/2000/svg" viewBox="0 0 544 922"><defs><style>.cls-1,.cls-10{fill:#5d6266;}.cls-2{fill:red;fill-opacity:0;}.cls-10,.cls-3,.cls-4,.cls-7,.cls-8{isolation:isolate;}.cls-10,.cls-4{font-size:18px;font-family:AdobeClean-Bold, Adobe Clean;font-weight:700;}.cls-4,.cls-7,.cls-8,.cls-9{fill:#fff;}.cls-5{letter-spacing:0.03em;}.cls-6{letter-spacing:0.01em;}.cls-7{opacity:0.1;}.cls-8{opacity:0.15;}.cls-11{fill:none;stroke:#fff;stroke-width:2px;}</style></defs><title>spectrum</title><rect class="cls-1" x="-9" y="-1" width="559" height="923"/><g id="Button-6"><rect id="Placement_Area-6" data-name="Placement Area-6" class="cls-2" x="222.75" y="243.56" width="89" height="40"/><g id="Action-6" class="cls-3"><text class="cls-4" transform="translate(242.76 269.55) rotate(0.02)">A<tspan class="cls-5" x="10.91" y="0">c</tspan><tspan class="cls-6" x="19.15" y="0">t</tspan><tspan x="24.93" y="0">ion</tspan></text></g></g><g id="Button-7"><rect id="Placement_Area-7" data-name="Placement Area-7" class="cls-2" x="222.75" y="338.6" width="89" height="40"/><path id="Background-6" class="cls-7" d="M242.76,338.59h49a20,20,0,0,1,20,20h0a20,20,0,0,1-20,20h-49a20,20,0,0,1-20-20h0A20,20,0,0,1,242.76,338.59Z"/><g id="Action-7" class="cls-3"><text class="cls-4" transform="translate(242.76 364.58) rotate(0.02)">A<tspan class="cls-5" x="10.91" y="0">c</tspan><tspan class="cls-6" x="19.15" y="0">t</tspan><tspan x="24.93" y="0">ion</tspan></text></g></g><g id="Button-8"><rect id="Placement_Area-8" data-name="Placement Area-8" class="cls-2" x="222.75" y="433.63" width="89" height="40"/><path id="Background-7" class="cls-8" d="M242.76,433.62l49,0a20,20,0,0,1,20,20h0a20,20,0,0,1-20,20l-49,0a20,20,0,0,1-20-20h0A20,20,0,0,1,242.76,433.62Z"/><g id="Action-8" class="cls-3"><text class="cls-4" transform="translate(242.76 459.62) rotate(0.02)">A<tspan class="cls-5" x="10.91" y="0">c</tspan><tspan class="cls-6" x="19.15" y="0">t</tspan><tspan x="24.93" y="0">ion</tspan></text></g></g><g id="Button-9"><rect id="Placement_Area-9" data-name="Placement Area-9" class="cls-2" x="222.75" y="623.7" width="89" height="40"/><path id="Background-8" class="cls-9" d="M242.76,622.69h49a21,21,0,0,1,21,21h0a21,21,0,0,1-21,21h-49a21,21,0,0,1-21-21h0A21,21,0,0,1,242.76,622.69Z"/><g id="Action-9"><text class="cls-10" transform="translate(242.76 649.68) rotate(0.02)">A<tspan class="cls-5" x="10.91" y="0">c</tspan><tspan class="cls-6" x="19.15" y="0">t</tspan><tspan x="24.93" y="0">ion</tspan></text></g></g><g id="Button"><rect id="Placement_Area" data-name="Placement Area" class="cls-2" x="222.25" y="528.66" width="90" height="40"/><g id="Background"><path class="cls-1" d="M242.26,528.66h50a20,20,0,0,1,20,20h0a20,20,0,0,1-20,20h-50a20,20,0,0,1-20-20h0A20,20,0,0,1,242.26,528.66Z"/><path class="cls-11" d="M242.26,529.66h50a19,19,0,0,1,19,19h0a19,19,0,0,1-19,19h-50a19,19,0,0,1-19-19h0A19,19,0,0,1,242.26,529.66Z"/></g><g id="Action" class="cls-3"><text class="cls-4" transform="translate(243.26 554.65) rotate(0.02)">A<tspan class="cls-5" x="10.91" y="0">c</tspan><tspan class="cls-6" x="19.15" y="0">t</tspan><tspan x="24.93" y="0">ion</tspan></text></g></g></svg>