<svg id="Layer_1" data-name="Layer 1" xmlns="http://www.w3.org/2000/svg" viewBox="0 0 200 200"><defs><style>.cls-1{stroke:#231f20;}.cls-1,.cls-4,.cls-5{stroke-miterlimit:10;}.cls-2{fill:#97cfaf;}.cls-3{fill:#fff;}.cls-4{fill:#97d0af;}.cls-4,.cls-5{stroke:#97d0af;stroke-width:2px;}.cls-5{fill:none;}</style></defs><title>spectrum-art</title><rect class="cls-1" width="200" height="200"/><polygon class="cls-2" points="24.36 23.98 24.36 38.62 24.45 38.62 30.37 23.98 24.36 23.98"/><polygon class="cls-2" points="34.98 23.98 41.09 38.62 41.09 23.98 34.98 23.98"/><polygon class="cls-2" points="32.72 29.17 30.02 35.76 33.03 35.76 34.26 38.62 36.79 38.62 32.72 29.17"/><path class="cls-3" d="M24.77,93.74a4.59,4.59,0,0,1,.36-1.85,4.24,4.24,0,0,1,2.45-2.32,5.18,5.18,0,0,1,1.81-.32,5.51,5.51,0,0,1,1.86.32,4.28,4.28,0,0,1,1.46.86L31,92.54a1.45,1.45,0,0,0-.6-.47,1.92,1.92,0,0,0-.81-.17,1.9,1.9,0,0,0-.67.13,1.45,1.45,0,0,0-.54.37A1.65,1.65,0,0,0,28,93a2.06,2.06,0,0,0-.13.76,1.79,1.79,0,0,0,.14.75,1.7,1.7,0,0,0,.37.57,1.62,1.62,0,0,0,.55.37,1.75,1.75,0,0,0,.65.12,1.72,1.72,0,0,0,.85-.2,1.91,1.91,0,0,0,.56-.48L32.71,97a4.2,4.2,0,0,1-1.42.92,5.11,5.11,0,0,1-1.9.34,5,5,0,0,1-1.81-.33,4.22,4.22,0,0,1-2.45-2.33A4.53,4.53,0,0,1,24.77,93.74Z"/><path class="cls-3" d="M40.15,94.81a3.51,3.51,0,0,1-.29,1.45,3.28,3.28,0,0,1-.79,1.07,3.36,3.36,0,0,1-1.16.67,4.17,4.17,0,0,1-2.73,0A3.23,3.23,0,0,1,34,97.33a3.12,3.12,0,0,1-.78-1.07,3.36,3.36,0,0,1-.3-1.45,3.31,3.31,0,0,1,.3-1.44A3.08,3.08,0,0,1,34,92.31a3.34,3.34,0,0,1,1.15-.65,4.34,4.34,0,0,1,2.73,0,3.48,3.48,0,0,1,1.16.65,3.24,3.24,0,0,1,.79,1.06A3.46,3.46,0,0,1,40.15,94.81Zm-3.61-1a1,1,0,0,0-.74.31,1,1,0,0,0-.28.73,1.09,1.09,0,0,0,.29.76,1,1,0,0,0,.74.31,1,1,0,0,0,.74-.31,1,1,0,0,0,.29-.76,1,1,0,0,0-.29-.73A1,1,0,0,0,36.54,93.78Z"/><path class="cls-3" d="M41.17,91.68h2.7v.69h0a2,2,0,0,1,.72-.6,2.11,2.11,0,0,1,1.08-.26,2.23,2.23,0,0,1,1.09.24,1.84,1.84,0,0,1,.7.62,2.43,2.43,0,0,1,.36.84,4.29,4.29,0,0,1,.1.94V98H45.17V94.63A1.1,1.1,0,0,0,45,94a.58.58,0,0,0-.9,0,1,1,0,0,0-.18.64V98H41.17Z"/><path class="cls-3" d="M51.91,98.16A2.78,2.78,0,0,1,50,97.61a2.15,2.15,0,0,1-.61-1.7V93.66h-.89v-2h.87V90.26h2.69v1.42h1.37v2H52.09v1.68a.75.75,0,0,0,.2.61.81.81,0,0,0,.54.17,1.33,1.33,0,0,0,.28,0,1,1,0,0,0,.23,0v1.9a2.63,2.63,0,0,1-.61.16A5.36,5.36,0,0,1,51.91,98.16Z"/><path class="cls-3" d="M54.21,91.68h2.67v.72h0a1.7,1.7,0,0,1,.61-.64,1.72,1.72,0,0,1,.94-.25,1.93,1.93,0,0,1,.53.06l-.22,2.35-.29,0a1.62,1.62,0,0,0-.3,0,1.2,1.2,0,0,0-.86.31,1,1,0,0,0-.32.77V98H54.21Z"/><path class="cls-3" d="M59.52,89.85a1.41,1.41,0,0,1,.11-.54,1.23,1.23,0,0,1,.32-.45,1.49,1.49,0,0,1,.46-.31,1.3,1.3,0,0,1,.56-.11,1.24,1.24,0,0,1,.54.11,1.57,1.57,0,0,1,.45.31,1.21,1.21,0,0,1,.31.45,1.25,1.25,0,0,1,.12.54,1.31,1.31,0,0,1-.12.56,1.25,1.25,0,0,1-.31.44,1.37,1.37,0,0,1-.45.3,1.41,1.41,0,0,1-.54.11,1.47,1.47,0,0,1-.56-.11,1.31,1.31,0,0,1-.46-.3,1.28,1.28,0,0,1-.32-.44A1.47,1.47,0,0,1,59.52,89.85Zm0,1.83h2.77V98H59.57Z"/><path class="cls-3" d="M70.93,94.81A4.24,4.24,0,0,1,70.75,96a3.67,3.67,0,0,1-.55,1.08,2.77,2.77,0,0,1-.9.76,2.61,2.61,0,0,1-1.24.29,2.84,2.84,0,0,1-1.12-.23,1.79,1.79,0,0,1-.8-.6h0V98h-2.5V88.92h2.77v3.26h0a1.7,1.7,0,0,1,.73-.5,2.62,2.62,0,0,1,.91-.17,2.5,2.5,0,0,1,1.24.29,2.74,2.74,0,0,1,.9.75,3.56,3.56,0,0,1,.55,1.06A4.06,4.06,0,0,1,70.93,94.81Zm-2.57,0a1.11,1.11,0,0,0-.26-.73,1,1,0,0,0-.77-.32,1,1,0,0,0-1.08,1,1.07,1.07,0,0,0,.29.75,1,1,0,0,0,.79.32,1,1,0,0,0,.77-.31A1.15,1.15,0,0,0,68.36,94.81Z"/><path class="cls-3" d="M78.63,98h-2.7v-.7h0a2.06,2.06,0,0,1-.71.61,2.28,2.28,0,0,1-1.09.26,2.21,2.21,0,0,1-1.1-.24,1.86,1.86,0,0,1-.69-.61,2.15,2.15,0,0,1-.36-.85,4.38,4.38,0,0,1-.11-.94V91.68h2.78V95a1.1,1.1,0,0,0,.15.67.54.54,0,0,0,.45.2.56.56,0,0,0,.46-.23,1,1,0,0,0,.17-.64V91.68h2.77Z"/><path class="cls-3" d="M82.65,98.16a2.79,2.79,0,0,1-1.88-.55,2.15,2.15,0,0,1-.61-1.7V93.66h-.89v-2h.88V90.26h2.68v1.42H84.2v2H82.83v1.68A.75.75,0,0,0,83,96a.84.84,0,0,0,.55.17,1.24,1.24,0,0,0,.27,0,.89.89,0,0,0,.23,0v1.9a2.52,2.52,0,0,1-.6.16A5.49,5.49,0,0,1,82.65,98.16Z"/><path class="cls-3" d="M84.92,89.85a1.25,1.25,0,0,1,.12-.54,1.21,1.21,0,0,1,.31-.45,1.49,1.49,0,0,1,.46-.31,1.33,1.33,0,0,1,.56-.11,1.19,1.19,0,0,1,.54.11,1.57,1.57,0,0,1,.45.31,1.23,1.23,0,0,1,.32.45,1.41,1.41,0,0,1,.11.54,1.47,1.47,0,0,1-.11.56,1.28,1.28,0,0,1-.32.44,1.37,1.37,0,0,1-.45.3,1.33,1.33,0,0,1-.54.11,1.51,1.51,0,0,1-.56-.11,1.31,1.31,0,0,1-.46-.3,1.25,1.25,0,0,1-.31-.44A1.31,1.31,0,0,1,84.92,89.85Zm0,1.83h2.77V98H85Z"/><path class="cls-3" d="M89,91.68h2.7v.69h0a2,2,0,0,1,.71-.6,2.16,2.16,0,0,1,1.08-.26,2.27,2.27,0,0,1,1.1.24,1.88,1.88,0,0,1,.69.62,2.43,2.43,0,0,1,.36.84,4.29,4.29,0,0,1,.1.94V98H93V94.63a1.1,1.1,0,0,0-.15-.67.54.54,0,0,0-.45-.2A.56.56,0,0,0,92,94a1,1,0,0,0-.17.64V98H89Z"/><path class="cls-3" d="M96.77,94.81a4.06,4.06,0,0,1,.18-1.2,3.56,3.56,0,0,1,.55-1.06,2.74,2.74,0,0,1,.9-.75,2.51,2.51,0,0,1,1.25-.29,2.68,2.68,0,0,1,1,.19,1.76,1.76,0,0,1,.79.61h0v-.63h2.6v5.66a4,4,0,0,1-.33,1.72,2.9,2.9,0,0,1-.9,1.08,3.44,3.44,0,0,1-1.26.57,6.73,6.73,0,0,1-3.24-.08,4.68,4.68,0,0,1-1.57-.69L98,98.11a3.18,3.18,0,0,0,1,.51,3,3,0,0,0,1,.16,2.12,2.12,0,0,0,.57-.08,1.38,1.38,0,0,0,.47-.23,1,1,0,0,0,.45-.88v-.27h0a1.92,1.92,0,0,1-.68.46,2.38,2.38,0,0,1-1,.21,3,3,0,0,1-1.28-.26,2.49,2.49,0,0,1-.9-.7,3,3,0,0,1-.53-1A4,4,0,0,1,96.77,94.81Zm2.56,0a1.1,1.1,0,0,0,.27.76,1,1,0,0,0,.77.31,1,1,0,0,0,.78-.32,1,1,0,0,0,.3-.75,1,1,0,0,0-.3-.73,1,1,0,0,0-.78-.32.94.94,0,0,0-.77.32A1.06,1.06,0,0,0,99.33,94.81Z"/><path class="cls-3" d="M111.13,98.16a2.76,2.76,0,0,1-1.88-.55,2.16,2.16,0,0,1-.62-1.7V93.66h-.88v-2h.87V90.26h2.69v1.42h1.37v2h-1.37v1.68a.75.75,0,0,0,.2.61.81.81,0,0,0,.54.17l.28,0a1,1,0,0,0,.23,0v1.9a2.77,2.77,0,0,1-.61.16A5.36,5.36,0,0,1,111.13,98.16Z"/><path class="cls-3" d="M120.38,94.81a3.51,3.51,0,0,1-.29,1.45,3.28,3.28,0,0,1-.79,1.07,3.36,3.36,0,0,1-1.16.67,4.17,4.17,0,0,1-2.73,0,3.23,3.23,0,0,1-1.15-.67,3.12,3.12,0,0,1-.78-1.07,3.36,3.36,0,0,1-.3-1.45,3.31,3.31,0,0,1,.3-1.44,3.08,3.08,0,0,1,.78-1.06,3.34,3.34,0,0,1,1.15-.65,4.34,4.34,0,0,1,2.73,0,3.48,3.48,0,0,1,1.16.65,3.24,3.24,0,0,1,.79,1.06A3.46,3.46,0,0,1,120.38,94.81Zm-3.61-1a1,1,0,0,0-.74.31,1,1,0,0,0-.28.73,1.09,1.09,0,0,0,.29.76,1,1,0,0,0,.74.31,1,1,0,0,0,.75-.31,1.08,1.08,0,0,0,.28-.76,1,1,0,0,0-.29-.73A1,1,0,0,0,116.77,93.78Z"/><path class="cls-3" d="M127.75,94a.51.51,0,0,0-.2-.43.89.89,0,0,0-.52-.13,1.66,1.66,0,0,0-.73.16,2.79,2.79,0,0,0-.6.38l-1.38-1.37a3.92,3.92,0,0,1,1.37-.85,4.53,4.53,0,0,1,1.63-.3,3.8,3.8,0,0,1,1.49.25,2.36,2.36,0,0,1,.93.69,2.93,2.93,0,0,1,.48,1,5.48,5.48,0,0,1,.13,1.24V98h-2.5v-.51h0a1.32,1.32,0,0,1-.68.52,2.77,2.77,0,0,1-.87.16,3,3,0,0,1-.76-.11,2.14,2.14,0,0,1-.71-.35,2,2,0,0,1-.52-.62,2.12,2.12,0,0,1-.2-1,1.64,1.64,0,0,1,.34-1.08,2.35,2.35,0,0,1,.87-.64,3.94,3.94,0,0,1,1.18-.32,9.4,9.4,0,0,1,1.28-.09Zm0,1.39a3.27,3.27,0,0,0-1,.13.5.5,0,0,0-.37.5.4.4,0,0,0,.06.22.54.54,0,0,0,.15.15,1,1,0,0,0,.21.09l.21,0a.87.87,0,0,0,.64-.25.92.92,0,0,0,.24-.65v-.22Z"/><path class="cls-3" d="M24.74,109.21a3.77,3.77,0,0,1,.19-1.2,3.34,3.34,0,0,1,.55-1.06,2.6,2.6,0,0,1,.89-.75,2.56,2.56,0,0,1,1.25-.29,2.72,2.72,0,0,1,.92.17,1.83,1.83,0,0,1,.73.5h0v-3.26h2.77v9.07H29.57v-.66h0a1.79,1.79,0,0,1-.8.6,2.8,2.8,0,0,1-1.12.23,2.61,2.61,0,0,1-1.24-.29,2.67,2.67,0,0,1-.9-.76,3.44,3.44,0,0,1-.55-1.08A3.93,3.93,0,0,1,24.74,109.21Zm2.57,0a1.1,1.1,0,0,0,.27.76,1,1,0,0,0,.76.31,1,1,0,0,0,.79-.32,1,1,0,0,0,.29-.75,1,1,0,0,0-.29-.73,1,1,0,0,0-.79-.32.93.93,0,0,0-.76.32A1.06,1.06,0,0,0,27.31,109.21Z"/><path class="cls-3" d="M39.91,109.29c0,.11,0,.21,0,.32s0,.2,0,.27H35.64a.55.55,0,0,0,.11.3,1.1,1.1,0,0,0,.25.23,1.28,1.28,0,0,0,.34.14,1.58,1.58,0,0,0,.38,0,1.38,1.38,0,0,0,.64-.14,1.25,1.25,0,0,0,.39-.3l2,1a2.86,2.86,0,0,1-1.22,1.08,4,4,0,0,1-1.85.4,4.09,4.09,0,0,1-1.34-.22,3.36,3.36,0,0,1-1.14-.64,3.16,3.16,0,0,1-.8-1.06,3.46,3.46,0,0,1-.3-1.48,3.38,3.38,0,0,1,.28-1.41,3.14,3.14,0,0,1,.75-1.07,3.36,3.36,0,0,1,1.11-.67,3.93,3.93,0,0,1,1.38-.24,3.45,3.45,0,0,1,1.35.25,3.27,3.27,0,0,1,1.05.72,3.18,3.18,0,0,1,.68,1.1A3.93,3.93,0,0,1,39.91,109.29Zm-2.39-.9a.71.71,0,0,0-.24-.55,1,1,0,0,0-.67-.22,1,1,0,0,0-.71.26.85.85,0,0,0-.28.51Z"/><path class="cls-3" d="M46,110.38a2,2,0,0,1-.27,1.07,2,2,0,0,1-.68.69,2.76,2.76,0,0,1-.9.37,3.89,3.89,0,0,1-.93.12,5.39,5.39,0,0,1-1.6-.24,4.16,4.16,0,0,1-1.37-.66l1.36-1.57a2.44,2.44,0,0,0,.68.42,1.91,1.91,0,0,0,.75.16.65.65,0,0,0,.27,0,.2.2,0,0,0,.12-.2c0-.1-.07-.18-.22-.24a6,6,0,0,0-.77-.23,2.6,2.6,0,0,1-.61-.21,2.12,2.12,0,0,1-.57-.36,1.71,1.71,0,0,1-.43-.56,1.74,1.74,0,0,1-.17-.79,1.94,1.94,0,0,1,.27-1,2.2,2.2,0,0,1,.69-.7,3.05,3.05,0,0,1,.9-.4,3.8,3.8,0,0,1,.91-.12,5.21,5.21,0,0,1,1.46.21,5.1,5.1,0,0,1,1.29.6l-1.29,1.55a2.72,2.72,0,0,0-.62-.3,1.87,1.87,0,0,0-.61-.11.81.81,0,0,0-.33.06.2.2,0,0,0-.14.21q0,.12.15.18a4.29,4.29,0,0,0,.69.18,3,3,0,0,1,.72.22,2.71,2.71,0,0,1,.64.38,2.1,2.1,0,0,1,.45.57A1.8,1.8,0,0,1,46,110.38Z"/><path class="cls-3" d="M47,104.25a1.25,1.25,0,0,1,.12-.54,1.21,1.21,0,0,1,.31-.45,1.49,1.49,0,0,1,.46-.31,1.33,1.33,0,0,1,.56-.11A1.19,1.19,0,0,1,49,103a1.57,1.57,0,0,1,.45.31,1.23,1.23,0,0,1,.32.45,1.41,1.41,0,0,1,.11.54,1.47,1.47,0,0,1-.11.56,1.28,1.28,0,0,1-.32.44,1.37,1.37,0,0,1-.45.3,1.33,1.33,0,0,1-.54.11,1.51,1.51,0,0,1-.56-.11,1.31,1.31,0,0,1-.46-.3,1.25,1.25,0,0,1-.31-.44A1.31,1.31,0,0,1,47,104.25Zm0,1.83h2.77v6.31H47.05Z"/><path class="cls-3" d="M50.85,109.21A4.07,4.07,0,0,1,51,108a3.56,3.56,0,0,1,.55-1.06,2.74,2.74,0,0,1,.9-.75,2.5,2.5,0,0,1,1.24-.29,2.6,2.6,0,0,1,1,.19,1.79,1.79,0,0,1,.8.61h0v-.63h2.6v5.66a4,4,0,0,1-.33,1.72,3,3,0,0,1-.9,1.08,3.44,3.44,0,0,1-1.26.57,7.06,7.06,0,0,1-1.44.16,7,7,0,0,1-1.8-.24,4.83,4.83,0,0,1-1.58-.69l1.22-1.83a3.18,3.18,0,0,0,1,.51,3,3,0,0,0,1,.16,2.12,2.12,0,0,0,.57-.08,1.47,1.47,0,0,0,.47-.23,1,1,0,0,0,.32-.37,1.07,1.07,0,0,0,.12-.51v-.27h0a1.92,1.92,0,0,1-.68.46,2.4,2.4,0,0,1-1,.21,3,3,0,0,1-1.27-.26,2.49,2.49,0,0,1-.9-.7,2.79,2.79,0,0,1-.53-1A4,4,0,0,1,50.85,109.21Zm2.57,0a1.1,1.1,0,0,0,.27.76,1,1,0,0,0,.77.31,1.06,1.06,0,0,0,1.08-1.07,1,1,0,0,0-.3-.73,1,1,0,0,0-.78-.32.94.94,0,0,0-.77.32A1.06,1.06,0,0,0,53.42,109.21Z"/><path class="cls-3" d="M59.47,106.08h2.7v.69h0a1.87,1.87,0,0,1,.71-.6,2.11,2.11,0,0,1,1.08-.26,2.23,2.23,0,0,1,1.09.24,1.92,1.92,0,0,1,.7.62,2.43,2.43,0,0,1,.36.84,4.29,4.29,0,0,1,.1.94v3.84H63.47V109a1.1,1.1,0,0,0-.15-.67.58.58,0,0,0-.9,0,1,1,0,0,0-.18.64v3.36H59.47Z"/><path class="cls-3" d="M75.62,110.38a2,2,0,0,1-.27,1.07,2,2,0,0,1-.68.69,2.76,2.76,0,0,1-.9.37,4,4,0,0,1-.93.12,5.39,5.39,0,0,1-1.6-.24,4.16,4.16,0,0,1-1.37-.66l1.36-1.57a2.44,2.44,0,0,0,.68.42,1.91,1.91,0,0,0,.75.16.65.65,0,0,0,.27,0,.2.2,0,0,0,.12-.2c0-.1-.07-.18-.22-.24a6,6,0,0,0-.77-.23,2.45,2.45,0,0,1-.61-.21,2.12,2.12,0,0,1-.57-.36,1.71,1.71,0,0,1-.43-.56,1.74,1.74,0,0,1-.17-.79,1.94,1.94,0,0,1,.27-1,2.2,2.2,0,0,1,.69-.7,3.05,3.05,0,0,1,.9-.4,3.8,3.8,0,0,1,.91-.12,5.21,5.21,0,0,1,1.46.21,5.1,5.1,0,0,1,1.29.6l-1.29,1.55a2.72,2.72,0,0,0-.62-.3,1.87,1.87,0,0,0-.61-.11.78.78,0,0,0-.33.06.2.2,0,0,0-.14.21q0,.12.15.18a4.29,4.29,0,0,0,.69.18,3,3,0,0,1,.72.22A2.71,2.71,0,0,1,75,109a2.1,2.1,0,0,1,.45.57A1.8,1.8,0,0,1,75.62,110.38Z"/><path class="cls-3" d="M78.44,112.14l-2.55-6.06H79l.93,3.32h0l.83-3.32h3l-2.59,6.69a6.41,6.41,0,0,1-.51,1,3.49,3.49,0,0,1-.68.79,2.6,2.6,0,0,1-.9.49,4.08,4.08,0,0,1-1.22.17l-.44,0-.44,0-.39-.06-.3-.06.35-2.3a2.36,2.36,0,0,0,.37.11,3.32,3.32,0,0,0,.41,0,1,1,0,0,0,.67-.19,1.06,1.06,0,0,0,.33-.47Z"/><path class="cls-3" d="M89.43,110.38a1.92,1.92,0,0,1-1,1.76,2.76,2.76,0,0,1-.9.37,3.89,3.89,0,0,1-.93.12,5.44,5.44,0,0,1-1.6-.24,4,4,0,0,1-1.36-.66L85,110.16a2.44,2.44,0,0,0,.68.42,1.91,1.91,0,0,0,.75.16.59.59,0,0,0,.27,0,.21.21,0,0,0,.13-.2c0-.1-.08-.18-.23-.24a5.55,5.55,0,0,0-.77-.23,2.6,2.6,0,0,1-.61-.21,2.12,2.12,0,0,1-.57-.36,1.86,1.86,0,0,1-.43-.56,1.74,1.74,0,0,1-.17-.79,1.94,1.94,0,0,1,.27-1,2.2,2.2,0,0,1,.69-.7,3.05,3.05,0,0,1,.9-.4,3.81,3.81,0,0,1,.92-.12,5.19,5.19,0,0,1,1.45.21,5.1,5.1,0,0,1,1.29.6l-1.29,1.55a2.87,2.87,0,0,0-.61-.3,2,2,0,0,0-.62-.11.81.81,0,0,0-.33.06.19.19,0,0,0-.13.21q0,.12.15.18a3.79,3.79,0,0,0,.68.18,3,3,0,0,1,.72.22,2.71,2.71,0,0,1,.64.38,1.78,1.78,0,0,1,.45.57A1.8,1.8,0,0,1,89.43,110.38Z"/><path class="cls-3" d="M93.18,112.56a2.81,2.81,0,0,1-1.89-.55,2.19,2.19,0,0,1-.61-1.7v-2.25h-.89v-2h.88v-1.42h2.69v1.42h1.37v2H93.36v1.68a.72.72,0,0,0,.2.61.81.81,0,0,0,.54.17l.28,0,.23,0v1.9a2.77,2.77,0,0,1-.61.16A5.36,5.36,0,0,1,93.18,112.56Z"/><path class="cls-3" d="M102.07,109.29c0,.11,0,.21,0,.32s0,.2,0,.27H97.8a.55.55,0,0,0,.11.3,1.1,1.1,0,0,0,.25.23,1.28,1.28,0,0,0,.34.14,1.58,1.58,0,0,0,.38,0,1.38,1.38,0,0,0,.64-.14,1.25,1.25,0,0,0,.39-.3l2,1a2.86,2.86,0,0,1-1.22,1.08,4,4,0,0,1-1.85.4,4.09,4.09,0,0,1-1.34-.22,3.36,3.36,0,0,1-1.14-.64,3.16,3.16,0,0,1-.8-1.06,3.46,3.46,0,0,1-.3-1.48,3.38,3.38,0,0,1,.28-1.41,3.14,3.14,0,0,1,.75-1.07,3.26,3.26,0,0,1,1.11-.67,3.93,3.93,0,0,1,1.38-.24,3.49,3.49,0,0,1,1.35.25,3.27,3.27,0,0,1,1.05.72,3.34,3.34,0,0,1,.68,1.1A3.93,3.93,0,0,1,102.07,109.29Zm-2.39-.9a.71.71,0,0,0-.24-.55,1,1,0,0,0-.67-.22,1,1,0,0,0-.71.26.92.92,0,0,0-.29.51Z"/><path class="cls-3" d="M106.91,112.39v-3.31a1.51,1.51,0,0,0-.12-.7.44.44,0,0,0-.4-.22.53.53,0,0,0-.39.2.92.92,0,0,0-.19.68v3.35H103v-6.31h2.7v.69h0a1.61,1.61,0,0,1,.29-.3,2,2,0,0,1,.4-.28,2.18,2.18,0,0,1,.49-.2,2,2,0,0,1,.6-.08,2.39,2.39,0,0,1,1.08.22,1.6,1.6,0,0,1,.72.69,2.86,2.86,0,0,1,.77-.65,2.33,2.33,0,0,1,1.15-.26,2.17,2.17,0,0,1,1.11.26,2.22,2.22,0,0,1,.7.66,2.71,2.71,0,0,1,.36.86,3.85,3.85,0,0,1,.1.86v3.84h-2.77V109a1.2,1.2,0,0,0-.13-.69.43.43,0,0,0-.39-.18.49.49,0,0,0-.4.23,1,1,0,0,0-.17.65v3.35Z"/><path class="cls-2" d="M170.11,27.78a1.6,1.6,0,0,1-.55-.63,1.82,1.82,0,0,1-.18-.79,2,2,0,0,1,.15-.79A1.75,1.75,0,0,1,170,25a1.72,1.72,0,0,1,.62-.39,2.22,2.22,0,0,1,1.55,0,1.75,1.75,0,0,1,1,1,2,2,0,0,1,.15.79,1.82,1.82,0,0,1-.18.79,1.55,1.55,0,0,1-.56.63h3v.55h-6.05v-.55h.64ZM171.35,25a1.87,1.87,0,0,0-.59.1,1.29,1.29,0,0,0-.48.28,1.19,1.19,0,0,0-.32.44,1.43,1.43,0,0,0-.12.6A1.4,1.4,0,0,0,170,27a1.42,1.42,0,0,0,.32.45,1.35,1.35,0,0,0,.47.3,1.68,1.68,0,0,0,.6.11,1.63,1.63,0,0,0,.59-.11,1.31,1.31,0,0,0,.48-.3,1.28,1.28,0,0,0,.32-.45,1.4,1.4,0,0,0,.12-.58,1.43,1.43,0,0,0-.12-.6,1.32,1.32,0,0,0-.32-.44,1.29,1.29,0,0,0-.48-.28A2,2,0,0,0,171.35,25Z"/><path class="cls-2" d="M171.46,33.2h-.26v-3.1a1.51,1.51,0,0,0-.52.11,1.46,1.46,0,0,0-.44.29,1.37,1.37,0,0,0-.4,1,1.33,1.33,0,0,0,.2.73,1.45,1.45,0,0,0,.45.47l-.32.41a2.19,2.19,0,0,1-.61-.74,2.12,2.12,0,0,1-.18-.87,1.92,1.92,0,0,1,.15-.77,1.72,1.72,0,0,1,.41-.62,2.09,2.09,0,0,1,2.19-.4,1.74,1.74,0,0,1,.62.4,1.77,1.77,0,0,1,.56,1.34,1.94,1.94,0,0,1-.14.78,1.63,1.63,0,0,1-.4.56,1.82,1.82,0,0,1-.59.34A2.41,2.41,0,0,1,171.46,33.2Zm.17-.55a1.36,1.36,0,0,0,.88-.34,1.16,1.16,0,0,0,.35-.9,1.18,1.18,0,0,0-.1-.5,1.46,1.46,0,0,0-.27-.41,1.48,1.48,0,0,0-.39-.28,1.31,1.31,0,0,0-.47-.12Z"/><path class="cls-2" d="M172.33,36.36a.94.94,0,0,0,.38-.36,1,1,0,0,0,.15-.56,1.5,1.5,0,0,0,0-.29.71.71,0,0,0-.11-.25.45.45,0,0,0-.18-.18.46.46,0,0,0-.26-.07.45.45,0,0,0-.41.22,2.25,2.25,0,0,0-.24.68,2.32,2.32,0,0,1-.39,1,.86.86,0,0,1-.7.31,1.13,1.13,0,0,1-.54-.12,1,1,0,0,1-.36-.32,1.46,1.46,0,0,1-.2-.46,2.14,2.14,0,0,1-.06-.5,2.16,2.16,0,0,1,.17-.83,1.53,1.53,0,0,1,.56-.65l.32.43a1.06,1.06,0,0,0-.42.42,1.2,1.2,0,0,0-.17.62,1.76,1.76,0,0,0,0,.33A.79.79,0,0,0,170,36a.52.52,0,0,0,.2.19.59.59,0,0,0,.31.08.47.47,0,0,0,.44-.29,3.83,3.83,0,0,0,.28-.82c0-.11.06-.23.1-.35a1.16,1.16,0,0,1,.18-.35.84.84,0,0,1,.29-.27.92.92,0,0,1,.44-.1,1.07,1.07,0,0,1,.49.11,1,1,0,0,1,.33.3,1.3,1.3,0,0,1,.2.43,2.07,2.07,0,0,1,.06.5,1.72,1.72,0,0,1-.17.76,1.22,1.22,0,0,1-.5.55Z"/><path class="cls-2" d="M169.47,38.47v-.54h3.75v.54Zm5.19.12a.38.38,0,0,1-.28-.12.39.39,0,0,1-.1-.27.39.39,0,0,1,.1-.26.39.39,0,0,1,.56,0,.39.39,0,0,1,.1.26.39.39,0,0,1-.1.27A.38.38,0,0,1,174.66,38.59Z"/><path class="cls-2" d="M168.72,40.12a2,2,0,0,0-.49.61,1.83,1.83,0,0,0-.19.82,1.7,1.7,0,0,0,.11.68,1.19,1.19,0,0,0,.32.46,1.25,1.25,0,0,0,.47.25,2,2,0,0,0,.57.08h.7v0a1.4,1.4,0,0,1-.54-.61,1.79,1.79,0,0,1-.2-.8,2,2,0,0,1,.15-.8,1.7,1.7,0,0,1,.4-.61,1.56,1.56,0,0,1,.6-.39,2.1,2.1,0,0,1,.76-.14,2,2,0,0,1,.75.14,1.81,1.81,0,0,1,.62.39,1.87,1.87,0,0,1,.41.61,2,2,0,0,1,.15.8,1.77,1.77,0,0,1-.19.8,1.41,1.41,0,0,1-.55.61v0h.65v.54h-3.71a3,3,0,0,1-.65-.08,1.69,1.69,0,0,1-.63-.31,1.78,1.78,0,0,1-.48-.62,2.28,2.28,0,0,1-.2-1,2.54,2.54,0,0,1,.2-1,2.35,2.35,0,0,1,.56-.81Zm2.67.11a1.77,1.77,0,0,0-.56.09,1.53,1.53,0,0,0-.46.28,1.43,1.43,0,0,0-.32.44,1.64,1.64,0,0,0-.11.6,1.57,1.57,0,0,0,.1.58,1.27,1.27,0,0,0,.3.45,1.31,1.31,0,0,0,.46.3,1.44,1.44,0,0,0,.59.11A1.38,1.38,0,0,0,172,43a1.41,1.41,0,0,0,.46-.3,1.47,1.47,0,0,0,.32-.45,1.4,1.4,0,0,0,.12-.58,1.46,1.46,0,0,0-.12-.6,1.43,1.43,0,0,0-.32-.44,1.53,1.53,0,0,0-.46-.28A1.79,1.79,0,0,0,171.39,40.23Z"/><path class="cls-2" d="M173.22,45.47l-.34,0h-.3a1.26,1.26,0,0,1,.53.52,1.49,1.49,0,0,1,.2.76,1.31,1.31,0,0,1-.42,1.07,1.67,1.67,0,0,1-1.12.36h-2.3v-.55h2.08a2.93,2.93,0,0,0,.53,0,1.32,1.32,0,0,0,.42-.17.72.72,0,0,0,.26-.31,1.14,1.14,0,0,0,0-.91,1,1,0,0,0-.27-.36,1.24,1.24,0,0,0-.45-.26,1.87,1.87,0,0,0-.66-.1h-1.92V45h3.32l.43,0Z"/><rect class="cls-4" x="148.19" y="163.8" width="26.47" height="10.3" rx="5.15"/><rect class="cls-5" x="134.09" y="149.24" width="40.57" height="10.3" rx="5.15"/><circle class="cls-5" cx="139.34" cy="168.95" r="5.25"/><circle class="cls-5" cx="169.41" cy="125.37" r="5.25"/><rect class="cls-5" x="148.19" y="134.78" width="26.47" height="10.3" rx="5.15"/></svg>