<svg id="Layer_1" data-name="Layer 1" xmlns="http://www.w3.org/2000/svg" viewBox="0 0 200 200"><defs><style>.cls-1{stroke:#231f20;}.cls-1,.cls-3,.cls-5{stroke-miterlimit:10;}.cls-2{fill:#97cfaf;}.cls-3,.cls-5{fill:none;}.cls-3{stroke:#97d0af;stroke-width:2px;}.cls-4{fill:#97d0af;}.cls-5{stroke:#97cfaf;stroke-width:0.5px;}.cls-6{font-size:12px;fill:#fff;font-family:AvenirNext-Heavy, Avenir Next;font-weight:800;}.cls-7{letter-spacing:-0.02em;}.cls-8{letter-spacing:-0.01em;}.cls-9{letter-spacing:-0.02em;}.cls-10{letter-spacing:-0.01em;}</style></defs><title>summit-art</title><rect class="cls-1" y="0.36" width="200" height="200"/><polygon class="cls-2" points="24.36 24.34 24.36 38.98 24.45 38.98 30.37 24.34 24.36 24.34"/><polygon class="cls-2" points="34.98 24.34 41.09 38.98 41.09 24.34 34.98 24.34"/><polygon class="cls-2" points="32.72 29.53 30.02 36.13 33.03 36.13 34.26 38.98 36.79 38.98 32.72 29.53"/><circle class="cls-3" cx="139.34" cy="169.32" r="5.25"/><circle class="cls-3" cx="168.98" cy="140.61" r="5.25"/><circle class="cls-3" cx="144.6" cy="145.86" r="5.25"/><circle class="cls-4" cx="160.41" cy="159.97" r="2.78"/><circle class="cls-4" cx="167.65" cy="118.41" r="2.78"/><circle class="cls-4" cx="173.21" cy="171.27" r="2.78"/><path class="cls-4" d="M167.56,25.58V25h5.67v.54h-.65v0a1.44,1.44,0,0,1,.55.62,1.73,1.73,0,0,1,.19.79,2,2,0,0,1-.15.79,1.75,1.75,0,0,1-.42.61,1.72,1.72,0,0,1-.62.39,2.22,2.22,0,0,1-1.55,0,1.72,1.72,0,0,1-.62-.39,1.75,1.75,0,0,1-.42-.61,2,2,0,0,1-.15-.79,1.86,1.86,0,0,1,.18-.79,1.5,1.5,0,0,1,.55-.62v0Zm3.8,2.8a1.86,1.86,0,0,0,.58-.1,1.27,1.27,0,0,0,.48-.28,1.22,1.22,0,0,0,.33-.44,1.46,1.46,0,0,0,.12-.6,1.4,1.4,0,0,0-.12-.58,1.42,1.42,0,0,0-.32-.45,1.5,1.5,0,0,0-.48-.3,1.66,1.66,0,0,0-1.19,0,1.41,1.41,0,0,0-.91,1.33,1.46,1.46,0,0,0,.12.6,1.09,1.09,0,0,0,.32.44,1.27,1.27,0,0,0,.48.28A1.87,1.87,0,0,0,171.36,28.38Z"/><path class="cls-4" d="M172.79,30.11l.44,0v.52l-.34,0h-.3v0a1.22,1.22,0,0,1,.53.48,1.34,1.34,0,0,1,.2.72,1,1,0,0,1,0,.18.57.57,0,0,1,0,.18l-.52-.08a.91.91,0,0,0,0-.16.82.82,0,0,0,0-.22,1.25,1.25,0,0,0-.08-.42.84.84,0,0,0-.25-.34,1.23,1.23,0,0,0-.44-.24,1.76,1.76,0,0,0-.64-.1h-1.92v-.54h3.31Z"/><path class="cls-4" d="M171.36,36.58a2,2,0,0,1-.79-.15A1.92,1.92,0,0,1,170,36a1.72,1.72,0,0,1-.41-.64,2.21,2.21,0,0,1,0-1.6,1.72,1.72,0,0,1,.41-.64,1.92,1.92,0,0,1,.62-.41,2.13,2.13,0,0,1,1.57,0,1.92,1.92,0,0,1,.62.41,1.72,1.72,0,0,1,.41.64,2.21,2.21,0,0,1,0,1.6,1.72,1.72,0,0,1-.41.64,1.92,1.92,0,0,1-.62.41A2,2,0,0,1,171.36,36.58Zm0-.58a1.61,1.61,0,0,0,.58-.1,1.41,1.41,0,0,0,.48-.28,1.35,1.35,0,0,0,.45-1,1.38,1.38,0,0,0-.12-.59,1.35,1.35,0,0,0-.33-.45,1.41,1.41,0,0,0-.48-.28,1.61,1.61,0,0,0-.58-.1,1.63,1.63,0,0,0-.59.1,1.41,1.41,0,0,0-.48.28A1.2,1.2,0,0,0,170,34a1.38,1.38,0,0,0-.12.59,1.45,1.45,0,0,0,.12.59,1.28,1.28,0,0,0,.32.45,1.41,1.41,0,0,0,.48.28A1.63,1.63,0,0,0,171.36,36Z"/><path class="cls-4" d="M172.37,40.44a1,1,0,0,0,.36-.4,1.19,1.19,0,0,0,.14-.56,1.38,1.38,0,0,0-.12-.59,1.23,1.23,0,0,0-.32-.45,1.32,1.32,0,0,0-.48-.29,1.63,1.63,0,0,0-.59-.1,1.64,1.64,0,0,0-.6.1,1.31,1.31,0,0,0-.47.28,1.12,1.12,0,0,0-.32.45,1.41,1.41,0,0,0-.12.59,1.22,1.22,0,0,0,.49,1l-.3.41a1.84,1.84,0,0,1-.48-.59,1.93,1.93,0,0,1-.17-.84,2.14,2.14,0,0,1,.15-.82A1.6,1.6,0,0,1,170,38a1.74,1.74,0,0,1,.62-.4,2.13,2.13,0,0,1,1.57,0,1.74,1.74,0,0,1,.62.4,1.6,1.6,0,0,1,.41.63,2.14,2.14,0,0,1,.15.82,2,2,0,0,1-.16.77,1.49,1.49,0,0,1-.49.62Z"/><path class="cls-4" d="M171.47,45.15h-.26V42a1.57,1.57,0,0,0-.53.11,1.37,1.37,0,0,0-.83,1.26,1.35,1.35,0,0,0,.2.73,1.45,1.45,0,0,0,.45.47l-.32.41a2.08,2.08,0,0,1-.61-.74,2.12,2.12,0,0,1-.18-.87,1.92,1.92,0,0,1,.15-.77A1.64,1.64,0,0,1,170,42a1.89,1.89,0,0,1,.62-.4,2.13,2.13,0,0,1,1.57,0,1.74,1.74,0,0,1,.62.4,1.65,1.65,0,0,1,.41.6,1.81,1.81,0,0,1,.15.74,1.94,1.94,0,0,1-.15.78,1.61,1.61,0,0,1-.39.56,1.82,1.82,0,0,1-.59.34A2.46,2.46,0,0,1,171.47,45.15Zm.17-.55a1.36,1.36,0,0,0,.88-.34,1.16,1.16,0,0,0,.35-.9,1.35,1.35,0,0,0-.1-.5,1.46,1.46,0,0,0-.27-.41,1.38,1.38,0,0,0-.4-.28,1.21,1.21,0,0,0-.46-.12Z"/><path class="cls-4" d="M172.34,48.31a1,1,0,0,0,.38-.36,1.07,1.07,0,0,0,.15-.56,1,1,0,0,0,0-.29.69.69,0,0,0-.1-.25.52.52,0,0,0-.18-.18.5.5,0,0,0-.27-.07.44.44,0,0,0-.4.22,2.25,2.25,0,0,0-.24.68,2.38,2.38,0,0,1-.39,1,.87.87,0,0,1-.7.31,1.08,1.08,0,0,1-.54-.12,1,1,0,0,1-.36-.33,1.15,1.15,0,0,1-.2-.45,2.22,2.22,0,0,1-.06-.51,2.15,2.15,0,0,1,.17-.82,1.49,1.49,0,0,1,.56-.66l.32.44a1.06,1.06,0,0,0-.42.42,1.2,1.2,0,0,0-.17.62,1.76,1.76,0,0,0,0,.33A.65.65,0,0,0,170,48a.52.52,0,0,0,.2.19.57.57,0,0,0,.31.08A.48.48,0,0,0,171,48a3.83,3.83,0,0,0,.28-.82,2.68,2.68,0,0,1,.1-.35,1.27,1.27,0,0,1,.17-.35,1.06,1.06,0,0,1,.29-.27.87.87,0,0,1,.44-.1,1.09,1.09,0,0,1,.5.11,1.18,1.18,0,0,1,.33.3,1.3,1.3,0,0,1,.2.43,2,2,0,0,1,.06.5,1.87,1.87,0,0,1-.17.76,1.28,1.28,0,0,1-.5.55Z"/><path class="cls-4" d="M172.34,51.86a1,1,0,0,0,.38-.36,1,1,0,0,0,.15-.56.9.9,0,0,0,0-.28.67.67,0,0,0-.1-.26.52.52,0,0,0-.18-.18.5.5,0,0,0-.27-.07.44.44,0,0,0-.4.22,2.25,2.25,0,0,0-.24.68,2.32,2.32,0,0,1-.39,1,.87.87,0,0,1-.7.31,1.08,1.08,0,0,1-.54-.12,1,1,0,0,1-.36-.32,1.26,1.26,0,0,1-.2-.46,2.07,2.07,0,0,1-.06-.5,2.16,2.16,0,0,1,.17-.83,1.46,1.46,0,0,1,.56-.65l.32.43a1.06,1.06,0,0,0-.42.42,1.2,1.2,0,0,0-.17.62,1.76,1.76,0,0,0,0,.33.65.65,0,0,0,.12.28.52.52,0,0,0,.2.19.57.57,0,0,0,.31.08.48.48,0,0,0,.44-.29,3.83,3.83,0,0,0,.28-.82,2.68,2.68,0,0,1,.1-.35,1.42,1.42,0,0,1,.17-.35.89.89,0,0,1,.29-.26.87.87,0,0,1,.44-.11,1.09,1.09,0,0,1,.5.11,1.18,1.18,0,0,1,.33.3,1.3,1.3,0,0,1,.2.43,2.07,2.07,0,0,1,.06.5,1.87,1.87,0,0,1-.17.76,1.28,1.28,0,0,1-.5.55Z"/><path class="cls-4" d="M161.2,28.55l-1.32,1.27V29l.84-.8a2.41,2.41,0,0,1-.71-.76,2,2,0,0,1-.22-1,2.15,2.15,0,0,1,.1-.68,1.72,1.72,0,0,1,.3-.57,1.44,1.44,0,0,1,.49-.38,1.59,1.59,0,0,1,.68-.14,1.7,1.7,0,0,1,.57.1,1.67,1.67,0,0,1,.46.28,1.77,1.77,0,0,1,.36.41A3.29,3.29,0,0,1,163,26a3.32,3.32,0,0,1,.27-.25l.32-.22a2.17,2.17,0,0,1,.35-.15,1.21,1.21,0,0,1,.38-.06,1.25,1.25,0,0,1,.56.11,1.08,1.08,0,0,1,.42.3,1.26,1.26,0,0,1,.26.45,1.61,1.61,0,0,1,.09.54,1.78,1.78,0,0,1-.08.53,1.36,1.36,0,0,1-.25.44,1.24,1.24,0,0,1-.94.4,1,1,0,0,1-.5-.11,1.42,1.42,0,0,1-.41-.28,2.15,2.15,0,0,1-.32-.41c-.09-.15-.18-.31-.26-.47l-1.36,1.32,1.38.78v.65Zm1.47-2.21a2.15,2.15,0,0,0-.55-.77,1.15,1.15,0,0,0-.77-.27.92.92,0,0,0-.44.1.86.86,0,0,0-.34.25,1.11,1.11,0,0,0-.22.38,1.21,1.21,0,0,0-.08.46,1.42,1.42,0,0,0,.2.77,2.24,2.24,0,0,0,.63.58Zm1.75,1.21a.73.73,0,0,0,.57-.23.78.78,0,0,0,.23-.57.82.82,0,0,0-.24-.61.84.84,0,0,0-.63-.24A1,1,0,0,0,164,26a1.82,1.82,0,0,0-.31.16l-.26.2-.18.19a2.69,2.69,0,0,0,.19.38,2,2,0,0,0,.24.33,1.22,1.22,0,0,0,.32.24A.83.83,0,0,0,164.42,27.55Z"/><path class="cls-4" d="M163.2,32.66l.43,0v.52l-.34,0H163v0a1.22,1.22,0,0,1,.53.48,1.34,1.34,0,0,1,.2.72,1.15,1.15,0,0,1,0,.19.55.55,0,0,1,0,.17l-.52-.07,0-.16a1.77,1.77,0,0,0,0-.23,1.15,1.15,0,0,0-.08-.41.87.87,0,0,0-.25-.35,1.23,1.23,0,0,0-.44-.24,2,2,0,0,0-.64-.09h-1.92v-.55h3.32Z"/><path class="cls-4" d="M161.87,38.82h-.26V35.7a1.58,1.58,0,0,0-.53.12,1.39,1.39,0,0,0-.43.28,1.46,1.46,0,0,0-.29.44,1.39,1.39,0,0,0,.09,1.26,1.36,1.36,0,0,0,.45.47l-.32.41a2,2,0,0,1-.61-.74,2.12,2.12,0,0,1-.18-.87,2.15,2.15,0,0,1,.14-.77,1.75,1.75,0,0,1,.42-.61,1.92,1.92,0,0,1,.62-.41,2.21,2.21,0,0,1,.78-.14,2,2,0,0,1,.79.14,1.89,1.89,0,0,1,.62.4,1.65,1.65,0,0,1,.41.6,1.85,1.85,0,0,1,.15.74,1.87,1.87,0,0,1-.15.78,1.51,1.51,0,0,1-.4.56,1.68,1.68,0,0,1-.58.34A2.18,2.18,0,0,1,161.87,38.82Zm.17-.56a1.33,1.33,0,0,0,.88-.34,1.16,1.16,0,0,0,.35-.9,1.35,1.35,0,0,0-.1-.5,1.42,1.42,0,0,0-.28-.41,1.31,1.31,0,0,0-.85-.4Z"/><path class="cls-4" d="M162.74,42a1,1,0,0,0,.53-.92.92.92,0,0,0,0-.29.74.74,0,0,0-.1-.26.77.77,0,0,0-.18-.18.6.6,0,0,0-.27-.07.46.46,0,0,0-.4.22,2.25,2.25,0,0,0-.24.68,2.32,2.32,0,0,1-.39,1,.88.88,0,0,1-.7.32,1.08,1.08,0,0,1-.54-.13,1,1,0,0,1-.36-.32,1.3,1.3,0,0,1-.2-.45,2.14,2.14,0,0,1,.11-1.34,1.56,1.56,0,0,1,.55-.65l.32.43a1.27,1.27,0,0,0-.41.42,1.23,1.23,0,0,0-.17.62,1.87,1.87,0,0,0,0,.34.86.86,0,0,0,.11.28.76.76,0,0,0,.21.19.57.57,0,0,0,.31.07.49.49,0,0,0,.44-.28,4,4,0,0,0,.28-.82,2.8,2.8,0,0,1,.1-.36,1.42,1.42,0,0,1,.17-.35.94.94,0,0,1,.3-.26.81.81,0,0,1,.43-.11,1,1,0,0,1,.5.12.94.94,0,0,1,.33.3,1.17,1.17,0,0,1,.2.42,2.07,2.07,0,0,1,.06.5,1.87,1.87,0,0,1-.17.76,1.22,1.22,0,0,1-.5.55Z"/><path class="cls-4" d="M161.87,46.94h-.26V43.83a1.57,1.57,0,0,0-.53.11,1.37,1.37,0,0,0-.83,1.26,1.33,1.33,0,0,0,.2.73,1.45,1.45,0,0,0,.45.47l-.32.41a2.08,2.08,0,0,1-.61-.74,2.19,2.19,0,0,1,0-1.64,1.95,1.95,0,0,1,1-1,2.13,2.13,0,0,1,1.57,0,1.74,1.74,0,0,1,.62.4,1.65,1.65,0,0,1,.41.6,1.81,1.81,0,0,1,.15.74,1.94,1.94,0,0,1-.15.78,1.51,1.51,0,0,1-.4.56,1.68,1.68,0,0,1-.58.34A2.46,2.46,0,0,1,161.87,46.94Zm.17-.55a1.33,1.33,0,0,0,.88-.34,1.16,1.16,0,0,0,.35-.9,1.35,1.35,0,0,0-.1-.5,1.3,1.3,0,0,0-.28-.41,1.31,1.31,0,0,0-.85-.4Z"/><path class="cls-4" d="M162.31,50.42a.94.94,0,0,0,.72-.25,1.06,1.06,0,0,0,.24-.75,1.59,1.59,0,0,0-.12-.62,1.54,1.54,0,0,0-.32-.49l.36-.3a1.82,1.82,0,0,1,.38.61,2.31,2.31,0,0,1,.15.86,1.79,1.79,0,0,1-.08.57,1.46,1.46,0,0,1-.25.46,1.13,1.13,0,0,1-.43.31,1.4,1.4,0,0,1-.6.12h-2.08l-.4,0v-.49l.3,0h.31v0a1.55,1.55,0,0,1-.54-.58,1.85,1.85,0,0,1-.1-1.22,1.15,1.15,0,0,1,.19-.42,1,1,0,0,1,.36-.31,1,1,0,0,1,.53-.13,1,1,0,0,1,.68.22,1.34,1.34,0,0,1,.38.59,3.47,3.47,0,0,1,.16.85c0,.31,0,.64,0,1Zm-.56-.16c0-.22,0-.45,0-.67a3.62,3.62,0,0,0-.11-.62,1.22,1.22,0,0,0-.25-.45.54.54,0,0,0-.42-.18.68.68,0,0,0-.34.08.7.7,0,0,0-.22.2.74.74,0,0,0-.12.29,1.65,1.65,0,0,0,0,.31,1.38,1.38,0,0,0,.1.52,1.13,1.13,0,0,0,.28.37,1.09,1.09,0,0,0,.39.23,1.26,1.26,0,0,0,.47.08h.28Z"/><path class="cls-4" d="M163.2,52.33l.43,0v.52l-.34,0H163a1.36,1.36,0,0,1,.53.48,1.39,1.39,0,0,1,.2.72,1.15,1.15,0,0,1,0,.19.51.51,0,0,1,0,.17l-.52-.07,0-.16a1.7,1.7,0,0,0,0-.22,1.16,1.16,0,0,0-.08-.42.94.94,0,0,0-.25-.35,1.23,1.23,0,0,0-.44-.24,2,2,0,0,0-.64-.09h-1.92v-.54h3.32Z"/><path class="cls-4" d="M162.77,57.77a1.08,1.08,0,0,0,.36-.4,1.19,1.19,0,0,0,.14-.56,1.38,1.38,0,0,0-.12-.59,1.36,1.36,0,0,0-.32-.46,1.27,1.27,0,0,0-.48-.28,1.64,1.64,0,0,0-.6-.1,1.63,1.63,0,0,0-.59.1,1.31,1.31,0,0,0-.47.28,1.12,1.12,0,0,0-.32.45,1.38,1.38,0,0,0-.12.59,1.28,1.28,0,0,0,.14.61,1.25,1.25,0,0,0,.35.41l-.31.4a1.91,1.91,0,0,1-.47-.58,2,2,0,0,1-.17-.84,2.31,2.31,0,0,1,.14-.82,1.74,1.74,0,0,1,.42-.63,1.77,1.77,0,0,1,.62-.41,2.27,2.27,0,0,1,1.57,0,1.77,1.77,0,0,1,.62.41,1.6,1.6,0,0,1,.41.63,2.1,2.1,0,0,1,.15.82,1.92,1.92,0,0,1-.16.76,1.46,1.46,0,0,1-.49.63Z"/><path class="cls-4" d="M163,59.65a1.14,1.14,0,0,1,.52.5,1.55,1.55,0,0,1,.19.75A1.32,1.32,0,0,1,163.3,62a1.67,1.67,0,0,1-1.12.36h-2.3v-.55H162a2.22,2.22,0,0,0,.53-.05,1,1,0,0,0,.41-.16.74.74,0,0,0,.27-.31,1.19,1.19,0,0,0,.1-.49,1,1,0,0,0-.09-.42,1.07,1.07,0,0,0-.27-.37,1.39,1.39,0,0,0-.45-.25,1.91,1.91,0,0,0-.66-.1h-1.92v-.54h6.05v.54H163Z"/><polyline class="cls-5" points="144.6 169.31 173.21 171.27 170.43 145.66 160.41 159.97 171.98 170.28"/><line class="cls-5" x1="139.34" y1="164.06" x2="142.82" y2="150.8"/><path class="cls-5" d="M160.41,160l-16.92,5.69a.12.12,0,0,1-.15-.17l23.78-46a.12.12,0,0,0-.21-.13l-18.63,22.8"/><line class="cls-5" x1="169.28" y1="135.36" x2="167.65" y2="117.83"/><text class="cls-6" transform="translate(24.36 98.35)">Customer <tspan class="cls-7" x="63.09" y="0">r</tspan><tspan x="68.22" y="0">es</tspan><tspan class="cls-8" x="81.93" y="0">e</tspan><tspan x="89.42" y="0">a</tspan><tspan class="cls-9" x="96.51" y="0">r</tspan><tspan x="101.64" y="0">ch:</tspan><tspan x="0" y="14.4">oppo</tspan><tspan class="cls-10" x="32.59" y="14.4">r</tspan><tspan x="37.79" y="14.4">tunity space</tspan></text></svg>