<svg id="Layer_1" data-name="Layer 1" xmlns="http://www.w3.org/2000/svg" viewBox="0 0 200 200"><defs><style>.cls-1{stroke:#231f20;}.cls-1,.cls-4,.cls-5,.cls-6,.cls-7{stroke-miterlimit:10;}.cls-2{fill:#97cfaf;}.cls-3{fill:#fff;}.cls-4,.cls-5,.cls-7{fill:none;}.cls-4,.cls-5,.cls-6,.cls-7{stroke:#97d0af;}.cls-4,.cls-6{stroke-width:2px;}.cls-6{fill:#97d0af;}.cls-7{stroke-width:0.75px;}</style></defs><title>tunes-art</title><rect class="cls-1" y="0.73" width="200" height="200"/><path class="cls-2" d="M32.64,40.92a8.28,8.28,0,1,0-8.28-8.28A8.28,8.28,0,0,0,32.64,40.92ZM36,36.54h0c-.55,0-2.31-1.95-7.26-.93a2.46,2.46,0,0,1-.39.08.55.55,0,0,1-.08-1.09,10.68,10.68,0,0,1,7.92.88A.55.55,0,0,1,36,36.54Zm.9-2.19c-.08,0,0,0-.41-.14a10.86,10.86,0,0,0-8-1,1.16,1.16,0,0,1-.39.09A.68.68,0,0,1,28,32a12.08,12.08,0,0,1,9.17,1.07.69.69,0,0,1,.38.65A.64.64,0,0,1,36.9,34.35Zm-9.4-5.16c3.12-.91,7.84-.63,10.78,1.09a.81.81,0,0,1-.34,1.53h0a.78.78,0,0,1-.44-.13c-2.37-1.42-6.62-1.76-9.37-1a1.82,1.82,0,0,1-.44.08.76.76,0,0,1-.77-.78.79.79,0,0,1,.58-.8Z"/><path class="cls-2" d="M170.3,28.16a1.53,1.53,0,0,1-.54-.62,1.74,1.74,0,0,1-.19-.8,2,2,0,0,1,.15-.79,1.9,1.9,0,0,1,.42-.61,1.81,1.81,0,0,1,.62-.39,2.24,2.24,0,0,1,1.56,0,1.81,1.81,0,0,1,.62.39,1.9,1.9,0,0,1,.42.61,2,2,0,0,1,.15.79,1.74,1.74,0,0,1-.19.8,1.51,1.51,0,0,1-.56.62v0h3v.54h-6.05v-.54h.63Zm1.24-2.78a1.92,1.92,0,0,0-.59.1,1.44,1.44,0,0,0-.48.28,1.32,1.32,0,0,0-.32.44,1.64,1.64,0,0,0-.11.6,1.58,1.58,0,0,0,.11.58,1.42,1.42,0,0,0,.32.45,1.35,1.35,0,0,0,.47.3,1.69,1.69,0,0,0,1.2,0,1.5,1.5,0,0,0,.48-.3,1.6,1.6,0,0,0,.32-.45,1.58,1.58,0,0,0,.11-.58,1.46,1.46,0,0,0-.12-.6,1.32,1.32,0,0,0-.32-.44,1.44,1.44,0,0,0-.48-.28A1.92,1.92,0,0,0,171.54,25.38Z"/><path class="cls-2" d="M171.65,33.58h-.25V30.47a1.52,1.52,0,0,0-.53.11,1.3,1.3,0,0,0-.43.29,1.45,1.45,0,0,0-.3.43,1.4,1.4,0,0,0-.1.54,1.32,1.32,0,0,0,.19.73,1.45,1.45,0,0,0,.45.47l-.32.41a2,2,0,0,1-.6-.74,2,2,0,0,1-.19-.87,1.92,1.92,0,0,1,.15-.77,1.87,1.87,0,0,1,.41-.61,1.91,1.91,0,0,1,.63-.41,2.1,2.1,0,0,1,1.56,0,1.88,1.88,0,0,1,.63.4,1.94,1.94,0,0,1,.41.6,1.81,1.81,0,0,1,.15.74,1.9,1.9,0,0,1-.15.78,1.63,1.63,0,0,1-.4.56,1.72,1.72,0,0,1-.59.34A2.09,2.09,0,0,1,171.65,33.58Zm.18-.55a1.35,1.35,0,0,0,.88-.34,1.15,1.15,0,0,0,.34-.9,1.18,1.18,0,0,0-.1-.5,1.27,1.27,0,0,0-.27-.41,1.21,1.21,0,0,0-.39-.28,1.25,1.25,0,0,0-.46-.12Z"/><path class="cls-2" d="M169.67,36.29v-.6l3.74-1.53v.61L170.24,36v0l3.17,1.22v.59Z"/><path class="cls-2" d="M171.65,42.06h-.25V39a1.52,1.52,0,0,0-.53.11,1.3,1.3,0,0,0-.43.29,1.45,1.45,0,0,0-.3.43,1.4,1.4,0,0,0-.1.54,1.32,1.32,0,0,0,.19.73,1.45,1.45,0,0,0,.45.47l-.32.41a2,2,0,0,1-.6-.74,2,2,0,0,1-.19-.87,1.92,1.92,0,0,1,.15-.77,1.87,1.87,0,0,1,.41-.61,1.91,1.91,0,0,1,.63-.41,2.1,2.1,0,0,1,1.56,0,1.88,1.88,0,0,1,.63.4,1.94,1.94,0,0,1,.41.6,1.85,1.85,0,0,1,.15.74,1.94,1.94,0,0,1-.15.78,1.63,1.63,0,0,1-.4.56,1.72,1.72,0,0,1-.59.34A2.36,2.36,0,0,1,171.65,42.06Zm.18-.55a1.35,1.35,0,0,0,.88-.34,1.15,1.15,0,0,0,.34-.9,1.18,1.18,0,0,0-.1-.5,1.27,1.27,0,0,0-.27-.41,1.21,1.21,0,0,0-.39-.28,1.25,1.25,0,0,0-.46-.12Z"/><path class="cls-2" d="M169.67,43.79v-.54h6.05v.54Z"/><path class="cls-2" d="M171.54,49a2,2,0,0,1-.78-.15,1.82,1.82,0,0,1-1-1,2.16,2.16,0,0,1-.15-.81,2.07,2.07,0,0,1,.15-.8,1.86,1.86,0,0,1,.41-.63,1.93,1.93,0,0,1,.63-.42,2.24,2.24,0,0,1,1.56,0,1.93,1.93,0,0,1,.63.42,1.86,1.86,0,0,1,.41.63,2.07,2.07,0,0,1,.15.8,2.16,2.16,0,0,1-.15.81,1.82,1.82,0,0,1-1,1A2,2,0,0,1,171.54,49Zm0-.58a1.66,1.66,0,0,0,.59-.1,1.64,1.64,0,0,0,.48-.28,1.47,1.47,0,0,0,.32-.45,1.41,1.41,0,0,0,.12-.59,1.38,1.38,0,0,0-.12-.59,1.43,1.43,0,0,0-.32-.44,1.47,1.47,0,0,0-.48-.29,1.79,1.79,0,0,0-1.18,0,1.47,1.47,0,0,0-.48.29,1.43,1.43,0,0,0-.32.44A1.55,1.55,0,0,0,170,47a1.59,1.59,0,0,0,.11.59,1.47,1.47,0,0,0,.32.45,1.64,1.64,0,0,0,.48.28A1.66,1.66,0,0,0,171.54,48.39Z"/><path class="cls-2" d="M167.75,50.68v-.54h5.66v.54h-.65v0a1.45,1.45,0,0,1,.56.62,1.73,1.73,0,0,1,.19.79,2.07,2.07,0,0,1-.15.8,1.85,1.85,0,0,1-.42.6,2,2,0,0,1-.62.4,2.24,2.24,0,0,1-1.56,0,2,2,0,0,1-.62-.4,1.85,1.85,0,0,1-.42-.6,2.07,2.07,0,0,1-.15-.8,1.73,1.73,0,0,1,.19-.79,1.62,1.62,0,0,1,.54-.62v0Zm3.79,2.79a1.92,1.92,0,0,0,.59-.09,1.64,1.64,0,0,0,.48-.28,1.43,1.43,0,0,0,.32-.44,1.48,1.48,0,0,0,.12-.61,1.56,1.56,0,0,0-.11-.57,1.52,1.52,0,0,0-.32-.46,2,2,0,0,0-.48-.3,1.58,1.58,0,0,0-1.67.3,1.36,1.36,0,0,0-.32.46,1.56,1.56,0,0,0-.11.57,1.66,1.66,0,0,0,.11.61,1.43,1.43,0,0,0,.32.44,1.64,1.64,0,0,0,.48.28A1.92,1.92,0,0,0,171.54,53.47Z"/><path class="cls-2" d="M173.3,56.24a1.36,1.36,0,0,1,.21.74,1.82,1.82,0,0,1,0,.32,1.08,1.08,0,0,1-.13.32,1.28,1.28,0,0,1-.24.29,1.21,1.21,0,0,1-.39.22,1.42,1.42,0,0,1,.79,1.32,1.28,1.28,0,0,1-.43,1.06,1.66,1.66,0,0,1-1.12.36h-2.29v-.54h2.07a1.88,1.88,0,0,0,.95-.22.82.82,0,0,0,.36-.75,1,1,0,0,0-.12-.5.9.9,0,0,0-.31-.33,1.51,1.51,0,0,0-.45-.18,2.1,2.1,0,0,0-.51-.05h-2v-.55h2.18a2.6,2.6,0,0,0,.5,0,1.07,1.07,0,0,0,.38-.14.78.78,0,0,0,.24-.27,1.17,1.17,0,0,0,.08-.45.92.92,0,0,0-.09-.39.87.87,0,0,0-.26-.35,1.27,1.27,0,0,0-.46-.25,1.81,1.81,0,0,0-.65-.1h-1.92v-.55H173l.43,0v.52l-.33,0h-.31A1.25,1.25,0,0,1,173.3,56.24Z"/><path class="cls-2" d="M171.65,65.69h-.25V62.57a1.52,1.52,0,0,0-.53.12,1.28,1.28,0,0,0-.43.28,1.49,1.49,0,0,0-.3.44,1.32,1.32,0,0,0-.1.53,1.3,1.3,0,0,0,.19.73,1.36,1.36,0,0,0,.45.47l-.32.41a2,2,0,0,1-.79-1.61,2,2,0,0,1,.15-.77,1.87,1.87,0,0,1,.41-.61,2.08,2.08,0,0,1,.63-.41,2.21,2.21,0,0,1,.78-.14,2,2,0,0,1,.78.14,2.05,2.05,0,0,1,.63.4,1.94,1.94,0,0,1,.41.6,1.85,1.85,0,0,1,.15.74,1.87,1.87,0,0,1-.15.78,1.63,1.63,0,0,1-.4.56,1.72,1.72,0,0,1-.59.34A2.09,2.09,0,0,1,171.65,65.69Zm.18-.56a1.34,1.34,0,0,0,.88-.33,1.19,1.19,0,0,0,.34-.91,1.21,1.21,0,0,0-.1-.5,1.33,1.33,0,0,0-.66-.69,1.25,1.25,0,0,0-.46-.12Z"/><path class="cls-2" d="M173.41,67.34l-.33,0h-.31a1.21,1.21,0,0,1,.53.52,1.48,1.48,0,0,1,.21.76,1.3,1.3,0,0,1-.43,1.07,1.65,1.65,0,0,1-1.12.35h-2.29v-.54h2.07a2.26,2.26,0,0,0,.54,0,1.07,1.07,0,0,0,.41-.16A.91.91,0,0,0,173,69a1.19,1.19,0,0,0,.09-.49,1,1,0,0,0-.09-.42.93.93,0,0,0-.26-.37,1.27,1.27,0,0,0-.46-.25,1.81,1.81,0,0,0-.65-.1h-1.92v-.55H173l.43,0Z"/><path class="cls-2" d="M173,73.19V72.13h-2.19a1.51,1.51,0,0,0-.34,0,.53.53,0,0,0-.21.12.42.42,0,0,0-.11.18.85.85,0,0,0,0,.23,1,1,0,0,0,0,.23,1.17,1.17,0,0,0,.09.24l-.48,0a2.63,2.63,0,0,1-.08-.3,1.79,1.79,0,0,1,0-.34,1.22,1.22,0,0,1,0-.32,1,1,0,0,1,.15-.31.83.83,0,0,1,.31-.24,1.15,1.15,0,0,1,.5-.09H173v-.77h.45v.77h1.06v.54h-1.06v1.06Z"/><path class="cls-3" d="M30.18,96.13H27.32V90.05H25.23V87.64h7v2.41H30.18Z"/><path class="cls-3" d="M31.91,89.82h2.66v.72h0a1.67,1.67,0,0,1,.61-.63,1.72,1.72,0,0,1,.94-.26,1.93,1.93,0,0,1,.53.06l-.21,2.36a1.33,1.33,0,0,0-.3-.06l-.29,0a1.21,1.21,0,0,0-.87.32,1,1,0,0,0-.32.76v3.06H31.91Z"/><path class="cls-3" d="M40.38,92.13a.49.49,0,0,0-.2-.43.89.89,0,0,0-.52-.14,1.81,1.81,0,0,0-.73.16,3.23,3.23,0,0,0-.6.38L37,90.73a4.12,4.12,0,0,1,1.36-.85,4.62,4.62,0,0,1,1.64-.3,3.9,3.9,0,0,1,1.48.25,2.26,2.26,0,0,1,.94.7,2.77,2.77,0,0,1,.47,1A5,5,0,0,1,43,92.81v3.32H40.47v-.5h0a1.37,1.37,0,0,1-.68.52,2.75,2.75,0,0,1-.87.15,2.54,2.54,0,0,1-.76-.11,2,2,0,0,1-.71-.34,1.91,1.91,0,0,1-.52-.63,1.94,1.94,0,0,1-.2-1,1.62,1.62,0,0,1,.34-1.07,2.37,2.37,0,0,1,.87-.65,4.64,4.64,0,0,1,1.18-.32,11.28,11.28,0,0,1,1.28-.08Zm0,1.39a3,3,0,0,0-1,.13.49.49,0,0,0-.37.49.38.38,0,0,0,.06.22.54.54,0,0,0,.15.15,1,1,0,0,0,.21.09l.21,0a.83.83,0,0,0,.64-.25.9.9,0,0,0,.24-.65v-.21Z"/><path class="cls-3" d="M44.09,88a1.29,1.29,0,0,1,.11-.55,1.57,1.57,0,0,1,.31-.45,1.41,1.41,0,0,1,.46-.3,1.39,1.39,0,0,1,.57-.12,1.25,1.25,0,0,1,.54.12,1.37,1.37,0,0,1,.45.3,1.57,1.57,0,0,1,.31.45A1.29,1.29,0,0,1,47,88a1.33,1.33,0,0,1-.11.56,1.4,1.4,0,0,1-.31.44,1.51,1.51,0,0,1-.45.29,1.24,1.24,0,0,1-.54.11,1.38,1.38,0,0,1-.57-.11,1.56,1.56,0,0,1-.46-.29,1.4,1.4,0,0,1-.31-.44A1.33,1.33,0,0,1,44.09,88Zm0,1.82h2.78v6.31H44.13Z"/><path class="cls-3" d="M48.19,87.06H51v9.07H48.19Z"/><path class="cls-3" d="M57.45,94.13a2.09,2.09,0,0,1-.26,1.07,2.07,2.07,0,0,1-.69.69,3,3,0,0,1-.9.37,3.86,3.86,0,0,1-.93.11,5.43,5.43,0,0,1-1.6-.23,4.22,4.22,0,0,1-1.36-.67l1.35-1.57a2.25,2.25,0,0,0,.68.43,1.91,1.91,0,0,0,.75.16.76.76,0,0,0,.27,0,.22.22,0,0,0,.13-.2c0-.11-.08-.19-.23-.25a5.94,5.94,0,0,0-.77-.22,4,4,0,0,1-.61-.21,1.93,1.93,0,0,1-.57-.37,1.81,1.81,0,0,1-.43-.55,1.77,1.77,0,0,1-.17-.79,1.89,1.89,0,0,1,.27-1,2.23,2.23,0,0,1,.69-.71,2.8,2.8,0,0,1,.9-.39,3.4,3.4,0,0,1,.92-.13,4.86,4.86,0,0,1,1.45.22,4.5,4.5,0,0,1,1.29.6L56.34,92a2.87,2.87,0,0,0-.61-.3,1.73,1.73,0,0,0-.62-.11,1,1,0,0,0-.33,0,.21.21,0,0,0-.13.21c0,.08.05.14.15.19a4.14,4.14,0,0,0,.68.17,3.83,3.83,0,0,1,.73.22,2.55,2.55,0,0,1,.63.39,1.59,1.59,0,0,1,.45.57A1.77,1.77,0,0,1,57.45,94.13Z"/><path class="cls-3" d="M67.05,95.52a3,3,0,0,1-1,.56,4.06,4.06,0,0,1-1.43.22,5.55,5.55,0,0,1-1.21-.14,3.33,3.33,0,0,1-1.07-.46,2.52,2.52,0,0,1-.78-.81,2.35,2.35,0,0,1-.3-1.22,2.14,2.14,0,0,1,.14-.76,2,2,0,0,1,.35-.63,2.57,2.57,0,0,1,.53-.51,2.76,2.76,0,0,1,.65-.36,2.92,2.92,0,0,1-.59-.75,2.07,2.07,0,0,1-.24-1,1.89,1.89,0,0,1,.29-1.06,2.19,2.19,0,0,1,.72-.7,3.35,3.35,0,0,1,1-.39,5,5,0,0,1,1.06-.12,4.7,4.7,0,0,1,1,.12,3,3,0,0,1,.94.41,2.23,2.23,0,0,1,.69.71,2.08,2.08,0,0,1,.26,1.06,1.85,1.85,0,0,1-.13.72,2.12,2.12,0,0,1-.36.57,3.35,3.35,0,0,1-.52.47,6.65,6.65,0,0,1-.63.39l.59.55.66-1h3l-2,2.49L71,96.13H67.64Zm-2.59-2.66a.89.89,0,0,0-.32.21.64.64,0,0,0-.15.45.56.56,0,0,0,.08.3.52.52,0,0,0,.19.2.68.68,0,0,0,.26.12,1,1,0,0,0,.28,0,1.42,1.42,0,0,0,.42-.07.77.77,0,0,0,.3-.18Zm.75-3.63a.51.51,0,0,0-.42.17.6.6,0,0,0-.14.39.68.68,0,0,0,.12.38,1.5,1.5,0,0,0,.33.34,1.31,1.31,0,0,0,.45-.3.58.58,0,0,0,.18-.42.58.58,0,0,0-.13-.4A.5.5,0,0,0,65.21,89.23Z"/><path class="cls-3" d="M78.63,96.13H75.78V90.05H73.69V87.64h7v2.41H78.63Z"/><path class="cls-3" d="M87.05,96.13h-2.7v-.69h0a2,2,0,0,1-.71.6,2.17,2.17,0,0,1-1.09.26,2.36,2.36,0,0,1-1.1-.23,2,2,0,0,1-.69-.61,2.53,2.53,0,0,1-.36-.86,4.29,4.29,0,0,1-.1-.94V89.82H83v3.34a1.12,1.12,0,0,0,.15.67.53.53,0,0,0,.45.19.55.55,0,0,0,.46-.22,1.06,1.06,0,0,0,.17-.64V89.82h2.78Z"/><path class="cls-3" d="M88.32,89.82H91v.7h0a2.06,2.06,0,0,1,.71-.61,2.28,2.28,0,0,1,1.09-.26,2.23,2.23,0,0,1,1.09.24,2,2,0,0,1,.69.62,2.15,2.15,0,0,1,.36.85,4.22,4.22,0,0,1,.11.93v3.84H92.31V92.77a1.12,1.12,0,0,0-.15-.67.53.53,0,0,0-.45-.19.55.55,0,0,0-.45.22,1.06,1.06,0,0,0-.17.64v3.36H88.32Z"/><path class="cls-3" d="M102.9,93c0,.1,0,.21,0,.32a2.13,2.13,0,0,1,0,.27H98.63a.48.48,0,0,0,.11.3,1.07,1.07,0,0,0,.25.22,1,1,0,0,0,.34.15,1.58,1.58,0,0,0,.38,0,1.38,1.38,0,0,0,.64-.14,1.27,1.27,0,0,0,.39-.31l2,1A3,3,0,0,1,101.49,96a4.18,4.18,0,0,1-1.86.39,4.3,4.3,0,0,1-1.33-.21,3.54,3.54,0,0,1-1.14-.64,3.07,3.07,0,0,1-.8-1.07,3.38,3.38,0,0,1-.3-1.47,3.55,3.55,0,0,1,.27-1.41,3.32,3.32,0,0,1,.75-1.07,3.43,3.43,0,0,1,1.12-.68,3.91,3.91,0,0,1,1.37-.24,3.51,3.51,0,0,1,1.36.26,3,3,0,0,1,1,.72,3.24,3.24,0,0,1,.68,1.1A3.85,3.85,0,0,1,102.9,93Zm-2.39-.9a.67.67,0,0,0-.25-.55.92.92,0,0,0-.66-.22,1,1,0,0,0-1,.77Z"/><path class="cls-3" d="M109,94.13a2,2,0,0,1-.27,1.07,2.14,2.14,0,0,1-.68.69,3.22,3.22,0,0,1-.9.37,3.92,3.92,0,0,1-.93.11,5.5,5.5,0,0,1-1.61-.23,4.43,4.43,0,0,1-1.36-.67l1.36-1.57a2.25,2.25,0,0,0,.68.43,1.91,1.91,0,0,0,.75.16.75.75,0,0,0,.26,0,.2.2,0,0,0,.13-.2c0-.11-.07-.19-.22-.25a7.13,7.13,0,0,0-.77-.22,4.12,4.12,0,0,1-.62-.21,2.22,2.22,0,0,1-.57-.37,1.72,1.72,0,0,1-.59-1.34,1.89,1.89,0,0,1,.27-1,2.31,2.31,0,0,1,.68-.71,3,3,0,0,1,.9-.39,3.46,3.46,0,0,1,.92-.13,4.81,4.81,0,0,1,1.45.22,4.56,4.56,0,0,1,1.3.6L107.91,92a2.65,2.65,0,0,0-.61-.3,1.68,1.68,0,0,0-.61-.11,1.06,1.06,0,0,0-.34,0,.22.22,0,0,0-.13.21c0,.08,0,.14.15.19a4.72,4.72,0,0,0,.69.17,3.73,3.73,0,0,1,.72.22,2.23,2.23,0,0,1,.63.39,1.59,1.59,0,0,1,.45.57A1.77,1.77,0,0,1,109,94.13Z"/><path class="cls-3" d="M29.13,106.53a.48.48,0,0,0-.19-.43.94.94,0,0,0-.52-.14,1.81,1.81,0,0,0-.73.16,3.32,3.32,0,0,0-.61.38l-1.38-1.37a4.17,4.17,0,0,1,1.37-.85,4.57,4.57,0,0,1,1.63-.3,4,4,0,0,1,1.49.25,2.29,2.29,0,0,1,.93.7,2.64,2.64,0,0,1,.48,1,5.57,5.57,0,0,1,.14,1.25v3.32H29.23V110h0a1.36,1.36,0,0,1-.69.52,2.64,2.64,0,0,1-.86.15,2.54,2.54,0,0,1-.76-.11,2,2,0,0,1-.71-.34,1.8,1.8,0,0,1-.52-.63,1.94,1.94,0,0,1-.21-1,1.67,1.67,0,0,1,.34-1.07,2.37,2.37,0,0,1,.87-.65,4.72,4.72,0,0,1,1.19-.32,11.1,11.1,0,0,1,1.27-.08Zm0,1.39a3,3,0,0,0-1,.13.5.5,0,0,0-.37.49.38.38,0,0,0,.06.22.46.46,0,0,0,.16.15.67.67,0,0,0,.21.09.76.76,0,0,0,.21,0,.82.82,0,0,0,.63-.25.9.9,0,0,0,.24-.65v-.21Z"/><path class="cls-3" d="M38.82,110.77a5.77,5.77,0,0,1-1-.09,4.54,4.54,0,0,1-1-.26A6.85,6.85,0,0,1,36,110a5,5,0,0,1-.73-.52L37,107.61a3,3,0,0,0,.8.57,2.21,2.21,0,0,0,1,.25,1,1,0,0,0,.43-.08.3.3,0,0,0,.2-.31.37.37,0,0,0-.06-.21,1.07,1.07,0,0,0-.24-.17,3.09,3.09,0,0,0-.46-.2c-.2-.07-.44-.16-.74-.25a7.59,7.59,0,0,1-.83-.34,3.51,3.51,0,0,1-.7-.49,2.14,2.14,0,0,1-.48-.69,2.37,2.37,0,0,1-.18-1,2.6,2.6,0,0,1,.32-1.35,2.9,2.9,0,0,1,.83-.91,3.74,3.74,0,0,1,1.15-.51,5.42,5.42,0,0,1,1.26-.15,5,5,0,0,1,1.71.32,4.61,4.61,0,0,1,1.53.94l-1.78,1.81a1.89,1.89,0,0,0-.7-.55,2,2,0,0,0-.76-.18,1.15,1.15,0,0,0-.5.09.31.31,0,0,0,0,.58c.13.06.35.14.64.24s.63.21,1,.34a3.75,3.75,0,0,1,.93.49,2.81,2.81,0,0,1,.71.75,2.12,2.12,0,0,1,.27,1.11,2.85,2.85,0,0,1-.3,1.34,3,3,0,0,1-.81.94,3.39,3.39,0,0,1-1.12.57A4.58,4.58,0,0,1,38.82,110.77Z"/><path class="cls-3" d="M47.72,110.7a2.67,2.67,0,0,1-.92-.17,2,2,0,0,1-.75-.49h0v3.37H43.28v-9.19h2.61v.64h0a2.1,2.1,0,0,1,.84-.6,2.45,2.45,0,0,1,1-.21,2.65,2.65,0,0,1,1.25.29,2.77,2.77,0,0,1,.9.76,3.27,3.27,0,0,1,.54,1.05,3.86,3.86,0,0,1,.19,1.2,4,4,0,0,1-.19,1.23,3.27,3.27,0,0,1-.54,1.07,2.65,2.65,0,0,1-.9.76A2.47,2.47,0,0,1,47.72,110.7Zm.3-3.35a1.12,1.12,0,0,0-.26-.73,1,1,0,0,0-.77-.31,1,1,0,0,0-.79.31,1.05,1.05,0,0,0-.29.73,1.09,1.09,0,0,0,.29.76,1,1,0,0,0,.79.31,1,1,0,0,0,.77-.3A1.18,1.18,0,0,0,48,107.35Z"/><path class="cls-3" d="M58.56,107.35a3.4,3.4,0,0,1-.3,1.46,3.14,3.14,0,0,1-.79,1.07,3.55,3.55,0,0,1-1.15.67,4.38,4.38,0,0,1-2.74,0,3.61,3.61,0,0,1-1.14-.67,3.28,3.28,0,0,1-.79-1.07,3.56,3.56,0,0,1-.29-1.46,3.45,3.45,0,0,1,.29-1.43,3.24,3.24,0,0,1,.79-1.06,3.41,3.41,0,0,1,1.14-.66,4.38,4.38,0,0,1,2.74,0,3.36,3.36,0,0,1,1.15.66,3.1,3.1,0,0,1,.79,1.06A3.3,3.3,0,0,1,58.56,107.35Zm-3.61-1a1,1,0,0,0-.74.31,1.13,1.13,0,0,0,0,1.49,1,1,0,0,0,.75.31,1,1,0,0,0,.74-.31,1.1,1.1,0,0,0,0-1.49A1,1,0,0,0,55,106.32Z"/><path class="cls-3" d="M62.33,110.7a2.81,2.81,0,0,1-1.89-.54,2.17,2.17,0,0,1-.61-1.7V106.2h-.89v-2h.88v-1.41h2.69v1.41h1.36v2H62.51v1.68a.78.78,0,0,0,.19.62.84.84,0,0,0,.55.16l.28,0,.22,0v1.9a2.59,2.59,0,0,1-.6.15A5.46,5.46,0,0,1,62.33,110.7Z"/><path class="cls-3" d="M64.59,102.4a1.3,1.3,0,0,1,.12-.55,1.39,1.39,0,0,1,.31-.45,1.31,1.31,0,0,1,.46-.3A1.34,1.34,0,0,1,66,101a1.19,1.19,0,0,1,.54.12,1.52,1.52,0,0,1,.46.3,1.57,1.57,0,0,1,.31.45,1.46,1.46,0,0,1,.11.55,1.51,1.51,0,0,1-.11.56,1.4,1.4,0,0,1-.31.44,1.7,1.7,0,0,1-.46.29,1.19,1.19,0,0,1-.54.11,1.33,1.33,0,0,1-.56-.11,1.44,1.44,0,0,1-.46-.29,1.25,1.25,0,0,1-.31-.44A1.34,1.34,0,0,1,64.59,102.4Zm0,1.82h2.77v6.31H64.64Z"/><path class="cls-3" d="M72.93,103.28a1.33,1.33,0,0,0-.28,0,.6.6,0,0,0-.57.25,1.15,1.15,0,0,0-.17.64v.08h1.34v2H71.91v4.33H69.14V106.2H68.06v-2h1.08v-.14a4.66,4.66,0,0,1,.14-1.13,2.31,2.31,0,0,1,.48-1,2.17,2.17,0,0,1,.91-.66,3.73,3.73,0,0,1,1.44-.24c.18,0,.39,0,.64,0a3,3,0,0,1,.62.14l-.18,2.08A1.6,1.6,0,0,0,72.93,103.28Z"/><path class="cls-3" d="M75.61,110.28l-2.56-6.06h3.07l.94,3.33h0l.83-3.33h3l-2.59,6.7a5.71,5.71,0,0,1-.52,1,3,3,0,0,1-.67.78,2.72,2.72,0,0,1-.9.5,4.1,4.1,0,0,1-1.22.16h-.45l-.43-.05-.39-.06a1.48,1.48,0,0,1-.3-.07l.34-2.29a2.58,2.58,0,0,0,.38.1,2,2,0,0,0,.4,0,1.06,1.06,0,0,0,.68-.18,1.12,1.12,0,0,0,.33-.47Z"/><path class="cls-3" d="M86.75,102h3l3.31,8.49H90l-.45-1.24h-2.7l-.42,1.24h-3Zm1.47,3-.69,2.1h1.38Z"/><path class="cls-3" d="M96.54,107.8v2.73H93.69V102h3.65a5.38,5.38,0,0,1,1.27.14,3.19,3.19,0,0,1,1.12.46,2.49,2.49,0,0,1,.79.88,2.81,2.81,0,0,1,.3,1.37,2.93,2.93,0,0,1-.29,1.35,2.63,2.63,0,0,1-.78.9,3.26,3.26,0,0,1-1.12.5,5.07,5.07,0,0,1-1.29.16Zm0-3.54v1.37h.6a1.12,1.12,0,0,0,.59-.17.57.57,0,0,0,.27-.54.62.62,0,0,0-.07-.33.48.48,0,0,0-.2-.2.85.85,0,0,0-.28-.1,1.63,1.63,0,0,0-.31,0Z"/><path class="cls-3" d="M101.9,102h2.88v8.49H101.9Z"/><path class="cls-3" d="M113.65,110.7a2.67,2.67,0,0,1-.92-.17A1.92,1.92,0,0,1,112,110h0v3.37h-2.75v-9.19h2.6v.64h0a2.1,2.1,0,0,1,.84-.6,2.41,2.41,0,0,1,1-.21,2.58,2.58,0,0,1,1.24.29,2.8,2.8,0,0,1,.91.76,3.27,3.27,0,0,1,.54,1.05,3.86,3.86,0,0,1,.19,1.2,4,4,0,0,1-.19,1.23,3.27,3.27,0,0,1-.54,1.07,2.75,2.75,0,0,1-.9.76A2.47,2.47,0,0,1,113.65,110.7Zm.3-3.35a1.12,1.12,0,0,0-.26-.73,1,1,0,0,0-.77-.31,1,1,0,0,0-.79.31,1.05,1.05,0,0,0-.29.73,1.09,1.09,0,0,0,.29.76,1,1,0,0,0,.79.31,1,1,0,0,0,.77-.3A1.18,1.18,0,0,0,114,107.35Z"/><path class="cls-3" d="M117.54,104.22h2.66v.72h0a1.57,1.57,0,0,1,.6-.63,1.72,1.72,0,0,1,.94-.26,1.88,1.88,0,0,1,.53.06l-.22,2.36a1.14,1.14,0,0,0-.29-.06l-.29,0a1.21,1.21,0,0,0-.87.32,1,1,0,0,0-.32.76v3.06h-2.77Z"/><path class="cls-3" d="M129.61,107.35a3.4,3.4,0,0,1-.3,1.46,3.14,3.14,0,0,1-.79,1.07,3.55,3.55,0,0,1-1.15.67,4.38,4.38,0,0,1-2.74,0,3.61,3.61,0,0,1-1.14-.67,3.28,3.28,0,0,1-.79-1.07,3.56,3.56,0,0,1-.29-1.46,3.45,3.45,0,0,1,.29-1.43,3.24,3.24,0,0,1,.79-1.06,3.41,3.41,0,0,1,1.14-.66,4.38,4.38,0,0,1,2.74,0,3.36,3.36,0,0,1,1.15.66,3.1,3.1,0,0,1,.79,1.06A3.3,3.3,0,0,1,129.61,107.35Zm-3.61-1a1,1,0,0,0-.74.31,1.13,1.13,0,0,0,0,1.49,1,1,0,0,0,.75.31,1,1,0,0,0,.74-.31,1.1,1.1,0,0,0,0-1.49A1,1,0,0,0,126,106.32Z"/><path class="cls-3" d="M133.5,110.39a4.85,4.85,0,0,1-.13,1.16,2.36,2.36,0,0,1-.45,1,2.32,2.32,0,0,1-.88.66,3.47,3.47,0,0,1-1.39.24l-.57,0a3.54,3.54,0,0,1-.58-.11l.15-2.26a1.14,1.14,0,0,0,.24,0h.2a.58.58,0,0,0,.47-.17.85.85,0,0,0,.17-.59v-6.09h2.77Zm-2.82-8a1.29,1.29,0,0,1,.11-.55,1.57,1.57,0,0,1,.31-.45,1.45,1.45,0,0,1,.47-.3,1.3,1.3,0,0,1,1.09,0,1.41,1.41,0,0,1,.77.75,1.29,1.29,0,0,1,.11.55,1.33,1.33,0,0,1-.11.56,1.25,1.25,0,0,1-.31.44,1.56,1.56,0,0,1-.46.29,1.24,1.24,0,0,1-.54.11,1.26,1.26,0,0,1-.55-.11,1.61,1.61,0,0,1-.47-.29,1.4,1.4,0,0,1-.31-.44A1.33,1.33,0,0,1,130.68,102.4Z"/><path class="cls-3" d="M141.37,107.44c0,.1,0,.21,0,.32a2.13,2.13,0,0,1,0,.27H137.1a.48.48,0,0,0,.11.3,1.07,1.07,0,0,0,.25.22,1,1,0,0,0,.34.15,1.58,1.58,0,0,0,.38,0,1.38,1.38,0,0,0,.64-.14,1.27,1.27,0,0,0,.39-.31l2,1a3,3,0,0,1-1.22,1.08,4.18,4.18,0,0,1-1.86.39,4.3,4.3,0,0,1-1.33-.21,3.54,3.54,0,0,1-1.14-.64,3.07,3.07,0,0,1-.8-1.07,3.38,3.38,0,0,1-.3-1.47,3.55,3.55,0,0,1,.27-1.41,3.32,3.32,0,0,1,.75-1.07,3.43,3.43,0,0,1,1.12-.68A3.91,3.91,0,0,1,138,104a3.51,3.51,0,0,1,1.36.26,3,3,0,0,1,1,.72,3.24,3.24,0,0,1,.68,1.1A3.85,3.85,0,0,1,141.37,107.44Zm-2.39-.9a.67.67,0,0,0-.25-.55.92.92,0,0,0-.66-.22,1,1,0,0,0-1,.77Z"/><path class="cls-3" d="M145.77,110.77a4.32,4.32,0,0,1-1.47-.24,3.4,3.4,0,0,1-1.17-.68,3.19,3.19,0,0,1-.77-1.07,3.46,3.46,0,0,1-.27-1.4,3.37,3.37,0,0,1,.28-1.4,3,3,0,0,1,.79-1.07,3.47,3.47,0,0,1,1.18-.69,4.36,4.36,0,0,1,1.47-.24,3.66,3.66,0,0,1,.65.06,3.5,3.5,0,0,1,.64.15,4.08,4.08,0,0,1,.56.21,2.06,2.06,0,0,1,.44.27l-1.38,2a.94.94,0,0,0-.38-.25,1.2,1.2,0,0,0-.45-.09,1,1,0,0,0-.39.07.94.94,0,0,0-.35.2,1,1,0,0,0-.24.34,1.11,1.11,0,0,0,0,.92,1,1,0,0,0,.24.33,1.31,1.31,0,0,0,.35.19,1.28,1.28,0,0,0,.86,0,1,1,0,0,0,.37-.24l1.39,1.93a3.25,3.25,0,0,1-1,.53A4.16,4.16,0,0,1,145.77,110.77Z"/><path class="cls-3" d="M151.4,110.7a2.76,2.76,0,0,1-1.88-.54,2.17,2.17,0,0,1-.62-1.7V106.2H148v-2h.87v-1.41h2.69v1.41H153v2h-1.37v1.68a.78.78,0,0,0,.2.62.81.81,0,0,0,.54.16l.28,0,.23,0v1.9a2.85,2.85,0,0,1-.61.15A5.36,5.36,0,0,1,151.4,110.7Z"/><path class="cls-4" d="M147.25,174.3a18.42,18.42,0,0,1-4.4-5.85,19.87,19.87,0,0,1-1.76-9.25,24.83,24.83,0,0,1,.53-4.92"/><path class="cls-4" d="M136.52,159.85c-1.56,2.42-2.54,6.76-.41,8.93a4.43,4.43,0,0,0,4.06,1.22,4.37,4.37,0,0,0,2.44-1.62,3.66,3.66,0,0,0,4.87-3.25c.05-.78-.23-1.18-2.43-4.47a21.32,21.32,0,0,1-2.44-4.06,12.15,12.15,0,0,1-.81-3.25c-.72.94-1.83,2.36-3.25,4.06C136.86,159.44,136.84,159.34,136.52,159.85Z"/><path class="cls-4" d="M141.39,169.49s-6.09-1.29-6.5-3.84"/><path class="cls-4" d="M141.75,165.5s-5.34-1.57-5.9-4.42"/><line class="cls-4" x1="141.09" y1="160.89" x2="138.55" y2="157.41"/><path class="cls-4" d="M141.39,163.84s3.21-2.23,3.43-3.52"/><path class="cls-4" d="M142.16,166.78s2.56-.5,4.35-3.92"/><path class="cls-4" d="M158.76,167.92a8.31,8.31,0,0,0,2.47-4.78,8.68,8.68,0,0,0-2.3-6.9,8.29,8.29,0,0,0-2.65,6.19A8.14,8.14,0,0,0,158.76,167.92Z"/><path class="cls-5" d="M159.58,171.82a49.54,49.54,0,0,1-.65-15.58"/><path class="cls-6" d="M149.65,149.93a8.33,8.33,0,0,0,1.63-5.13,8.7,8.7,0,0,0-3.45-6.4,8.28,8.28,0,0,0-1.56,6.55A8.12,8.12,0,0,0,149.65,149.93Z"/><path class="cls-5" d="M151.13,153.63a49.27,49.27,0,0,1-3.3-15.23"/><path class="cls-4" d="M166.5,149.67a16.53,16.53,0,0,0,2.28-21.5,16.61,16.61,0,0,0-1.92-2.47,17,17,0,0,0-5.44,12.71A16.73,16.73,0,0,0,166.5,149.67Z"/><path class="cls-4" d="M167.23,153.3s-2.55-10.9-.37-27.6"/><line class="cls-4" x1="166.39" y1="147.64" x2="169.72" y2="145.45"/><line class="cls-4" x1="166.14" y1="144.46" x2="171.22" y2="141.68"/><line class="cls-4" x1="166.05" y1="142.74" x2="171.58" y2="139.86"/><line class="cls-4" x1="166.14" y1="139.5" x2="171.74" y2="136.53"/><line class="cls-4" x1="166.05" y1="136.72" x2="171.22" y2="133.87"/><line class="cls-4" x1="166.39" y1="133.12" x2="170.24" y2="130.85"/><line class="cls-4" x1="166.5" y1="128.61" x2="168.68" y2="128.24"/><path class="cls-5" d="M172.65,174.32a9,9,0,0,1-2.16-2.87,9.79,9.79,0,0,1-.87-4.55,12.32,12.32,0,0,1,.26-2.41"/><path class="cls-6" d="M167.37,167.22c-.76,1.19-1.24,3.32-.19,4.39a2.17,2.17,0,0,0,2,.6,2.12,2.12,0,0,0,1.2-.8,1.75,1.75,0,0,0,1.2,0,1.86,1.86,0,0,0,1.19-1.59c0-.38-.11-.58-1.19-2.2a10.57,10.57,0,0,1-1.2-2,5.86,5.86,0,0,1-.4-1.6c-.35.46-.9,1.16-1.6,2C167.54,167,167.54,167,167.37,167.22Z"/><path class="cls-7" d="M170,170s-2.63-.77-2.9-2.17"/><path class="cls-4" d="M170.15,170.63a3.49,3.49,0,0,0,2.13-1.93"/></svg>